<svg width="29" height="29" viewBox="0 0 29 29" fill="none" xmlns="http://www.w3.org/2000/svg">
<path d="M8.72857 13.0494C8.44219 13.0494 8.16224 13.1345 7.92413 13.2938C7.68601 13.4531 7.50042 13.6796 7.39083 13.9445C7.28124 14.2094 7.25256 14.501 7.30843 14.7822C7.3643 15.0635 7.50221 15.3218 7.70471 15.5246C7.90721 15.7274 8.16521 15.8655 8.44609 15.9214C8.72696 15.9774 9.0181 15.9487 9.28268 15.8389C9.54726 15.7292 9.7734 15.5433 9.9325 15.3049C10.0916 15.0665 10.1765 14.7861 10.1765 14.4994C10.1765 14.1148 10.024 13.746 9.75243 13.4741C9.48088 13.2022 9.11259 13.0494 8.72857 13.0494ZM14.5204 13.0494C14.234 13.0494 13.9541 13.1345 13.716 13.2938C13.4778 13.4531 13.2923 13.6796 13.1827 13.9445C13.0731 14.2094 13.0444 14.501 13.1003 14.7822C13.1561 15.0635 13.294 15.3218 13.4965 15.5246C13.699 15.7274 13.957 15.8655 14.2379 15.9214C14.5188 15.9774 14.8099 15.9487 15.0745 15.8389C15.3391 15.7292 15.5652 15.5433 15.7243 15.3049C15.8834 15.0665 15.9684 14.7861 15.9684 14.4994C15.9684 14.1148 15.8158 13.746 15.5443 13.4741C15.2727 13.2022 14.9044 13.0494 14.5204 13.0494ZM20.3122 13.0494C20.0259 13.0494 19.7459 13.1345 19.5078 13.2938C19.2697 13.4531 19.0841 13.6796 18.9745 13.9445C18.8649 14.2094 18.8362 14.501 18.8921 14.7822C18.948 15.0635 19.0859 15.3218 19.2884 15.5246C19.4909 15.7274 19.7489 15.8655 20.0298 15.9214C20.3106 15.9774 20.6018 15.9487 20.8664 15.8389C21.1309 15.7292 21.3571 15.5433 21.5162 15.3049C21.6753 15.0665 21.7602 14.7861 21.7602 14.4994C21.7602 14.1148 21.6077 13.746 21.3361 13.4741C21.0646 13.2022 20.6963 13.0494 20.3122 13.0494ZM14.5204 0C12.6189 0 10.736 0.375037 8.97931 1.1037C7.22256 1.83236 5.62634 2.90037 4.28179 4.24676C1.56634 6.96592 0.0408127 10.6539 0.0408127 14.4994C0.0281544 17.8475 1.18585 21.0944 3.3132 23.6775L0.417282 26.5773C0.216367 26.7812 0.080264 27.0401 0.0261478 27.3214C-0.0279684 27.6027 0.00232672 27.8937 0.113211 28.1578C0.233475 28.4186 0.428437 28.6379 0.673349 28.7876C0.918261 28.9373 1.20208 29.0108 1.48877 28.9987H14.5204C18.3606 28.9987 22.0436 27.4711 24.759 24.752C27.4745 22.0328 29 18.3448 29 14.4994C29 10.6539 27.4745 6.96592 24.759 4.24676C22.0436 1.52761 18.3606 0 14.5204 0ZM14.5204 26.0988H4.97835L6.32496 24.7504C6.46177 24.6161 6.57061 24.456 6.64518 24.2793C6.71974 24.1026 6.75855 23.9128 6.75934 23.721C6.7539 23.3385 6.59777 22.9737 6.32496 22.706C4.42898 20.8095 3.24829 18.3135 2.98407 15.6431C2.71984 12.9726 3.38841 10.2931 4.87588 8.06095C6.36334 5.8288 8.57768 4.18213 11.1416 3.40151C13.7056 2.62089 16.4605 2.7546 18.937 3.77986C21.4135 4.80512 23.4584 6.6585 24.7234 9.02424C25.9883 11.39 26.3949 14.1217 25.874 16.754C25.3531 19.3863 23.9369 21.7564 21.8667 23.4603C19.7964 25.1643 17.2002 26.0967 14.5204 26.0988Z" fill="#E4E5E7"/>
</svg>
