<svg width="25" height="25" viewBox="0 0 25 25" fill="none" xmlns="http://www.w3.org/2000/svg">
    <path d="M24.6944 23.2582L20.3977 19.0573L20.297 18.9041C20.1097 18.7177 19.8537 18.6127 19.5865 18.6127C19.3192 18.6127 19.0632 18.7177 18.8759 18.9041C15.2244 22.2542 9.59768 22.4363 5.72751 19.3296C1.85733 16.223 0.944586 10.7917 3.59461 6.63771C6.24463 2.48371 11.6351 0.896059 16.1911 2.92767C20.747 4.95928 23.0548 9.97974 21.5838 14.6595C21.4778 14.9976 21.5644 15.3652 21.8109 15.624C22.0574 15.8827 22.4264 15.9932 22.7788 15.9139C23.1312 15.8345 23.4136 15.5774 23.5195 15.2393C25.278 9.6858 22.6222 3.70944 17.2701 1.17632C11.9181 -1.3568 5.47605 0.31353 2.11132 5.10677C-1.25341 9.90001 -0.531026 16.3777 3.81116 20.3494C8.15335 24.3211 14.8122 24.5949 19.4802 20.9936L23.2846 24.7131C23.6775 25.0956 24.3127 25.0956 24.7056 24.7131C25.0981 24.3253 25.0981 23.7007 24.7056 23.3129L24.6944 23.2582Z" fill="#98A5C1"/>
</svg>
