<svg width="38" height="25" viewBox="0 0 38 25" fill="none" xmlns="http://www.w3.org/2000/svg">
<path d="M12.2337 12.1422L7 14.8322L1.76633 12.1422C1.58935 12.0513 1.38741 12.0023 1.18111 12.0001C0.974803 11.9979 0.771511 12.0426 0.591959 12.1297C0.412407 12.2169 0.263019 12.3432 0.159028 12.496C0.0550374 12.6487 0.000162993 12.8224 0 12.9992V16.9992C0.0001592 17.1719 0.052465 17.3415 0.151826 17.4917C0.251188 17.6419 0.39422 17.7675 0.567 17.8562L6.40033 20.8562C6.58152 20.9493 6.78878 20.9984 7 20.9984C7.21122 20.9984 7.41848 20.9493 7.59967 20.8562L13.433 17.8562C13.6058 17.7675 13.7488 17.6419 13.8482 17.4917C13.9475 17.3415 13.9998 17.1719 14 16.9992V12.9992C13.9998 12.8224 13.945 12.6487 13.841 12.496C13.737 12.3432 13.5876 12.2169 13.408 12.1297C13.2285 12.0426 13.0252 11.9979 12.8189 12.0001C12.6126 12.0023 12.4106 12.0513 12.2337 12.1422Z" fill="#D2396E"/>
<path d="M12.2337 3.14221L7 5.83221L1.76633 3.14221C1.58935 3.05131 1.38741 3.00227 1.18111 3.00008C0.974803 2.99789 0.771511 3.04263 0.591959 3.12975C0.412407 3.21686 0.263019 3.34323 0.159028 3.49598C0.0550374 3.64872 0.000162993 3.82236 0 3.99921V7.99921C0.0001592 8.17186 0.052465 8.34153 0.151826 8.49171C0.251188 8.6419 0.39422 8.76747 0.567 8.85621L6.40033 11.8562C6.58152 11.9493 6.78878 11.9984 7 11.9984C7.21122 11.9984 7.41848 11.9493 7.59967 11.8562L13.433 8.85621C13.6058 8.76747 13.7488 8.6419 13.8482 8.49171C13.9475 8.34153 13.9998 8.17186 14 7.99921V3.99921C13.9998 3.82236 13.945 3.64872 13.841 3.49598C13.737 3.34323 13.5876 3.21686 13.408 3.12975C13.2285 3.04263 13.0252 2.99789 12.8189 3.00008C12.6126 3.00227 12.4106 3.05131 12.2337 3.14221Z" fill="#D2396E"/>
<path d="M12.2337 12.1422L7 14.8322L1.76633 12.1422C1.58935 12.0513 1.38741 12.0023 1.18111 12.0001C0.974803 11.9979 0.771511 12.0426 0.591959 12.1297C0.412407 12.2169 0.263019 12.3432 0.159028 12.496C0.0550374 12.6487 0.000162993 12.8224 0 12.9992V16.9992C0.0001592 17.1719 0.052465 17.3415 0.151826 17.4917C0.251188 17.6419 0.39422 17.7675 0.567 17.8562L6.40033 20.8562C6.58152 20.9493 6.78878 20.9984 7 20.9984C7.21122 20.9984 7.41848 20.9493 7.59967 20.8562L13.433 17.8562C13.6058 17.7675 13.7488 17.6419 13.8482 17.4917C13.9475 17.3415 13.9998 17.1719 14 16.9992V12.9992C13.9998 12.8224 13.945 12.6487 13.841 12.496C13.737 12.3432 13.5876 12.2169 13.408 12.1297C13.2285 12.0426 13.0252 11.9979 12.8189 12.0001C12.6126 12.0023 12.4106 12.0513 12.2337 12.1422Z" stroke="#D2396E"/>
<path d="M12.2337 3.14221L7 5.83221L1.76633 3.14221C1.58935 3.05131 1.38741 3.00227 1.18111 3.00008C0.974803 2.99789 0.771511 3.04263 0.591959 3.12975C0.412407 3.21686 0.263019 3.34323 0.159028 3.49598C0.0550374 3.64872 0.000162993 3.82236 0 3.99921V7.99921C0.0001592 8.17186 0.052465 8.34153 0.151826 8.49171C0.251188 8.6419 0.39422 8.76747 0.567 8.85621L6.40033 11.8562C6.58152 11.9493 6.78878 11.9984 7 11.9984C7.21122 11.9984 7.41848 11.9493 7.59967 11.8562L13.433 8.85621C13.6058 8.76747 13.7488 8.6419 13.8482 8.49171C13.9475 8.34153 13.9998 8.17186 14 7.99921V3.99921C13.9998 3.82236 13.945 3.64872 13.841 3.49598C13.737 3.34323 13.5876 3.21686 13.408 3.12975C13.2285 3.04263 13.0252 2.99789 12.8189 3.00008C12.6126 3.00227 12.4106 3.05131 12.2337 3.14221Z" stroke="#D2396E"/>
<path d="M21.779 11.8763L27.0098 9.18065L32.2464 11.8651C32.4234 11.9558 32.6254 12.0046 32.8317 12.0066C33.038 12.0085 33.2413 11.9636 33.4207 11.8763C33.6002 11.789 33.7494 11.6624 33.8533 11.5096C33.9571 11.3567 34.0118 11.183 34.0118 11.0062L34.0075 7.00617C34.0071 6.83352 33.9547 6.6639 33.8551 6.51383C33.7556 6.36375 33.6124 6.23833 33.4396 6.14978L27.603 3.15602C27.4217 3.06315 27.2144 3.01422 27.0032 3.01445C26.792 3.01467 26.5848 3.06405 26.4037 3.1573L20.5736 6.16354C20.4009 6.25246 20.258 6.37819 20.1588 6.52848C20.0596 6.67876 20.0075 6.84849 20.0075 7.02114L20.0118 11.0211C20.0121 11.198 20.0672 11.3716 20.1713 11.5242C20.2755 11.6768 20.425 11.803 20.6047 11.89C20.7843 11.9769 20.9876 12.0214 21.194 12.019C21.4003 12.0166 21.6021 11.9673 21.779 11.8763Z" fill="#D2396E"/>
<path d="M21.7886 20.8762L27.0194 18.1806L32.256 20.8651C32.4331 20.9558 32.635 21.0046 32.8414 21.0066C33.0477 21.0085 33.2509 20.9636 33.4304 20.8763C33.6098 20.7889 33.7591 20.6624 33.8629 20.5096C33.9667 20.3567 34.0214 20.183 34.0214 20.0062L34.0171 16.0062C34.0168 15.8335 33.9643 15.6639 33.8648 15.5138C33.7652 15.3637 33.6221 15.2383 33.4492 15.1498L27.6127 12.156C27.4314 12.0631 27.2241 12.0142 27.0128 12.0144C26.8016 12.0147 26.5944 12.064 26.4133 12.1573L20.5832 15.1635C20.4105 15.2525 20.2676 15.3782 20.1684 15.5285C20.0692 15.6788 20.0171 15.8485 20.0171 16.0211L20.0214 20.0211C20.0218 20.198 20.0768 20.3716 20.181 20.5242C20.2851 20.6768 20.4346 20.803 20.6143 20.89C20.7939 20.9769 20.9973 21.0214 21.2036 21.019C21.4099 21.0166 21.6118 20.9673 21.7886 20.8762Z" fill="#D2396E"/>
<path d="M21.779 11.8763L27.0098 9.18065L32.2464 11.8651C32.4234 11.9558 32.6254 12.0046 32.8317 12.0066C33.038 12.0085 33.2413 11.9636 33.4207 11.8763C33.6002 11.789 33.7494 11.6624 33.8533 11.5096C33.9571 11.3567 34.0118 11.183 34.0118 11.0062L34.0075 7.00617C34.0071 6.83352 33.9547 6.6639 33.8551 6.51383C33.7556 6.36375 33.6124 6.23833 33.4396 6.14978L27.603 3.15602C27.4217 3.06315 27.2144 3.01422 27.0032 3.01445C26.792 3.01467 26.5848 3.06405 26.4037 3.1573L20.5736 6.16354C20.4009 6.25246 20.258 6.37819 20.1588 6.52848C20.0596 6.67876 20.0075 6.84849 20.0075 7.02114L20.0118 11.0211C20.0121 11.198 20.0672 11.3716 20.1713 11.5242C20.2755 11.6768 20.425 11.803 20.6047 11.89C20.7843 11.9769 20.9876 12.0214 21.194 12.019C21.4003 12.0166 21.6021 11.9673 21.779 11.8763Z" stroke="#D2396E"/>
<path d="M21.7886 20.8762L27.0194 18.1806L32.256 20.8651C32.4331 20.9558 32.635 21.0046 32.8414 21.0066C33.0477 21.0085 33.2509 20.9636 33.4304 20.8763C33.6098 20.7889 33.7591 20.6624 33.8629 20.5096C33.9667 20.3567 34.0214 20.183 34.0214 20.0062L34.0171 16.0062C34.0168 15.8335 33.9643 15.6639 33.8648 15.5138C33.7652 15.3637 33.6221 15.2383 33.4492 15.1498L27.6127 12.156C27.4314 12.0631 27.2241 12.0142 27.0128 12.0144C26.8016 12.0147 26.5944 12.064 26.4133 12.1573L20.5832 15.1635C20.4105 15.2525 20.2676 15.3782 20.1684 15.5285C20.0692 15.6788 20.0171 15.8485 20.0171 16.0211L20.0214 20.0211C20.0218 20.198 20.0768 20.3716 20.181 20.5242C20.2851 20.6768 20.4346 20.803 20.6143 20.89C20.7939 20.9769 20.9973 21.0214 21.2036 21.019C21.4099 21.0166 21.6118 20.9673 21.7886 20.8762Z" stroke="#D2396E"/>
</svg>
