<svg width="113" height="100" viewBox="0 0 113 100" fill="none" xmlns="http://www.w3.org/2000/svg">
<path d="M65.6025 3.51404L89.9502 21.5311L89.9502 55.4906L81.3657 55.4906L81.3657 24.1518L68.8586 14.8157L69.0806 14.5427L69.2286 14.2151L69.4506 13.5599L69.8206 12.3042L69.8947 10.9939L69.8947 10.2841L69.8206 9.62894L69.4506 8.26401L69.1546 7.55424L68.9326 7.11746L68.7846 6.84447L68.6366 6.59879L68.4146 6.2985L68.1186 5.91632L67.8965 5.64334L67.6005 5.31575L67.4525 5.15196L66.9345 4.66059L66.7125 4.4422L65.6025 3.51404Z" fill="#CBFC01"/>
<path d="M58.4242 20.6652L58.5722 20.6476L58.6647 20.6365L58.7572 20.6253L58.9422 20.5996L59.3123 20.5472L59.7563 20.4697L60.2003 20.3823L60.8664 20.2273L61.6804 19.9958L62.7905 19.6038L63.8266 19.1484L64.7147 18.6767L65.3807 18.2639L65.7507 18.0106L66.1208 17.7365L66.4168 17.5007L66.6388 17.3107L66.8608 17.1171V63.0249L58.4242 77.4386V20.6652Z" fill="#CBFC01"/>
<path d="M94.2427 55.4906L68.0448 71.2146L79.5897 55.4906H94.2427Z" fill="#CBFC01"/>
<path d="M74.1873 33.597L81.3658 43.0424V55.4905H79.5897L80.4777 54.5078L74.1873 46.3182L66.8607 55.8181V43.0424L74.1873 33.597Z" fill="#CBFC01"/>
<mask id="path-5-inside-1_861_618" fill="white">
<path d="M46 76.5596C46 73.7981 48.2386 71.5596 51 71.5596H62C64.7614 71.5596 67 73.7981 67 76.5596V94.9999C67 97.7614 64.7614 99.9999 62 99.9999H51C48.2386 99.9999 46 97.7614 46 94.9999V76.5596Z"/>
</mask>
<path d="M46 71.5596H67H46ZM72 94.9999C72 100.523 67.5228 105 62 105H51C45.4772 105 41 100.523 41 94.9999H51H62H72ZM51 105C45.4772 105 41 100.523 41 94.9999V81.5596C41 76.0367 45.4772 71.5596 51 71.5596C51 71.5596 51 73.7981 51 76.5596V94.9999V105ZM62 71.5596C67.5228 71.5596 72 76.0367 72 81.5596V94.9999C72 100.523 67.5228 105 62 105V94.9999V76.5596C62 73.7981 62 71.5596 62 71.5596Z" fill="#CBFC01" mask="url(#path-5-inside-1_861_618)"/>
</svg>
