<svg width="113" height="100" viewBox="0 0 113 100" fill="none" xmlns="http://www.w3.org/2000/svg">
<path d="M65.6025 3.51404L89.9502 21.5311L89.9502 55.4906L81.3657 55.4906L81.3657 24.1518L68.8586 14.8157L69.0806 14.5427L69.2286 14.2151L69.4506 13.5599L69.8206 12.3042L69.8947 10.9939L69.8947 10.2841L69.8206 9.62894L69.4506 8.26401L69.1546 7.55424L68.9326 7.11746L68.7846 6.84447L68.6366 6.59879L68.4146 6.2985L68.1186 5.91632L67.8965 5.64334L67.6005 5.31575L67.4525 5.15196L66.9345 4.66059L66.7125 4.4422L65.6025 3.51404Z" fill="#CBFC01"/>
<path d="M47.5453 3.29565L23.1977 21.3128L23.1977 55.4906L31.7821 55.4906L31.7821 23.9334L44.2892 14.5973L44.0672 14.3243L43.9192 13.9967L43.6972 13.3416L43.3272 12.0858L43.2532 10.7755L43.2532 10.0657L43.3272 9.41055L43.6972 8.04562L43.9932 7.33585L44.2152 6.89908L44.3632 6.62609L44.5112 6.3804L44.7332 6.08012L45.0293 5.69794L45.2513 5.42495L45.5473 5.09737L45.6953 4.93358L46.2134 4.4422L46.4354 4.22381L47.5453 3.29565Z" fill="#CBFC01"/>
<path d="M58.4242 20.6652L58.5722 20.6476L58.6647 20.6365L58.7572 20.6253L58.9422 20.5996L59.3123 20.5472L59.7563 20.4697L60.2003 20.3823L60.8664 20.2273L61.6804 19.9958L62.7905 19.6038L63.8266 19.1484L64.7147 18.6767L65.3807 18.2639L65.7507 18.0106L66.1208 17.7365L66.4168 17.5007L66.6388 17.3107L66.8608 17.1171V63.0249L58.4242 77.4386V20.6652Z" fill="#CBFC01"/>
<path d="M54.7239 20.6806L54.2798 20.6313L53.8358 20.5702L52.9477 20.414L52.2817 20.2634L51.5416 20.0635L50.9496 19.8757L50.2796 19.6322L49.225 19.1736L48.3211 18.6975L47.6431 18.2804L47.2665 18.0238L46.8899 17.7453L46.5886 17.5051L46.2873 17.2489V63.025L54.7239 77.4387V20.6806Z" fill="#CBFC01"/>
<path d="M94.2427 55.4906L68.0448 71.2146L79.5897 55.4906H94.2427Z" fill="#CBFC01"/>
<path d="M18.9051 55.4906L45.103 71.2146L33.5582 55.4906H18.9051Z" fill="#CBFC01"/>
<path d="M74.1873 33.597L81.3658 43.0424V55.4905H79.5897L80.4777 54.5078L74.1873 46.3182L66.8607 55.8181V43.0424L74.1873 33.597Z" fill="#CBFC01"/>
<path d="M38.9607 33.597L31.7822 43.0424V55.4905H33.5583L32.6702 54.5078L38.9607 46.3182L46.2872 55.8181V43.0424L38.9607 33.597Z" fill="#CBFC01"/>
<mask id="path-9-inside-1_861_606" fill="white">
<path d="M46 76.5596C46 73.7981 48.2386 71.5596 51 71.5596H62C64.7614 71.5596 67 73.7981 67 76.5596V94.9999C67 97.7614 64.7614 99.9999 62 99.9999H51C48.2386 99.9999 46 97.7614 46 94.9999V76.5596Z"/>
</mask>
<path d="M46 71.5596H67H46ZM72 94.9999C72 100.523 67.5228 105 62 105H51C45.4772 105 41 100.523 41 94.9999H51H62H72ZM51 105C45.4772 105 41 100.523 41 94.9999V81.5596C41 76.0367 45.4772 71.5596 51 71.5596C51 71.5596 51 73.7981 51 76.5596V94.9999V105ZM62 71.5596C67.5228 71.5596 72 76.0367 72 81.5596V94.9999C72 100.523 67.5228 105 62 105V94.9999V76.5596C62 73.7981 62 71.5596 62 71.5596Z" fill="#CBFC01" mask="url(#path-9-inside-1_861_606)"/>
</svg>
