<svg width="623" height="554" viewBox="0 0 623 554" fill="none" xmlns="http://www.w3.org/2000/svg">
<g filter="url(#filter0_ddd_4559_261)">
<path d="M208.446 190.738L216.358 150.209L101.035 127.695C96.0897 153.026 111.03 171.72 125.58 174.561L208.446 190.738Z" fill="url(#paint0_linear_4559_261)"/>
<path d="M207.272 191.528L215.185 150.999L102.806 129.06C97.8611 154.391 112.802 173.085 127.351 175.926L207.272 191.528Z" stroke="url(#paint1_linear_4559_261)" stroke-width="2.29412"/>
<path d="M209.208 228.585L217.12 188.056L121.427 169.375C116.481 194.705 131.422 213.4 145.972 216.24L209.208 228.585Z" fill="url(#paint2_linear_4559_261)"/>
<path d="M209.208 228.585L217.12 188.056L121.427 169.375C116.481 194.705 131.422 213.4 145.972 216.24L209.208 228.585Z" stroke="url(#paint3_linear_4559_261)" stroke-width="2.29412"/>
<path d="M235.949 271.205L243.861 230.676L148.168 211.994C143.222 237.324 158.163 256.019 172.713 258.859L235.949 271.205Z" fill="url(#paint4_linear_4559_261)"/>
<path d="M235.949 271.205L243.861 230.676L148.168 211.994C143.222 237.324 158.163 256.019 172.713 258.859L235.949 271.205Z" stroke="url(#paint5_linear_4559_261)" stroke-width="2.29412"/>
<g filter="url(#filter1_d_4559_261)">
<path d="M214.172 372.716V284H265.672V402.5L215.74 375.352C214.774 374.827 214.172 373.816 214.172 372.716Z" fill="#ECD8BA"/>
<path d="M214.172 372.716V284H265.672V402.5L215.74 375.352C214.774 374.827 214.172 373.816 214.172 372.716Z" stroke="url(#paint6_linear_4559_261)"/>
</g>
<path fill-rule="evenodd" clip-rule="evenodd" d="M219.842 370.139V329H219.173V370.697L219.452 370.743C220.377 370.897 221.405 371.444 222.245 372.244C223.084 373.043 223.705 374.066 223.859 375.144L223.885 375.323L250.953 388V342.726H250.283V386.948L224.492 374.868C224.272 373.676 223.58 372.592 222.707 371.76C221.869 370.962 220.839 370.372 219.842 370.139Z" fill="url(#paint7_linear_4559_261)"/>
<path fill-rule="evenodd" clip-rule="evenodd" d="M250.246 384.5C250.967 383.28 251.009 381.55 250.953 380.432L250.285 380.466C250.34 381.578 250.281 383.126 249.67 384.159C249.374 384.66 248.955 385.028 248.351 385.18C247.738 385.334 246.889 385.274 245.722 384.82L245.48 385.444C246.721 385.927 247.718 386.029 248.514 385.829C249.321 385.626 249.876 385.125 250.246 384.5Z" fill="#D4B195"/>
<g filter="url(#filter2_d_4559_261)">
<path d="M408.673 372.716V284H357.173V402.5L407.106 375.352C408.071 374.827 408.673 373.816 408.673 372.716Z" fill="#ECD8BA"/>
<path d="M408.673 372.716V284H357.173V402.5L407.106 375.352C408.071 374.827 408.673 373.816 408.673 372.716Z" stroke="url(#paint8_linear_4559_261)"/>
</g>
<path fill-rule="evenodd" clip-rule="evenodd" d="M403.004 370.139V329H403.673V370.697L403.393 370.743C402.468 370.897 401.44 371.444 400.6 372.244C399.761 373.043 399.14 374.066 398.986 375.144L398.96 375.323L371.893 388V342.726H372.562V386.948L398.353 374.868C398.573 373.676 399.265 372.592 400.138 371.76C400.976 370.962 402.006 370.372 403.004 370.139Z" fill="url(#paint9_linear_4559_261)"/>
<path fill-rule="evenodd" clip-rule="evenodd" d="M372.599 384.5C371.878 383.28 371.836 381.55 371.892 380.432L372.561 380.466C372.505 381.578 372.564 383.126 373.175 384.159C373.471 384.66 373.89 385.028 374.494 385.18C375.108 385.334 375.956 385.274 377.123 384.82L377.365 385.444C376.124 385.927 375.127 386.029 374.331 385.829C373.524 385.626 372.969 385.125 372.599 384.5Z" fill="#D4B195"/>
<path d="M413.711 192.043L405.799 151.514L521.122 129C526.067 154.331 511.126 173.025 496.577 175.866L413.711 192.043Z" fill="url(#paint10_linear_4559_261)"/>
<path d="M414.884 192.833L406.972 152.304L519.35 130.365C524.296 155.696 509.355 174.39 494.805 177.23L414.884 192.833Z" stroke="url(#paint11_linear_4559_261)" stroke-width="2.29412"/>
<path d="M412.949 229.89L405.037 189.361L500.73 170.679C505.675 196.01 490.735 214.704 476.185 217.545L412.949 229.89Z" fill="url(#paint12_linear_4559_261)"/>
<path d="M412.949 229.89L405.037 189.361L500.73 170.679C505.675 196.01 490.735 214.704 476.185 217.545L412.949 229.89Z" stroke="url(#paint13_linear_4559_261)" stroke-width="2.29412"/>
<path d="M386.208 272.509L378.296 231.98L473.989 213.299C478.934 238.629 463.994 257.324 449.444 260.164L386.208 272.509Z" fill="url(#paint14_linear_4559_261)"/>
<path d="M386.208 272.509L378.296 231.98L473.989 213.299C478.934 238.629 463.994 257.324 449.444 260.164L386.208 272.509Z" stroke="url(#paint15_linear_4559_261)" stroke-width="2.29412"/>
<g filter="url(#filter3_d_4559_261)">
<path d="M256.172 279H366.172V418.686L311.784 446.333C310.96 446.752 309.986 446.75 309.164 446.329L256.172 419.166V279Z" fill="url(#paint16_linear_4559_261)"/>
<path d="M256.172 279H366.172V418.686L311.784 446.333C310.96 446.752 309.986 446.75 309.164 446.329L256.172 419.166V279Z" stroke="url(#paint17_linear_4559_261)" stroke-width="2"/>
</g>
<path fill-rule="evenodd" clip-rule="evenodd" d="M327.172 437.511L311.784 445.333C310.96 445.752 309.986 445.75 309.164 445.329L293.172 437.132V335H327.172V437.511Z" fill="url(#paint18_linear_4559_261)"/>
<path fill-rule="evenodd" clip-rule="evenodd" d="M262.172 354H263.766V416.52L310.778 440.821L358.579 416.517V354H360.172V417.084L310.771 442L262.172 417.081V354Z" fill="url(#paint19_linear_4559_261)"/>
<path fill-rule="evenodd" clip-rule="evenodd" d="M311.104 419V437.143H310.235V419H311.104Z" fill="url(#paint20_linear_4559_261)"/>
<path fill-rule="evenodd" clip-rule="evenodd" d="M308.065 430.704C306.335 432.7 304.227 433.144 302.776 432.902L302.919 432.045C304.075 432.237 305.879 431.899 307.408 430.135C308.944 428.364 310.236 425.114 310.236 419.435H311.105C311.105 425.229 309.789 428.716 308.065 430.704Z" fill="url(#paint21_linear_4559_261)"/>
<path fill-rule="evenodd" clip-rule="evenodd" d="M313.276 430.704C315.006 432.7 317.114 433.144 318.565 432.902L318.422 432.045C317.266 432.237 315.462 431.899 313.933 430.135C312.397 428.364 311.105 425.114 311.105 419.435H310.236C310.236 425.229 311.552 428.716 313.276 430.704Z" fill="url(#paint22_linear_4559_261)"/>
<path fill-rule="evenodd" clip-rule="evenodd" d="M310.488 437.538L300.672 432.039L302.846 432.039L310.669 436.665L318.492 432H320.41L310.849 437.539C310.734 437.591 310.602 437.591 310.488 437.538Z" fill="url(#paint23_linear_4559_261)"/>
<g filter="url(#filter4_d_4559_261)">
<path d="M303.049 96.4192L195.049 155.17C189.578 158.146 186.173 163.875 186.173 170.103L186.172 304.402C186.172 310.63 189.578 316.359 195.049 319.335L303.049 378.086C308.114 380.841 314.231 380.841 319.296 378.086L427.296 319.335C432.767 316.359 436.172 310.629 436.172 304.402L436.172 170.103C436.172 163.875 432.767 158.146 427.296 155.17L319.296 96.4192C314.231 93.6637 308.114 93.6637 303.049 96.4192Z" fill="url(#paint24_linear_4559_261)"/>
<path d="M302.93 118.403L214.015 166.771C208.565 169.736 205.173 175.444 205.173 181.648L205.172 292.352C205.172 298.556 208.565 304.264 214.015 307.229L302.93 355.597C307.976 358.343 314.069 358.343 319.116 355.597L408.03 307.229C413.48 304.264 416.873 298.556 416.873 292.352L416.873 181.648C416.873 175.444 413.48 169.736 408.03 166.771L319.116 118.403C314.069 115.657 307.976 115.657 302.93 118.403Z" fill="url(#paint25_linear_4559_261)"/>
<g filter="url(#filter5_f_4559_261)">
<path d="M302.93 118.403L214.015 166.771C208.565 169.736 205.173 175.444 205.173 181.648L205.172 292.352C205.172 298.556 208.565 304.264 214.015 307.229L302.93 355.597C307.976 358.343 314.069 358.343 319.116 355.597L408.03 307.229C413.48 304.264 416.873 298.556 416.873 292.352L416.873 181.648C416.873 175.444 413.48 169.736 408.03 166.771L319.116 118.403C314.069 115.657 307.976 115.657 302.93 118.403Z" stroke="url(#paint26_linear_4559_261)"/>
</g>
<g opacity="0.5">
<mask id="mask0_4559_261" style="mask-type:alpha" maskUnits="userSpaceOnUse" x="214" y="126" width="196" height="223">
<path d="M303.98 128.181L222.589 172.417C217.402 175.236 214.173 180.667 214.173 186.571L214.172 287.819C214.172 293.723 217.402 299.154 222.589 301.974L303.98 346.209C308.777 348.816 314.568 348.816 319.365 346.209L400.756 301.974C405.943 299.154 409.172 293.723 409.172 287.819L409.172 186.571C409.172 180.667 405.943 175.236 400.756 172.417L319.365 128.181C314.568 125.574 308.777 125.574 303.98 128.181Z" fill="#A6D3DE"/>
</mask>
<g mask="url(#mask0_4559_261)">
<path d="M303.98 128.181L222.589 172.417C217.402 175.236 214.173 180.667 214.173 186.571L214.172 287.819C214.172 293.723 217.402 299.154 222.589 301.974L303.98 346.209C308.777 348.816 314.568 348.816 319.365 346.209L400.756 301.974C405.943 299.154 409.172 293.723 409.172 287.819L409.172 186.571C409.172 180.667 405.943 175.236 400.756 172.417L319.365 128.181C314.568 125.574 308.777 125.574 303.98 128.181Z" fill="url(#paint27_radial_4559_261)"/>
<path opacity="0.5" d="M295.373 354.862L291.5 119.517H331.845L327.972 354.862H295.373Z" fill="url(#paint28_linear_4559_261)"/>
<path opacity="0.5" d="M294.854 352.775L173.828 150.896L208.767 130.724L323.086 336.475L294.854 352.775Z" fill="url(#paint29_linear_4559_261)"/>
<path opacity="0.5" d="M291.492 336.475L405.81 130.724L440.75 150.897L319.723 352.775L291.492 336.475Z" fill="url(#paint30_linear_4559_261)"/>
<rect x="214.172" y="223.741" width="195" height="126.638" fill="url(#paint31_linear_4559_261)"/>
<g filter="url(#filter6_i_4559_261)">
<path d="M303.98 128.181L222.589 172.417C217.402 175.236 214.173 180.667 214.173 186.571L214.172 287.819C214.172 293.723 217.402 299.154 222.589 301.974L303.98 346.209C308.777 348.816 314.568 348.816 319.365 346.209L400.755 301.974C405.943 299.154 409.172 293.723 409.172 287.819L409.172 186.571C409.172 180.667 405.943 175.236 400.756 172.417L319.365 128.181C314.568 125.574 308.777 125.574 303.98 128.181Z" fill="#6052B4" fill-opacity="0.01"/>
</g>
</g>
</g>
</g>
</g>
<g opacity="0.3" filter="url(#filter7_f_4559_261)">
<circle cx="239.615" cy="77.6147" r="7.61466" fill="#FFEBC4"/>
</g>
<g filter="url(#filter8_f_4559_261)">
<circle cx="207.538" cy="353.538" r="2.53822" fill="#FFEBC4"/>
</g>
<g opacity="0.3" filter="url(#filter9_f_4559_261)">
<circle cx="228.538" cy="121.538" r="2.53822" fill="#FFEBC4"/>
</g>
<g filter="url(#filter10_f_4559_261)">
<circle cx="442.538" cy="270.538" r="2.53822" fill="#FFEBC4"/>
</g>
<g filter="url(#filter11_f_4559_261)">
<circle cx="136.461" cy="248.134" r="8.46073" fill="#FFDDAA"/>
</g>
<g opacity="0.6" filter="url(#filter12_f_4559_261)">
<circle cx="522.769" cy="211.769" r="6.76858" fill="#FFDDAA"/>
</g>
<g opacity="0.8" filter="url(#filter13_f_4559_261)">
<circle cx="242.769" cy="432.769" r="6.76858" fill="#FFDDAA"/>
</g>
<path d="M302.049 205.456C317.277 224.394 317.776 249.27 298.839 264.498C279.901 279.726 254.153 275.152 238.925 256.215C223.697 237.277 220.977 206.447 239.914 191.219C258.852 175.991 286.821 186.519 302.049 205.456Z" fill="url(#paint32_linear_4559_261)"/>
<path d="M302.048 205.458C317.276 224.395 317.995 249.095 299.408 264.041C280.821 278.987 255.321 274.214 240.094 255.276C224.866 236.339 221.897 205.708 240.484 190.762C259.071 175.817 286.82 186.52 302.048 205.458Z" fill="url(#paint33_linear_4559_261)"/>
<path d="M293.538 260.388C292.807 259.541 292.913 258.259 293.773 257.544L307.556 246.075C309.165 244.737 311.488 246.454 310.681 248.384L306.394 258.632C306.233 259.017 306.196 259.443 306.289 259.85L309.267 272.848C309.733 274.881 307.166 276.18 305.804 274.601L293.538 260.388Z" fill="url(#paint34_linear_4559_261)"/>
<path d="M295.212 259.358C294.542 258.483 293.29 258.315 292.412 258.982L278.022 269.935C276.347 271.21 277.525 273.874 279.595 273.493L291.396 271.325C291.816 271.248 292.249 271.307 292.632 271.494L303.945 277C305.842 277.923 307.691 275.661 306.409 273.986L295.212 259.358Z" fill="url(#paint35_linear_4559_261)"/>
<rect x="293.042" y="265.27" width="10" height="45.063" rx="3" transform="rotate(-38.8031 293.042 265.27)" fill="url(#paint36_linear_4559_261)"/>
<path d="M379.489 251.569C365.197 271.222 341.319 278.215 321.665 263.923C302.012 249.631 299.688 223.583 313.98 203.93C328.272 184.276 357.315 173.582 376.969 187.874C396.622 202.166 393.781 231.915 379.489 251.569Z" fill="url(#paint37_linear_4559_261)"/>
<path d="M379.488 251.568C365.196 271.222 341.545 278.38 322.256 264.353C302.966 250.325 300.9 224.465 315.192 204.811C329.484 185.158 358.27 174.276 377.559 188.304C396.848 202.331 393.78 231.915 379.488 251.568Z" fill="url(#paint38_linear_4559_261)"/>
<path d="M324.245 257.73C324.871 256.803 326.136 256.57 327.051 257.213L341.728 267.514C343.44 268.716 342.391 271.408 340.316 271.134L329.304 269.679C328.89 269.624 328.469 269.7 328.101 269.897L316.336 276.173C314.496 277.154 312.57 275.017 313.737 273.289L324.245 257.73Z" fill="url(#paint39_linear_4559_261)"/>
<path d="M325.677 259.078C326.346 258.202 326.181 256.95 325.307 256.278L310.97 245.255C309.301 243.972 307.038 245.806 307.947 247.705L313.128 258.527C313.312 258.912 313.369 259.346 313.289 259.765L310.935 272.124C310.541 274.197 313.208 275.389 314.489 273.713L325.677 259.078Z" fill="url(#paint40_linear_4559_261)"/>
<rect x="319.404" y="258.531" width="10" height="45.032" rx="3" transform="rotate(36.025 319.404 258.531)" fill="url(#paint41_linear_4559_261)"/>
<circle cx="307.573" cy="188.466" r="9" fill="url(#paint42_linear_4559_261)"/>
<g opacity="0.5" filter="url(#filter14_f_4559_261)">
<ellipse cx="310.563" cy="64.0422" rx="13.7042" ry="13.2253" fill="url(#paint43_radial_4559_261)"/>
</g>
<path fill-rule="evenodd" clip-rule="evenodd" d="M308.279 450.514C418.024 450.514 506.99 364.657 506.99 258.748C506.99 152.838 418.024 66.9812 308.279 66.9812C198.534 66.9812 109.568 152.838 109.568 258.748C109.568 364.657 198.534 450.514 308.279 450.514ZM308.279 454.922C420.547 454.922 511.558 367.092 511.558 258.748C511.558 150.403 420.547 62.5728 308.279 62.5728C196.011 62.5728 105 150.403 105 258.748C105 367.092 196.011 454.922 308.279 454.922Z" fill="url(#paint44_linear_4559_261)"/>
<g filter="url(#filter15_f_4559_261)">
<path d="M310.563 42L312.522 62.0165L331.881 64.0421L312.522 66.0678L310.563 86.0842L308.604 66.0678L289.246 64.0421L308.604 62.0165L310.563 42Z" fill="white"/>
</g>
<defs>
<filter id="filter0_ddd_4559_261" x="0.0693359" y="0.474952" width="622.018" height="553.294" filterUnits="userSpaceOnUse" color-interpolation-filters="sRGB">
<feFlood flood-opacity="0" result="BackgroundImageFix"/>
<feColorMatrix in="SourceAlpha" type="matrix" values="0 0 0 0 0 0 0 0 0 0 0 0 0 0 0 0 0 0 127 0" result="hardAlpha"/>
<feOffset/>
<feGaussianBlur stdDeviation="40"/>
<feColorMatrix type="matrix" values="0 0 0 0 0.823529 0 0 0 0 0.658824 0 0 0 0 0.423529 0 0 0 1 0"/>
<feBlend mode="normal" in2="BackgroundImageFix" result="effect1_dropShadow_4559_261"/>
<feColorMatrix in="SourceAlpha" type="matrix" values="0 0 0 0 0 0 0 0 0 0 0 0 0 0 0 0 0 0 127 0" result="hardAlpha"/>
<feOffset dy="6.12241"/>
<feGaussianBlur stdDeviation="50"/>
<feColorMatrix type="matrix" values="0 0 0 0 1 0 0 0 0 0.722667 0 0 0 0 0.466667 0 0 0 0.9 0"/>
<feBlend mode="normal" in2="effect1_dropShadow_4559_261" result="effect2_dropShadow_4559_261"/>
<feColorMatrix in="SourceAlpha" type="matrix" values="0 0 0 0 0 0 0 0 0 0 0 0 0 0 0 0 0 0 127 0" result="hardAlpha"/>
<feOffset dy="4"/>
<feGaussianBlur stdDeviation="2"/>
<feComposite in2="hardAlpha" operator="out"/>
<feColorMatrix type="matrix" values="0 0 0 0 0 0 0 0 0 0 0 0 0 0 0 0 0 0 0.25 0"/>
<feBlend mode="normal" in2="effect2_dropShadow_4559_261" result="effect3_dropShadow_4559_261"/>
<feBlend mode="normal" in="SourceGraphic" in2="effect3_dropShadow_4559_261" result="shape"/>
</filter>
<filter id="filter1_d_4559_261" x="205.672" y="275.5" width="68.5" height="135.841" filterUnits="userSpaceOnUse" color-interpolation-filters="sRGB">
<feFlood flood-opacity="0" result="BackgroundImageFix"/>
<feColorMatrix in="SourceAlpha" type="matrix" values="0 0 0 0 0 0 0 0 0 0 0 0 0 0 0 0 0 0 127 0" result="hardAlpha"/>
<feOffset/>
<feGaussianBlur stdDeviation="4"/>
<feColorMatrix type="matrix" values="0 0 0 0 0.7 0 0 0 0 0.561568 0 0 0 0 0.32375 0 0 0 0.78 0"/>
<feBlend mode="normal" in2="BackgroundImageFix" result="effect1_dropShadow_4559_261"/>
<feBlend mode="normal" in="SourceGraphic" in2="effect1_dropShadow_4559_261" result="shape"/>
</filter>
<filter id="filter2_d_4559_261" x="348.673" y="275.5" width="68.5" height="135.841" filterUnits="userSpaceOnUse" color-interpolation-filters="sRGB">
<feFlood flood-opacity="0" result="BackgroundImageFix"/>
<feColorMatrix in="SourceAlpha" type="matrix" values="0 0 0 0 0 0 0 0 0 0 0 0 0 0 0 0 0 0 127 0" result="hardAlpha"/>
<feOffset/>
<feGaussianBlur stdDeviation="4"/>
<feColorMatrix type="matrix" values="0 0 0 0 0.7 0 0 0 0 0.561568 0 0 0 0 0.32375 0 0 0 0.78 0"/>
<feBlend mode="normal" in2="BackgroundImageFix" result="effect1_dropShadow_4559_261"/>
<feBlend mode="normal" in="SourceGraphic" in2="effect1_dropShadow_4559_261" result="shape"/>
</filter>
<filter id="filter3_d_4559_261" x="247.172" y="270" width="128" height="185.646" filterUnits="userSpaceOnUse" color-interpolation-filters="sRGB">
<feFlood flood-opacity="0" result="BackgroundImageFix"/>
<feColorMatrix in="SourceAlpha" type="matrix" values="0 0 0 0 0 0 0 0 0 0 0 0 0 0 0 0 0 0 127 0" result="hardAlpha"/>
<feOffset/>
<feGaussianBlur stdDeviation="4"/>
<feColorMatrix type="matrix" values="0 0 0 0 0.7 0 0 0 0 0.561568 0 0 0 0 0.32375 0 0 0 0.78 0"/>
<feBlend mode="normal" in2="BackgroundImageFix" result="effect1_dropShadow_4559_261"/>
<feBlend mode="normal" in="SourceGraphic" in2="effect1_dropShadow_4559_261" result="shape"/>
</filter>
<filter id="filter4_d_4559_261" x="180.172" y="94.3525" width="262" height="299.8" filterUnits="userSpaceOnUse" color-interpolation-filters="sRGB">
<feFlood flood-opacity="0" result="BackgroundImageFix"/>
<feColorMatrix in="SourceAlpha" type="matrix" values="0 0 0 0 0 0 0 0 0 0 0 0 0 0 0 0 0 0 127 0" result="hardAlpha"/>
<feOffset dy="8"/>
<feGaussianBlur stdDeviation="3"/>
<feColorMatrix type="matrix" values="0 0 0 0 0.4375 0 0 0 0 0.287401 0 0 0 0 0.111198 0 0 0 0.6 0"/>
<feBlend mode="normal" in2="BackgroundImageFix" result="effect1_dropShadow_4559_261"/>
<feBlend mode="normal" in="SourceGraphic" in2="effect1_dropShadow_4559_261" result="shape"/>
</filter>
<filter id="filter5_f_4559_261" x="204.372" y="115.544" width="213.3" height="242.913" filterUnits="userSpaceOnUse" color-interpolation-filters="sRGB">
<feFlood flood-opacity="0" result="BackgroundImageFix"/>
<feBlend mode="normal" in="SourceGraphic" in2="BackgroundImageFix" result="shape"/>
<feGaussianBlur stdDeviation="0.15" result="effect1_foregroundBlur_4559_261"/>
</filter>
<filter id="filter6_i_4559_261" x="214.172" y="126.226" width="195" height="221.939" filterUnits="userSpaceOnUse" color-interpolation-filters="sRGB">
<feFlood flood-opacity="0" result="BackgroundImageFix"/>
<feBlend mode="normal" in="SourceGraphic" in2="BackgroundImageFix" result="shape"/>
<feColorMatrix in="SourceAlpha" type="matrix" values="0 0 0 0 0 0 0 0 0 0 0 0 0 0 0 0 0 0 127 0" result="hardAlpha"/>
<feOffset/>
<feGaussianBlur stdDeviation="6.72414"/>
<feComposite in2="hardAlpha" operator="arithmetic" k2="-1" k3="1"/>
<feColorMatrix type="matrix" values="0 0 0 0 0.458333 0 0 0 0 0.256743 0 0 0 0 0.0706597 0 0 0 1 0"/>
<feBlend mode="normal" in2="shape" result="effect1_innerShadow_4559_261"/>
</filter>
<filter id="filter7_f_4559_261" x="211.694" y="49.6942" width="55.8409" height="55.841" filterUnits="userSpaceOnUse" color-interpolation-filters="sRGB">
<feFlood flood-opacity="0" result="BackgroundImageFix"/>
<feBlend mode="normal" in="SourceGraphic" in2="BackgroundImageFix" result="shape"/>
<feGaussianBlur stdDeviation="10.1529" result="effect1_foregroundBlur_4559_261"/>
</filter>
<filter id="filter8_f_4559_261" x="203.308" y="349.308" width="8.46071" height="8.46095" filterUnits="userSpaceOnUse" color-interpolation-filters="sRGB">
<feFlood flood-opacity="0" result="BackgroundImageFix"/>
<feBlend mode="normal" in="SourceGraphic" in2="BackgroundImageFix" result="shape"/>
<feGaussianBlur stdDeviation="0.846073" result="effect1_foregroundBlur_4559_261"/>
</filter>
<filter id="filter9_f_4559_261" x="218" y="111" width="21.0764" height="21.0767" filterUnits="userSpaceOnUse" color-interpolation-filters="sRGB">
<feFlood flood-opacity="0" result="BackgroundImageFix"/>
<feBlend mode="normal" in="SourceGraphic" in2="BackgroundImageFix" result="shape"/>
<feGaussianBlur stdDeviation="4" result="effect1_foregroundBlur_4559_261"/>
</filter>
<filter id="filter10_f_4559_261" x="434" y="262" width="17.0764" height="17.0767" filterUnits="userSpaceOnUse" color-interpolation-filters="sRGB">
<feFlood flood-opacity="0" result="BackgroundImageFix"/>
<feBlend mode="normal" in="SourceGraphic" in2="BackgroundImageFix" result="shape"/>
<feGaussianBlur stdDeviation="3" result="effect1_foregroundBlur_4559_261"/>
</filter>
<filter id="filter11_f_4559_261" x="108" y="219.673" width="56.9215" height="56.9214" filterUnits="userSpaceOnUse" color-interpolation-filters="sRGB">
<feFlood flood-opacity="0" result="BackgroundImageFix"/>
<feBlend mode="normal" in="SourceGraphic" in2="BackgroundImageFix" result="shape"/>
<feGaussianBlur stdDeviation="10" result="effect1_foregroundBlur_4559_261"/>
</filter>
<filter id="filter12_f_4559_261" x="499.079" y="188.079" width="47.38" height="47.38" filterUnits="userSpaceOnUse" color-interpolation-filters="sRGB">
<feFlood flood-opacity="0" result="BackgroundImageFix"/>
<feBlend mode="normal" in="SourceGraphic" in2="BackgroundImageFix" result="shape"/>
<feGaussianBlur stdDeviation="8.46073" result="effect1_foregroundBlur_4559_261"/>
</filter>
<filter id="filter13_f_4559_261" x="219.079" y="409.079" width="47.38" height="47.38" filterUnits="userSpaceOnUse" color-interpolation-filters="sRGB">
<feFlood flood-opacity="0" result="BackgroundImageFix"/>
<feBlend mode="normal" in="SourceGraphic" in2="BackgroundImageFix" result="shape"/>
<feGaussianBlur stdDeviation="8.46073" result="effect1_foregroundBlur_4559_261"/>
</filter>
<filter id="filter14_f_4559_261" x="294.057" y="48.0154" width="33.0114" height="32.0537" filterUnits="userSpaceOnUse" color-interpolation-filters="sRGB">
<feFlood flood-opacity="0" result="BackgroundImageFix"/>
<feBlend mode="normal" in="SourceGraphic" in2="BackgroundImageFix" result="shape"/>
<feGaussianBlur stdDeviation="1.40075" result="effect1_foregroundBlur_4559_261"/>
</filter>
<filter id="filter15_f_4559_261" x="288.405" y="41.1596" width="44.3163" height="45.7654" filterUnits="userSpaceOnUse" color-interpolation-filters="sRGB">
<feFlood flood-opacity="0" result="BackgroundImageFix"/>
<feBlend mode="normal" in="SourceGraphic" in2="BackgroundImageFix" result="shape"/>
<feGaussianBlur stdDeviation="0.420225" result="effect1_foregroundBlur_4559_261"/>
</filter>
<linearGradient id="paint0_linear_4559_261" x1="151.665" y1="179.653" x2="124.031" y2="138.613" gradientUnits="userSpaceOnUse">
<stop stop-color="#D2A86B"/>
<stop offset="0.875" stop-color="#FFF5DE"/>
</linearGradient>
<linearGradient id="paint1_linear_4559_261" x1="108.435" y1="130.159" x2="133.171" y2="177.062" gradientUnits="userSpaceOnUse">
<stop stop-color="#FFF5DE"/>
<stop offset="0.378992" stop-color="#F5E3C4"/>
<stop offset="0.480868" stop-color="#E6CA9E"/>
<stop offset="0.729174" stop-color="#D2A86B"/>
</linearGradient>
<linearGradient id="paint2_linear_4559_261" x1="172.056" y1="221.333" x2="144.423" y2="180.292" gradientUnits="userSpaceOnUse">
<stop stop-color="#E0C08E"/>
<stop offset="0.875" stop-color="#FFF5DE"/>
</linearGradient>
<linearGradient id="paint3_linear_4559_261" x1="127.056" y1="170.474" x2="182.673" y2="236.5" gradientUnits="userSpaceOnUse">
<stop stop-color="#FFF5DE"/>
<stop offset="0.378992" stop-color="#FFF5DE"/>
<stop offset="0.480868" stop-color="#EAD2A9"/>
<stop offset="0.729174" stop-color="#D2A86B"/>
</linearGradient>
<linearGradient id="paint4_linear_4559_261" x1="198.797" y1="263.952" x2="171.164" y2="222.911" gradientUnits="userSpaceOnUse">
<stop stop-color="#E0C08E"/>
<stop offset="0.875" stop-color="#FFF5DE"/>
</linearGradient>
<linearGradient id="paint5_linear_4559_261" x1="153.797" y1="213.093" x2="209.414" y2="279.119" gradientUnits="userSpaceOnUse">
<stop stop-color="#FFF5DE"/>
<stop offset="0.378992" stop-color="#FFF5DE"/>
<stop offset="0.480868" stop-color="#EAD2A9"/>
<stop offset="0.729174" stop-color="#D2A86B"/>
</linearGradient>
<linearGradient id="paint6_linear_4559_261" x1="214.172" y1="364.763" x2="267.046" y2="376.71" gradientUnits="userSpaceOnUse">
<stop stop-color="#8D664F"/>
<stop offset="0.208702" stop-color="#C49F7D"/>
<stop offset="0.648432" stop-color="#FFF1DC"/>
<stop offset="0.827985" stop-color="#B38368"/>
<stop offset="0.971703" stop-color="#8C5F4C"/>
</linearGradient>
<linearGradient id="paint7_linear_4559_261" x1="220.672" y1="363" x2="239.798" y2="357.298" gradientUnits="userSpaceOnUse">
<stop stop-color="#C7A383"/>
<stop offset="0.309893" stop-color="#D5B198"/>
<stop offset="0.523799" stop-color="#CBA68C"/>
<stop offset="0.77229" stop-color="#BB9478"/>
<stop offset="1" stop-color="#D7B49B"/>
</linearGradient>
<linearGradient id="paint8_linear_4559_261" x1="408.673" y1="364.763" x2="355.799" y2="376.71" gradientUnits="userSpaceOnUse">
<stop stop-color="#8D664F"/>
<stop offset="0.208702" stop-color="#C49F7D"/>
<stop offset="0.648432" stop-color="#FFF1DC"/>
<stop offset="0.827985" stop-color="#B38368"/>
<stop offset="0.971703" stop-color="#8C5F4C"/>
</linearGradient>
<linearGradient id="paint9_linear_4559_261" x1="402.173" y1="363" x2="383.047" y2="357.298" gradientUnits="userSpaceOnUse">
<stop stop-color="#C7A383"/>
<stop offset="0.309893" stop-color="#D5B198"/>
<stop offset="0.523799" stop-color="#CBA68C"/>
<stop offset="0.77229" stop-color="#BB9478"/>
<stop offset="1" stop-color="#D7B49B"/>
</linearGradient>
<linearGradient id="paint10_linear_4559_261" x1="470.492" y1="180.958" x2="498.126" y2="139.917" gradientUnits="userSpaceOnUse">
<stop stop-color="#D2A86B"/>
<stop offset="0.875" stop-color="#FFF5DE"/>
</linearGradient>
<linearGradient id="paint11_linear_4559_261" x1="513.721" y1="131.464" x2="488.985" y2="178.367" gradientUnits="userSpaceOnUse">
<stop stop-color="#FFF5DE"/>
<stop offset="0.378992" stop-color="#F5E3C4"/>
<stop offset="0.480868" stop-color="#E6CA9E"/>
<stop offset="0.729174" stop-color="#D2A86B"/>
</linearGradient>
<linearGradient id="paint12_linear_4559_261" x1="450.1" y1="222.637" x2="477.734" y2="181.597" gradientUnits="userSpaceOnUse">
<stop stop-color="#E0C08E"/>
<stop offset="0.875" stop-color="#FFF5DE"/>
</linearGradient>
<linearGradient id="paint13_linear_4559_261" x1="495.101" y1="171.778" x2="439.484" y2="237.804" gradientUnits="userSpaceOnUse">
<stop stop-color="#FFF5DE"/>
<stop offset="0.378992" stop-color="#FFF5DE"/>
<stop offset="0.480868" stop-color="#EAD2A9"/>
<stop offset="0.729174" stop-color="#D2A86B"/>
</linearGradient>
<linearGradient id="paint14_linear_4559_261" x1="423.359" y1="265.256" x2="450.993" y2="224.216" gradientUnits="userSpaceOnUse">
<stop stop-color="#E0C08E"/>
<stop offset="0.875" stop-color="#FFF5DE"/>
</linearGradient>
<linearGradient id="paint15_linear_4559_261" x1="468.36" y1="214.397" x2="412.743" y2="280.423" gradientUnits="userSpaceOnUse">
<stop stop-color="#FFF5DE"/>
<stop offset="0.378992" stop-color="#FFF5DE"/>
<stop offset="0.480868" stop-color="#EAD2A9"/>
<stop offset="0.729174" stop-color="#D2A86B"/>
</linearGradient>
<linearGradient id="paint16_linear_4559_261" x1="311.172" y1="353" x2="311.172" y2="447" gradientUnits="userSpaceOnUse">
<stop stop-color="#B58D70"/>
<stop offset="0.2286" stop-color="#B58D70"/>
<stop offset="0.47675" stop-color="#D8B59B"/>
<stop offset="0.88344" stop-color="#B58D70"/>
<stop offset="1" stop-color="#B58D70"/>
</linearGradient>
<linearGradient id="paint17_linear_4559_261" x1="256.172" y1="393.5" x2="362.545" y2="429.71" gradientUnits="userSpaceOnUse">
<stop stop-color="#8D664F"/>
<stop offset="0.208702" stop-color="#FFF5E6"/>
<stop offset="0.648432" stop-color="#ECD8BA"/>
<stop offset="0.780206" stop-color="#D0A568"/>
<stop offset="0.971703" stop-color="#8C5F4C"/>
</linearGradient>
<linearGradient id="paint18_linear_4559_261" x1="310.172" y1="335" x2="310.172" y2="445.646" gradientUnits="userSpaceOnUse">
<stop stop-color="#DDBFA9"/>
<stop offset="0.22229" stop-color="#DDBFA9"/>
<stop offset="0.669825" stop-color="#EBD4C4"/>
<stop offset="0.898796" stop-color="#DDBFA9"/>
<stop offset="1" stop-color="#DDBFA9"/>
</linearGradient>
<linearGradient id="paint19_linear_4559_261" x1="355.548" y1="406.339" x2="315.42" y2="375.246" gradientUnits="userSpaceOnUse">
<stop stop-color="#ECD8BA"/>
<stop offset="0.309893" stop-color="#EBD3AE"/>
<stop offset="0.523799" stop-color="#E2C69C"/>
<stop offset="0.77229" stop-color="#E3C8A0"/>
<stop offset="1" stop-color="#ECD8BA"/>
</linearGradient>
<linearGradient id="paint20_linear_4559_261" x1="310.67" y1="419" x2="310.67" y2="435.95" gradientUnits="userSpaceOnUse">
<stop stop-color="#FAECD8"/>
<stop offset="0.491891" stop-color="#F9EBD7"/>
<stop offset="1" stop-color="#ECD5B4"/>
</linearGradient>
<linearGradient id="paint21_linear_4559_261" x1="306.94" y1="419.435" x2="306.94" y2="432.962" gradientUnits="userSpaceOnUse">
<stop stop-color="#F9EBD7"/>
<stop offset="0.479167" stop-color="#FAEDD9"/>
<stop offset="1" stop-color="#F8E9D4"/>
</linearGradient>
<linearGradient id="paint22_linear_4559_261" x1="314.401" y1="419.435" x2="314.401" y2="432.962" gradientUnits="userSpaceOnUse">
<stop stop-color="#FAEDD8"/>
<stop offset="0.479167" stop-color="#FAECD8"/>
<stop offset="1" stop-color="#EAD4B2"/>
</linearGradient>
<linearGradient id="paint23_linear_4559_261" x1="309.617" y1="433.907" x2="298.341" y2="435.242" gradientUnits="userSpaceOnUse">
<stop stop-color="#E5CBA6"/>
<stop offset="0.309893" stop-color="#FAEDDA"/>
<stop offset="0.523799" stop-color="#F3E2C9"/>
<stop offset="0.613641" stop-color="#EFDCC0"/>
<stop offset="1" stop-color="#EFDCC0"/>
</linearGradient>
<linearGradient id="paint24_linear_4559_261" x1="258.672" y1="127" x2="371.172" y2="350.5" gradientUnits="userSpaceOnUse">
<stop stop-color="#FFF5DE"/>
<stop offset="1" stop-color="#CFA365"/>
</linearGradient>
<linearGradient id="paint25_linear_4559_261" x1="257.672" y1="145.5" x2="354.672" y2="324.5" gradientUnits="userSpaceOnUse">
<stop stop-color="#D2A86C"/>
<stop offset="1" stop-color="#F8E6C0"/>
</linearGradient>
<linearGradient id="paint26_linear_4559_261" x1="268.172" y1="139" x2="372.672" y2="327" gradientUnits="userSpaceOnUse">
<stop stop-color="#FFF6E7"/>
<stop offset="1" stop-color="#FFF8EC"/>
</linearGradient>
<radialGradient id="paint27_radial_4559_261" cx="0" cy="0" r="1" gradientUnits="userSpaceOnUse" gradientTransform="translate(311.672 237.195) rotate(90) scale(113.195 97.5)">
<stop stop-color="#FFE4BA"/>
<stop offset="1" stop-color="#DEA44D"/>
</radialGradient>
<linearGradient id="paint28_linear_4559_261" x1="311.673" y1="119.517" x2="311.673" y2="354.862" gradientUnits="userSpaceOnUse">
<stop stop-color="white"/>
<stop offset="1" stop-color="#F2EDED" stop-opacity="0"/>
</linearGradient>
<linearGradient id="paint29_linear_4559_261" x1="191.298" y1="140.81" x2="308.97" y2="344.625" gradientUnits="userSpaceOnUse">
<stop stop-color="white"/>
<stop offset="1" stop-color="#F2EDED" stop-opacity="0"/>
</linearGradient>
<linearGradient id="paint30_linear_4559_261" x1="423.28" y1="140.81" x2="305.608" y2="344.625" gradientUnits="userSpaceOnUse">
<stop stop-color="white"/>
<stop offset="1" stop-color="#F2EDED" stop-opacity="0"/>
</linearGradient>
<linearGradient id="paint31_linear_4559_261" x1="311.672" y1="278.655" x2="311.084" y2="342.533" gradientUnits="userSpaceOnUse">
<stop stop-color="white" stop-opacity="0"/>
<stop offset="1" stop-color="#FFF1E3"/>
</linearGradient>
<linearGradient id="paint32_linear_4559_261" x1="176.482" y1="135.775" x2="291.352" y2="89.5364" gradientUnits="userSpaceOnUse">
<stop offset="0.168737" stop-color="#FDF2D9"/>
<stop offset="0.304755" stop-color="#FFF7E3"/>
<stop offset="0.451944" stop-color="#FFFCF4"/>
<stop offset="0.581036" stop-color="#FFF1D9"/>
<stop offset="0.705947" stop-color="#F3E0BF"/>
<stop offset="0.940592" stop-color="#FFF5DE"/>
</linearGradient>
<linearGradient id="paint33_linear_4559_261" x1="220.042" y1="176.954" x2="272.542" y2="153.147" gradientUnits="userSpaceOnUse">
<stop offset="0.168737" stop-color="#FDF2D9"/>
<stop offset="0.304755" stop-color="#FFF7E3"/>
<stop offset="0.451944" stop-color="#FFFCF4"/>
<stop offset="0.581036" stop-color="#FFF1D9"/>
<stop offset="0.705947" stop-color="#F3E0BF"/>
<stop offset="0.940592" stop-color="#FFF5DE"/>
</linearGradient>
<linearGradient id="paint34_linear_4559_261" x1="293.635" y1="246.72" x2="312.993" y2="236.005" gradientUnits="userSpaceOnUse">
<stop offset="0.168737" stop-color="#FDF2D9"/>
<stop offset="0.581036" stop-color="#FFF1D9"/>
<stop offset="0.705947" stop-color="#F3E0BF"/>
<stop offset="0.940592" stop-color="#FFF5DE"/>
</linearGradient>
<linearGradient id="paint35_linear_4559_261" x1="281.726" y1="256.743" x2="267.144" y2="273.755" gradientUnits="userSpaceOnUse">
<stop offset="0.168737" stop-color="#FDF2D9"/>
<stop offset="0.705947" stop-color="#F3E0BF"/>
<stop offset="0.940592" stop-color="#FFF5DE"/>
</linearGradient>
<linearGradient id="paint36_linear_4559_261" x1="334.184" y1="229.996" x2="343.874" y2="237.375" gradientUnits="userSpaceOnUse">
<stop offset="0.168737" stop-color="#FDF2D9"/>
<stop offset="0.927648" stop-color="#F3E0BF"/>
</linearGradient>
<linearGradient id="paint37_linear_4559_261" x1="413.125" y1="113.501" x2="486.849" y2="210.878" gradientUnits="userSpaceOnUse">
<stop offset="0.168737" stop-color="#FDF2D9"/>
<stop offset="0.304755" stop-color="#FFF7E3"/>
<stop offset="0.451944" stop-color="#FFFCF4"/>
<stop offset="0.581036" stop-color="#FFF1D9"/>
<stop offset="0.705947" stop-color="#F3E0BF"/>
<stop offset="0.940592" stop-color="#FFF5DE"/>
</linearGradient>
<linearGradient id="paint38_linear_4559_261" x1="385.536" y1="164.96" x2="422.254" y2="209.4" gradientUnits="userSpaceOnUse">
<stop offset="0.168737" stop-color="#FDF2D9"/>
<stop offset="0.304755" stop-color="#FFF7E3"/>
<stop offset="0.451944" stop-color="#FFFCF4"/>
<stop offset="0.581036" stop-color="#FFF1D9"/>
<stop offset="0.705947" stop-color="#F3E0BF"/>
<stop offset="0.940592" stop-color="#FFF5DE"/>
</linearGradient>
<linearGradient id="paint39_linear_4559_261" x1="337.462" y1="254.246" x2="352.869" y2="270.126" gradientUnits="userSpaceOnUse">
<stop offset="0.168737" stop-color="#FDF2D9"/>
<stop offset="0.705947" stop-color="#F3E0BF"/>
<stop offset="0.940592" stop-color="#FFF5DE"/>
</linearGradient>
<linearGradient id="paint40_linear_4559_261" x1="324.671" y1="245.377" x2="304.436" y2="235.757" gradientUnits="userSpaceOnUse">
<stop offset="0.168737" stop-color="#FDF2D9"/>
<stop offset="0.581036" stop-color="#FFF1D9"/>
<stop offset="0.705947" stop-color="#F3E0BF"/>
<stop offset="0.940592" stop-color="#FFF5DE"/>
</linearGradient>
<linearGradient id="paint41_linear_4559_261" x1="340.933" y1="226.763" x2="351.801" y2="231.352" gradientUnits="userSpaceOnUse">
<stop offset="0.168737" stop-color="#FDF2D9"/>
<stop offset="0.901239" stop-color="#F3E0BF"/>
</linearGradient>
<linearGradient id="paint42_linear_4559_261" x1="306.148" y1="174.954" x2="321.499" y2="177.413" gradientUnits="userSpaceOnUse">
<stop offset="0.168737" stop-color="#FDF2D9"/>
<stop offset="0.705947" stop-color="#F3E0BF"/>
</linearGradient>
<radialGradient id="paint43_radial_4559_261" cx="0" cy="0" r="1" gradientUnits="userSpaceOnUse" gradientTransform="translate(310.563 64.0422) rotate(90) scale(21.1604 21.9267)">
<stop stop-color="#FFF5E6"/>
<stop offset="0.979167" stop-color="#FFDCA5" stop-opacity="0.8825"/>
<stop offset="1" stop-color="#FFDDA7" stop-opacity="0.88"/>
</radialGradient>
<linearGradient id="paint44_linear_4559_261" x1="309.04" y1="64.777" x2="309.04" y2="379.245" gradientUnits="userSpaceOnUse">
<stop stop-color="#FFF2DD"/>
<stop offset="0.0722622" stop-color="#FFEBCC" stop-opacity="0.33"/>
<stop offset="1" stop-color="#F7D29A" stop-opacity="0"/>
</linearGradient>
</defs>
</svg>
