<svg width="571" height="499" viewBox="0 0 571 499" fill="none" xmlns="http://www.w3.org/2000/svg">
<g opacity="0.5" filter="url(#filter0_f_3278_264)">
<ellipse cx="285.956" cy="39.8762" rx="13.7042" ry="13.2253" fill="url(#paint0_radial_3278_264)"/>
</g>
<path fill-rule="evenodd" clip-rule="evenodd" d="M283.672 426.348C393.417 426.348 482.383 340.491 482.383 234.582C482.383 128.672 393.417 42.8152 283.672 42.8152C173.927 42.8152 84.9609 128.672 84.9609 234.582C84.9609 340.491 173.927 426.348 283.672 426.348ZM283.672 430.756C395.94 430.756 486.951 342.926 486.951 234.582C486.951 126.237 395.94 38.4067 283.672 38.4067C171.404 38.4067 80.3929 126.237 80.3929 234.582C80.3929 342.926 171.404 430.756 283.672 430.756Z" fill="url(#paint1_linear_3278_264)"/>
<g filter="url(#filter1_f_3278_264)">
<path d="M285.956 17.834L287.915 37.8504L307.274 39.8761L287.915 41.9018L285.956 61.9182L283.997 41.9018L264.638 39.8761L283.997 37.8504L285.956 17.834Z" fill="white"/>
</g>
<path d="M260.792 174.291L252.816 0H316.625L308.649 174.291H260.792Z" fill="url(#paint2_linear_3278_264)"/>
<path d="M335.426 224.117L495.82 304.597L463.916 357.926L311.498 264.114L335.426 224.117Z" fill="url(#paint3_linear_3278_264)"/>
<path d="M307.509 267.209L315.485 441.5H251.676L259.652 267.209H307.509Z" fill="url(#paint4_linear_3278_264)"/>
<path d="M257.107 264.667L104.688 358.479L72.7835 305.149L233.178 224.67L257.107 264.667Z" fill="url(#paint5_linear_3278_264)"/>
<path d="M335.426 217.657L495.82 137.177L463.916 83.8482L311.498 177.66L335.426 217.657Z" fill="url(#paint6_linear_3278_264)"/>
<path d="M257.106 177.108L104.688 83.2964L72.7836 136.625L233.178 217.105L257.106 177.108Z" fill="url(#paint7_linear_3278_264)"/>
<g filter="url(#filter2_dd_3278_264)">
<path d="M168.988 199.63L168.988 156.31L63 156.31C63 183.385 82.834 199.63 98.9491 199.63L168.988 199.63Z" fill="url(#paint8_linear_3278_264)"/>
<path d="M168.988 199.63L168.988 156.31L63 156.31C63 183.385 82.834 199.63 98.9491 199.63L168.988 199.63Z" stroke="url(#paint9_linear_3278_264)" stroke-width="2.29412"/>
<path d="M206.395 238.137L206.395 194.817L100.407 194.817C100.407 221.892 120.241 238.137 136.357 238.137L206.395 238.137Z" fill="url(#paint10_linear_3278_264)"/>
<path d="M206.395 238.137L206.395 194.817L100.407 194.817C100.407 221.892 120.241 238.137 136.357 238.137L206.395 238.137Z" stroke="url(#paint11_linear_3278_264)" stroke-width="2.29412"/>
<path d="M402.512 199.63L402.512 156.31L508.5 156.31C508.5 183.385 488.666 199.63 472.551 199.63L402.512 199.63Z" fill="url(#paint12_linear_3278_264)"/>
<path d="M402.512 199.63L402.512 156.31L508.5 156.31C508.5 183.385 488.666 199.63 472.551 199.63L402.512 199.63Z" stroke="url(#paint13_linear_3278_264)" stroke-width="2.29412"/>
<path d="M365.105 238.137L365.105 194.817L471.093 194.817C471.093 221.892 451.259 238.137 435.143 238.137L365.105 238.137Z" fill="url(#paint14_linear_3278_264)"/>
<path d="M365.105 238.137L365.105 194.817L471.093 194.817C471.093 221.892 451.259 238.137 435.143 238.137L365.105 238.137Z" stroke="url(#paint15_linear_3278_264)" stroke-width="2.29412"/>
<g filter="url(#filter3_d_3278_264)">
<path fill-rule="evenodd" clip-rule="evenodd" d="M224.875 290.59V383.79L257.113 400.509C257.779 400.854 258.574 400.374 258.574 399.624C258.571 364.87 258.605 325.187 258.605 290.59H224.875Z" fill="#9CB7ED"/>
<path fill-rule="evenodd" clip-rule="evenodd" d="M224.875 290.59V383.79L257.113 400.509C257.779 400.854 258.574 400.374 258.574 399.624C258.571 364.87 258.605 325.187 258.605 290.59H224.875Z" stroke="url(#paint16_linear_3278_264)"/>
</g>
<path fill-rule="evenodd" clip-rule="evenodd" d="M227.665 379.617V343.043H227.049V380.113L227.307 380.154C228.159 380.291 229.106 380.778 229.88 381.489C230.653 382.199 231.225 383.108 231.367 384.067L231.39 384.226L256.326 396.545V355.246H255.709V395.61L231.95 383.822C231.747 382.761 231.109 381.798 230.305 381.058C229.533 380.349 228.584 379.824 227.665 379.617Z" fill="url(#paint17_linear_3278_264)"/>
<path fill-rule="evenodd" clip-rule="evenodd" d="M255.674 393.433C256.339 392.349 256.377 390.81 256.325 389.817L255.71 389.847C255.761 390.836 255.706 392.212 255.144 393.13C254.871 393.575 254.485 393.903 253.929 394.038C253.363 394.175 252.582 394.122 251.507 393.718L251.283 394.273C252.427 394.702 253.346 394.792 254.079 394.615C254.822 394.435 255.333 393.989 255.674 393.433Z" fill="#E3EFFB"/>
<g filter="url(#filter4_d_3278_264)">
<path fill-rule="evenodd" clip-rule="evenodd" d="M219.456 381.692V290.59H180.306V361.428C180.306 362.592 180.979 363.65 182.033 364.144L219.456 381.692Z" fill="#C6D9FF"/>
<path fill-rule="evenodd" clip-rule="evenodd" d="M219.456 381.692V290.59H180.306V361.428C180.306 362.592 180.979 363.65 182.033 364.144L219.456 381.692Z" stroke="url(#paint18_linear_3278_264)"/>
</g>
<path fill-rule="evenodd" clip-rule="evenodd" d="M183.207 358.925V315.767H182.48V359.509L182.784 359.558C183.789 359.72 184.907 360.294 185.82 361.133C186.733 361.971 187.408 363.044 187.575 364.175L187.603 364.363L217.027 377.662V330.167H216.299V376.558L188.263 363.886C188.023 362.635 187.271 361.497 186.322 360.625C185.411 359.788 184.292 359.169 183.207 358.925Z" fill="url(#paint19_linear_3278_264)"/>
<path fill-rule="evenodd" clip-rule="evenodd" d="M216.258 373.99C217.042 372.71 217.087 370.895 217.026 369.723L216.3 369.758C216.36 370.925 216.296 372.549 215.632 373.632C215.31 374.158 214.854 374.544 214.199 374.703C213.531 374.865 212.609 374.802 211.34 374.326L211.077 374.98C212.426 375.487 213.51 375.594 214.376 375.384C215.253 375.172 215.856 374.646 216.258 373.99Z" fill="#F2F9FF"/>
<g filter="url(#filter5_d_3278_264)">
<path fill-rule="evenodd" clip-rule="evenodd" d="M347.743 290.59V383.79L315.506 400.509C314.84 400.854 314.045 400.374 314.045 399.624C314.048 364.87 314.013 325.187 314.013 290.59H347.743Z" fill="#9CB7ED"/>
<path fill-rule="evenodd" clip-rule="evenodd" d="M347.743 290.59V383.79L315.506 400.509C314.84 400.854 314.045 400.374 314.045 399.624C314.048 364.87 314.013 325.187 314.013 290.59H347.743Z" stroke="url(#paint20_linear_3278_264)"/>
</g>
<path fill-rule="evenodd" clip-rule="evenodd" d="M344.954 379.617V343.043H345.57V380.113L345.312 380.154C344.46 380.291 343.513 380.778 342.739 381.489C341.966 382.199 341.394 383.108 341.252 384.067L341.229 384.226L316.293 396.545V355.246H316.909V395.61L340.669 383.822C340.872 382.761 341.509 381.798 342.314 381.058C343.086 380.349 344.034 379.824 344.954 379.617Z" fill="url(#paint21_linear_3278_264)"/>
<path fill-rule="evenodd" clip-rule="evenodd" d="M316.945 393.433C316.28 392.349 316.242 390.81 316.294 389.817L316.909 389.847C316.858 390.836 316.912 392.212 317.475 393.13C317.748 393.575 318.134 393.903 318.69 394.038C319.256 394.175 320.037 394.122 321.112 393.718L321.336 394.273C320.192 394.702 319.273 394.792 318.54 394.615C317.797 394.435 317.286 393.989 316.945 393.433Z" fill="#E3EFFB"/>
<g filter="url(#filter6_d_3278_264)">
<path fill-rule="evenodd" clip-rule="evenodd" d="M353.163 381.692V290.59H392.313V361.428C392.313 362.592 391.64 363.65 390.586 364.144L353.163 381.692Z" fill="#C6D9FF"/>
<path fill-rule="evenodd" clip-rule="evenodd" d="M353.163 381.692V290.59H392.313V361.428C392.313 362.592 391.64 363.65 390.586 364.144L353.163 381.692Z" stroke="url(#paint22_linear_3278_264)"/>
</g>
<path fill-rule="evenodd" clip-rule="evenodd" d="M389.412 358.925V315.767H390.139V359.509L389.835 359.558C388.83 359.72 387.711 360.294 386.798 361.133C385.886 361.971 385.211 363.044 385.044 364.175L385.016 364.363L355.592 377.662V330.167H356.32V376.558L384.356 363.886C384.595 362.635 385.348 361.497 386.297 360.625C387.208 359.788 388.327 359.169 389.412 358.925Z" fill="url(#paint23_linear_3278_264)"/>
<path fill-rule="evenodd" clip-rule="evenodd" d="M356.361 373.99C355.577 372.71 355.532 370.895 355.593 369.723L356.319 369.758C356.258 370.925 356.323 372.549 356.987 373.632C357.309 374.158 357.765 374.544 358.42 374.703C359.088 374.865 360.01 374.802 361.278 374.326L361.542 374.98C360.192 375.487 359.108 375.594 358.243 375.384C357.366 375.172 356.763 374.646 356.361 373.99Z" fill="#F2F9FF"/>
<g filter="url(#filter7_d_3278_264)">
<path d="M248.79 263.315H323.797V409.854L287.28 431.352C286.377 431.884 285.256 431.883 284.353 431.351L248.79 410.358V263.315Z" fill="#6A88C4"/>
<path d="M248.79 263.315H323.797V409.854L287.28 431.352C286.377 431.884 285.256 431.883 284.353 431.351L248.79 410.358V263.315Z" stroke="url(#paint24_linear_3278_264)" stroke-width="2"/>
</g>
<path fill-rule="evenodd" clip-rule="evenodd" d="M252.595 354.583H253.682V407.268L285.752 426.354L318.362 407.266V354.583H319.449V407.857L285.748 427.584L252.595 407.854V354.583Z" fill="url(#paint25_linear_3278_264)"/>
<path fill-rule="evenodd" clip-rule="evenodd" d="M286.22 404.938V423.971H285.275V404.938H286.22Z" fill="url(#paint26_linear_3278_264)"/>
<path fill-rule="evenodd" clip-rule="evenodd" d="M282.916 417.217C281.035 419.311 278.744 419.776 277.166 419.523L277.321 418.623C278.578 418.825 280.539 418.471 282.202 416.62C283.871 414.762 285.275 411.353 285.275 405.395H286.22C286.22 411.473 284.79 415.131 282.916 417.217Z" fill="url(#paint27_linear_3278_264)"/>
<path fill-rule="evenodd" clip-rule="evenodd" d="M288.58 417.217C290.461 419.311 292.752 419.776 294.33 419.523L294.174 418.623C292.917 418.825 290.957 418.471 289.294 416.62C287.625 414.762 286.22 411.353 286.22 405.395H285.275C285.275 411.473 286.706 415.131 288.58 417.217Z" fill="url(#paint28_linear_3278_264)"/>
<path fill-rule="evenodd" clip-rule="evenodd" d="M285.549 424.386L274.879 418.617L277.242 418.617L285.747 423.47L294.25 418.576H296.335L285.941 424.387C285.817 424.441 285.673 424.441 285.549 424.386Z" fill="url(#paint29_linear_3278_264)"/>
<g filter="url(#filter8_d_3278_264)">
<path d="M277.848 72.3373L158.966 134.748C153.372 137.684 149.868 143.481 149.868 149.799L149.868 291.337C149.868 297.655 153.372 303.452 158.966 306.388L277.848 368.799C282.796 371.396 288.704 371.396 293.652 368.799L412.534 306.388C418.128 303.452 421.632 297.655 421.632 291.337L421.632 149.799C421.632 143.481 418.128 137.684 412.534 134.748L293.652 72.3373C288.704 69.7398 282.796 69.7398 277.848 72.3373Z" fill="url(#paint30_linear_3278_264)"/>
<path d="M277.715 95.4013L179.586 146.917C174.013 149.842 170.522 155.618 170.522 161.912L170.522 278.695C170.522 284.989 174.013 290.764 179.586 293.69L277.715 345.205C282.644 347.793 288.53 347.793 293.459 345.205L391.588 293.69C397.161 290.764 400.652 284.989 400.652 278.695L400.652 161.912C400.652 155.618 397.161 149.842 391.588 146.917L293.459 95.4013C288.53 92.8136 282.644 92.8136 277.715 95.4013Z" fill="url(#paint31_linear_3278_264)"/>
<g filter="url(#filter9_f_3278_264)">
<path d="M277.715 95.4013L179.586 146.917C174.013 149.842 170.522 155.618 170.522 161.912L170.522 278.695C170.522 284.989 174.013 290.764 179.586 293.69L277.715 345.205C282.644 347.793 288.53 347.793 293.459 345.205L391.588 293.69C397.161 290.764 400.652 284.989 400.652 278.695L400.652 161.912C400.652 155.618 397.161 149.842 391.588 146.917L293.459 95.4013C288.53 92.8136 282.644 92.8136 277.715 95.4013Z" stroke="url(#paint32_linear_3278_264)"/>
</g>
<g opacity="0.5">
<mask id="mask0_3278_264" style="mask-type:alpha" maskUnits="userSpaceOnUse" x="180" y="103" width="213" height="235">
<path d="M278.811 105.684L188.933 152.826C183.629 155.608 180.306 161.103 180.306 167.092L180.306 273.924C180.306 279.914 183.629 285.409 188.933 288.191L278.811 335.332C283.497 337.79 289.091 337.79 293.776 335.332L383.654 288.191C388.958 285.409 392.281 279.914 392.281 273.924L392.281 167.092C392.281 161.103 388.958 155.608 383.654 152.826L293.776 105.684C289.091 103.226 283.497 103.226 278.811 105.684Z" fill="#A6D3DE"/>
</mask>
<g mask="url(#mask0_3278_264)">
<path d="M278.811 105.684L188.933 152.826C183.629 155.608 180.306 161.103 180.306 167.092L180.306 273.924C180.306 279.914 183.629 285.409 188.933 288.191L278.811 335.332C283.497 337.79 289.091 337.79 293.776 335.332L383.654 288.191C388.958 285.409 392.281 279.914 392.281 273.924L392.281 167.092C392.281 161.103 388.958 155.608 383.654 152.826L293.776 105.684C289.091 103.226 283.497 103.226 278.811 105.684Z" fill="url(#paint33_radial_3278_264)"/>
<path opacity="0.5" d="M268.575 343.948L264.365 97.0562H308.222L304.012 343.948H268.575Z" fill="url(#paint34_linear_3278_264)"/>
<path opacity="0.5" d="M268.011 341.758L136.449 129.975L174.43 108.813L298.7 324.659L268.011 341.758Z" fill="url(#paint35_linear_3278_264)"/>
<path opacity="0.5" d="M264.357 324.659L388.627 108.813L426.608 129.975L295.045 341.758L264.357 324.659Z" fill="url(#paint36_linear_3278_264)"/>
<rect x="180.306" y="206.394" width="211.976" height="132.851" fill="url(#paint37_linear_3278_264)"/>
<g filter="url(#filter10_i_3278_264)">
<path d="M278.811 105.684L188.933 152.826C183.629 155.608 180.306 161.103 180.306 167.092L180.306 273.924C180.306 279.914 183.629 285.409 188.933 288.191L278.811 335.332C283.497 337.79 289.091 337.79 293.776 335.332L383.654 288.191C388.958 285.409 392.281 279.914 392.281 273.924L392.281 167.092C392.281 161.103 388.958 155.608 383.654 152.826L293.776 105.684C289.091 103.226 283.497 103.226 278.811 105.684Z" fill="#6052B4" fill-opacity="0.01"/>
</g>
</g>
</g>
</g>
</g>
<path d="M279.377 196.654C295.93 216.52 296.473 242.618 275.887 258.592C255.301 274.567 227.311 269.769 210.758 249.903C194.205 230.036 191.247 197.693 211.833 181.718C232.419 165.743 262.823 176.787 279.377 196.654Z" fill="url(#paint38_linear_3278_264)"/>
<path d="M279.376 196.655C295.93 216.522 296.711 242.434 276.506 258.113C256.302 273.792 228.582 268.784 212.028 248.918C195.475 229.051 192.248 196.918 212.452 181.239C232.657 165.559 262.823 176.788 279.376 196.655Z" fill="url(#paint39_linear_3278_264)"/>
<path d="M270.032 254.176C269.289 253.345 269.398 252.085 270.275 251.381L285.808 238.909C287.446 237.594 289.806 239.275 288.984 241.171L284.083 252.477C283.919 252.856 283.882 253.275 283.977 253.675L287.346 267.866C287.82 269.862 285.206 271.144 283.82 269.595L270.032 254.176Z" fill="url(#paint40_linear_3278_264)"/>
<path d="M271.866 253.101C271.18 252.237 269.914 252.062 269.031 252.711L252.851 264.595C251.154 265.841 252.379 268.488 254.48 268.115L267.848 265.745C268.271 265.67 268.709 265.729 269.1 265.912L282.039 271.99C283.97 272.897 285.809 270.68 284.497 269.026L271.866 253.101Z" fill="url(#paint41_linear_3278_264)"/>
<path d="M271.507 261.707C270.446 260.434 270.648 258.578 271.957 257.563L275.688 254.667C276.997 253.651 278.918 253.86 279.978 255.133L306.834 287.364C307.895 288.637 307.694 290.492 306.385 291.508L302.653 294.403C301.344 295.419 299.423 295.211 298.363 293.938L271.507 261.707Z" fill="url(#paint42_linear_3278_264)"/>
<path d="M363.559 245.029C348.023 265.646 322.065 272.982 300.701 257.989C279.337 242.995 276.81 215.67 292.346 195.052C307.883 174.435 339.454 163.215 360.819 178.209C382.183 193.202 379.095 224.411 363.559 245.029Z" fill="url(#paint43_linear_3278_264)"/>
<path d="M363.558 245.028C348.022 265.646 322.311 273.155 301.343 258.439C280.374 243.724 278.128 216.594 293.664 195.977C309.2 175.359 340.492 163.944 361.461 178.659C382.429 193.375 379.094 224.41 363.558 245.028Z" fill="url(#paint44_linear_3278_264)"/>
<path d="M303.578 251.388C304.22 250.471 305.496 250.231 306.416 250.854L322.905 262.024C324.638 263.198 323.542 265.881 321.437 265.613L308.952 264.02C308.536 263.967 308.111 264.042 307.737 264.235L294.331 271.136C292.458 272.1 290.55 270.004 291.745 268.296L303.578 251.388Z" fill="url(#paint45_linear_3278_264)"/>
<path d="M305.145 252.8C305.827 251.94 305.66 250.71 304.771 250.051L288.618 238.066C286.921 236.807 284.616 238.61 285.54 240.474L291.44 252.368C291.628 252.746 291.685 253.171 291.604 253.583L288.926 267.155C288.524 269.19 291.237 270.358 292.541 268.712L305.145 252.8Z" fill="url(#paint46_linear_3278_264)"/>
<rect width="10.7406" height="47.8401" rx="3" transform="matrix(0.818541 0.574448 -0.60181 0.798639 298.243 252.332)" fill="url(#paint47_linear_3278_264)"/>
<ellipse cx="285.5" cy="179" rx="10" ry="9.5" fill="url(#paint48_linear_3278_264)"/>
<defs>
<filter id="filter0_f_3278_264" x="269.45" y="23.8494" width="33.0114" height="32.0537" filterUnits="userSpaceOnUse" color-interpolation-filters="sRGB">
<feFlood flood-opacity="0" result="BackgroundImageFix"/>
<feBlend mode="normal" in="SourceGraphic" in2="BackgroundImageFix" result="shape"/>
<feGaussianBlur stdDeviation="1.40075" result="effect1_foregroundBlur_3278_264"/>
</filter>
<filter id="filter1_f_3278_264" x="263.798" y="16.9935" width="44.3162" height="45.7654" filterUnits="userSpaceOnUse" color-interpolation-filters="sRGB">
<feFlood flood-opacity="0" result="BackgroundImageFix"/>
<feBlend mode="normal" in="SourceGraphic" in2="BackgroundImageFix" result="shape"/>
<feGaussianBlur stdDeviation="0.420225" result="effect1_foregroundBlur_3278_264"/>
</filter>
<filter id="filter2_dd_3278_264" x="0.656521" y="13.2725" width="570.187" height="484.754" filterUnits="userSpaceOnUse" color-interpolation-filters="sRGB">
<feFlood flood-opacity="0" result="BackgroundImageFix"/>
<feColorMatrix in="SourceAlpha" type="matrix" values="0 0 0 0 0 0 0 0 0 0 0 0 0 0 0 0 0 0 127 0" result="hardAlpha"/>
<feOffset/>
<feGaussianBlur stdDeviation="10.1994"/>
<feColorMatrix type="matrix" values="0 0 0 0 0.558594 0 0 0 0 0.710156 0 0 0 0 0.9375 0 0 0 1 0"/>
<feBlend mode="normal" in2="BackgroundImageFix" result="effect1_dropShadow_3278_264"/>
<feColorMatrix in="SourceAlpha" type="matrix" values="0 0 0 0 0 0 0 0 0 0 0 0 0 0 0 0 0 0 127 0" result="hardAlpha"/>
<feOffset dy="4.07976"/>
<feGaussianBlur stdDeviation="30.5982"/>
<feColorMatrix type="matrix" values="0 0 0 0 0.670833 0 0 0 0 0.8025 0 0 0 0 1 0 0 0 0.6 0"/>
<feBlend mode="normal" in2="effect1_dropShadow_3278_264" result="effect2_dropShadow_3278_264"/>
<feBlend mode="normal" in="SourceGraphic" in2="effect2_dropShadow_3278_264" result="shape"/>
</filter>
<filter id="filter3_d_3278_264" x="216.375" y="282.09" width="50.73" height="127.033" filterUnits="userSpaceOnUse" color-interpolation-filters="sRGB">
<feFlood flood-opacity="0" result="BackgroundImageFix"/>
<feColorMatrix in="SourceAlpha" type="matrix" values="0 0 0 0 0 0 0 0 0 0 0 0 0 0 0 0 0 0 127 0" result="hardAlpha"/>
<feOffset/>
<feGaussianBlur stdDeviation="4"/>
<feColorMatrix type="matrix" values="0 0 0 0 0.288889 0 0 0 0 0.357333 0 0 0 0 0.533333 0 0 0 0.74 0"/>
<feBlend mode="normal" in2="BackgroundImageFix" result="effect1_dropShadow_3278_264"/>
<feBlend mode="normal" in="SourceGraphic" in2="effect1_dropShadow_3278_264" result="shape"/>
</filter>
<filter id="filter4_d_3278_264" x="171.806" y="282.09" width="56.1495" height="108.389" filterUnits="userSpaceOnUse" color-interpolation-filters="sRGB">
<feFlood flood-opacity="0" result="BackgroundImageFix"/>
<feColorMatrix in="SourceAlpha" type="matrix" values="0 0 0 0 0 0 0 0 0 0 0 0 0 0 0 0 0 0 127 0" result="hardAlpha"/>
<feOffset/>
<feGaussianBlur stdDeviation="4"/>
<feColorMatrix type="matrix" values="0 0 0 0 0.288889 0 0 0 0 0.357333 0 0 0 0 0.533333 0 0 0 0.74 0"/>
<feBlend mode="normal" in2="BackgroundImageFix" result="effect1_dropShadow_3278_264"/>
<feBlend mode="normal" in="SourceGraphic" in2="effect1_dropShadow_3278_264" result="shape"/>
</filter>
<filter id="filter5_d_3278_264" x="305.513" y="282.09" width="50.73" height="127.033" filterUnits="userSpaceOnUse" color-interpolation-filters="sRGB">
<feFlood flood-opacity="0" result="BackgroundImageFix"/>
<feColorMatrix in="SourceAlpha" type="matrix" values="0 0 0 0 0 0 0 0 0 0 0 0 0 0 0 0 0 0 127 0" result="hardAlpha"/>
<feOffset/>
<feGaussianBlur stdDeviation="4"/>
<feColorMatrix type="matrix" values="0 0 0 0 0.288889 0 0 0 0 0.357333 0 0 0 0 0.533333 0 0 0 0.74 0"/>
<feBlend mode="normal" in2="BackgroundImageFix" result="effect1_dropShadow_3278_264"/>
<feBlend mode="normal" in="SourceGraphic" in2="effect1_dropShadow_3278_264" result="shape"/>
</filter>
<filter id="filter6_d_3278_264" x="344.663" y="282.09" width="56.1495" height="108.389" filterUnits="userSpaceOnUse" color-interpolation-filters="sRGB">
<feFlood flood-opacity="0" result="BackgroundImageFix"/>
<feColorMatrix in="SourceAlpha" type="matrix" values="0 0 0 0 0 0 0 0 0 0 0 0 0 0 0 0 0 0 127 0" result="hardAlpha"/>
<feOffset/>
<feGaussianBlur stdDeviation="4"/>
<feColorMatrix type="matrix" values="0 0 0 0 0.288889 0 0 0 0 0.357333 0 0 0 0 0.533333 0 0 0 0.74 0"/>
<feBlend mode="normal" in2="BackgroundImageFix" result="effect1_dropShadow_3278_264"/>
<feBlend mode="normal" in="SourceGraphic" in2="effect1_dropShadow_3278_264" result="shape"/>
</filter>
<filter id="filter7_d_3278_264" x="239.79" y="254.315" width="93.0067" height="186.436" filterUnits="userSpaceOnUse" color-interpolation-filters="sRGB">
<feFlood flood-opacity="0" result="BackgroundImageFix"/>
<feColorMatrix in="SourceAlpha" type="matrix" values="0 0 0 0 0 0 0 0 0 0 0 0 0 0 0 0 0 0 127 0" result="hardAlpha"/>
<feOffset/>
<feGaussianBlur stdDeviation="4"/>
<feColorMatrix type="matrix" values="0 0 0 0 0.288889 0 0 0 0 0.357333 0 0 0 0 0.533333 0 0 0 0.8 0"/>
<feBlend mode="normal" in2="BackgroundImageFix" result="effect1_dropShadow_3278_264"/>
<feBlend mode="normal" in="SourceGraphic" in2="effect1_dropShadow_3278_264" result="shape"/>
</filter>
<filter id="filter8_d_3278_264" x="143.868" y="70.3892" width="283.763" height="314.358" filterUnits="userSpaceOnUse" color-interpolation-filters="sRGB">
<feFlood flood-opacity="0" result="BackgroundImageFix"/>
<feColorMatrix in="SourceAlpha" type="matrix" values="0 0 0 0 0 0 0 0 0 0 0 0 0 0 0 0 0 0 127 0" result="hardAlpha"/>
<feOffset dy="8"/>
<feGaussianBlur stdDeviation="3"/>
<feColorMatrix type="matrix" values="0 0 0 0 0.141181 0 0 0 0 0.190317 0 0 0 0 0.316667 0 0 0 0.51 0"/>
<feBlend mode="normal" in2="BackgroundImageFix" result="effect1_dropShadow_3278_264"/>
<feBlend mode="normal" in="SourceGraphic" in2="effect1_dropShadow_3278_264" result="shape"/>
</filter>
<filter id="filter9_f_3278_264" x="169.722" y="92.6604" width="231.73" height="255.286" filterUnits="userSpaceOnUse" color-interpolation-filters="sRGB">
<feFlood flood-opacity="0" result="BackgroundImageFix"/>
<feBlend mode="normal" in="SourceGraphic" in2="BackgroundImageFix" result="shape"/>
<feGaussianBlur stdDeviation="0.15" result="effect1_foregroundBlur_3278_264"/>
</filter>
<filter id="filter10_i_3278_264" x="180.306" y="103.841" width="211.976" height="233.334" filterUnits="userSpaceOnUse" color-interpolation-filters="sRGB">
<feFlood flood-opacity="0" result="BackgroundImageFix"/>
<feBlend mode="normal" in="SourceGraphic" in2="BackgroundImageFix" result="shape"/>
<feColorMatrix in="SourceAlpha" type="matrix" values="0 0 0 0 0 0 0 0 0 0 0 0 0 0 0 0 0 0 127 0" result="hardAlpha"/>
<feOffset/>
<feGaussianBlur stdDeviation="6.72414"/>
<feComposite in2="hardAlpha" operator="arithmetic" k2="-1" k3="1"/>
<feColorMatrix type="matrix" values="0 0 0 0 0.297222 0 0 0 0 0.329917 0 0 0 0 0.445833 0 0 0 1 0"/>
<feBlend mode="normal" in2="shape" result="effect1_innerShadow_3278_264"/>
</filter>
<radialGradient id="paint0_radial_3278_264" cx="0" cy="0" r="1" gradientUnits="userSpaceOnUse" gradientTransform="translate(285.956 39.8762) rotate(90) scale(21.1604 21.9267)">
<stop stop-color="#E7ECFF"/>
<stop offset="0.979167" stop-color="#ABC3FF" stop-opacity="0.8825"/>
<stop offset="1" stop-color="#AACCFF" stop-opacity="0.88"/>
</radialGradient>
<linearGradient id="paint1_linear_3278_264" x1="284.433" y1="40.611" x2="284.433" y2="355.079" gradientUnits="userSpaceOnUse">
<stop stop-color="#DEE7FF"/>
<stop offset="0.0722622" stop-color="#CCDDFF" stop-opacity="0.33"/>
<stop offset="1" stop-color="#98C6F0" stop-opacity="0"/>
</linearGradient>
<linearGradient id="paint2_linear_3278_264" x1="284.721" y1="0" x2="284.721" y2="174.291" gradientUnits="userSpaceOnUse">
<stop stop-color="#AACCFF" stop-opacity="0"/>
<stop offset="1" stop-color="#AACCFF" stop-opacity="0.3"/>
</linearGradient>
<linearGradient id="paint3_linear_3278_264" x1="479.868" y1="331.261" x2="326.293" y2="239.384" gradientUnits="userSpaceOnUse">
<stop stop-color="#AACCFF" stop-opacity="0"/>
<stop offset="1" stop-color="#AACCFF" stop-opacity="0.3"/>
</linearGradient>
<linearGradient id="paint4_linear_3278_264" x1="283.58" y1="441.5" x2="283.58" y2="267.209" gradientUnits="userSpaceOnUse">
<stop stop-color="#AACCFF" stop-opacity="0"/>
<stop offset="1" stop-color="#AACCFF" stop-opacity="0.3"/>
</linearGradient>
<linearGradient id="paint5_linear_3278_264" x1="88.7358" y1="331.814" x2="242.311" y2="239.936" gradientUnits="userSpaceOnUse">
<stop stop-color="#AACCFF" stop-opacity="0"/>
<stop offset="1" stop-color="#AACCFF" stop-opacity="0.3"/>
</linearGradient>
<linearGradient id="paint6_linear_3278_264" x1="479.868" y1="110.513" x2="326.293" y2="202.39" gradientUnits="userSpaceOnUse">
<stop stop-color="#AACCFF" stop-opacity="0"/>
<stop offset="1" stop-color="#AACCFF" stop-opacity="0.3"/>
</linearGradient>
<linearGradient id="paint7_linear_3278_264" x1="88.7358" y1="109.961" x2="242.311" y2="201.839" gradientUnits="userSpaceOnUse">
<stop stop-color="#AACCFF" stop-opacity="0"/>
<stop offset="1" stop-color="#AACCFF" stop-opacity="0.3"/>
</linearGradient>
<linearGradient id="paint8_linear_3278_264" x1="127.84" y1="199.63" x2="91.161" y2="161.624" gradientUnits="userSpaceOnUse">
<stop stop-color="#C3C5D1"/>
<stop offset="0.875" stop-color="#F9F9F9"/>
</linearGradient>
<linearGradient id="paint9_linear_3278_264" x1="69.2346" y1="156.31" x2="103.847" y2="200.834" gradientUnits="userSpaceOnUse">
<stop stop-color="#F9F9F9"/>
<stop offset="0.378992" stop-color="#F9F9F9"/>
<stop offset="0.480868" stop-color="#DFDFE6"/>
<stop offset="0.729174" stop-color="#B8BAC6"/>
</linearGradient>
<linearGradient id="paint10_linear_3278_264" x1="154.025" y1="232.722" x2="117.388" y2="193.514" gradientUnits="userSpaceOnUse">
<stop stop-color="#C3C5D1"/>
<stop offset="0.875" stop-color="#F9F9F9"/>
</linearGradient>
<linearGradient id="paint11_linear_3278_264" x1="106.019" y1="194.817" x2="124.263" y2="233.237" gradientUnits="userSpaceOnUse">
<stop stop-color="#F4F4F5"/>
<stop offset="0.306027" stop-color="#F4F4F5"/>
<stop offset="0.462087" stop-color="#E8E9EC"/>
<stop offset="0.682292" stop-color="#DFDFE6"/>
<stop offset="1" stop-color="#B8BAC6"/>
</linearGradient>
<linearGradient id="paint12_linear_3278_264" x1="443.66" y1="199.63" x2="480.339" y2="161.624" gradientUnits="userSpaceOnUse">
<stop stop-color="#C3C5D1"/>
<stop offset="0.875" stop-color="#F9F9F9"/>
</linearGradient>
<linearGradient id="paint13_linear_3278_264" x1="502.265" y1="156.31" x2="467.653" y2="200.834" gradientUnits="userSpaceOnUse">
<stop stop-color="#F9F9F9"/>
<stop offset="0.378992" stop-color="#F9F9F9"/>
<stop offset="0.480868" stop-color="#DFDFE6"/>
<stop offset="0.729174" stop-color="#B8BAC6"/>
</linearGradient>
<linearGradient id="paint14_linear_3278_264" x1="417.475" y1="232.722" x2="454.112" y2="193.514" gradientUnits="userSpaceOnUse">
<stop stop-color="#C3C5D1"/>
<stop offset="0.875" stop-color="#F9F9F9"/>
</linearGradient>
<linearGradient id="paint15_linear_3278_264" x1="465.481" y1="194.817" x2="447.237" y2="233.237" gradientUnits="userSpaceOnUse">
<stop stop-color="#F4F4F5"/>
<stop offset="0.306027" stop-color="#F4F4F5"/>
<stop offset="0.462087" stop-color="#E8E9EC"/>
<stop offset="0.682292" stop-color="#DFDFE6"/>
<stop offset="1" stop-color="#B8BAC6"/>
</linearGradient>
<linearGradient id="paint16_linear_3278_264" x1="258.605" y1="365.107" x2="223.121" y2="370.799" gradientUnits="userSpaceOnUse">
<stop stop-color="#91B1E3"/>
<stop offset="0.208702" stop-color="#F0F6FF"/>
<stop offset="0.514766" stop-color="#A4BFE9"/>
<stop offset="0.728274" stop-color="#8BADE0"/>
<stop offset="0.971703" stop-color="#D0DEF3"/>
</linearGradient>
<linearGradient id="paint17_linear_3278_264" x1="228.431" y1="373.27" x2="245.944" y2="367.86" gradientUnits="userSpaceOnUse">
<stop stop-color="#FAFCFF"/>
<stop offset="0.309893" stop-color="#D7E6FC"/>
<stop offset="0.523799" stop-color="#C1D8F4"/>
<stop offset="0.77229" stop-color="#BBD6FF"/>
<stop offset="1" stop-color="white"/>
</linearGradient>
<linearGradient id="paint18_linear_3278_264" x1="179.219" y1="343.043" x2="219.535" y2="389.848" gradientUnits="userSpaceOnUse">
<stop stop-color="#91B1E3"/>
<stop offset="0.208702" stop-color="#F0F6FF"/>
<stop offset="0.648432" stop-color="#A4BFE9"/>
<stop offset="0.780206" stop-color="#8BADE0"/>
<stop offset="0.971703" stop-color="#93B3E4"/>
</linearGradient>
<linearGradient id="paint19_linear_3278_264" x1="184.11" y1="351.435" x2="204.777" y2="345.051" gradientUnits="userSpaceOnUse">
<stop stop-color="#FAFCFF"/>
<stop offset="0.309893" stop-color="#D7E6FC"/>
<stop offset="0.523799" stop-color="#C1D8F4"/>
<stop offset="0.77229" stop-color="#BBD6FF"/>
<stop offset="1" stop-color="white"/>
</linearGradient>
<linearGradient id="paint20_linear_3278_264" x1="314.013" y1="365.107" x2="349.498" y2="370.799" gradientUnits="userSpaceOnUse">
<stop stop-color="#91B1E3"/>
<stop offset="0.208702" stop-color="#F0F6FF"/>
<stop offset="0.514766" stop-color="#A4BFE9"/>
<stop offset="0.728274" stop-color="#8BADE0"/>
<stop offset="0.971703" stop-color="#D0DEF3"/>
</linearGradient>
<linearGradient id="paint21_linear_3278_264" x1="344.188" y1="373.27" x2="326.674" y2="367.86" gradientUnits="userSpaceOnUse">
<stop stop-color="#FAFCFF"/>
<stop offset="0.309893" stop-color="#D7E6FC"/>
<stop offset="0.523799" stop-color="#C1D8F4"/>
<stop offset="0.77229" stop-color="#BBD6FF"/>
<stop offset="1" stop-color="white"/>
</linearGradient>
<linearGradient id="paint22_linear_3278_264" x1="393.4" y1="343.043" x2="353.084" y2="389.848" gradientUnits="userSpaceOnUse">
<stop stop-color="#91B1E3"/>
<stop offset="0.208702" stop-color="#F0F6FF"/>
<stop offset="0.648432" stop-color="#A4BFE9"/>
<stop offset="0.780206" stop-color="#8BADE0"/>
<stop offset="0.971703" stop-color="#93B3E4"/>
</linearGradient>
<linearGradient id="paint23_linear_3278_264" x1="388.509" y1="351.435" x2="367.842" y2="345.051" gradientUnits="userSpaceOnUse">
<stop stop-color="#FAFCFF"/>
<stop offset="0.309893" stop-color="#D7E6FC"/>
<stop offset="0.523799" stop-color="#C1D8F4"/>
<stop offset="0.77229" stop-color="#BBD6FF"/>
<stop offset="1" stop-color="white"/>
</linearGradient>
<linearGradient id="paint24_linear_3278_264" x1="248.79" y1="383.433" x2="325.951" y2="400.505" gradientUnits="userSpaceOnUse">
<stop stop-color="#91B1E3"/>
<stop offset="0.208702" stop-color="#F0F6FF"/>
<stop offset="0.648432" stop-color="#A4BFE9"/>
<stop offset="0.780206" stop-color="#8BADE0"/>
<stop offset="0.971703" stop-color="#93B3E4"/>
</linearGradient>
<linearGradient id="paint25_linear_3278_264" x1="316.294" y1="396.651" x2="281.439" y2="378.985" gradientUnits="userSpaceOnUse">
<stop stop-color="#FAFCFF"/>
<stop offset="0.309893" stop-color="#D7E6FC"/>
<stop offset="0.523799" stop-color="#C1D8F4"/>
<stop offset="0.77229" stop-color="#BBD6FF"/>
<stop offset="1" stop-color="white"/>
</linearGradient>
<linearGradient id="paint26_linear_3278_264" x1="285.747" y1="404.938" x2="285.747" y2="422.72" gradientUnits="userSpaceOnUse">
<stop stop-color="#6A88C3"/>
<stop offset="0.479167" stop-color="#E4EFFD"/>
<stop offset="1" stop-color="#E1ECFD"/>
</linearGradient>
<linearGradient id="paint27_linear_3278_264" x1="281.693" y1="405.395" x2="281.693" y2="419.585" gradientUnits="userSpaceOnUse">
<stop stop-color="#E2F5FF" stop-opacity="0"/>
<stop offset="0.479167" stop-color="#B6CAFE"/>
<stop offset="1" stop-color="#CCD7FF"/>
</linearGradient>
<linearGradient id="paint28_linear_3278_264" x1="289.803" y1="405.395" x2="289.803" y2="419.585" gradientUnits="userSpaceOnUse">
<stop stop-color="#E2F5FF" stop-opacity="0"/>
<stop offset="0.479167" stop-color="#B6CAFE"/>
<stop offset="1" stop-color="#CCD7FF"/>
</linearGradient>
<linearGradient id="paint29_linear_3278_264" x1="284.602" y1="420.577" x2="272.358" y2="422.079" gradientUnits="userSpaceOnUse">
<stop stop-color="#C9DEFC"/>
<stop offset="0.309893" stop-color="#ECF4FF"/>
<stop offset="0.523799" stop-color="#EAF6FF"/>
<stop offset="0.613641" stop-color="#CCE7FF"/>
<stop offset="1" stop-color="#CEE4F9"/>
</linearGradient>
<linearGradient id="paint30_linear_3278_264" x1="228.68" y1="104.906" x2="344.178" y2="342.673" gradientUnits="userSpaceOnUse">
<stop stop-color="#FAFAFA"/>
<stop offset="1" stop-color="#C2C4CD"/>
</linearGradient>
<linearGradient id="paint31_linear_3278_264" x1="227.593" y1="124.314" x2="327.351" y2="315.07" gradientUnits="userSpaceOnUse">
<stop stop-color="#CDCFD6"/>
<stop offset="1" stop-color="#EFEFF1"/>
</linearGradient>
<linearGradient id="paint32_linear_3278_264" x1="239.007" y1="117.495" x2="346.546" y2="317.969" gradientUnits="userSpaceOnUse">
<stop stop-color="#DDDFE2"/>
<stop offset="1" stop-color="white"/>
</linearGradient>
<radialGradient id="paint33_radial_3278_264" cx="0" cy="0" r="1" gradientUnits="userSpaceOnUse" gradientTransform="translate(286.294 220.508) rotate(90) scale(118.749 105.988)">
<stop stop-color="#F5F7FF"/>
<stop offset="1" stop-color="#B3B5C5"/>
</radialGradient>
<linearGradient id="paint34_linear_3278_264" x1="286.294" y1="97.0562" x2="286.294" y2="343.948" gradientUnits="userSpaceOnUse">
<stop stop-color="white"/>
<stop offset="1" stop-color="#F2EDED" stop-opacity="0"/>
</linearGradient>
<linearGradient id="paint35_linear_3278_264" x1="155.44" y1="119.394" x2="276.652" y2="336.944" gradientUnits="userSpaceOnUse">
<stop stop-color="white"/>
<stop offset="1" stop-color="#F2EDED" stop-opacity="0"/>
</linearGradient>
<linearGradient id="paint36_linear_3278_264" x1="407.617" y1="119.394" x2="286.405" y2="336.944" gradientUnits="userSpaceOnUse">
<stop stop-color="white"/>
<stop offset="1" stop-color="#F2EDED" stop-opacity="0"/>
</linearGradient>
<linearGradient id="paint37_linear_3278_264" x1="286.294" y1="264.002" x2="285.698" y2="331.014" gradientUnits="userSpaceOnUse">
<stop stop-color="white" stop-opacity="0"/>
<stop offset="1" stop-color="#D0DBFF"/>
</linearGradient>
<linearGradient id="paint38_linear_3278_264" x1="189.495" y1="167.323" x2="246.985" y2="140.635" gradientUnits="userSpaceOnUse">
<stop offset="0.168737" stop-color="#F4F3F8"/>
<stop offset="0.360439" stop-color="white"/>
<stop offset="0.451944" stop-color="white"/>
<stop offset="0.627859" stop-color="#E7E6EE"/>
<stop offset="0.80404" stop-color="#F3F3F3"/>
</linearGradient>
<linearGradient id="paint39_linear_3278_264" x1="137.092" y1="198.167" x2="174.461" y2="155.417" gradientUnits="userSpaceOnUse">
<stop offset="0.168737" stop-color="#F4F3F8"/>
<stop offset="0.451944" stop-color="white"/>
<stop offset="0.612085" stop-color="#E7E6EE"/>
<stop offset="0.701585" stop-color="#E7E6EE"/>
<stop offset="0.967597" stop-color="#F3F3F3"/>
</linearGradient>
<linearGradient id="paint40_linear_3278_264" x1="240.19" y1="200.896" x2="294.497" y2="185.571" gradientUnits="userSpaceOnUse">
<stop offset="0.168737" stop-color="#F4F3F8"/>
<stop offset="0.810668" stop-color="#E7E6EE"/>
</linearGradient>
<linearGradient id="paint41_linear_3278_264" x1="192.903" y1="208.239" x2="175.954" y2="267.53" gradientUnits="userSpaceOnUse">
<stop offset="0.168737" stop-color="#F4F3F8"/>
<stop offset="0.811319" stop-color="#E7E6EE"/>
</linearGradient>
<linearGradient id="paint42_linear_3278_264" x1="346.178" y1="249.677" x2="350.023" y2="261.212" gradientUnits="userSpaceOnUse">
<stop offset="0.168737" stop-color="#F4F3F8"/>
<stop offset="0.850633" stop-color="#EFEEF5"/>
</linearGradient>
<linearGradient id="paint43_linear_3278_264" x1="369.369" y1="153.635" x2="408.057" y2="202.606" gradientUnits="userSpaceOnUse">
<stop offset="0.168737" stop-color="#F4F3F8"/>
<stop offset="0.360439" stop-color="white"/>
<stop offset="0.451944" stop-color="white"/>
<stop offset="0.627859" stop-color="#E7E6EE"/>
<stop offset="0.80404" stop-color="#F3F3F3"/>
</linearGradient>
<linearGradient id="paint44_linear_3278_264" x1="355.466" y1="184.943" x2="376.645" y2="206.739" gradientUnits="userSpaceOnUse">
<stop offset="0.168737" stop-color="#F4F3F8"/>
<stop offset="0.773639" stop-color="#E7E6EE"/>
</linearGradient>
<linearGradient id="paint45_linear_3278_264" x1="331.502" y1="224.5" x2="351.821" y2="263.983" gradientUnits="userSpaceOnUse">
<stop offset="0.168737" stop-color="#F4F3F8"/>
<stop offset="0.783531" stop-color="#E7E6EE"/>
</linearGradient>
<linearGradient id="paint46_linear_3278_264" x1="332.046" y1="238.137" x2="307.923" y2="212.347" gradientUnits="userSpaceOnUse">
<stop offset="0.168737" stop-color="#F4F3F8"/>
<stop offset="0.817055" stop-color="#E7E6EE"/>
</linearGradient>
<linearGradient id="paint47_linear_3278_264" x1="70.7419" y1="-57.4916" x2="88.1037" y2="-42.6992" gradientUnits="userSpaceOnUse">
<stop offset="0.168737" stop-color="#F4F3F8"/>
<stop offset="0.81094" stop-color="#E7E6EE"/>
</linearGradient>
<linearGradient id="paint48_linear_3278_264" x1="283.916" y1="164.737" x2="303.685" y2="169.206" gradientUnits="userSpaceOnUse">
<stop offset="0.168737" stop-color="#F4F3F8"/>
<stop offset="0.627859" stop-color="#E7E6EE"/>
<stop offset="0.80404" stop-color="#F3F3F3"/>
</linearGradient>
</defs>
</svg>
