<svg width="571" height="631" viewBox="0 0 571 631" fill="none" xmlns="http://www.w3.org/2000/svg">
<g opacity="0.5" filter="url(#filter0_f_2428_248)">
<ellipse cx="285.956" cy="76.8762" rx="13.7042" ry="13.2253" fill="url(#paint0_radial_2428_248)"/>
</g>
<path fill-rule="evenodd" clip-rule="evenodd" d="M283.672 463.348C393.417 463.348 482.383 377.491 482.383 271.582C482.383 165.672 393.417 79.8152 283.672 79.8152C173.927 79.8152 84.9609 165.672 84.9609 271.582C84.9609 377.491 173.927 463.348 283.672 463.348ZM283.672 467.756C395.94 467.756 486.951 379.926 486.951 271.582C486.951 163.237 395.94 75.4067 283.672 75.4067C171.404 75.4067 80.3929 163.237 80.3929 271.582C80.3929 379.926 171.404 467.756 283.672 467.756Z" fill="url(#paint1_linear_2428_248)"/>
<g filter="url(#filter1_f_2428_248)">
<path d="M285.956 54.834L287.915 74.8504L307.274 76.8761L287.915 78.9018L285.956 98.9182L283.997 78.9018L264.638 76.8761L283.997 74.8504L285.956 54.834Z" fill="white"/>
</g>
<path d="M260.792 211.291L252.816 37H316.625L308.649 211.291H260.792Z" fill="url(#paint2_linear_2428_248)"/>
<path d="M335.426 261.117L495.82 341.597L463.916 394.926L311.498 301.114L335.426 261.117Z" fill="url(#paint3_linear_2428_248)"/>
<path d="M307.509 304.209L315.485 478.5H251.676L259.652 304.209H307.509Z" fill="url(#paint4_linear_2428_248)"/>
<path d="M257.107 301.667L104.688 395.479L72.7836 342.149L233.178 261.67L257.107 301.667Z" fill="url(#paint5_linear_2428_248)"/>
<path d="M335.426 254.657L495.82 174.177L463.916 120.848L311.498 214.66L335.426 254.657Z" fill="url(#paint6_linear_2428_248)"/>
<path d="M257.107 214.108L104.688 120.296L72.7836 173.625L233.178 254.105L257.107 214.108Z" fill="url(#paint7_linear_2428_248)"/>
<g filter="url(#filter2_dd_2428_248)">
<path d="M168.988 236.63L168.988 193.31L63 193.31C63 220.385 82.834 236.63 98.9491 236.63L168.988 236.63Z" fill="url(#paint8_linear_2428_248)"/>
<path d="M168.988 236.63L168.988 193.31L63 193.31C63 220.385 82.834 236.63 98.9491 236.63L168.988 236.63Z" stroke="url(#paint9_linear_2428_248)" stroke-width="2.29412"/>
<path d="M206.395 275.137L206.395 231.817L100.407 231.817C100.407 258.892 120.241 275.137 136.357 275.137L206.395 275.137Z" fill="url(#paint10_linear_2428_248)"/>
<path d="M206.395 275.137L206.395 231.817L100.407 231.817C100.407 258.892 120.241 275.137 136.357 275.137L206.395 275.137Z" stroke="url(#paint11_linear_2428_248)" stroke-width="2.29412"/>
<path d="M402.512 236.63L402.512 193.31L508.5 193.31C508.5 220.385 488.666 236.63 472.551 236.63L402.512 236.63Z" fill="url(#paint12_linear_2428_248)"/>
<path d="M402.512 236.63L402.512 193.31L508.5 193.31C508.5 220.385 488.666 236.63 472.551 236.63L402.512 236.63Z" stroke="url(#paint13_linear_2428_248)" stroke-width="2.29412"/>
<path d="M365.105 275.137L365.105 231.817L471.093 231.817C471.093 258.892 451.259 275.137 435.143 275.137L365.105 275.137Z" fill="url(#paint14_linear_2428_248)"/>
<path d="M365.105 275.137L365.105 231.817L471.093 231.817C471.093 258.892 451.259 275.137 435.143 275.137L365.105 275.137Z" stroke="url(#paint15_linear_2428_248)" stroke-width="2.29412"/>
<g filter="url(#filter3_d_2428_248)">
<path fill-rule="evenodd" clip-rule="evenodd" d="M224.875 327.59V420.79L257.113 437.509C257.779 437.854 258.574 437.374 258.574 436.624C258.571 401.87 258.605 362.187 258.605 327.59H224.875Z" fill="#9CB7ED"/>
<path fill-rule="evenodd" clip-rule="evenodd" d="M224.875 327.59V420.79L257.113 437.509C257.779 437.854 258.574 437.374 258.574 436.624C258.571 401.87 258.605 362.187 258.605 327.59H224.875Z" stroke="url(#paint16_linear_2428_248)"/>
</g>
<path fill-rule="evenodd" clip-rule="evenodd" d="M227.665 416.617V380.043H227.049V417.113L227.307 417.154C228.159 417.291 229.106 417.778 229.88 418.489C230.653 419.199 231.225 420.108 231.367 421.067L231.39 421.226L256.326 433.545V392.246H255.709V432.61L231.95 420.822C231.747 419.761 231.109 418.798 230.305 418.058C229.533 417.349 228.584 416.824 227.665 416.617Z" fill="url(#paint17_linear_2428_248)"/>
<path fill-rule="evenodd" clip-rule="evenodd" d="M255.674 430.433C256.339 429.349 256.377 427.81 256.325 426.817L255.71 426.847C255.761 427.836 255.706 429.212 255.144 430.13C254.871 430.575 254.485 430.903 253.929 431.038C253.363 431.175 252.582 431.122 251.507 430.718L251.283 431.273C252.427 431.702 253.346 431.792 254.079 431.615C254.822 431.435 255.333 430.989 255.674 430.433Z" fill="#E3EFFB"/>
<g filter="url(#filter4_d_2428_248)">
<path fill-rule="evenodd" clip-rule="evenodd" d="M219.456 418.692V327.59H180.306V398.428C180.306 399.592 180.979 400.65 182.033 401.144L219.456 418.692Z" fill="#C6D9FF"/>
<path fill-rule="evenodd" clip-rule="evenodd" d="M219.456 418.692V327.59H180.306V398.428C180.306 399.592 180.979 400.65 182.033 401.144L219.456 418.692Z" stroke="url(#paint18_linear_2428_248)"/>
</g>
<path fill-rule="evenodd" clip-rule="evenodd" d="M183.207 395.925V352.767H182.48V396.509L182.784 396.558C183.789 396.72 184.907 397.294 185.82 398.133C186.733 398.971 187.408 400.044 187.575 401.175L187.603 401.363L217.027 414.662V367.167H216.299V413.558L188.263 400.886C188.023 399.635 187.271 398.497 186.322 397.625C185.411 396.788 184.292 396.169 183.207 395.925Z" fill="url(#paint19_linear_2428_248)"/>
<path fill-rule="evenodd" clip-rule="evenodd" d="M216.258 410.99C217.042 409.71 217.087 407.895 217.026 406.723L216.3 406.758C216.36 407.925 216.296 409.549 215.632 410.632C215.31 411.158 214.854 411.544 214.199 411.703C213.531 411.865 212.609 411.802 211.34 411.326L211.077 411.98C212.426 412.487 213.51 412.594 214.376 412.384C215.253 412.172 215.856 411.646 216.258 410.99Z" fill="#F2F9FF"/>
<g filter="url(#filter5_d_2428_248)">
<path fill-rule="evenodd" clip-rule="evenodd" d="M347.743 327.59V420.79L315.506 437.509C314.84 437.854 314.045 437.374 314.045 436.624C314.048 401.87 314.013 362.187 314.013 327.59H347.743Z" fill="#9CB7ED"/>
<path fill-rule="evenodd" clip-rule="evenodd" d="M347.743 327.59V420.79L315.506 437.509C314.84 437.854 314.045 437.374 314.045 436.624C314.048 401.87 314.013 362.187 314.013 327.59H347.743Z" stroke="url(#paint20_linear_2428_248)"/>
</g>
<path fill-rule="evenodd" clip-rule="evenodd" d="M344.954 416.617V380.043H345.57V417.113L345.312 417.154C344.46 417.291 343.513 417.778 342.739 418.489C341.966 419.199 341.394 420.108 341.252 421.067L341.229 421.226L316.293 433.545V392.246H316.909V432.61L340.669 420.822C340.872 419.761 341.509 418.798 342.314 418.058C343.086 417.349 344.034 416.824 344.954 416.617Z" fill="url(#paint21_linear_2428_248)"/>
<path fill-rule="evenodd" clip-rule="evenodd" d="M316.945 430.433C316.28 429.349 316.242 427.81 316.294 426.817L316.909 426.847C316.858 427.836 316.912 429.212 317.475 430.13C317.748 430.575 318.134 430.903 318.69 431.038C319.256 431.175 320.037 431.122 321.112 430.718L321.336 431.273C320.192 431.702 319.273 431.792 318.54 431.615C317.797 431.435 317.286 430.989 316.945 430.433Z" fill="#E3EFFB"/>
<g filter="url(#filter6_d_2428_248)">
<path fill-rule="evenodd" clip-rule="evenodd" d="M353.163 418.692V327.59H392.313V398.428C392.313 399.592 391.64 400.65 390.586 401.144L353.163 418.692Z" fill="#C6D9FF"/>
<path fill-rule="evenodd" clip-rule="evenodd" d="M353.163 418.692V327.59H392.313V398.428C392.313 399.592 391.64 400.65 390.586 401.144L353.163 418.692Z" stroke="url(#paint22_linear_2428_248)"/>
</g>
<path fill-rule="evenodd" clip-rule="evenodd" d="M389.412 395.925V352.767H390.139V396.509L389.835 396.558C388.83 396.72 387.711 397.294 386.798 398.133C385.886 398.971 385.211 400.044 385.044 401.175L385.016 401.363L355.592 414.662V367.167H356.32V413.558L384.356 400.886C384.595 399.635 385.348 398.497 386.297 397.625C387.208 396.788 388.327 396.169 389.412 395.925Z" fill="url(#paint23_linear_2428_248)"/>
<path fill-rule="evenodd" clip-rule="evenodd" d="M356.361 410.99C355.577 409.71 355.532 407.895 355.593 406.723L356.319 406.758C356.258 407.925 356.323 409.549 356.987 410.632C357.309 411.158 357.765 411.544 358.42 411.703C359.088 411.865 360.01 411.802 361.278 411.326L361.542 411.98C360.192 412.487 359.108 412.594 358.243 412.384C357.366 412.172 356.763 411.646 356.361 410.99Z" fill="#F2F9FF"/>
<g filter="url(#filter7_d_2428_248)">
<path d="M248.79 300.315H323.797V446.854L287.28 468.352C286.377 468.884 285.256 468.883 284.353 468.351L248.79 447.358V300.315Z" fill="#6A88C4"/>
<path d="M248.79 300.315H323.797V446.854L287.28 468.352C286.377 468.884 285.256 468.883 284.353 468.351L248.79 447.358V300.315Z" stroke="url(#paint24_linear_2428_248)" stroke-width="2"/>
</g>
<path fill-rule="evenodd" clip-rule="evenodd" d="M252.595 391.583H253.682V444.268L285.752 463.354L318.362 444.266V391.583H319.449V444.857L285.748 464.584L252.595 444.854V391.583Z" fill="url(#paint25_linear_2428_248)"/>
<path fill-rule="evenodd" clip-rule="evenodd" d="M286.22 441.938V460.971H285.275V441.938H286.22Z" fill="url(#paint26_linear_2428_248)"/>
<path fill-rule="evenodd" clip-rule="evenodd" d="M282.916 454.217C281.035 456.311 278.744 456.776 277.166 456.523L277.321 455.623C278.578 455.825 280.539 455.471 282.202 453.62C283.871 451.762 285.275 448.353 285.275 442.395H286.22C286.22 448.473 284.79 452.131 282.916 454.217Z" fill="url(#paint27_linear_2428_248)"/>
<path fill-rule="evenodd" clip-rule="evenodd" d="M288.58 454.217C290.461 456.311 292.752 456.776 294.33 456.523L294.174 455.623C292.917 455.825 290.957 455.471 289.294 453.62C287.625 451.762 286.22 448.353 286.22 442.395H285.275C285.275 448.473 286.706 452.131 288.58 454.217Z" fill="url(#paint28_linear_2428_248)"/>
<path fill-rule="evenodd" clip-rule="evenodd" d="M285.549 461.386L274.879 455.617L277.242 455.617L285.747 460.47L294.25 455.576H296.335L285.941 461.387C285.817 461.441 285.673 461.441 285.549 461.386Z" fill="url(#paint29_linear_2428_248)"/>
<g filter="url(#filter8_d_2428_248)">
<path d="M277.848 109.337L158.966 171.748C153.372 174.684 149.868 180.481 149.868 186.799L149.868 328.337C149.868 334.655 153.372 340.452 158.966 343.388L277.848 405.799C282.796 408.396 288.704 408.396 293.652 405.799L412.534 343.388C418.128 340.452 421.632 334.655 421.632 328.337L421.632 186.799C421.632 180.481 418.128 174.684 412.534 171.748L293.652 109.337C288.704 106.74 282.796 106.74 277.848 109.337Z" fill="url(#paint30_linear_2428_248)"/>
<path d="M277.715 132.401L179.586 183.917C174.013 186.842 170.522 192.618 170.522 198.912L170.522 315.695C170.522 321.989 174.013 327.764 179.586 330.69L277.715 382.205C282.644 384.793 288.53 384.793 293.459 382.205L391.588 330.69C397.161 327.764 400.652 321.989 400.652 315.695L400.652 198.912C400.652 192.618 397.161 186.842 391.588 183.917L293.459 132.401C288.53 129.814 282.644 129.814 277.715 132.401Z" fill="url(#paint31_linear_2428_248)"/>
<g filter="url(#filter9_f_2428_248)">
<path d="M277.715 132.401L179.586 183.917C174.013 186.842 170.522 192.618 170.522 198.912L170.522 315.695C170.522 321.989 174.013 327.764 179.586 330.69L277.715 382.205C282.644 384.793 288.53 384.793 293.459 382.205L391.588 330.69C397.161 327.764 400.652 321.989 400.652 315.695L400.652 198.912C400.652 192.618 397.161 186.842 391.588 183.917L293.459 132.401C288.53 129.814 282.644 129.814 277.715 132.401Z" stroke="url(#paint32_linear_2428_248)"/>
</g>
<g opacity="0.5">
<mask id="mask0_2428_248" style="mask-type:alpha" maskUnits="userSpaceOnUse" x="180" y="140" width="213" height="235">
<path d="M278.811 142.684L188.933 189.826C183.629 192.608 180.306 198.103 180.306 204.092L180.306 310.924C180.306 316.914 183.629 322.409 188.933 325.191L278.811 372.332C283.497 374.79 289.091 374.79 293.776 372.332L383.654 325.191C388.958 322.409 392.281 316.914 392.281 310.924L392.281 204.092C392.281 198.103 388.958 192.608 383.654 189.826L293.776 142.684C289.091 140.226 283.497 140.226 278.811 142.684Z" fill="#A6D3DE"/>
</mask>
<g mask="url(#mask0_2428_248)">
<path d="M278.811 142.684L188.933 189.826C183.629 192.608 180.306 198.103 180.306 204.092L180.306 310.924C180.306 316.914 183.629 322.409 188.933 325.191L278.811 372.332C283.497 374.79 289.091 374.79 293.776 372.332L383.654 325.191C388.958 322.409 392.281 316.914 392.281 310.924L392.281 204.092C392.281 198.103 388.958 192.608 383.654 189.826L293.776 142.684C289.091 140.226 283.497 140.226 278.811 142.684Z" fill="url(#paint33_radial_2428_248)"/>
<path opacity="0.5" d="M268.575 380.948L264.365 134.056H308.222L304.012 380.948H268.575Z" fill="url(#paint34_linear_2428_248)"/>
<path opacity="0.5" d="M268.011 378.758L136.449 166.975L174.43 145.813L298.7 361.659L268.011 378.758Z" fill="url(#paint35_linear_2428_248)"/>
<path opacity="0.5" d="M264.357 361.659L388.627 145.813L426.608 166.975L295.045 378.758L264.357 361.659Z" fill="url(#paint36_linear_2428_248)"/>
<rect x="180.306" y="243.394" width="211.976" height="132.851" fill="url(#paint37_linear_2428_248)"/>
<g filter="url(#filter10_i_2428_248)">
<path d="M278.811 142.684L188.933 189.826C183.629 192.608 180.306 198.103 180.306 204.092L180.306 310.924C180.306 316.914 183.629 322.409 188.933 325.191L278.811 372.332C283.497 374.79 289.091 374.79 293.776 372.332L383.654 325.191C388.958 322.409 392.281 316.914 392.281 310.924L392.281 204.092C392.281 198.103 388.958 192.608 383.654 189.826L293.776 142.684C289.091 140.226 283.497 140.226 278.811 142.684Z" fill="#6052B4" fill-opacity="0.01"/>
</g>
</g>
</g>
</g>
</g>
<path d="M279.377 233.654C295.93 253.52 296.473 279.618 275.887 295.592C255.301 311.567 227.311 306.769 210.758 286.903C194.205 267.036 191.247 234.693 211.833 218.718C232.419 202.743 262.823 213.787 279.377 233.654Z" fill="url(#paint38_linear_2428_248)"/>
<path d="M279.376 233.655C295.93 253.522 296.711 279.434 276.506 295.113C256.302 310.792 228.582 305.784 212.028 285.918C195.475 266.051 192.248 233.918 212.452 218.239C232.657 202.559 262.823 213.788 279.376 233.655Z" fill="url(#paint39_linear_2428_248)"/>
<path d="M270.032 291.176C269.289 290.345 269.398 289.085 270.275 288.381L285.808 275.909C287.446 274.594 289.806 276.275 288.984 278.171L284.083 289.477C283.919 289.856 283.882 290.275 283.977 290.675L287.346 304.866C287.82 306.862 285.206 308.144 283.82 306.595L270.032 291.176Z" fill="url(#paint40_linear_2428_248)"/>
<path d="M271.866 290.101C271.18 289.237 269.914 289.062 269.031 289.711L252.851 301.595C251.154 302.841 252.379 305.488 254.48 305.115L267.848 302.745C268.271 302.67 268.709 302.729 269.1 302.912L282.039 308.99C283.97 309.897 285.809 307.68 284.497 306.026L271.866 290.101Z" fill="url(#paint41_linear_2428_248)"/>
<path d="M271.507 298.707C270.446 297.434 270.648 295.578 271.957 294.563L275.688 291.667C276.997 290.651 278.918 290.86 279.978 292.133L306.834 324.364C307.895 325.637 307.694 327.492 306.385 328.508L302.653 331.403C301.344 332.419 299.423 332.211 298.363 330.938L271.507 298.707Z" fill="url(#paint42_linear_2428_248)"/>
<path d="M363.559 282.029C348.023 302.646 322.065 309.982 300.701 294.989C279.337 279.995 276.81 252.67 292.346 232.052C307.883 211.435 339.454 200.215 360.819 215.209C382.183 230.202 379.095 261.411 363.559 282.029Z" fill="url(#paint43_linear_2428_248)"/>
<path d="M363.558 282.028C348.022 302.646 322.311 310.155 301.343 295.439C280.374 280.724 278.128 253.594 293.664 232.977C309.2 212.359 340.492 200.944 361.461 215.659C382.429 230.375 379.094 261.41 363.558 282.028Z" fill="url(#paint44_linear_2428_248)"/>
<path d="M303.578 288.388C304.22 287.471 305.496 287.231 306.416 287.854L322.905 299.024C324.638 300.198 323.542 302.881 321.437 302.613L308.952 301.02C308.536 300.967 308.111 301.042 307.737 301.235L294.331 308.136C292.458 309.1 290.55 307.004 291.745 305.296L303.578 288.388Z" fill="url(#paint45_linear_2428_248)"/>
<path d="M305.145 289.8C305.827 288.94 305.66 287.71 304.771 287.051L288.618 275.066C286.921 273.807 284.616 275.61 285.54 277.474L291.44 289.368C291.628 289.746 291.685 290.171 291.604 290.583L288.926 304.155C288.524 306.19 291.237 307.358 292.541 305.712L305.145 289.8Z" fill="url(#paint46_linear_2428_248)"/>
<rect width="10.7406" height="47.8401" rx="3" transform="matrix(0.818541 0.574448 -0.60181 0.798639 298.243 289.332)" fill="url(#paint47_linear_2428_248)"/>
<ellipse cx="285.5" cy="216" rx="10" ry="9.5" fill="url(#paint48_linear_2428_248)"/>
<g filter="url(#filter11_d_2428_248)">
<path d="M184.83 587.55H201.3V597H172.05V539.76H184.83V587.55ZM218.318 587.55H236.678V597H205.448V539.76H235.958V549.21H218.318V563.16H233.348V572.61H218.318V587.55ZM276.115 558.3H263.245V550.83C263.245 549.33 262.435 548.58 260.815 548.58H257.125C255.505 548.58 254.695 549.33 254.695 550.83V585.93C254.695 586.77 254.875 587.37 255.235 587.73C255.595 588.03 256.225 588.18 257.125 588.18H260.815C261.715 588.18 262.345 588.03 262.705 587.73C263.065 587.37 263.245 586.77 263.245 585.93V574.77H258.745V566.22H276.115V587.1C276.115 593.7 272.335 597 264.775 597H253.165C245.605 597 241.825 593.7 241.825 587.1V549.66C241.825 543.06 245.605 539.76 253.165 539.76H264.775C272.335 539.76 276.115 543.06 276.115 549.66V558.3ZM296.19 587.55H314.55V597H283.32V539.76H313.83V549.21H296.19V563.16H311.22V572.61H296.19V587.55ZM344.086 539.76H355.876V597H344.356L331.846 562.71V597H320.146V539.76H331.756L344.086 573.96V539.76ZM364.545 539.76H388.395C396.015 539.76 399.825 543.06 399.825 549.66V587.01C399.825 593.67 396.015 597 388.395 597H364.545V539.76ZM386.955 585.93V550.83C386.955 549.33 386.145 548.58 384.525 548.58H377.415V588.18H384.525C386.145 588.18 386.955 587.43 386.955 585.93Z" fill="#E4E5E7"/>
</g>
<defs>
<filter id="filter0_f_2428_248" x="269.45" y="60.8494" width="33.0114" height="32.0537" filterUnits="userSpaceOnUse" color-interpolation-filters="sRGB">
<feFlood flood-opacity="0" result="BackgroundImageFix"/>
<feBlend mode="normal" in="SourceGraphic" in2="BackgroundImageFix" result="shape"/>
<feGaussianBlur stdDeviation="1.40075" result="effect1_foregroundBlur_2428_248"/>
</filter>
<filter id="filter1_f_2428_248" x="263.798" y="53.9935" width="44.3162" height="45.7654" filterUnits="userSpaceOnUse" color-interpolation-filters="sRGB">
<feFlood flood-opacity="0" result="BackgroundImageFix"/>
<feBlend mode="normal" in="SourceGraphic" in2="BackgroundImageFix" result="shape"/>
<feGaussianBlur stdDeviation="0.420225" result="effect1_foregroundBlur_2428_248"/>
</filter>
<filter id="filter2_dd_2428_248" x="0.656521" y="50.2725" width="570.187" height="484.754" filterUnits="userSpaceOnUse" color-interpolation-filters="sRGB">
<feFlood flood-opacity="0" result="BackgroundImageFix"/>
<feColorMatrix in="SourceAlpha" type="matrix" values="0 0 0 0 0 0 0 0 0 0 0 0 0 0 0 0 0 0 127 0" result="hardAlpha"/>
<feOffset/>
<feGaussianBlur stdDeviation="10.1994"/>
<feColorMatrix type="matrix" values="0 0 0 0 0.558594 0 0 0 0 0.710156 0 0 0 0 0.9375 0 0 0 1 0"/>
<feBlend mode="normal" in2="BackgroundImageFix" result="effect1_dropShadow_2428_248"/>
<feColorMatrix in="SourceAlpha" type="matrix" values="0 0 0 0 0 0 0 0 0 0 0 0 0 0 0 0 0 0 127 0" result="hardAlpha"/>
<feOffset dy="4.07976"/>
<feGaussianBlur stdDeviation="30.5982"/>
<feColorMatrix type="matrix" values="0 0 0 0 0.670833 0 0 0 0 0.8025 0 0 0 0 1 0 0 0 0.6 0"/>
<feBlend mode="normal" in2="effect1_dropShadow_2428_248" result="effect2_dropShadow_2428_248"/>
<feBlend mode="normal" in="SourceGraphic" in2="effect2_dropShadow_2428_248" result="shape"/>
</filter>
<filter id="filter3_d_2428_248" x="216.375" y="319.09" width="50.73" height="127.033" filterUnits="userSpaceOnUse" color-interpolation-filters="sRGB">
<feFlood flood-opacity="0" result="BackgroundImageFix"/>
<feColorMatrix in="SourceAlpha" type="matrix" values="0 0 0 0 0 0 0 0 0 0 0 0 0 0 0 0 0 0 127 0" result="hardAlpha"/>
<feOffset/>
<feGaussianBlur stdDeviation="4"/>
<feColorMatrix type="matrix" values="0 0 0 0 0.288889 0 0 0 0 0.357333 0 0 0 0 0.533333 0 0 0 0.74 0"/>
<feBlend mode="normal" in2="BackgroundImageFix" result="effect1_dropShadow_2428_248"/>
<feBlend mode="normal" in="SourceGraphic" in2="effect1_dropShadow_2428_248" result="shape"/>
</filter>
<filter id="filter4_d_2428_248" x="171.806" y="319.09" width="56.1495" height="108.389" filterUnits="userSpaceOnUse" color-interpolation-filters="sRGB">
<feFlood flood-opacity="0" result="BackgroundImageFix"/>
<feColorMatrix in="SourceAlpha" type="matrix" values="0 0 0 0 0 0 0 0 0 0 0 0 0 0 0 0 0 0 127 0" result="hardAlpha"/>
<feOffset/>
<feGaussianBlur stdDeviation="4"/>
<feColorMatrix type="matrix" values="0 0 0 0 0.288889 0 0 0 0 0.357333 0 0 0 0 0.533333 0 0 0 0.74 0"/>
<feBlend mode="normal" in2="BackgroundImageFix" result="effect1_dropShadow_2428_248"/>
<feBlend mode="normal" in="SourceGraphic" in2="effect1_dropShadow_2428_248" result="shape"/>
</filter>
<filter id="filter5_d_2428_248" x="305.513" y="319.09" width="50.73" height="127.033" filterUnits="userSpaceOnUse" color-interpolation-filters="sRGB">
<feFlood flood-opacity="0" result="BackgroundImageFix"/>
<feColorMatrix in="SourceAlpha" type="matrix" values="0 0 0 0 0 0 0 0 0 0 0 0 0 0 0 0 0 0 127 0" result="hardAlpha"/>
<feOffset/>
<feGaussianBlur stdDeviation="4"/>
<feColorMatrix type="matrix" values="0 0 0 0 0.288889 0 0 0 0 0.357333 0 0 0 0 0.533333 0 0 0 0.74 0"/>
<feBlend mode="normal" in2="BackgroundImageFix" result="effect1_dropShadow_2428_248"/>
<feBlend mode="normal" in="SourceGraphic" in2="effect1_dropShadow_2428_248" result="shape"/>
</filter>
<filter id="filter6_d_2428_248" x="344.663" y="319.09" width="56.1495" height="108.389" filterUnits="userSpaceOnUse" color-interpolation-filters="sRGB">
<feFlood flood-opacity="0" result="BackgroundImageFix"/>
<feColorMatrix in="SourceAlpha" type="matrix" values="0 0 0 0 0 0 0 0 0 0 0 0 0 0 0 0 0 0 127 0" result="hardAlpha"/>
<feOffset/>
<feGaussianBlur stdDeviation="4"/>
<feColorMatrix type="matrix" values="0 0 0 0 0.288889 0 0 0 0 0.357333 0 0 0 0 0.533333 0 0 0 0.74 0"/>
<feBlend mode="normal" in2="BackgroundImageFix" result="effect1_dropShadow_2428_248"/>
<feBlend mode="normal" in="SourceGraphic" in2="effect1_dropShadow_2428_248" result="shape"/>
</filter>
<filter id="filter7_d_2428_248" x="239.79" y="291.315" width="93.0067" height="186.436" filterUnits="userSpaceOnUse" color-interpolation-filters="sRGB">
<feFlood flood-opacity="0" result="BackgroundImageFix"/>
<feColorMatrix in="SourceAlpha" type="matrix" values="0 0 0 0 0 0 0 0 0 0 0 0 0 0 0 0 0 0 127 0" result="hardAlpha"/>
<feOffset/>
<feGaussianBlur stdDeviation="4"/>
<feColorMatrix type="matrix" values="0 0 0 0 0.288889 0 0 0 0 0.357333 0 0 0 0 0.533333 0 0 0 0.8 0"/>
<feBlend mode="normal" in2="BackgroundImageFix" result="effect1_dropShadow_2428_248"/>
<feBlend mode="normal" in="SourceGraphic" in2="effect1_dropShadow_2428_248" result="shape"/>
</filter>
<filter id="filter8_d_2428_248" x="143.868" y="107.389" width="283.763" height="314.358" filterUnits="userSpaceOnUse" color-interpolation-filters="sRGB">
<feFlood flood-opacity="0" result="BackgroundImageFix"/>
<feColorMatrix in="SourceAlpha" type="matrix" values="0 0 0 0 0 0 0 0 0 0 0 0 0 0 0 0 0 0 127 0" result="hardAlpha"/>
<feOffset dy="8"/>
<feGaussianBlur stdDeviation="3"/>
<feColorMatrix type="matrix" values="0 0 0 0 0.141181 0 0 0 0 0.190317 0 0 0 0 0.316667 0 0 0 0.51 0"/>
<feBlend mode="normal" in2="BackgroundImageFix" result="effect1_dropShadow_2428_248"/>
<feBlend mode="normal" in="SourceGraphic" in2="effect1_dropShadow_2428_248" result="shape"/>
</filter>
<filter id="filter9_f_2428_248" x="169.722" y="129.66" width="231.73" height="255.286" filterUnits="userSpaceOnUse" color-interpolation-filters="sRGB">
<feFlood flood-opacity="0" result="BackgroundImageFix"/>
<feBlend mode="normal" in="SourceGraphic" in2="BackgroundImageFix" result="shape"/>
<feGaussianBlur stdDeviation="0.15" result="effect1_foregroundBlur_2428_248"/>
</filter>
<filter id="filter10_i_2428_248" x="180.306" y="140.841" width="211.976" height="233.334" filterUnits="userSpaceOnUse" color-interpolation-filters="sRGB">
<feFlood flood-opacity="0" result="BackgroundImageFix"/>
<feBlend mode="normal" in="SourceGraphic" in2="BackgroundImageFix" result="shape"/>
<feColorMatrix in="SourceAlpha" type="matrix" values="0 0 0 0 0 0 0 0 0 0 0 0 0 0 0 0 0 0 127 0" result="hardAlpha"/>
<feOffset/>
<feGaussianBlur stdDeviation="6.72414"/>
<feComposite in2="hardAlpha" operator="arithmetic" k2="-1" k3="1"/>
<feColorMatrix type="matrix" values="0 0 0 0 0.297222 0 0 0 0 0.329917 0 0 0 0 0.445833 0 0 0 1 0"/>
<feBlend mode="normal" in2="shape" result="effect1_innerShadow_2428_248"/>
</filter>
<filter id="filter11_d_2428_248" x="142.05" y="513.76" width="287.775" height="117.24" filterUnits="userSpaceOnUse" color-interpolation-filters="sRGB">
<feFlood flood-opacity="0" result="BackgroundImageFix"/>
<feColorMatrix in="SourceAlpha" type="matrix" values="0 0 0 0 0 0 0 0 0 0 0 0 0 0 0 0 0 0 127 0" result="hardAlpha"/>
<feOffset dy="4"/>
<feGaussianBlur stdDeviation="15"/>
<feComposite in2="hardAlpha" operator="out"/>
<feColorMatrix type="matrix" values="0 0 0 0 0.415686 0 0 0 0 0.533333 0 0 0 0 0.764706 0 0 0 1 0"/>
<feBlend mode="normal" in2="BackgroundImageFix" result="effect1_dropShadow_2428_248"/>
<feBlend mode="normal" in="SourceGraphic" in2="effect1_dropShadow_2428_248" result="shape"/>
</filter>
<radialGradient id="paint0_radial_2428_248" cx="0" cy="0" r="1" gradientUnits="userSpaceOnUse" gradientTransform="translate(285.956 76.8762) rotate(90) scale(21.1604 21.9267)">
<stop stop-color="#E7ECFF"/>
<stop offset="0.979167" stop-color="#ABC3FF" stop-opacity="0.8825"/>
<stop offset="1" stop-color="#AACCFF" stop-opacity="0.88"/>
</radialGradient>
<linearGradient id="paint1_linear_2428_248" x1="284.433" y1="77.611" x2="284.433" y2="392.079" gradientUnits="userSpaceOnUse">
<stop stop-color="#DEE7FF"/>
<stop offset="0.0722622" stop-color="#CCDDFF" stop-opacity="0.33"/>
<stop offset="1" stop-color="#98C6F0" stop-opacity="0"/>
</linearGradient>
<linearGradient id="paint2_linear_2428_248" x1="284.721" y1="37" x2="284.721" y2="211.291" gradientUnits="userSpaceOnUse">
<stop stop-color="#AACCFF" stop-opacity="0"/>
<stop offset="1" stop-color="#AACCFF" stop-opacity="0.3"/>
</linearGradient>
<linearGradient id="paint3_linear_2428_248" x1="479.868" y1="368.261" x2="326.293" y2="276.384" gradientUnits="userSpaceOnUse">
<stop stop-color="#AACCFF" stop-opacity="0"/>
<stop offset="1" stop-color="#AACCFF" stop-opacity="0.3"/>
</linearGradient>
<linearGradient id="paint4_linear_2428_248" x1="283.58" y1="478.5" x2="283.58" y2="304.209" gradientUnits="userSpaceOnUse">
<stop stop-color="#AACCFF" stop-opacity="0"/>
<stop offset="1" stop-color="#AACCFF" stop-opacity="0.3"/>
</linearGradient>
<linearGradient id="paint5_linear_2428_248" x1="88.7359" y1="368.814" x2="242.311" y2="276.936" gradientUnits="userSpaceOnUse">
<stop stop-color="#AACCFF" stop-opacity="0"/>
<stop offset="1" stop-color="#AACCFF" stop-opacity="0.3"/>
</linearGradient>
<linearGradient id="paint6_linear_2428_248" x1="479.868" y1="147.513" x2="326.293" y2="239.39" gradientUnits="userSpaceOnUse">
<stop stop-color="#AACCFF" stop-opacity="0"/>
<stop offset="1" stop-color="#AACCFF" stop-opacity="0.3"/>
</linearGradient>
<linearGradient id="paint7_linear_2428_248" x1="88.7359" y1="146.961" x2="242.311" y2="238.839" gradientUnits="userSpaceOnUse">
<stop stop-color="#AACCFF" stop-opacity="0"/>
<stop offset="1" stop-color="#AACCFF" stop-opacity="0.3"/>
</linearGradient>
<linearGradient id="paint8_linear_2428_248" x1="127.84" y1="236.63" x2="91.161" y2="198.624" gradientUnits="userSpaceOnUse">
<stop stop-color="#C3C5D1"/>
<stop offset="0.875" stop-color="#F9F9F9"/>
</linearGradient>
<linearGradient id="paint9_linear_2428_248" x1="69.2346" y1="193.31" x2="103.847" y2="237.834" gradientUnits="userSpaceOnUse">
<stop stop-color="#F9F9F9"/>
<stop offset="0.378992" stop-color="#F9F9F9"/>
<stop offset="0.480868" stop-color="#DFDFE6"/>
<stop offset="0.729174" stop-color="#B8BAC6"/>
</linearGradient>
<linearGradient id="paint10_linear_2428_248" x1="154.025" y1="269.722" x2="117.388" y2="230.514" gradientUnits="userSpaceOnUse">
<stop stop-color="#C3C5D1"/>
<stop offset="0.875" stop-color="#F9F9F9"/>
</linearGradient>
<linearGradient id="paint11_linear_2428_248" x1="106.019" y1="231.817" x2="124.263" y2="270.237" gradientUnits="userSpaceOnUse">
<stop stop-color="#F4F4F5"/>
<stop offset="0.306027" stop-color="#F4F4F5"/>
<stop offset="0.462087" stop-color="#E8E9EC"/>
<stop offset="0.682292" stop-color="#DFDFE6"/>
<stop offset="1" stop-color="#B8BAC6"/>
</linearGradient>
<linearGradient id="paint12_linear_2428_248" x1="443.66" y1="236.63" x2="480.339" y2="198.624" gradientUnits="userSpaceOnUse">
<stop stop-color="#C3C5D1"/>
<stop offset="0.875" stop-color="#F9F9F9"/>
</linearGradient>
<linearGradient id="paint13_linear_2428_248" x1="502.265" y1="193.31" x2="467.653" y2="237.834" gradientUnits="userSpaceOnUse">
<stop stop-color="#F9F9F9"/>
<stop offset="0.378992" stop-color="#F9F9F9"/>
<stop offset="0.480868" stop-color="#DFDFE6"/>
<stop offset="0.729174" stop-color="#B8BAC6"/>
</linearGradient>
<linearGradient id="paint14_linear_2428_248" x1="417.475" y1="269.722" x2="454.112" y2="230.514" gradientUnits="userSpaceOnUse">
<stop stop-color="#C3C5D1"/>
<stop offset="0.875" stop-color="#F9F9F9"/>
</linearGradient>
<linearGradient id="paint15_linear_2428_248" x1="465.481" y1="231.817" x2="447.237" y2="270.237" gradientUnits="userSpaceOnUse">
<stop stop-color="#F4F4F5"/>
<stop offset="0.306027" stop-color="#F4F4F5"/>
<stop offset="0.462087" stop-color="#E8E9EC"/>
<stop offset="0.682292" stop-color="#DFDFE6"/>
<stop offset="1" stop-color="#B8BAC6"/>
</linearGradient>
<linearGradient id="paint16_linear_2428_248" x1="258.605" y1="402.107" x2="223.121" y2="407.799" gradientUnits="userSpaceOnUse">
<stop stop-color="#91B1E3"/>
<stop offset="0.208702" stop-color="#F0F6FF"/>
<stop offset="0.514766" stop-color="#A4BFE9"/>
<stop offset="0.728274" stop-color="#8BADE0"/>
<stop offset="0.971703" stop-color="#D0DEF3"/>
</linearGradient>
<linearGradient id="paint17_linear_2428_248" x1="228.431" y1="410.27" x2="245.944" y2="404.86" gradientUnits="userSpaceOnUse">
<stop stop-color="#FAFCFF"/>
<stop offset="0.309893" stop-color="#D7E6FC"/>
<stop offset="0.523799" stop-color="#C1D8F4"/>
<stop offset="0.77229" stop-color="#BBD6FF"/>
<stop offset="1" stop-color="white"/>
</linearGradient>
<linearGradient id="paint18_linear_2428_248" x1="179.219" y1="380.043" x2="219.535" y2="426.848" gradientUnits="userSpaceOnUse">
<stop stop-color="#91B1E3"/>
<stop offset="0.208702" stop-color="#F0F6FF"/>
<stop offset="0.648432" stop-color="#A4BFE9"/>
<stop offset="0.780206" stop-color="#8BADE0"/>
<stop offset="0.971703" stop-color="#93B3E4"/>
</linearGradient>
<linearGradient id="paint19_linear_2428_248" x1="184.11" y1="388.435" x2="204.777" y2="382.051" gradientUnits="userSpaceOnUse">
<stop stop-color="#FAFCFF"/>
<stop offset="0.309893" stop-color="#D7E6FC"/>
<stop offset="0.523799" stop-color="#C1D8F4"/>
<stop offset="0.77229" stop-color="#BBD6FF"/>
<stop offset="1" stop-color="white"/>
</linearGradient>
<linearGradient id="paint20_linear_2428_248" x1="314.013" y1="402.107" x2="349.498" y2="407.799" gradientUnits="userSpaceOnUse">
<stop stop-color="#91B1E3"/>
<stop offset="0.208702" stop-color="#F0F6FF"/>
<stop offset="0.514766" stop-color="#A4BFE9"/>
<stop offset="0.728274" stop-color="#8BADE0"/>
<stop offset="0.971703" stop-color="#D0DEF3"/>
</linearGradient>
<linearGradient id="paint21_linear_2428_248" x1="344.188" y1="410.27" x2="326.674" y2="404.86" gradientUnits="userSpaceOnUse">
<stop stop-color="#FAFCFF"/>
<stop offset="0.309893" stop-color="#D7E6FC"/>
<stop offset="0.523799" stop-color="#C1D8F4"/>
<stop offset="0.77229" stop-color="#BBD6FF"/>
<stop offset="1" stop-color="white"/>
</linearGradient>
<linearGradient id="paint22_linear_2428_248" x1="393.4" y1="380.043" x2="353.084" y2="426.848" gradientUnits="userSpaceOnUse">
<stop stop-color="#91B1E3"/>
<stop offset="0.208702" stop-color="#F0F6FF"/>
<stop offset="0.648432" stop-color="#A4BFE9"/>
<stop offset="0.780206" stop-color="#8BADE0"/>
<stop offset="0.971703" stop-color="#93B3E4"/>
</linearGradient>
<linearGradient id="paint23_linear_2428_248" x1="388.509" y1="388.435" x2="367.842" y2="382.051" gradientUnits="userSpaceOnUse">
<stop stop-color="#FAFCFF"/>
<stop offset="0.309893" stop-color="#D7E6FC"/>
<stop offset="0.523799" stop-color="#C1D8F4"/>
<stop offset="0.77229" stop-color="#BBD6FF"/>
<stop offset="1" stop-color="white"/>
</linearGradient>
<linearGradient id="paint24_linear_2428_248" x1="248.79" y1="420.433" x2="325.951" y2="437.505" gradientUnits="userSpaceOnUse">
<stop stop-color="#91B1E3"/>
<stop offset="0.208702" stop-color="#F0F6FF"/>
<stop offset="0.648432" stop-color="#A4BFE9"/>
<stop offset="0.780206" stop-color="#8BADE0"/>
<stop offset="0.971703" stop-color="#93B3E4"/>
</linearGradient>
<linearGradient id="paint25_linear_2428_248" x1="316.294" y1="433.651" x2="281.439" y2="415.985" gradientUnits="userSpaceOnUse">
<stop stop-color="#FAFCFF"/>
<stop offset="0.309893" stop-color="#D7E6FC"/>
<stop offset="0.523799" stop-color="#C1D8F4"/>
<stop offset="0.77229" stop-color="#BBD6FF"/>
<stop offset="1" stop-color="white"/>
</linearGradient>
<linearGradient id="paint26_linear_2428_248" x1="285.747" y1="441.938" x2="285.747" y2="459.72" gradientUnits="userSpaceOnUse">
<stop stop-color="#6A88C3"/>
<stop offset="0.479167" stop-color="#E4EFFD"/>
<stop offset="1" stop-color="#E1ECFD"/>
</linearGradient>
<linearGradient id="paint27_linear_2428_248" x1="281.693" y1="442.395" x2="281.693" y2="456.585" gradientUnits="userSpaceOnUse">
<stop stop-color="#E2F5FF" stop-opacity="0"/>
<stop offset="0.479167" stop-color="#B6CAFE"/>
<stop offset="1" stop-color="#CCD7FF"/>
</linearGradient>
<linearGradient id="paint28_linear_2428_248" x1="289.803" y1="442.395" x2="289.803" y2="456.585" gradientUnits="userSpaceOnUse">
<stop stop-color="#E2F5FF" stop-opacity="0"/>
<stop offset="0.479167" stop-color="#B6CAFE"/>
<stop offset="1" stop-color="#CCD7FF"/>
</linearGradient>
<linearGradient id="paint29_linear_2428_248" x1="284.602" y1="457.577" x2="272.358" y2="459.079" gradientUnits="userSpaceOnUse">
<stop stop-color="#C9DEFC"/>
<stop offset="0.309893" stop-color="#ECF4FF"/>
<stop offset="0.523799" stop-color="#EAF6FF"/>
<stop offset="0.613641" stop-color="#CCE7FF"/>
<stop offset="1" stop-color="#CEE4F9"/>
</linearGradient>
<linearGradient id="paint30_linear_2428_248" x1="228.68" y1="141.906" x2="344.178" y2="379.673" gradientUnits="userSpaceOnUse">
<stop stop-color="#FAFAFA"/>
<stop offset="1" stop-color="#C2C4CD"/>
</linearGradient>
<linearGradient id="paint31_linear_2428_248" x1="227.593" y1="161.314" x2="327.351" y2="352.07" gradientUnits="userSpaceOnUse">
<stop stop-color="#CDCFD6"/>
<stop offset="1" stop-color="#EFEFF1"/>
</linearGradient>
<linearGradient id="paint32_linear_2428_248" x1="239.007" y1="154.495" x2="346.546" y2="354.969" gradientUnits="userSpaceOnUse">
<stop stop-color="#DDDFE2"/>
<stop offset="1" stop-color="white"/>
</linearGradient>
<radialGradient id="paint33_radial_2428_248" cx="0" cy="0" r="1" gradientUnits="userSpaceOnUse" gradientTransform="translate(286.294 257.508) rotate(90) scale(118.749 105.988)">
<stop stop-color="#F5F7FF"/>
<stop offset="1" stop-color="#B3B5C5"/>
</radialGradient>
<linearGradient id="paint34_linear_2428_248" x1="286.294" y1="134.056" x2="286.294" y2="380.948" gradientUnits="userSpaceOnUse">
<stop stop-color="white"/>
<stop offset="1" stop-color="#F2EDED" stop-opacity="0"/>
</linearGradient>
<linearGradient id="paint35_linear_2428_248" x1="155.44" y1="156.394" x2="276.652" y2="373.944" gradientUnits="userSpaceOnUse">
<stop stop-color="white"/>
<stop offset="1" stop-color="#F2EDED" stop-opacity="0"/>
</linearGradient>
<linearGradient id="paint36_linear_2428_248" x1="407.617" y1="156.394" x2="286.405" y2="373.944" gradientUnits="userSpaceOnUse">
<stop stop-color="white"/>
<stop offset="1" stop-color="#F2EDED" stop-opacity="0"/>
</linearGradient>
<linearGradient id="paint37_linear_2428_248" x1="286.294" y1="301.002" x2="285.698" y2="368.014" gradientUnits="userSpaceOnUse">
<stop stop-color="white" stop-opacity="0"/>
<stop offset="1" stop-color="#D0DBFF"/>
</linearGradient>
<linearGradient id="paint38_linear_2428_248" x1="189.495" y1="204.323" x2="246.985" y2="177.635" gradientUnits="userSpaceOnUse">
<stop offset="0.168737" stop-color="#F4F3F8"/>
<stop offset="0.360439" stop-color="white"/>
<stop offset="0.451944" stop-color="white"/>
<stop offset="0.627859" stop-color="#E7E6EE"/>
<stop offset="0.80404" stop-color="#F3F3F3"/>
</linearGradient>
<linearGradient id="paint39_linear_2428_248" x1="137.092" y1="235.167" x2="174.461" y2="192.417" gradientUnits="userSpaceOnUse">
<stop offset="0.168737" stop-color="#F4F3F8"/>
<stop offset="0.451944" stop-color="white"/>
<stop offset="0.612085" stop-color="#E7E6EE"/>
<stop offset="0.701585" stop-color="#E7E6EE"/>
<stop offset="0.967597" stop-color="#F3F3F3"/>
</linearGradient>
<linearGradient id="paint40_linear_2428_248" x1="240.19" y1="237.896" x2="294.497" y2="222.571" gradientUnits="userSpaceOnUse">
<stop offset="0.168737" stop-color="#F4F3F8"/>
<stop offset="0.810668" stop-color="#E7E6EE"/>
</linearGradient>
<linearGradient id="paint41_linear_2428_248" x1="192.903" y1="245.239" x2="175.954" y2="304.53" gradientUnits="userSpaceOnUse">
<stop offset="0.168737" stop-color="#F4F3F8"/>
<stop offset="0.811319" stop-color="#E7E6EE"/>
</linearGradient>
<linearGradient id="paint42_linear_2428_248" x1="346.178" y1="286.677" x2="350.023" y2="298.212" gradientUnits="userSpaceOnUse">
<stop offset="0.168737" stop-color="#F4F3F8"/>
<stop offset="0.850633" stop-color="#EFEEF5"/>
</linearGradient>
<linearGradient id="paint43_linear_2428_248" x1="369.369" y1="190.635" x2="408.057" y2="239.606" gradientUnits="userSpaceOnUse">
<stop offset="0.168737" stop-color="#F4F3F8"/>
<stop offset="0.360439" stop-color="white"/>
<stop offset="0.451944" stop-color="white"/>
<stop offset="0.627859" stop-color="#E7E6EE"/>
<stop offset="0.80404" stop-color="#F3F3F3"/>
</linearGradient>
<linearGradient id="paint44_linear_2428_248" x1="355.466" y1="221.943" x2="376.645" y2="243.739" gradientUnits="userSpaceOnUse">
<stop offset="0.168737" stop-color="#F4F3F8"/>
<stop offset="0.773639" stop-color="#E7E6EE"/>
</linearGradient>
<linearGradient id="paint45_linear_2428_248" x1="331.502" y1="261.5" x2="351.821" y2="300.983" gradientUnits="userSpaceOnUse">
<stop offset="0.168737" stop-color="#F4F3F8"/>
<stop offset="0.783531" stop-color="#E7E6EE"/>
</linearGradient>
<linearGradient id="paint46_linear_2428_248" x1="332.046" y1="275.137" x2="307.923" y2="249.347" gradientUnits="userSpaceOnUse">
<stop offset="0.168737" stop-color="#F4F3F8"/>
<stop offset="0.817055" stop-color="#E7E6EE"/>
</linearGradient>
<linearGradient id="paint47_linear_2428_248" x1="70.7419" y1="-57.4916" x2="88.1037" y2="-42.6992" gradientUnits="userSpaceOnUse">
<stop offset="0.168737" stop-color="#F4F3F8"/>
<stop offset="0.81094" stop-color="#E7E6EE"/>
</linearGradient>
<linearGradient id="paint48_linear_2428_248" x1="283.916" y1="201.737" x2="303.685" y2="206.206" gradientUnits="userSpaceOnUse">
<stop offset="0.168737" stop-color="#F4F3F8"/>
<stop offset="0.627859" stop-color="#E7E6EE"/>
<stop offset="0.80404" stop-color="#F3F3F3"/>
</linearGradient>
</defs>
</svg>
