<svg width="40" height="40" viewBox="0 0 40 40" fill="none" xmlns="http://www.w3.org/2000/svg">
<path d="M20 0C16.1136 0.00737769 12.3132 1.1438 9.06168 3.27086C5.8102 5.39791 3.24797 8.42379 1.6871 11.9799C0.126225 15.5361 -0.365931 19.469 0.270578 23.2996C0.907088 27.1302 2.64479 30.6933 5.27203 33.5547C7.14844 35.5869 9.4258 37.2087 11.9606 38.318C14.4954 39.4273 17.2327 40 20 40C22.7673 40 25.5046 39.4273 28.0394 38.318C30.5742 37.2087 32.8516 35.5869 34.728 33.5547C37.3552 30.6933 39.0929 27.1302 39.7294 23.2996C40.3659 19.469 39.8738 15.5361 38.3129 11.9799C36.752 8.42379 34.1898 5.39791 30.9383 3.27086C27.6868 1.1438 23.8864 0.00737769 20 0ZM20 36.0372C15.849 36.0309 11.8624 34.4161 8.87888 31.5326C9.78468 29.3294 11.3256 27.445 13.3058 26.1188C15.286 24.7926 17.6161 24.0845 20 24.0845C22.3839 24.0845 24.714 24.7926 26.6942 26.1188C28.6744 27.445 30.2153 29.3294 31.1211 31.5326C28.1376 34.4161 24.151 36.0309 20 36.0372ZM15.9924 16.0166C15.9924 15.2246 16.2274 14.4505 16.6678 13.792C17.1082 13.1335 17.7341 12.6203 18.4664 12.3172C19.1987 12.0141 20.0044 11.9349 20.7818 12.0894C21.5592 12.2439 22.2733 12.6252 22.8338 13.1852C23.3943 13.7452 23.776 14.4587 23.9306 15.2354C24.0852 16.0121 24.0059 16.8172 23.7026 17.5489C23.3992 18.2805 22.8856 18.9059 22.2265 19.3459C21.5675 19.7859 20.7926 20.0207 20 20.0207C18.9371 20.0207 17.9178 19.5988 17.1662 18.8479C16.4146 18.097 15.9924 17.0785 15.9924 16.0166ZM33.8463 28.029C32.056 24.9693 29.3005 22.5894 26.0114 21.262C27.0317 20.1061 27.6965 18.6806 27.926 17.1566C28.1555 15.6326 27.94 14.0748 27.3054 12.6701C26.6707 11.2654 25.6439 10.0735 24.3481 9.23748C23.0523 8.40143 21.5425 7.95672 20 7.95672C18.4575 7.95672 16.9477 8.40143 15.6519 9.23748C14.3561 10.0735 13.3293 11.2654 12.6946 12.6701C12.06 14.0748 11.8445 15.6326 12.074 17.1566C12.3035 18.6806 12.9683 20.1061 13.9886 21.262C10.6995 22.5894 7.94404 24.9693 6.1537 28.029C4.72688 25.6007 3.973 22.8365 3.96955 20.0207C3.96955 15.7728 5.65847 11.699 8.66476 8.69528C11.6711 5.69159 15.7485 4.00414 20 4.00414C24.2515 4.00414 28.3289 5.69159 31.3352 8.69528C34.3415 11.699 36.0305 15.7728 36.0305 20.0207C36.027 22.8365 35.2731 25.6007 33.8463 28.029Z" fill="#E4E5E7"/>
</svg>
