<svg width="29" height="29" viewBox="0 0 29 29" fill="none" xmlns="http://www.w3.org/2000/svg">
<path d="M19.3611 14.5H14.5V7.55556M2 14.5C2 16.1415 2.32332 17.767 2.95151 19.2835C3.57969 20.8001 4.50043 22.1781 5.66116 23.3388C6.8219 24.4996 8.19989 25.4203 9.71646 26.0485C11.233 26.6767 12.8585 27 14.5 27C16.1415 27 17.767 26.6767 19.2835 26.0485C20.8001 25.4203 22.1781 24.4996 23.3388 23.3388C24.4996 22.1781 25.4203 20.8001 26.0485 19.2835C26.6767 17.767 27 16.1415 27 14.5C27 12.8585 26.6767 11.233 26.0485 9.71646C25.4203 8.19989 24.4996 6.8219 23.3388 5.66117C22.1781 4.50043 20.8001 3.57969 19.2835 2.95151C17.767 2.32332 16.1415 2 14.5 2C12.8585 2 11.233 2.32332 9.71646 2.95151C8.19989 3.57969 6.8219 4.50043 5.66116 5.66117C4.50043 6.8219 3.57969 8.19989 2.95151 9.71646C2.32332 11.233 2 12.8585 2 14.5Z" stroke="#D2386D" stroke-width="3" stroke-linecap="round" stroke-linejoin="round"/>
</svg>
