<svg width="1728" height="635" viewBox="0 0 1728 635" fill="none" xmlns="http://www.w3.org/2000/svg">
<g filter="url(#filter0_d_97_23)">
<path fill-rule="evenodd" clip-rule="evenodd" d="M-560 694.978L-440.667 662.213C-321.333 629.447 -82.6667 563.915 156 463.894C394.667 363.872 633.333 232.809 872 265.575C1110.67 298.341 1349.33 496.659 1588 481.139C1826.67 463.894 2065.33 232.809 2184.67 115.542L2304 0V795H2184.67C2065.33 795 1826.67 795 1588 795C1349.33 795 1110.67 795 872 795C633.333 795 394.667 795 156 795C-82.6667 795 -321.333 795 -440.667 795H-560V694.978Z" fill="#D2386D"/>
<path fill-rule="evenodd" clip-rule="evenodd" d="M-560 694.978L-440.667 662.213C-321.333 629.447 -82.6667 563.915 156 463.894C394.667 363.872 633.333 232.809 872 265.575C1110.67 298.341 1349.33 496.659 1588 481.139C1826.67 463.894 2065.33 232.809 2184.67 115.542L2304 0V795H2184.67C2065.33 795 1826.67 795 1588 795C1349.33 795 1110.67 795 872 795C633.333 795 394.667 795 156 795C-82.6667 795 -321.333 795 -440.667 795H-560V694.978Z" stroke="black"/>
</g>
<defs>
<filter id="filter0_d_97_23" x="-564" y="0" width="2872" height="803" filterUnits="userSpaceOnUse" color-interpolation-filters="sRGB">
<feFlood flood-opacity="0" result="BackgroundImageFix"/>
<feColorMatrix in="SourceAlpha" type="matrix" values="0 0 0 0 0 0 0 0 0 0 0 0 0 0 0 0 0 0 127 0" result="hardAlpha"/>
<feOffset dy="4"/>
<feGaussianBlur stdDeviation="2"/>
<feComposite in2="hardAlpha" operator="out"/>
<feColorMatrix type="matrix" values="0 0 0 0 0 0 0 0 0 0 0 0 0 0 0 0 0 0 0.25 0"/>
<feBlend mode="normal" in2="BackgroundImageFix" result="effect1_dropShadow_97_23"/>
<feBlend mode="normal" in="SourceGraphic" in2="effect1_dropShadow_97_23" result="shape"/>
</filter>
</defs>
</svg>
