<svg width="512" height="435" viewBox="0 0 512 435" fill="none" xmlns="http://www.w3.org/2000/svg">
<path d="M123.974 128.451C128.791 128.451 132.576 129.139 135.328 130.516C138.081 131.794 140.145 133.563 141.521 135.824C142.996 138.085 143.93 140.74 144.323 143.787C144.716 146.736 144.913 149.882 144.913 153.225V240.521C144.913 243.962 144.716 247.157 144.323 250.106C143.93 253.056 143.045 255.661 141.669 257.922C140.293 260.085 138.228 261.805 135.476 263.083C132.723 264.361 128.987 265 124.269 265C119.648 265 115.962 264.41 113.209 263.23C110.456 261.952 108.343 260.281 106.868 258.217C105.394 256.152 104.41 253.695 103.919 250.844C103.526 247.993 103.329 244.945 103.329 241.701V215.453H52.8975C46.8024 215.453 41.7887 214.962 37.8564 213.979C33.9242 212.995 30.7783 211.717 28.4189 210.145C26.1579 208.473 24.5358 206.556 23.5527 204.394C22.668 202.231 22.2256 200.019 22.2256 197.758C22.2256 196.578 22.3239 195.398 22.5205 194.219C22.8154 193.039 23.1104 191.859 23.4053 190.68L53.1924 87.1621C54.1755 83.5247 55.1094 79.9857 55.9941 76.5449C56.9772 73.1042 58.2552 70.0566 59.8281 67.4023C61.4993 64.748 63.7604 62.6344 66.6113 61.0615C69.4622 59.3903 73.3454 58.5547 78.2607 58.5547C81.7998 58.5547 84.6999 59.0462 86.9609 60.0293C89.3203 61.0124 91.1882 62.3395 92.5645 64.0107C93.9408 65.5837 94.8747 67.4515 95.3662 69.6143C95.9561 71.6787 96.251 73.8906 96.251 76.25C96.251 78.6094 96.0544 81.0179 95.6611 83.4756C95.2679 85.835 94.7764 88.0469 94.1865 90.1113C93.695 92.1758 93.1543 94.0436 92.5645 95.7148C92.0729 97.2878 91.7288 98.4674 91.5322 99.2539C91.5322 99.2539 91.2373 100.335 90.6475 102.498C90.0576 104.562 89.2712 107.315 88.2881 110.756C87.305 114.098 86.2236 117.981 85.0439 122.405C83.8643 126.731 82.6354 131.155 81.3574 135.677C78.3099 146.294 74.9183 158.337 71.1826 171.805L72.3623 172.984H103.329V152.93C103.329 149.587 103.526 146.441 103.919 143.492C104.312 140.543 105.197 137.987 106.573 135.824C107.95 133.563 110.014 131.794 112.767 130.516C115.519 129.139 119.255 128.451 123.974 128.451ZM174.11 117.539C174.11 108.003 175.438 99.8929 178.092 93.208C180.844 86.4248 184.334 80.8213 188.562 76.3975C192.789 71.9736 197.458 68.4837 202.57 65.9277C207.682 63.3717 212.647 61.4548 217.464 60.1768C222.379 58.8988 226.754 58.1123 230.588 57.8174C234.52 57.5225 237.42 57.375 239.288 57.375H244.302C246.17 57.375 249.07 57.5225 253.002 57.8174C256.934 58.1123 261.26 58.8988 265.979 60.1768C270.796 61.4548 275.711 63.3717 280.725 65.9277C285.837 68.4837 290.457 71.9736 294.586 76.3975C298.813 80.8213 302.254 86.4248 304.908 93.208C307.562 99.8929 308.89 108.003 308.89 117.539V204.541C308.89 214.372 307.562 222.728 304.908 229.609C302.254 236.491 298.813 242.242 294.586 246.862C290.457 251.384 285.837 254.924 280.725 257.479C275.711 260.035 270.796 262.002 265.979 263.378C261.26 264.656 256.934 265.442 253.002 265.737C249.07 266.032 246.17 266.18 244.302 266.18H239.288C237.42 266.18 234.52 266.032 230.588 265.737C226.754 265.442 222.379 264.656 217.464 263.378C212.647 262.002 207.682 260.035 202.57 257.479C197.458 254.924 192.789 251.384 188.562 246.862C184.334 242.242 180.844 236.491 178.092 229.609C175.438 222.728 174.11 214.372 174.11 204.541V117.539ZM222.478 212.209C222.772 215.65 223.706 218.697 225.279 221.352C226.557 223.613 228.474 225.726 231.03 227.692C233.685 229.56 237.322 230.494 241.942 230.494C246.465 230.494 250.004 229.56 252.56 227.692C255.116 225.726 257.033 223.613 258.311 221.352C259.785 218.697 260.719 215.65 261.112 212.209V112.525C260.719 109.085 259.785 106.037 258.311 103.383C257.033 101.122 255.116 99.0573 252.56 97.1895C250.004 95.2233 246.465 94.2402 241.942 94.2402C237.322 94.2402 233.685 95.2233 231.03 97.1895C228.474 99.0573 226.557 101.122 225.279 103.383C223.706 106.037 222.772 109.085 222.478 112.525V212.209ZM436.591 128.451C441.408 128.451 445.193 129.139 447.945 130.516C450.698 131.794 452.762 133.563 454.139 135.824C455.613 138.085 456.547 140.74 456.94 143.787C457.334 146.736 457.53 149.882 457.53 153.225V240.521C457.53 243.962 457.334 247.157 456.94 250.106C456.547 253.056 455.662 255.661 454.286 257.922C452.91 260.085 450.845 261.805 448.093 263.083C445.34 264.361 441.604 265 436.886 265C432.265 265 428.579 264.41 425.826 263.23C423.074 261.952 420.96 260.281 419.485 258.217C418.011 256.152 417.028 253.695 416.536 250.844C416.143 247.993 415.946 244.945 415.946 241.701V215.453H365.515C359.42 215.453 354.406 214.962 350.474 213.979C346.541 212.995 343.396 211.717 341.036 210.145C338.775 208.473 337.153 206.556 336.17 204.394C335.285 202.231 334.843 200.019 334.843 197.758C334.843 196.578 334.941 195.398 335.138 194.219C335.433 193.039 335.728 191.859 336.022 190.68L365.81 87.1621C366.793 83.5247 367.727 79.9857 368.611 76.5449C369.594 73.1042 370.872 70.0566 372.445 67.4023C374.117 64.748 376.378 62.6344 379.229 61.0615C382.079 59.3903 385.963 58.5547 390.878 58.5547C394.417 58.5547 397.317 59.0462 399.578 60.0293C401.938 61.0124 403.805 62.3395 405.182 64.0107C406.558 65.5837 407.492 67.4515 407.983 69.6143C408.573 71.6787 408.868 73.8906 408.868 76.25C408.868 78.6094 408.672 81.0179 408.278 83.4756C407.885 85.835 407.394 88.0469 406.804 90.1113C406.312 92.1758 405.771 94.0436 405.182 95.7148C404.69 97.2878 404.346 98.4674 404.149 99.2539C404.149 99.2539 403.854 100.335 403.265 102.498C402.675 104.562 401.888 107.315 400.905 110.756C399.922 114.098 398.841 117.981 397.661 122.405C396.481 126.731 395.253 131.155 393.975 135.677C390.927 146.294 387.535 158.337 383.8 171.805L384.979 172.984H415.946V152.93C415.946 149.587 416.143 146.441 416.536 143.492C416.929 140.543 417.814 137.987 419.19 135.824C420.567 133.563 422.631 131.794 425.384 130.516C428.136 129.139 431.872 128.451 436.591 128.451Z" fill="#6C7FA7" fill-opacity="0.12"/>
<path d="M155.34 313.448C151.158 313.448 147.318 312.467 143.82 310.504C140.321 308.541 137.548 305.832 135.5 302.376C133.452 298.877 132.428 294.931 132.428 290.536C132.428 286.184 133.452 282.28 135.5 278.824C137.548 275.325 140.321 272.595 143.82 270.632C147.318 268.669 151.158 267.688 155.34 267.688C159.564 267.688 163.404 268.669 166.86 270.632C170.358 272.595 173.11 275.325 175.116 278.824C177.164 282.28 178.188 286.184 178.188 290.536C178.188 294.931 177.164 298.877 175.116 302.376C173.11 305.832 170.358 308.541 166.86 310.504C163.361 312.467 159.521 313.448 155.34 313.448ZM155.34 305.448C158.028 305.448 160.396 304.851 162.444 303.656C164.492 302.419 166.092 300.669 167.244 298.408C168.396 296.147 168.972 293.523 168.972 290.536C168.972 287.549 168.396 284.947 167.244 282.728C166.092 280.467 164.492 278.739 162.444 277.544C160.396 276.349 158.028 275.752 155.34 275.752C152.652 275.752 150.262 276.349 148.172 277.544C146.124 278.739 144.524 280.467 143.372 282.728C142.22 284.947 141.644 287.549 141.644 290.536C141.644 293.523 142.22 296.147 143.372 298.408C144.524 300.669 146.124 302.419 148.172 303.656C150.262 304.851 152.652 305.448 155.34 305.448ZM205.59 313.448C201.408 313.448 197.568 312.467 194.07 310.504C190.571 308.541 187.798 305.832 185.75 302.376C183.702 298.877 182.678 294.931 182.678 290.536C182.678 286.184 183.702 282.28 185.75 278.824C187.798 275.325 190.571 272.595 194.07 270.632C197.568 268.669 201.408 267.688 205.59 267.688C209.814 267.688 213.654 268.669 217.11 270.632C220.608 272.595 223.36 275.325 225.366 278.824C227.414 282.28 228.438 286.184 228.438 290.536C228.438 294.931 227.414 298.877 225.366 302.376C223.36 305.832 220.608 308.541 217.11 310.504C213.611 312.467 209.771 313.448 205.59 313.448ZM205.59 305.448C208.278 305.448 210.646 304.851 212.694 303.656C214.742 302.419 216.342 300.669 217.494 298.408C218.646 296.147 219.222 293.523 219.222 290.536C219.222 287.549 218.646 284.947 217.494 282.728C216.342 280.467 214.742 278.739 212.694 277.544C210.646 276.349 208.278 275.752 205.59 275.752C202.902 275.752 200.512 276.349 198.422 277.544C196.374 278.739 194.774 280.467 193.622 282.728C192.47 284.947 191.894 287.549 191.894 290.536C191.894 293.523 192.47 296.147 193.622 298.408C194.774 300.669 196.374 302.419 198.422 303.656C200.512 304.851 202.902 305.448 205.59 305.448ZM255.84 313.448C251.658 313.448 247.818 312.467 244.32 310.504C240.821 308.541 238.048 305.832 236 302.376C233.952 298.877 232.928 294.931 232.928 290.536C232.928 286.184 233.952 282.28 236 278.824C238.048 275.325 240.821 272.595 244.32 270.632C247.818 268.669 251.658 267.688 255.84 267.688C260.064 267.688 263.904 268.669 267.36 270.632C270.858 272.595 273.61 275.325 275.616 278.824C277.664 282.28 278.688 286.184 278.688 290.536C278.688 294.931 277.664 298.877 275.616 302.376C273.61 305.832 270.858 308.541 267.36 310.504C263.861 312.467 260.021 313.448 255.84 313.448ZM255.84 305.448C258.528 305.448 260.896 304.851 262.944 303.656C264.992 302.419 266.592 300.669 267.744 298.408C268.896 296.147 269.472 293.523 269.472 290.536C269.472 287.549 268.896 284.947 267.744 282.728C266.592 280.467 264.992 278.739 262.944 277.544C260.896 276.349 258.528 275.752 255.84 275.752C253.152 275.752 250.762 276.349 248.672 277.544C246.624 278.739 245.024 280.467 243.872 282.728C242.72 284.947 242.144 287.549 242.144 290.536C242.144 293.523 242.72 296.147 243.872 298.408C245.024 300.669 246.624 302.419 248.672 303.656C250.762 304.851 253.152 305.448 255.84 305.448ZM294.314 282.664C295.466 281.043 297.044 279.699 299.05 278.632C301.098 277.523 303.423 276.968 306.026 276.968C309.055 276.968 311.786 277.715 314.218 279.208C316.692 280.701 318.634 282.835 320.042 285.608C321.492 288.339 322.218 291.517 322.218 295.144C322.218 298.771 321.492 301.992 320.042 304.808C318.634 307.581 316.692 309.736 314.218 311.272C311.786 312.808 309.055 313.576 306.026 313.576C303.423 313.576 301.119 313.043 299.114 311.976C297.151 310.909 295.551 309.565 294.314 307.944V329.896H285.354V277.544H294.314V282.664ZM313.066 295.144C313.066 293.011 312.618 291.176 311.722 289.64C310.868 288.061 309.716 286.867 308.266 286.056C306.858 285.245 305.322 284.84 303.658 284.84C302.036 284.84 300.5 285.267 299.05 286.12C297.642 286.931 296.49 288.125 295.594 289.704C294.74 291.283 294.314 293.139 294.314 295.272C294.314 297.405 294.74 299.261 295.594 300.84C296.49 302.419 297.642 303.635 299.05 304.488C300.5 305.299 302.036 305.704 303.658 305.704C305.322 305.704 306.858 305.277 308.266 304.424C309.716 303.571 310.868 302.355 311.722 300.776C312.618 299.197 313.066 297.32 313.066 295.144ZM342.297 313.576C339.395 313.576 336.793 313.064 334.489 312.04C332.185 310.973 330.35 309.544 328.985 307.752C327.662 305.96 326.937 303.976 326.809 301.8H335.833C336.003 303.165 336.665 304.296 337.817 305.192C339.011 306.088 340.483 306.536 342.233 306.536C343.939 306.536 345.262 306.195 346.201 305.512C347.182 304.829 347.673 303.955 347.673 302.888C347.673 301.736 347.075 300.883 345.881 300.328C344.729 299.731 342.873 299.091 340.312 298.408C337.667 297.768 335.491 297.107 333.785 296.424C332.121 295.741 330.67 294.696 329.433 293.288C328.238 291.88 327.641 289.981 327.641 287.592C327.641 285.629 328.195 283.837 329.305 282.216C330.457 280.595 332.078 279.315 334.169 278.376C336.302 277.437 338.798 276.968 341.657 276.968C345.881 276.968 349.251 278.035 351.769 280.168C354.286 282.259 355.673 285.096 355.929 288.68H347.353C347.225 287.272 346.627 286.163 345.561 285.352C344.537 284.499 343.15 284.072 341.401 284.072C339.779 284.072 338.521 284.371 337.625 284.968C336.771 285.565 336.345 286.397 336.345 287.464C336.345 288.659 336.942 289.576 338.137 290.216C339.331 290.813 341.187 291.432 343.705 292.072C346.265 292.712 348.377 293.373 350.041 294.056C351.705 294.739 353.134 295.805 354.329 297.256C355.566 298.664 356.206 300.541 356.249 302.888C356.249 304.936 355.673 306.771 354.521 308.392C353.411 310.013 351.79 311.293 349.657 312.232C347.566 313.128 345.113 313.576 342.297 313.576ZM375.188 267.56L374.164 298.472H366.612L365.524 267.56H375.188ZM370.58 313.448C368.958 313.448 367.614 312.957 366.548 311.976C365.524 310.952 365.012 309.693 365.012 308.2C365.012 306.707 365.524 305.469 366.548 304.488C367.614 303.464 368.958 302.952 370.58 302.952C372.158 302.952 373.46 303.464 374.484 304.488C375.508 305.469 376.02 306.707 376.02 308.2C376.02 309.693 375.508 310.952 374.484 311.976C373.46 312.957 372.158 313.448 370.58 313.448ZM37.4295 378.152C37.4295 380.541 36.8535 382.781 35.7015 384.872C34.5922 386.963 32.8215 388.648 30.3895 389.928C28.0002 391.208 24.9708 391.848 21.3015 391.848H13.8135V409H4.8535V364.328H21.3015C24.7575 364.328 27.7015 364.925 30.1335 366.12C32.5655 367.315 34.3788 368.957 35.5735 371.048C36.8108 373.139 37.4295 375.507 37.4295 378.152ZM20.9175 384.616C23.3922 384.616 25.2268 384.061 26.4215 382.952C27.6162 381.8 28.2135 380.2 28.2135 378.152C28.2135 373.8 25.7815 371.624 20.9175 371.624H13.8135V384.616H20.9175ZM41.487 391.144C41.487 387.56 42.191 384.381 43.599 381.608C45.0497 378.835 46.991 376.701 49.423 375.208C51.8977 373.715 54.6497 372.968 57.679 372.968C60.3243 372.968 62.6283 373.501 64.591 374.568C66.5963 375.635 68.1963 376.979 69.391 378.6V373.544H78.415V409H69.391V403.816C68.239 405.48 66.639 406.867 64.591 407.976C62.5857 409.043 60.2603 409.576 57.615 409.576C54.6283 409.576 51.8977 408.808 49.423 407.272C46.991 405.736 45.0497 403.581 43.599 400.808C42.191 397.992 41.487 394.771 41.487 391.144ZM69.391 391.272C69.391 389.096 68.9643 387.24 68.111 385.704C67.2577 384.125 66.1057 382.931 64.655 382.12C63.2043 381.267 61.647 380.84 59.983 380.84C58.319 380.84 56.783 381.245 55.375 382.056C53.967 382.867 52.815 384.061 51.919 385.64C51.0657 387.176 50.639 389.011 50.639 391.144C50.639 393.277 51.0657 395.155 51.919 396.776C52.815 398.355 53.967 399.571 55.375 400.424C56.8257 401.277 58.3617 401.704 59.983 401.704C61.647 401.704 63.2043 401.299 64.655 400.488C66.1057 399.635 67.2577 398.44 68.111 396.904C68.9643 395.325 69.391 393.448 69.391 391.272ZM101.054 372.968C103.699 372.968 106.025 373.501 108.03 374.568C110.035 375.592 111.614 376.936 112.766 378.6V373.544H121.79V409.256C121.79 412.541 121.129 415.464 119.806 418.024C118.483 420.627 116.499 422.675 113.854 424.168C111.209 425.704 108.009 426.472 104.254 426.472C99.2193 426.472 95.0807 425.299 91.838 422.952C88.638 420.605 86.8247 417.405 86.398 413.352H95.294C95.7633 414.973 96.766 416.253 98.302 417.192C99.8807 418.173 101.779 418.664 103.998 418.664C106.601 418.664 108.713 417.875 110.334 416.296C111.955 414.76 112.766 412.413 112.766 409.256V403.752C111.614 405.416 110.014 406.803 107.966 407.912C105.961 409.021 103.657 409.576 101.054 409.576C98.0673 409.576 95.3367 408.808 92.862 407.272C90.3873 405.736 88.4247 403.581 86.974 400.808C85.566 397.992 84.862 394.771 84.862 391.144C84.862 387.56 85.566 384.381 86.974 381.608C88.4247 378.835 90.366 376.701 92.798 375.208C95.2727 373.715 98.0247 372.968 101.054 372.968ZM112.766 391.272C112.766 389.096 112.339 387.24 111.486 385.704C110.633 384.125 109.481 382.931 108.03 382.12C106.579 381.267 105.022 380.84 103.358 380.84C101.694 380.84 100.158 381.245 98.75 382.056C97.342 382.867 96.19 384.061 95.294 385.64C94.4407 387.176 94.014 389.011 94.014 391.144C94.014 393.277 94.4407 395.155 95.294 396.776C96.19 398.355 97.342 399.571 98.75 400.424C100.201 401.277 101.737 401.704 103.358 401.704C105.022 401.704 106.579 401.299 108.03 400.488C109.481 399.635 110.633 398.44 111.486 396.904C112.339 395.325 112.766 393.448 112.766 391.272ZM163.501 390.504C163.501 391.784 163.416 392.936 163.245 393.96H137.325C137.538 396.52 138.434 398.525 140.013 399.976C141.592 401.427 143.533 402.152 145.837 402.152C149.165 402.152 151.533 400.723 152.941 397.864H162.605C161.581 401.277 159.618 404.093 156.717 406.312C153.816 408.488 150.253 409.576 146.029 409.576C142.616 409.576 139.544 408.829 136.813 407.336C134.125 405.8 132.013 403.645 130.477 400.872C128.984 398.099 128.237 394.899 128.237 391.272C128.237 387.603 128.984 384.381 130.477 381.608C131.97 378.835 134.061 376.701 136.749 375.208C139.437 373.715 142.53 372.968 146.029 372.968C149.4 372.968 152.408 373.693 155.053 375.144C157.741 376.595 159.81 378.664 161.261 381.352C162.754 383.997 163.501 387.048 163.501 390.504ZM154.221 387.944C154.178 385.64 153.346 383.805 151.725 382.44C150.104 381.032 148.12 380.328 145.773 380.328C143.554 380.328 141.677 381.011 140.141 382.376C138.648 383.699 137.73 385.555 137.389 387.944H154.221ZM223.499 409H214.539L194.251 378.344V409H185.291V364.264H194.251L214.539 394.984V364.264H223.499V409ZM248.098 409.576C244.684 409.576 241.612 408.829 238.882 407.336C236.151 405.8 233.996 403.645 232.418 400.872C230.882 398.099 230.114 394.899 230.114 391.272C230.114 387.645 230.903 384.445 232.482 381.672C234.103 378.899 236.3 376.765 239.074 375.272C241.847 373.736 244.94 372.968 248.354 372.968C251.767 372.968 254.86 373.736 257.634 375.272C260.407 376.765 262.583 378.899 264.162 381.672C265.783 384.445 266.594 387.645 266.594 391.272C266.594 394.899 265.762 398.099 264.097 400.872C262.476 403.645 260.258 405.8 257.442 407.336C254.668 408.829 251.554 409.576 248.098 409.576ZM248.098 401.768C249.719 401.768 251.234 401.384 252.642 400.616C254.092 399.805 255.244 398.611 256.098 397.032C256.951 395.453 257.378 393.533 257.378 391.272C257.378 387.901 256.482 385.32 254.69 383.528C252.94 381.693 250.786 380.776 248.226 380.776C245.666 380.776 243.511 381.693 241.762 383.528C240.055 385.32 239.202 387.901 239.202 391.272C239.202 394.643 240.034 397.245 241.698 399.08C243.404 400.872 245.538 401.768 248.098 401.768ZM283.598 380.904V398.056C283.598 399.251 283.875 400.125 284.43 400.68C285.027 401.192 286.009 401.448 287.374 401.448H291.534V409H285.902C278.35 409 274.574 405.331 274.574 397.992V380.904H270.35V373.544H274.574V364.776H283.598V373.544H291.534V380.904H283.598ZM340.812 364.328V371.56H322.189V383.016H336.461V390.12H322.189V409H313.229V364.328H340.812ZM362.91 409.576C359.497 409.576 356.425 408.829 353.694 407.336C350.963 405.8 348.809 403.645 347.23 400.872C345.694 398.099 344.926 394.899 344.926 391.272C344.926 387.645 345.715 384.445 347.294 381.672C348.915 378.899 351.113 376.765 353.886 375.272C356.659 373.736 359.753 372.968 363.166 372.968C366.579 372.968 369.673 373.736 372.446 375.272C375.219 376.765 377.395 378.899 378.974 381.672C380.595 384.445 381.406 387.645 381.406 391.272C381.406 394.899 380.574 398.099 378.91 400.872C377.289 403.645 375.07 405.8 372.254 407.336C369.481 408.829 366.366 409.576 362.91 409.576ZM362.91 401.768C364.531 401.768 366.046 401.384 367.454 400.616C368.905 399.805 370.057 398.611 370.91 397.032C371.763 395.453 372.19 393.533 372.19 391.272C372.19 387.901 371.294 385.32 369.502 383.528C367.753 381.693 365.598 380.776 363.038 380.776C360.478 380.776 358.323 381.693 356.574 383.528C354.867 385.32 354.014 387.901 354.014 391.272C354.014 394.643 354.846 397.245 356.51 399.08C358.217 400.872 360.35 401.768 362.91 401.768ZM421.451 373.544V409H412.427V404.52C411.275 406.056 409.76 407.272 407.883 408.168C406.048 409.021 404.043 409.448 401.867 409.448C399.093 409.448 396.64 408.872 394.507 407.72C392.373 406.525 390.688 404.797 389.451 402.536C388.256 400.232 387.659 397.501 387.659 394.344V373.544H396.619V393.064C396.619 395.88 397.323 398.056 398.731 399.592C400.139 401.085 402.059 401.832 404.491 401.832C406.965 401.832 408.907 401.085 410.315 399.592C411.723 398.056 412.427 395.88 412.427 393.064V373.544H421.451ZM449.939 373.032C454.163 373.032 457.576 374.376 460.179 377.064C462.782 379.709 464.083 383.421 464.083 388.2V409H455.123V389.416C455.123 386.6 454.419 384.445 453.011 382.952C451.603 381.416 449.683 380.648 447.251 380.648C444.776 380.648 442.814 381.416 441.363 382.952C439.955 384.445 439.251 386.6 439.251 389.416V409H430.291V373.544H439.251V377.96C440.446 376.424 441.96 375.229 443.795 374.376C445.672 373.48 447.72 373.032 449.939 373.032ZM470.299 391.144C470.299 387.56 471.003 384.381 472.411 381.608C473.862 378.835 475.825 376.701 478.3 375.208C480.774 373.715 483.526 372.968 486.556 372.968C488.86 372.968 491.057 373.48 493.148 374.504C495.238 375.485 496.902 376.808 498.14 378.472V361.64H507.228V409H498.14V403.752C497.03 405.501 495.473 406.909 493.468 407.976C491.462 409.043 489.137 409.576 486.492 409.576C483.505 409.576 480.774 408.808 478.3 407.272C475.825 405.736 473.862 403.581 472.411 400.808C471.003 397.992 470.299 394.771 470.299 391.144ZM498.204 391.272C498.204 389.096 497.777 387.24 496.924 385.704C496.07 384.125 494.918 382.931 493.468 382.12C492.017 381.267 490.46 380.84 488.796 380.84C487.132 380.84 485.596 381.245 484.188 382.056C482.78 382.867 481.628 384.061 480.732 385.64C479.878 387.176 479.452 389.011 479.452 391.144C479.452 393.277 479.878 395.155 480.732 396.776C481.628 398.355 482.78 399.571 484.188 400.424C485.638 401.277 487.174 401.704 488.796 401.704C490.46 401.704 492.017 401.299 493.468 400.488C494.918 399.635 496.07 398.44 496.924 396.904C497.777 395.325 498.204 393.448 498.204 391.272Z" fill="#6C7FA7" fill-opacity="0.4"/>
</svg>
