<svg width="40" height="40" viewBox="0 0 40 40" fill="none" xmlns="http://www.w3.org/2000/svg">
<path d="M38 4H32V2C32 1.46957 31.7893 0.960859 31.4142 0.585786C31.0391 0.210714 30.5304 0 30 0H10C9.46957 0 8.96086 0.210714 8.58579 0.585786C8.21071 0.960859 8 1.46957 8 2V4H2C1.46957 4 0.960859 4.21071 0.585786 4.58579C0.210714 4.96086 0 5.46957 0 6V12C0 14.1217 0.842855 16.1566 2.34315 17.6569C3.84344 19.1571 5.87827 20 8 20H11.08C12.8891 22.0183 15.3281 23.3647 18 23.82V28H16C14.4087 28 12.8826 28.6321 11.7574 29.7574C10.6321 30.8826 10 32.4087 10 34V38C10 38.5304 10.2107 39.0391 10.5858 39.4142C10.9609 39.7893 11.4696 40 12 40H28C28.5304 40 29.0391 39.7893 29.4142 39.4142C29.7893 39.0391 30 38.5304 30 38V34C30 32.4087 29.3679 30.8826 28.2426 29.7574C27.1174 28.6321 25.5913 28 24 28H22V23.82C24.6719 23.3647 27.1109 22.0183 28.92 20H32C34.1217 20 36.1566 19.1571 37.6569 17.6569C39.1571 16.1566 40 14.1217 40 12V6C40 5.46957 39.7893 4.96086 39.4142 4.58579C39.0391 4.21071 38.5304 4 38 4ZM8 16C6.93913 16 5.92172 15.5786 5.17157 14.8284C4.42143 14.0783 4 13.0609 4 12V8H8V12C8.0044 13.3634 8.24112 14.7161 8.7 16H8ZM24 32C24.5304 32 25.0391 32.2107 25.4142 32.5858C25.7893 32.9609 26 33.4696 26 34V36H14V34C14 33.4696 14.2107 32.9609 14.5858 32.5858C14.9609 32.2107 15.4696 32 16 32H24ZM28 12C28 14.1217 27.1571 16.1566 25.6569 17.6569C24.1566 19.1571 22.1217 20 20 20C17.8783 20 15.8434 19.1571 14.3431 17.6569C12.8429 16.1566 12 14.1217 12 12V4H28V12ZM36 12C36 13.0609 35.5786 14.0783 34.8284 14.8284C34.0783 15.5786 33.0609 16 32 16H31.3C31.7589 14.7161 31.9956 13.3634 32 12V8H36V12Z" fill="#E4E5E7"/>
</svg>
