<svg width="434" height="459" viewBox="0 0 434 459" fill="none" xmlns="http://www.w3.org/2000/svg">
<g filter="url(#filter0_dd_3278_262)">
<path d="M90.9333 335.181V222.086H344.1V334.192C344.1 335.324 343.437 336.352 342.405 336.818L217.098 393.461C216.341 393.803 215.472 393.802 214.716 393.457L92.6198 337.803C91.5925 337.335 90.9333 336.31 90.9333 335.181Z" fill="#84B7C4"/>
<path fill-rule="evenodd" clip-rule="evenodd" d="M166.997 222.021V363.854L98.4065 332.586C97.3792 332.118 96.72 331.093 96.72 329.964V222.021H166.997Z" fill="#6B9BAA"/>
<path fill-rule="evenodd" clip-rule="evenodd" d="M164.614 362.768V222.022H166.997V363.854L164.614 362.768Z" fill="#B0D2DD"/>
<path fill-rule="evenodd" clip-rule="evenodd" d="M268.243 221.083V362.916L336.834 331.648C337.861 331.18 338.52 330.155 338.52 329.026V221.083H268.243Z" fill="#6B9BAA"/>
<path fill-rule="evenodd" clip-rule="evenodd" d="M270.626 361.83V221.083H268.243V362.916L270.626 361.83Z" fill="#B0D2DD"/>
<g filter="url(#filter1_d_3278_262)">
<path d="M210.304 58.8695L72.3039 118.007C66.053 120.686 62 126.832 62 133.633L62 262.14C62 268.941 66.053 275.087 72.3039 277.766L210.304 336.903C214.58 338.736 219.42 338.736 223.696 336.903L361.696 277.766C367.947 275.087 372 268.941 372 262.14L372 133.633C372 126.832 367.947 120.686 361.696 118.007L223.696 58.8695C219.42 57.0371 214.58 57.0371 210.304 58.8695Z" fill="url(#paint0_linear_3278_262)"/>
<path d="M210.143 80.349L95.825 129.338C89.5977 132.007 85.56 138.13 85.56 144.905L85.5599 250.375C85.5599 257.15 89.5977 263.273 95.825 265.941L210.143 314.931C214.403 316.756 219.225 316.756 223.485 314.931L337.803 265.941C344.031 263.273 348.068 257.15 348.068 250.375L348.068 144.905C348.068 138.13 344.031 132.007 337.803 129.338L223.485 80.349C219.225 78.5234 214.403 78.5234 210.143 80.349Z" fill="url(#paint1_linear_3278_262)"/>
<g opacity="0.5">
<mask id="mask0_3278_262" style="mask-type:alpha" maskUnits="userSpaceOnUse" x="96" y="88" width="243" height="219">
<path d="M211.279 89.9736L106.489 134.839C100.563 137.377 96.7201 143.202 96.7201 149.649L96.72 246.012C96.72 252.459 100.563 258.285 106.489 260.822L211.279 305.688C215.329 307.422 219.911 307.422 223.961 305.688L328.751 260.822C334.677 258.285 338.52 252.459 338.52 246.012L338.52 149.649C338.52 143.203 334.677 137.377 328.751 134.839L223.961 89.9736C219.911 88.2398 215.329 88.2398 211.279 89.9736Z" fill="#A6D3DE"/>
</mask>
<g mask="url(#mask0_3278_262)">
<path d="M211.279 89.9736L106.489 134.839C100.563 137.377 96.7201 143.202 96.7201 149.649L96.72 246.012C96.72 252.459 100.563 258.285 106.489 260.822L211.279 305.688C215.329 307.422 219.911 307.422 223.961 305.688L328.751 260.822C334.677 258.285 338.52 252.459 338.52 246.012L338.52 149.649C338.52 143.203 334.677 137.377 328.751 134.839L223.961 89.9736C219.911 88.2398 215.329 88.2398 211.279 89.9736Z" fill="url(#paint2_radial_3278_262)"/>
<path opacity="0.5" d="M197.409 312.77L192.606 82.8794H242.634L237.831 312.77H197.409Z" fill="url(#paint3_linear_3278_262)"/>
<path opacity="0.5" d="M196.766 310.731L46.6926 113.532L90.0177 93.8268L231.772 294.81L196.766 310.731Z" fill="url(#paint4_linear_3278_262)"/>
<path opacity="0.5" d="M192.596 294.81L334.351 93.8267L377.676 113.532L227.603 310.731L192.596 294.81Z" fill="url(#paint5_linear_3278_262)"/>
<rect x="96.72" y="184.688" width="241.8" height="123.703" fill="url(#paint6_linear_3278_262)"/>
<g filter="url(#filter2_i_3278_262)">
<path d="M211.279 89.9736L106.489 134.839C100.563 137.377 96.7201 143.202 96.7201 149.649L96.72 246.012C96.72 252.459 100.563 258.285 106.489 260.822L211.279 305.688C215.329 307.422 219.911 307.422 223.961 305.688L328.751 260.822C334.677 258.285 338.52 252.459 338.52 246.012L338.52 149.649C338.52 143.203 334.677 137.377 328.751 134.839L223.961 89.9736C219.911 88.2398 215.329 88.2398 211.279 89.9736Z" fill="#AFF5F1" fill-opacity="0.03"/>
</g>
</g>
</g>
</g>
</g>
<g filter="url(#filter3_d_3278_262)">
<path d="M210.15 165.395C229.032 183.894 229.652 208.194 206.169 223.069C182.687 237.944 150.759 233.476 131.876 214.977C112.994 196.478 109.62 166.363 133.103 151.488C156.585 136.613 191.267 146.896 210.15 165.395Z" fill="url(#paint7_linear_3278_262)"/>
</g>
<g filter="url(#filter4_d_3278_262)">
<path d="M210.149 165.396C229.031 183.894 229.923 208.022 206.875 222.622C183.828 237.221 152.208 232.558 133.325 214.06C114.443 195.561 110.761 165.64 133.809 151.041C156.857 136.441 191.266 146.897 210.149 165.396Z" fill="url(#paint8_linear_3278_262)"/>
</g>
<path d="M199.418 218.89C198.611 218.153 198.742 217.026 199.708 216.392L217.85 204.501C219.645 203.325 222.196 204.798 221.297 206.492L215.509 217.392C215.327 217.733 215.286 218.108 215.39 218.465L219.312 231.95C219.829 233.729 216.961 234.904 215.456 233.53L199.418 218.89Z" fill="url(#paint9_linear_3278_262)"/>
<path d="M201.559 217.932C200.785 217.136 199.444 216.935 198.535 217.481L179.929 228.636C178.118 229.722 179.623 232.244 181.886 231.917L197.071 229.719C197.507 229.656 197.969 229.709 198.393 229.872L213.978 235.847C216.091 236.657 217.845 234.693 216.367 233.171L201.559 217.932Z" fill="url(#paint10_linear_3278_262)"/>
<rect width="11.439" height="49.0191" rx="3" transform="matrix(0.844775 -0.535121 0.71433 0.699809 198.982 223.823)" fill="url(#paint11_linear_3278_262)"/>
<g filter="url(#filter5_d_3278_262)">
<path d="M306.176 210.439C288.454 229.637 258.844 236.467 234.474 222.506C210.104 208.546 207.222 183.101 224.944 163.904C242.667 144.706 278.68 134.259 303.051 148.22C327.421 162.181 323.898 191.241 306.176 210.439Z" fill="url(#paint12_linear_3278_262)"/>
</g>
<g filter="url(#filter6_d_3278_262)">
<path d="M306.175 210.439C288.453 229.637 259.125 236.629 235.206 222.927C211.288 209.224 208.725 183.963 226.447 164.765C244.169 145.567 279.864 134.938 303.783 148.64C327.701 162.343 323.897 191.241 306.175 210.439Z" fill="url(#paint13_linear_3278_262)"/>
</g>
<path d="M237.772 216.342C238.501 215.492 239.838 215.225 240.774 215.742L259.67 226.191C261.514 227.21 260.13 229.814 257.87 229.578L243.804 228.114C243.383 228.07 242.941 228.137 242.537 228.307L226.391 235.092C224.346 235.951 222.564 234.08 223.921 232.498L237.772 216.342Z" fill="url(#paint14_linear_3278_262)"/>
<path d="M239.602 217.616C240.348 216.848 240.17 215.754 239.205 215.169L220.387 203.772C218.537 202.652 216.01 204.272 217.018 205.931L223.926 217.299C224.13 217.634 224.192 218.012 224.103 218.379L220.956 231.399C220.518 233.213 223.471 234.238 224.899 232.768L239.602 217.616Z" fill="url(#paint15_linear_3278_262)"/>
<rect width="11.5577" height="48.4171" rx="3" transform="matrix(0.867705 0.49708 -0.678302 0.734783 231.67 217.239)" fill="url(#paint16_linear_3278_262)"/>
<ellipse cx="217" cy="148.799" rx="11.16" ry="8.79144" fill="url(#paint17_linear_3278_262)"/>
<defs>
<filter id="filter0_dd_3278_262" x="0.803555" y="0.378435" width="432.393" height="458.615" filterUnits="userSpaceOnUse" color-interpolation-filters="sRGB">
<feFlood flood-opacity="0" result="BackgroundImageFix"/>
<feColorMatrix in="SourceAlpha" type="matrix" values="0 0 0 0 0 0 0 0 0 0 0 0 0 0 0 0 0 0 127 0" result="hardAlpha"/>
<feOffset/>
<feGaussianBlur stdDeviation="10.1994"/>
<feColorMatrix type="matrix" values="0 0 0 0 0.558594 0 0 0 0 0.869297 0 0 0 0 0.9375 0 0 0 0.04 0"/>
<feBlend mode="normal" in2="BackgroundImageFix" result="effect1_dropShadow_3278_262"/>
<feColorMatrix in="SourceAlpha" type="matrix" values="0 0 0 0 0 0 0 0 0 0 0 0 0 0 0 0 0 0 127 0" result="hardAlpha"/>
<feOffset dy="4.07976"/>
<feGaussianBlur stdDeviation="30.5982"/>
<feColorMatrix type="matrix" values="0 0 0 0 0.670833 0 0 0 0 1 0 0 0 0 0.94075 0 0 0 0.33 0"/>
<feBlend mode="normal" in2="effect1_dropShadow_3278_262" result="effect2_dropShadow_3278_262"/>
<feBlend mode="normal" in="SourceGraphic" in2="effect2_dropShadow_3278_262" result="shape"/>
</filter>
<filter id="filter1_d_3278_262" x="56" y="57.4951" width="322" height="294.783" filterUnits="userSpaceOnUse" color-interpolation-filters="sRGB">
<feFlood flood-opacity="0" result="BackgroundImageFix"/>
<feColorMatrix in="SourceAlpha" type="matrix" values="0 0 0 0 0 0 0 0 0 0 0 0 0 0 0 0 0 0 127 0" result="hardAlpha"/>
<feOffset dy="8"/>
<feGaussianBlur stdDeviation="3"/>
<feColorMatrix type="matrix" values="0 0 0 0 0.208958 0 0 0 0 0.389892 0 0 0 0 0.491667 0 0 0 0.54 0"/>
<feBlend mode="normal" in2="BackgroundImageFix" result="effect1_dropShadow_3278_262"/>
<feBlend mode="normal" in="SourceGraphic" in2="effect1_dropShadow_3278_262" result="shape"/>
</filter>
<filter id="filter2_i_3278_262" x="96.72" y="88.6733" width="241.8" height="218.315" filterUnits="userSpaceOnUse" color-interpolation-filters="sRGB">
<feFlood flood-opacity="0" result="BackgroundImageFix"/>
<feBlend mode="normal" in="SourceGraphic" in2="BackgroundImageFix" result="shape"/>
<feColorMatrix in="SourceAlpha" type="matrix" values="0 0 0 0 0 0 0 0 0 0 0 0 0 0 0 0 0 0 127 0" result="hardAlpha"/>
<feOffset/>
<feGaussianBlur stdDeviation="6.72414"/>
<feComposite in2="hardAlpha" operator="arithmetic" k2="-1" k3="1"/>
<feColorMatrix type="matrix" values="0 0 0 0 0.37849 0 0 0 0 0.586923 0 0 0 0 0.704167 0 0 0 1 0"/>
<feBlend mode="normal" in2="shape" result="effect1_innerShadow_3278_262"/>
</filter>
<filter id="filter3_d_3278_262" x="109.721" y="140.755" width="121.944" height="102.071" filterUnits="userSpaceOnUse" color-interpolation-filters="sRGB">
<feFlood flood-opacity="0" result="BackgroundImageFix"/>
<feColorMatrix in="SourceAlpha" type="matrix" values="0 0 0 0 0 0 0 0 0 0 0 0 0 0 0 0 0 0 127 0" result="hardAlpha"/>
<feOffset dx="0.361644" dy="3.61644"/>
<feGaussianBlur stdDeviation="3.61644"/>
<feColorMatrix type="matrix" values="0 0 0 0 0.564618 0 0 0 0 0.775175 0 0 0 0 0.841667 0 0 0 0.65 0"/>
<feBlend mode="normal" in2="BackgroundImageFix" result="effect1_dropShadow_3278_262"/>
<feBlend mode="normal" in="SourceGraphic" in2="effect1_dropShadow_3278_262" result="shape"/>
</filter>
<filter id="filter4_d_3278_262" x="110.949" y="140.545" width="120.894" height="101.547" filterUnits="userSpaceOnUse" color-interpolation-filters="sRGB">
<feFlood flood-opacity="0" result="BackgroundImageFix"/>
<feColorMatrix in="SourceAlpha" type="matrix" values="0 0 0 0 0 0 0 0 0 0 0 0 0 0 0 0 0 0 127 0" result="hardAlpha"/>
<feOffset dx="0.361644" dy="3.61644"/>
<feGaussianBlur stdDeviation="3.61644"/>
<feColorMatrix type="matrix" values="0 0 0 0 0.564618 0 0 0 0 0.775175 0 0 0 0 0.841667 0 0 0 0.65 0"/>
<feBlend mode="normal" in2="BackgroundImageFix" result="effect1_dropShadow_3278_262"/>
<feBlend mode="normal" in="SourceGraphic" in2="effect1_dropShadow_3278_262" result="shape"/>
</filter>
<filter id="filter5_d_3278_262" x="206.71" y="138.186" width="121.283" height="102.557" filterUnits="userSpaceOnUse" color-interpolation-filters="sRGB">
<feFlood flood-opacity="0" result="BackgroundImageFix"/>
<feColorMatrix in="SourceAlpha" type="matrix" values="0 0 0 0 0 0 0 0 0 0 0 0 0 0 0 0 0 0 127 0" result="hardAlpha"/>
<feOffset dx="0.361644" dy="3.61644"/>
<feGaussianBlur stdDeviation="3.61644"/>
<feColorMatrix type="matrix" values="0 0 0 0 0.564618 0 0 0 0 0.775175 0 0 0 0 0.841667 0 0 0 0.65 0"/>
<feBlend mode="normal" in2="BackgroundImageFix" result="effect1_dropShadow_3278_262"/>
<feBlend mode="normal" in="SourceGraphic" in2="effect1_dropShadow_3278_262" result="shape"/>
</filter>
<filter id="filter6_d_3278_262" x="208.051" y="138.825" width="120.142" height="102.1" filterUnits="userSpaceOnUse" color-interpolation-filters="sRGB">
<feFlood flood-opacity="0" result="BackgroundImageFix"/>
<feColorMatrix in="SourceAlpha" type="matrix" values="0 0 0 0 0 0 0 0 0 0 0 0 0 0 0 0 0 0 127 0" result="hardAlpha"/>
<feOffset dx="0.361644" dy="3.61644"/>
<feGaussianBlur stdDeviation="3.61644"/>
<feColorMatrix type="matrix" values="0 0 0 0 0.564618 0 0 0 0 0.775175 0 0 0 0 0.841667 0 0 0 0.65 0"/>
<feBlend mode="normal" in2="BackgroundImageFix" result="effect1_dropShadow_3278_262"/>
<feBlend mode="normal" in="SourceGraphic" in2="effect1_dropShadow_3278_262" result="shape"/>
</filter>
<linearGradient id="paint0_linear_3278_262" x1="151.9" y1="90.1889" x2="245.661" y2="326.646" gradientUnits="userSpaceOnUse">
<stop stop-color="#D8ECF1"/>
<stop offset="1" stop-color="#82B3BF"/>
</linearGradient>
<linearGradient id="paint1_linear_3278_262" x1="150.66" y1="108.26" x2="232.337" y2="299.591" gradientUnits="userSpaceOnUse">
<stop stop-color="#A1C9D3"/>
<stop offset="1" stop-color="#D0ECF2"/>
</linearGradient>
<radialGradient id="paint2_radial_3278_262" cx="0" cy="0" r="1" gradientUnits="userSpaceOnUse" gradientTransform="translate(217.62 197.831) rotate(90) scale(110.572 120.9)">
<stop stop-color="#D0EBF2"/>
<stop offset="1" stop-color="#8DD3E2"/>
</radialGradient>
<linearGradient id="paint3_linear_3278_262" x1="217.62" y1="82.8794" x2="217.62" y2="312.77" gradientUnits="userSpaceOnUse">
<stop stop-color="white"/>
<stop offset="1" stop-color="#F2EDED" stop-opacity="0"/>
</linearGradient>
<linearGradient id="paint4_linear_3278_262" x1="68.3551" y1="103.679" x2="168.394" y2="323.635" gradientUnits="userSpaceOnUse">
<stop stop-color="white"/>
<stop offset="1" stop-color="#F2EDED" stop-opacity="0"/>
</linearGradient>
<linearGradient id="paint5_linear_3278_262" x1="356.014" y1="103.679" x2="255.974" y2="323.635" gradientUnits="userSpaceOnUse">
<stop stop-color="white"/>
<stop offset="1" stop-color="#F2EDED" stop-opacity="0"/>
</linearGradient>
<linearGradient id="paint6_linear_3278_262" x1="217.62" y1="238.33" x2="217.167" y2="300.729" gradientUnits="userSpaceOnUse">
<stop stop-color="#EEFFFF" stop-opacity="0"/>
<stop offset="1" stop-color="#B5EBFB"/>
</linearGradient>
<linearGradient id="paint7_linear_3278_262" x1="107.622" y1="138.084" x2="167.853" y2="103.831" gradientUnits="userSpaceOnUse">
<stop offset="0.168737" stop-color="#E3FAFF"/>
<stop offset="0.360439" stop-color="#DDF7FF"/>
<stop offset="0.451944" stop-color="#CBEDF8"/>
<stop offset="0.627859" stop-color="#C8F1FA"/>
<stop offset="0.80404" stop-color="#D8F5FC"/>
</linearGradient>
<linearGradient id="paint8_linear_3278_262" x1="109.46" y1="79.7413" x2="182.745" y2="114.051" gradientUnits="userSpaceOnUse">
<stop offset="0.168737" stop-color="#E3FAFF"/>
<stop offset="0.640195" stop-color="#C8F1FA"/>
<stop offset="0.969692" stop-color="#D8F5FC"/>
</linearGradient>
<linearGradient id="paint9_linear_3278_262" x1="167.676" y1="214.196" x2="188.486" y2="185.353" gradientUnits="userSpaceOnUse">
<stop offset="0.168737" stop-color="#E3FAFF"/>
<stop offset="0.732667" stop-color="#C8F1FA"/>
</linearGradient>
<linearGradient id="paint10_linear_3278_262" x1="201.422" y1="199.714" x2="174.448" y2="220.619" gradientUnits="userSpaceOnUse">
<stop offset="0.168737" stop-color="#E3FAFF"/>
<stop offset="0.451944" stop-color="#CBEDF8"/>
<stop offset="0.812226" stop-color="#C8F1FA"/>
</linearGradient>
<linearGradient id="paint11_linear_3278_262" x1="19.7005" y1="-9.89807" x2="24.9543" y2="-6.6113" gradientUnits="userSpaceOnUse">
<stop offset="0.168737" stop-color="#E3FAFF"/>
<stop offset="0.360439" stop-color="#DDF7FF"/>
<stop offset="0.80404" stop-color="#D8F5FC"/>
</linearGradient>
<linearGradient id="paint12_linear_3278_262" x1="312.804" y1="125.339" x2="346.535" y2="177.644" gradientUnits="userSpaceOnUse">
<stop offset="0.168737" stop-color="#E3FAFF"/>
<stop offset="0.360439" stop-color="#DDF7FF"/>
<stop offset="0.451944" stop-color="#CBEDF8"/>
<stop offset="0.627859" stop-color="#C8F1FA"/>
<stop offset="0.80404" stop-color="#D8F5FC"/>
</linearGradient>
<linearGradient id="paint13_linear_3278_262" x1="227.898" y1="90.6107" x2="330.196" y2="74.8124" gradientUnits="userSpaceOnUse">
<stop offset="0.168737" stop-color="#E3FAFF"/>
<stop offset="0.704159" stop-color="#C8F1FA"/>
<stop offset="0.80404" stop-color="#D8F5FC"/>
</linearGradient>
<linearGradient id="paint14_linear_3278_262" x1="235.269" y1="190.917" x2="267.587" y2="212.104" gradientUnits="userSpaceOnUse">
<stop offset="0.168737" stop-color="#E3FAFF"/>
<stop offset="0.732667" stop-color="#C8F1FA"/>
</linearGradient>
<linearGradient id="paint15_linear_3278_262" x1="261.846" y1="212.786" x2="241.08" y2="187.838" gradientUnits="userSpaceOnUse">
<stop offset="0.168737" stop-color="#E3FAFF"/>
<stop offset="0.451944" stop-color="#CBEDF8"/>
<stop offset="0.812226" stop-color="#C8F1FA"/>
</linearGradient>
<linearGradient id="paint16_linear_3278_262" x1="19.9049" y1="-9.77653" x2="25.1448" y2="-6.42326" gradientUnits="userSpaceOnUse">
<stop offset="0.168737" stop-color="#E3FAFF"/>
<stop offset="0.360439" stop-color="#DDF7FF"/>
<stop offset="0.80404" stop-color="#D8F5FC"/>
</linearGradient>
<linearGradient id="paint17_linear_3278_262" x1="215.232" y1="135.6" x2="229.778" y2="141.211" gradientUnits="userSpaceOnUse">
<stop offset="0.168737" stop-color="#E3FAFF"/>
<stop offset="0.360439" stop-color="#DDF7FF"/>
<stop offset="0.451944" stop-color="#CBEDF8"/>
<stop offset="0.627859" stop-color="#C8F1FA"/>
<stop offset="0.80404" stop-color="#D8F5FC"/>
</linearGradient>
</defs>
</svg>
