<svg width="40" height="40" viewBox="0 0 40 40" fill="none" xmlns="http://www.w3.org/2000/svg">
<path d="M12.0394 17.9992C11.6444 17.9992 11.2583 18.1165 10.9298 18.3363C10.6014 18.556 10.3454 18.8683 10.1942 19.2338C10.0431 19.5992 10.0035 20.0013 10.0806 20.3893C10.1577 20.7772 10.3479 21.1336 10.6272 21.4133C10.9065 21.693 11.2624 21.8834 11.6498 21.9606C12.0372 22.0378 12.4388 21.9982 12.8037 21.8468C13.1686 21.6954 13.4805 21.4391 13.7 21.1102C13.9195 20.7813 14.0366 20.3947 14.0366 19.9991C14.0366 19.4687 13.8262 18.96 13.4516 18.585C13.0771 18.2099 12.5691 17.9992 12.0394 17.9992ZM20.0281 17.9992C19.6331 17.9992 19.247 18.1165 18.9186 18.3363C18.5901 18.556 18.3342 18.8683 18.183 19.2338C18.0318 19.5992 17.9923 20.0013 18.0693 20.3893C18.1464 20.7772 18.3366 21.1336 18.6159 21.4133C18.8952 21.693 19.2511 21.8834 19.6385 21.9606C20.0259 22.0378 20.4275 21.9982 20.7924 21.8468C21.1574 21.6954 21.4693 21.4391 21.6887 21.1102C21.9082 20.7813 22.0253 20.3947 22.0253 19.9991C22.0253 19.4687 21.8149 18.96 21.4404 18.585C21.0658 18.2099 20.5578 17.9992 20.0281 17.9992ZM28.0169 17.9992C27.6219 17.9992 27.2357 18.1165 26.9073 18.3363C26.5789 18.556 26.3229 18.8683 26.1717 19.2338C26.0206 19.5992 25.981 20.0013 26.0581 20.3893C26.1351 20.7772 26.3254 21.1336 26.6047 21.4133C26.884 21.693 27.2398 21.8834 27.6273 21.9606C28.0147 22.0378 28.4162 21.9982 28.7812 21.8468C29.1461 21.6954 29.458 21.4391 29.6775 21.1102C29.8969 20.7813 30.0141 20.3947 30.0141 19.9991C30.0141 19.4687 29.8037 18.96 29.4291 18.585C29.0546 18.2099 28.5466 17.9992 28.0169 17.9992ZM20.0281 0C17.4054 0 14.8083 0.517292 12.3852 1.52234C9.96215 2.52739 7.76047 4.00052 5.90591 5.85761C2.16046 9.60817 0.0562934 14.695 0.0562934 19.9991C0.0388337 24.6172 1.63565 29.0958 4.56993 32.6586L0.575562 36.6584C0.298437 36.9396 0.110709 37.2967 0.0360659 37.6847C-0.0385772 38.0727 0.00320928 38.4741 0.156153 38.8383C0.322035 39.1981 0.590948 39.5005 0.928757 39.707C1.26657 39.9135 1.65804 40.0149 2.05348 39.9982H20.0281C25.325 39.9982 30.4049 37.8912 34.1504 34.1406C37.8958 30.3901 40 25.3032 40 19.9991C40 14.695 37.8958 9.60817 34.1504 5.85761C30.4049 2.10704 25.325 0 20.0281 0ZM20.0281 35.9984H6.86669L8.72408 34.1385C8.91279 33.9533 9.06292 33.7324 9.16576 33.4887C9.26861 33.2449 9.32214 32.9832 9.32323 32.7186C9.31573 32.191 9.10038 31.6879 8.72408 31.3186C6.10893 28.7028 4.48041 25.26 4.11595 21.5766C3.7515 17.8933 4.67367 14.1974 6.72535 11.1186C8.77703 8.03972 11.8313 5.76846 15.3677 4.69174C18.9042 3.61502 22.7041 3.79944 26.12 5.2136C29.5359 6.62775 32.3565 9.18414 34.1012 12.4472C35.8459 15.7103 36.4068 19.4782 35.6883 23.109C34.9699 26.7398 33.0165 30.0088 30.1609 32.3591C27.3054 34.7093 23.7245 35.9955 20.0281 35.9984Z" fill="#E4E5E7"/>
</svg>
