<svg width="446" height="442" viewBox="0 0 446 442" fill="none" xmlns="http://www.w3.org/2000/svg">
<g filter="url(#filter0_d_518_418)">
<g clip-path="url(#clip0_518_418)">
<rect x="63" y="61" width="300" height="297" rx="20" fill="#E4E5E7"/>
<path d="M108.724 98H101V105.724H108.724V98Z" fill="black"/>
<path d="M116.448 98H108.724V105.724H116.448V98Z" fill="black"/>
<path d="M124.172 98H116.448V105.724H124.172V98Z" fill="black"/>
<path d="M131.897 98H124.172V105.724H131.897V98Z" fill="black"/>
<path d="M139.621 98H131.897V105.724H139.621V98Z" fill="black"/>
<path d="M147.345 98H139.621V105.724H147.345V98Z" fill="black"/>
<path d="M155.069 98H147.345V105.724H155.069V98Z" fill="black"/>
<path d="M170.517 98H162.793V105.724H170.517V98Z" fill="black"/>
<path d="M185.966 98H178.241V105.724H185.966V98Z" fill="black"/>
<path d="M224.586 98H216.862V105.724H224.586V98Z" fill="black"/>
<path d="M232.31 98H224.586V105.724H232.31V98Z" fill="black"/>
<path d="M247.759 98H240.034V105.724H247.759V98Z" fill="black"/>
<path d="M263.207 98H255.483V105.724H263.207V98Z" fill="black"/>
<path d="M278.655 98H270.931V105.724H278.655V98Z" fill="black"/>
<path d="M286.379 98H278.655V105.724H286.379V98Z" fill="black"/>
<path d="M294.103 98H286.379V105.724H294.103V98Z" fill="black"/>
<path d="M301.828 98H294.103V105.724H301.828V98Z" fill="black"/>
<path d="M309.552 98H301.828V105.724H309.552V98Z" fill="black"/>
<path d="M317.276 98H309.552V105.724H317.276V98Z" fill="black"/>
<path d="M325 98H317.276V105.724H325V98Z" fill="black"/>
<path d="M108.724 105.724H101V113.448H108.724V105.724Z" fill="black"/>
<path d="M155.069 105.724H147.345V113.448H155.069V105.724Z" fill="black"/>
<path d="M178.241 105.724H170.517V113.448H178.241V105.724Z" fill="black"/>
<path d="M185.966 105.724H178.241V113.448H185.966V105.724Z" fill="black"/>
<path d="M193.69 105.724H185.966V113.448H193.69V105.724Z" fill="black"/>
<path d="M201.414 105.724H193.69V113.448H201.414V105.724Z" fill="black"/>
<path d="M216.862 105.724H209.138V113.448H216.862V105.724Z" fill="black"/>
<path d="M224.586 105.724H216.862V113.448H224.586V105.724Z" fill="black"/>
<path d="M278.655 105.724H270.931V113.448H278.655V105.724Z" fill="black"/>
<path d="M325 105.724H317.276V113.448H325V105.724Z" fill="black"/>
<path d="M108.724 113.448H101V121.172H108.724V113.448Z" fill="black"/>
<path d="M124.172 113.448H116.448V121.172H124.172V113.448Z" fill="black"/>
<path d="M131.897 113.448H124.172V121.172H131.897V113.448Z" fill="black"/>
<path d="M139.621 113.448H131.897V121.172H139.621V113.448Z" fill="black"/>
<path d="M155.069 113.448H147.345V121.172H155.069V113.448Z" fill="black"/>
<path d="M185.966 113.448H178.241V121.172H185.966V113.448Z" fill="black"/>
<path d="M193.69 113.448H185.966V121.172H193.69V113.448Z" fill="black"/>
<path d="M201.414 113.448H193.69V121.172H201.414V113.448Z" fill="black"/>
<path d="M209.138 113.448H201.414V121.172H209.138V113.448Z" fill="black"/>
<path d="M224.586 113.448H216.862V121.172H224.586V113.448Z" fill="black"/>
<path d="M232.31 113.448H224.586V121.172H232.31V113.448Z" fill="black"/>
<path d="M255.483 113.448H247.759V121.172H255.483V113.448Z" fill="black"/>
<path d="M263.207 113.448H255.483V121.172H263.207V113.448Z" fill="black"/>
<path d="M278.655 113.448H270.931V121.172H278.655V113.448Z" fill="black"/>
<path d="M294.103 113.448H286.379V121.172H294.103V113.448Z" fill="black"/>
<path d="M301.828 113.448H294.103V121.172H301.828V113.448Z" fill="black"/>
<path d="M309.552 113.448H301.828V121.172H309.552V113.448Z" fill="black"/>
<path d="M325 113.448H317.276V121.172H325V113.448Z" fill="black"/>
<path d="M108.724 121.172H101V128.897H108.724V121.172Z" fill="black"/>
<path d="M124.172 121.172H116.448V128.897H124.172V121.172Z" fill="black"/>
<path d="M131.897 121.172H124.172V128.897H131.897V121.172Z" fill="black"/>
<path d="M139.621 121.172H131.897V128.897H139.621V121.172Z" fill="black"/>
<path d="M155.069 121.172H147.345V128.897H155.069V121.172Z" fill="black"/>
<path d="M170.517 121.172H162.793V128.897H170.517V121.172Z" fill="black"/>
<path d="M178.241 121.172H170.517V128.897H178.241V121.172Z" fill="black"/>
<path d="M185.966 121.172H178.241V128.897H185.966V121.172Z" fill="black"/>
<path d="M193.69 121.172H185.966V128.897H193.69V121.172Z" fill="black"/>
<path d="M209.138 121.172H201.414V128.897H209.138V121.172Z" fill="black"/>
<path d="M232.31 121.172H224.586V128.897H232.31V121.172Z" fill="black"/>
<path d="M255.483 121.172H247.759V128.897H255.483V121.172Z" fill="black"/>
<path d="M278.655 121.172H270.931V128.897H278.655V121.172Z" fill="black"/>
<path d="M294.103 121.172H286.379V128.897H294.103V121.172Z" fill="black"/>
<path d="M301.828 121.172H294.103V128.897H301.828V121.172Z" fill="black"/>
<path d="M309.552 121.172H301.828V128.897H309.552V121.172Z" fill="black"/>
<path d="M325 121.172H317.276V128.897H325V121.172Z" fill="black"/>
<path d="M108.724 128.897H101V136.621H108.724V128.897Z" fill="black"/>
<path d="M124.172 128.897H116.448V136.621H124.172V128.897Z" fill="black"/>
<path d="M131.897 128.897H124.172V136.621H131.897V128.897Z" fill="black"/>
<path d="M139.621 128.897H131.897V136.621H139.621V128.897Z" fill="black"/>
<path d="M155.069 128.897H147.345V136.621H155.069V128.897Z" fill="black"/>
<path d="M209.138 128.897H201.414V136.621H209.138V128.897Z" fill="black"/>
<path d="M216.862 128.897H209.138V136.621H216.862V128.897Z" fill="black"/>
<path d="M224.586 128.897H216.862V136.621H224.586V128.897Z" fill="black"/>
<path d="M240.034 128.897H232.31V136.621H240.034V128.897Z" fill="black"/>
<path d="M278.655 128.897H270.931V136.621H278.655V128.897Z" fill="black"/>
<path d="M294.103 128.897H286.379V136.621H294.103V128.897Z" fill="black"/>
<path d="M301.828 128.897H294.103V136.621H301.828V128.897Z" fill="black"/>
<path d="M309.552 128.897H301.828V136.621H309.552V128.897Z" fill="black"/>
<path d="M325 128.897H317.276V136.621H325V128.897Z" fill="black"/>
<path d="M108.724 136.621H101V144.345H108.724V136.621Z" fill="black"/>
<path d="M155.069 136.621H147.345V144.345H155.069V136.621Z" fill="black"/>
<path d="M170.517 136.621H162.793V144.345H170.517V136.621Z" fill="black"/>
<path d="M178.241 136.621H170.517V144.345H178.241V136.621Z" fill="black"/>
<path d="M185.966 136.621H178.241V144.345H185.966V136.621Z" fill="black"/>
<path d="M193.69 136.621H185.966V144.345H193.69V136.621Z" fill="black"/>
<path d="M201.414 136.621H193.69V144.345H201.414V136.621Z" fill="black"/>
<path d="M209.138 136.621H201.414V144.345H209.138V136.621Z" fill="black"/>
<path d="M224.586 136.621H216.862V144.345H224.586V136.621Z" fill="black"/>
<path d="M232.31 136.621H224.586V144.345H232.31V136.621Z" fill="black"/>
<path d="M278.655 136.621H270.931V144.345H278.655V136.621Z" fill="black"/>
<path d="M325 136.621H317.276V144.345H325V136.621Z" fill="black"/>
<path d="M108.724 144.345H101V152.069H108.724V144.345Z" fill="black"/>
<path d="M116.448 144.345H108.724V152.069H116.448V144.345Z" fill="black"/>
<path d="M124.172 144.345H116.448V152.069H124.172V144.345Z" fill="black"/>
<path d="M131.897 144.345H124.172V152.069H131.897V144.345Z" fill="black"/>
<path d="M139.621 144.345H131.897V152.069H139.621V144.345Z" fill="black"/>
<path d="M147.345 144.345H139.621V152.069H147.345V144.345Z" fill="black"/>
<path d="M155.069 144.345H147.345V152.069H155.069V144.345Z" fill="black"/>
<path d="M170.517 144.345H162.793V152.069H170.517V144.345Z" fill="black"/>
<path d="M185.966 144.345H178.241V152.069H185.966V144.345Z" fill="black"/>
<path d="M201.414 144.345H193.69V152.069H201.414V144.345Z" fill="black"/>
<path d="M216.862 144.345H209.138V152.069H216.862V144.345Z" fill="black"/>
<path d="M232.31 144.345H224.586V152.069H232.31V144.345Z" fill="black"/>
<path d="M247.759 144.345H240.034V152.069H247.759V144.345Z" fill="black"/>
<path d="M263.207 144.345H255.483V152.069H263.207V144.345Z" fill="black"/>
<path d="M278.655 144.345H270.931V152.069H278.655V144.345Z" fill="black"/>
<path d="M286.379 144.345H278.655V152.069H286.379V144.345Z" fill="black"/>
<path d="M294.103 144.345H286.379V152.069H294.103V144.345Z" fill="black"/>
<path d="M301.828 144.345H294.103V152.069H301.828V144.345Z" fill="black"/>
<path d="M309.552 144.345H301.828V152.069H309.552V144.345Z" fill="black"/>
<path d="M317.276 144.345H309.552V152.069H317.276V144.345Z" fill="black"/>
<path d="M325 144.345H317.276V152.069H325V144.345Z" fill="black"/>
<path d="M178.241 152.069H170.517V159.793H178.241V152.069Z" fill="black"/>
<path d="M216.862 152.069H209.138V159.793H216.862V152.069Z" fill="black"/>
<path d="M240.034 152.069H232.31V159.793H240.034V152.069Z" fill="black"/>
<path d="M247.759 152.069H240.034V159.793H247.759V152.069Z" fill="black"/>
<path d="M255.483 152.069H247.759V159.793H255.483V152.069Z" fill="black"/>
<path d="M263.207 152.069H255.483V159.793H263.207V152.069Z" fill="black"/>
<path d="M147.345 159.793H139.621V167.517H147.345V159.793Z" fill="black"/>
<path d="M155.069 159.793H147.345V167.517H155.069V159.793Z" fill="black"/>
<path d="M170.517 159.793H162.793V167.517H170.517V159.793Z" fill="black"/>
<path d="M178.241 159.793H170.517V167.517H178.241V159.793Z" fill="black"/>
<path d="M193.69 159.793H185.966V167.517H193.69V159.793Z" fill="black"/>
<path d="M201.414 159.793H193.69V167.517H201.414V159.793Z" fill="black"/>
<path d="M216.862 159.793H209.138V167.517H216.862V159.793Z" fill="black"/>
<path d="M224.586 159.793H216.862V167.517H224.586V159.793Z" fill="black"/>
<path d="M232.31 159.793H224.586V167.517H232.31V159.793Z" fill="black"/>
<path d="M240.034 159.793H232.31V167.517H240.034V159.793Z" fill="black"/>
<path d="M270.931 159.793H263.207V167.517H270.931V159.793Z" fill="black"/>
<path d="M286.379 159.793H278.655V167.517H286.379V159.793Z" fill="black"/>
<path d="M301.828 159.793H294.103V167.517H301.828V159.793Z" fill="black"/>
<path d="M325 159.793H317.276V167.517H325V159.793Z" fill="black"/>
<path d="M108.724 167.517H101V175.241H108.724V167.517Z" fill="black"/>
<path d="M131.897 167.517H124.172V175.241H131.897V167.517Z" fill="black"/>
<path d="M162.793 167.517H155.069V175.241H162.793V167.517Z" fill="black"/>
<path d="M170.517 167.517H162.793V175.241H170.517V167.517Z" fill="black"/>
<path d="M178.241 167.517H170.517V175.241H178.241V167.517Z" fill="black"/>
<path d="M224.586 167.517H216.862V175.241H224.586V167.517Z" fill="black"/>
<path d="M240.034 167.517H232.31V175.241H240.034V167.517Z" fill="black"/>
<path d="M255.483 167.517H247.759V175.241H255.483V167.517Z" fill="black"/>
<path d="M270.931 167.517H263.207V175.241H270.931V167.517Z" fill="black"/>
<path d="M108.724 175.241H101V182.966H108.724V175.241Z" fill="black"/>
<path d="M131.897 175.241H124.172V182.966H131.897V175.241Z" fill="black"/>
<path d="M139.621 175.241H131.897V182.966H139.621V175.241Z" fill="black"/>
<path d="M155.069 175.241H147.345V182.966H155.069V175.241Z" fill="black"/>
<path d="M162.793 175.241H155.069V182.966H162.793V175.241Z" fill="black"/>
<path d="M170.517 175.241H162.793V182.966H170.517V175.241Z" fill="black"/>
<path d="M185.966 175.241H178.241V182.966H185.966V175.241Z" fill="black"/>
<path d="M201.414 175.241H193.69V182.966H201.414V175.241Z" fill="black"/>
<path d="M224.586 175.241H216.862V182.966H224.586V175.241Z" fill="black"/>
<path d="M247.759 175.241H240.034V182.966H247.759V175.241Z" fill="black"/>
<path d="M263.207 175.241H255.483V182.966H263.207V175.241Z" fill="black"/>
<path d="M278.655 175.241H270.931V182.966H278.655V175.241Z" fill="black"/>
<path d="M294.103 175.241H286.379V182.966H294.103V175.241Z" fill="black"/>
<path d="M309.552 175.241H301.828V182.966H309.552V175.241Z" fill="black"/>
<path d="M325 175.241H317.276V182.966H325V175.241Z" fill="black"/>
<path d="M147.345 182.966H139.621V190.69H147.345V182.966Z" fill="black"/>
<path d="M185.966 182.966H178.241V190.69H185.966V182.966Z" fill="black"/>
<path d="M209.138 182.966H201.414V190.69H209.138V182.966Z" fill="black"/>
<path d="M216.862 182.966H209.138V190.69H216.862V182.966Z" fill="black"/>
<path d="M232.31 182.966H224.586V190.69H232.31V182.966Z" fill="black"/>
<path d="M247.759 182.966H240.034V190.69H247.759V182.966Z" fill="black"/>
<path d="M255.483 182.966H247.759V190.69H255.483V182.966Z" fill="black"/>
<path d="M263.207 182.966H255.483V190.69H263.207V182.966Z" fill="black"/>
<path d="M270.931 182.966H263.207V190.69H270.931V182.966Z" fill="black"/>
<path d="M286.379 182.966H278.655V190.69H286.379V182.966Z" fill="black"/>
<path d="M294.103 182.966H286.379V190.69H294.103V182.966Z" fill="black"/>
<path d="M124.172 190.69H116.448V198.414H124.172V190.69Z" fill="black"/>
<path d="M155.069 190.69H147.345V198.414H155.069V190.69Z" fill="black"/>
<path d="M170.517 190.69H162.793V198.414H170.517V190.69Z" fill="black"/>
<path d="M178.241 190.69H170.517V198.414H178.241V190.69Z" fill="black"/>
<path d="M185.966 190.69H178.241V198.414H185.966V190.69Z" fill="black"/>
<path d="M193.69 190.69H185.966V198.414H193.69V190.69Z" fill="black"/>
<path d="M201.414 190.69H193.69V198.414H201.414V190.69Z" fill="black"/>
<path d="M216.862 190.69H209.138V198.414H216.862V190.69Z" fill="black"/>
<path d="M224.586 190.69H216.862V198.414H224.586V190.69Z" fill="black"/>
<path d="M247.759 190.69H240.034V198.414H247.759V190.69Z" fill="black"/>
<path d="M255.483 190.69H247.759V198.414H255.483V190.69Z" fill="black"/>
<path d="M278.655 190.69H270.931V198.414H278.655V190.69Z" fill="black"/>
<path d="M294.103 190.69H286.379V198.414H294.103V190.69Z" fill="black"/>
<path d="M309.552 190.69H301.828V198.414H309.552V190.69Z" fill="black"/>
<path d="M325 190.69H317.276V198.414H325V190.69Z" fill="black"/>
<path d="M108.724 198.414H101V206.138H108.724V198.414Z" fill="black"/>
<path d="M116.448 198.414H108.724V206.138H116.448V198.414Z" fill="black"/>
<path d="M124.172 198.414H116.448V206.138H124.172V198.414Z" fill="black"/>
<path d="M131.897 198.414H124.172V206.138H131.897V198.414Z" fill="black"/>
<path d="M139.621 198.414H131.897V206.138H139.621V198.414Z" fill="black"/>
<path d="M147.345 198.414H139.621V206.138H147.345V198.414Z" fill="black"/>
<path d="M224.586 198.414H216.862V206.138H224.586V198.414Z" fill="black"/>
<path d="M232.31 198.414H224.586V206.138H232.31V198.414Z" fill="black"/>
<path d="M247.759 198.414H240.034V206.138H247.759V198.414Z" fill="black"/>
<path d="M255.483 198.414H247.759V206.138H255.483V198.414Z" fill="black"/>
<path d="M270.931 198.414H263.207V206.138H270.931V198.414Z" fill="black"/>
<path d="M278.655 198.414H270.931V206.138H278.655V198.414Z" fill="black"/>
<path d="M286.379 198.414H278.655V206.138H286.379V198.414Z" fill="black"/>
<path d="M317.276 198.414H309.552V206.138H317.276V198.414Z" fill="black"/>
<path d="M325 198.414H317.276V206.138H325V198.414Z" fill="black"/>
<path d="M116.448 206.138H108.724V213.862H116.448V206.138Z" fill="black"/>
<path d="M131.897 206.138H124.172V213.862H131.897V206.138Z" fill="black"/>
<path d="M139.621 206.138H131.897V213.862H139.621V206.138Z" fill="black"/>
<path d="M147.345 206.138H139.621V213.862H147.345V206.138Z" fill="black"/>
<path d="M155.069 206.138H147.345V213.862H155.069V206.138Z" fill="black"/>
<path d="M162.793 206.138H155.069V213.862H162.793V206.138Z" fill="black"/>
<path d="M178.241 206.138H170.517V213.862H178.241V206.138Z" fill="black"/>
<path d="M193.69 206.138H185.966V213.862H193.69V206.138Z" fill="black"/>
<path d="M224.586 206.138H216.862V213.862H224.586V206.138Z" fill="black"/>
<path d="M232.31 206.138H224.586V213.862H232.31V206.138Z" fill="black"/>
<path d="M263.207 206.138H255.483V213.862H263.207V206.138Z" fill="black"/>
<path d="M278.655 206.138H270.931V213.862H278.655V206.138Z" fill="black"/>
<path d="M294.103 206.138H286.379V213.862H294.103V206.138Z" fill="black"/>
<path d="M301.828 206.138H294.103V213.862H301.828V206.138Z" fill="black"/>
<path d="M325 206.138H317.276V213.862H325V206.138Z" fill="black"/>
<path d="M116.448 213.862H108.724V221.586H116.448V213.862Z" fill="black"/>
<path d="M131.897 213.862H124.172V221.586H131.897V213.862Z" fill="black"/>
<path d="M170.517 213.862H162.793V221.586H170.517V213.862Z" fill="black"/>
<path d="M178.241 213.862H170.517V221.586H178.241V213.862Z" fill="black"/>
<path d="M193.69 213.862H185.966V221.586H193.69V213.862Z" fill="black"/>
<path d="M209.138 213.862H201.414V221.586H209.138V213.862Z" fill="black"/>
<path d="M216.862 213.862H209.138V221.586H216.862V213.862Z" fill="black"/>
<path d="M232.31 213.862H224.586V221.586H232.31V213.862Z" fill="black"/>
<path d="M240.034 213.862H232.31V221.586H240.034V213.862Z" fill="black"/>
<path d="M255.483 213.862H247.759V221.586H255.483V213.862Z" fill="black"/>
<path d="M270.931 213.862H263.207V221.586H270.931V213.862Z" fill="black"/>
<path d="M278.655 213.862H270.931V221.586H278.655V213.862Z" fill="black"/>
<path d="M294.103 213.862H286.379V221.586H294.103V213.862Z" fill="black"/>
<path d="M301.828 213.862H294.103V221.586H301.828V213.862Z" fill="black"/>
<path d="M317.276 213.862H309.552V221.586H317.276V213.862Z" fill="black"/>
<path d="M108.724 221.586H101V229.31H108.724V221.586Z" fill="black"/>
<path d="M124.172 221.586H116.448V229.31H124.172V221.586Z" fill="black"/>
<path d="M139.621 221.586H131.897V229.31H139.621V221.586Z" fill="black"/>
<path d="M155.069 221.586H147.345V229.31H155.069V221.586Z" fill="black"/>
<path d="M185.966 221.586H178.241V229.31H185.966V221.586Z" fill="black"/>
<path d="M201.414 221.586H193.69V229.31H201.414V221.586Z" fill="black"/>
<path d="M216.862 221.586H209.138V229.31H216.862V221.586Z" fill="black"/>
<path d="M224.586 221.586H216.862V229.31H224.586V221.586Z" fill="black"/>
<path d="M232.31 221.586H224.586V229.31H232.31V221.586Z" fill="black"/>
<path d="M255.483 221.586H247.759V229.31H255.483V221.586Z" fill="black"/>
<path d="M263.207 221.586H255.483V229.31H263.207V221.586Z" fill="black"/>
<path d="M270.931 221.586H263.207V229.31H270.931V221.586Z" fill="black"/>
<path d="M286.379 221.586H278.655V229.31H286.379V221.586Z" fill="black"/>
<path d="M301.828 221.586H294.103V229.31H301.828V221.586Z" fill="black"/>
<path d="M116.448 229.31H108.724V237.034H116.448V229.31Z" fill="black"/>
<path d="M124.172 229.31H116.448V237.034H124.172V229.31Z" fill="black"/>
<path d="M162.793 229.31H155.069V237.034H162.793V229.31Z" fill="black"/>
<path d="M185.966 229.31H178.241V237.034H185.966V229.31Z" fill="black"/>
<path d="M201.414 229.31H193.69V237.034H201.414V229.31Z" fill="black"/>
<path d="M209.138 229.31H201.414V237.034H209.138V229.31Z" fill="black"/>
<path d="M224.586 229.31H216.862V237.034H224.586V229.31Z" fill="black"/>
<path d="M232.31 229.31H224.586V237.034H232.31V229.31Z" fill="black"/>
<path d="M247.759 229.31H240.034V237.034H247.759V229.31Z" fill="black"/>
<path d="M255.483 229.31H247.759V237.034H255.483V229.31Z" fill="black"/>
<path d="M278.655 229.31H270.931V237.034H278.655V229.31Z" fill="black"/>
<path d="M108.724 237.034H101V244.759H108.724V237.034Z" fill="black"/>
<path d="M116.448 237.034H108.724V244.759H116.448V237.034Z" fill="black"/>
<path d="M124.172 237.034H116.448V244.759H124.172V237.034Z" fill="black"/>
<path d="M131.897 237.034H124.172V244.759H131.897V237.034Z" fill="black"/>
<path d="M139.621 237.034H131.897V244.759H139.621V237.034Z" fill="black"/>
<path d="M155.069 237.034H147.345V244.759H155.069V237.034Z" fill="black"/>
<path d="M162.793 237.034H155.069V244.759H162.793V237.034Z" fill="black"/>
<path d="M170.517 237.034H162.793V244.759H170.517V237.034Z" fill="black"/>
<path d="M209.138 237.034H201.414V244.759H209.138V237.034Z" fill="black"/>
<path d="M224.586 237.034H216.862V244.759H224.586V237.034Z" fill="black"/>
<path d="M240.034 237.034H232.31V244.759H240.034V237.034Z" fill="black"/>
<path d="M247.759 237.034H240.034V244.759H247.759V237.034Z" fill="black"/>
<path d="M255.483 237.034H247.759V244.759H255.483V237.034Z" fill="black"/>
<path d="M263.207 237.034H255.483V244.759H263.207V237.034Z" fill="black"/>
<path d="M286.379 237.034H278.655V244.759H286.379V237.034Z" fill="black"/>
<path d="M294.103 237.034H286.379V244.759H294.103V237.034Z" fill="black"/>
<path d="M108.724 244.759H101V252.483H108.724V244.759Z" fill="black"/>
<path d="M147.345 244.759H139.621V252.483H147.345V244.759Z" fill="black"/>
<path d="M170.517 244.759H162.793V252.483H170.517V244.759Z" fill="black"/>
<path d="M185.966 244.759H178.241V252.483H185.966V244.759Z" fill="black"/>
<path d="M193.69 244.759H185.966V252.483H193.69V244.759Z" fill="black"/>
<path d="M209.138 244.759H201.414V252.483H209.138V244.759Z" fill="black"/>
<path d="M255.483 244.759H247.759V252.483H255.483V244.759Z" fill="black"/>
<path d="M301.828 244.759H294.103V252.483H301.828V244.759Z" fill="black"/>
<path d="M309.552 244.759H301.828V252.483H309.552V244.759Z" fill="black"/>
<path d="M317.276 244.759H309.552V252.483H317.276V244.759Z" fill="black"/>
<path d="M124.172 252.483H116.448V260.207H124.172V252.483Z" fill="black"/>
<path d="M155.069 252.483H147.345V260.207H155.069V252.483Z" fill="black"/>
<path d="M178.241 252.483H170.517V260.207H178.241V252.483Z" fill="black"/>
<path d="M185.966 252.483H178.241V260.207H185.966V252.483Z" fill="black"/>
<path d="M209.138 252.483H201.414V260.207H209.138V252.483Z" fill="black"/>
<path d="M224.586 252.483H216.862V260.207H224.586V252.483Z" fill="black"/>
<path d="M232.31 252.483H224.586V260.207H232.31V252.483Z" fill="black"/>
<path d="M240.034 252.483H232.31V260.207H240.034V252.483Z" fill="black"/>
<path d="M263.207 252.483H255.483V260.207H263.207V252.483Z" fill="black"/>
<path d="M270.931 252.483H263.207V260.207H270.931V252.483Z" fill="black"/>
<path d="M278.655 252.483H270.931V260.207H278.655V252.483Z" fill="black"/>
<path d="M286.379 252.483H278.655V260.207H286.379V252.483Z" fill="black"/>
<path d="M294.103 252.483H286.379V260.207H294.103V252.483Z" fill="black"/>
<path d="M317.276 252.483H309.552V260.207H317.276V252.483Z" fill="black"/>
<path d="M325 252.483H317.276V260.207H325V252.483Z" fill="black"/>
<path d="M170.517 260.207H162.793V267.931H170.517V260.207Z" fill="black"/>
<path d="M201.414 260.207H193.69V267.931H201.414V260.207Z" fill="black"/>
<path d="M216.862 260.207H209.138V267.931H216.862V260.207Z" fill="black"/>
<path d="M224.586 260.207H216.862V267.931H224.586V260.207Z" fill="black"/>
<path d="M232.31 260.207H224.586V267.931H232.31V260.207Z" fill="black"/>
<path d="M240.034 260.207H232.31V267.931H240.034V260.207Z" fill="black"/>
<path d="M247.759 260.207H240.034V267.931H247.759V260.207Z" fill="black"/>
<path d="M263.207 260.207H255.483V267.931H263.207V260.207Z" fill="black"/>
<path d="M294.103 260.207H286.379V267.931H294.103V260.207Z" fill="black"/>
<path d="M309.552 260.207H301.828V267.931H309.552V260.207Z" fill="black"/>
<path d="M317.276 260.207H309.552V267.931H317.276V260.207Z" fill="black"/>
<path d="M108.724 267.931H101V275.655H108.724V267.931Z" fill="black"/>
<path d="M116.448 267.931H108.724V275.655H116.448V267.931Z" fill="black"/>
<path d="M124.172 267.931H116.448V275.655H124.172V267.931Z" fill="black"/>
<path d="M131.897 267.931H124.172V275.655H131.897V267.931Z" fill="black"/>
<path d="M139.621 267.931H131.897V275.655H139.621V267.931Z" fill="black"/>
<path d="M147.345 267.931H139.621V275.655H147.345V267.931Z" fill="black"/>
<path d="M155.069 267.931H147.345V275.655H155.069V267.931Z" fill="black"/>
<path d="M178.241 267.931H170.517V275.655H178.241V267.931Z" fill="black"/>
<path d="M193.69 267.931H185.966V275.655H193.69V267.931Z" fill="black"/>
<path d="M201.414 267.931H193.69V275.655H201.414V267.931Z" fill="black"/>
<path d="M216.862 267.931H209.138V275.655H216.862V267.931Z" fill="black"/>
<path d="M240.034 267.931H232.31V275.655H240.034V267.931Z" fill="black"/>
<path d="M263.207 267.931H255.483V275.655H263.207V267.931Z" fill="black"/>
<path d="M278.655 267.931H270.931V275.655H278.655V267.931Z" fill="black"/>
<path d="M294.103 267.931H286.379V275.655H294.103V267.931Z" fill="black"/>
<path d="M301.828 267.931H294.103V275.655H301.828V267.931Z" fill="black"/>
<path d="M325 267.931H317.276V275.655H325V267.931Z" fill="black"/>
<path d="M108.724 275.655H101V283.379H108.724V275.655Z" fill="black"/>
<path d="M155.069 275.655H147.345V283.379H155.069V275.655Z" fill="black"/>
<path d="M170.517 275.655H162.793V283.379H170.517V275.655Z" fill="black"/>
<path d="M185.966 275.655H178.241V283.379H185.966V275.655Z" fill="black"/>
<path d="M193.69 275.655H185.966V283.379H193.69V275.655Z" fill="black"/>
<path d="M209.138 275.655H201.414V283.379H209.138V275.655Z" fill="black"/>
<path d="M240.034 275.655H232.31V283.379H240.034V275.655Z" fill="black"/>
<path d="M247.759 275.655H240.034V283.379H247.759V275.655Z" fill="black"/>
<path d="M255.483 275.655H247.759V283.379H255.483V275.655Z" fill="black"/>
<path d="M263.207 275.655H255.483V283.379H263.207V275.655Z" fill="black"/>
<path d="M294.103 275.655H286.379V283.379H294.103V275.655Z" fill="black"/>
<path d="M301.828 275.655H294.103V283.379H301.828V275.655Z" fill="black"/>
<path d="M317.276 275.655H309.552V283.379H317.276V275.655Z" fill="black"/>
<path d="M108.724 283.379H101V291.103H108.724V283.379Z" fill="black"/>
<path d="M124.172 283.379H116.448V291.103H124.172V283.379Z" fill="black"/>
<path d="M131.897 283.379H124.172V291.103H131.897V283.379Z" fill="black"/>
<path d="M139.621 283.379H131.897V291.103H139.621V283.379Z" fill="black"/>
<path d="M155.069 283.379H147.345V291.103H155.069V283.379Z" fill="black"/>
<path d="M185.966 283.379H178.241V291.103H185.966V283.379Z" fill="black"/>
<path d="M193.69 283.379H185.966V291.103H193.69V283.379Z" fill="black"/>
<path d="M216.862 283.379H209.138V291.103H216.862V283.379Z" fill="black"/>
<path d="M224.586 283.379H216.862V291.103H224.586V283.379Z" fill="black"/>
<path d="M247.759 283.379H240.034V291.103H247.759V283.379Z" fill="black"/>
<path d="M255.483 283.379H247.759V291.103H255.483V283.379Z" fill="black"/>
<path d="M263.207 283.379H255.483V291.103H263.207V283.379Z" fill="black"/>
<path d="M270.931 283.379H263.207V291.103H270.931V283.379Z" fill="black"/>
<path d="M278.655 283.379H270.931V291.103H278.655V283.379Z" fill="black"/>
<path d="M286.379 283.379H278.655V291.103H286.379V283.379Z" fill="black"/>
<path d="M294.103 283.379H286.379V291.103H294.103V283.379Z" fill="black"/>
<path d="M301.828 283.379H294.103V291.103H301.828V283.379Z" fill="black"/>
<path d="M309.552 283.379H301.828V291.103H309.552V283.379Z" fill="black"/>
<path d="M317.276 283.379H309.552V291.103H317.276V283.379Z" fill="black"/>
<path d="M325 283.379H317.276V291.103H325V283.379Z" fill="black"/>
<path d="M108.724 291.103H101V298.828H108.724V291.103Z" fill="black"/>
<path d="M124.172 291.103H116.448V298.828H124.172V291.103Z" fill="black"/>
<path d="M131.897 291.103H124.172V298.828H131.897V291.103Z" fill="black"/>
<path d="M139.621 291.103H131.897V298.828H139.621V291.103Z" fill="black"/>
<path d="M155.069 291.103H147.345V298.828H155.069V291.103Z" fill="black"/>
<path d="M178.241 291.103H170.517V298.828H178.241V291.103Z" fill="black"/>
<path d="M185.966 291.103H178.241V298.828H185.966V291.103Z" fill="black"/>
<path d="M193.69 291.103H185.966V298.828H193.69V291.103Z" fill="black"/>
<path d="M201.414 291.103H193.69V298.828H201.414V291.103Z" fill="black"/>
<path d="M224.586 291.103H216.862V298.828H224.586V291.103Z" fill="black"/>
<path d="M232.31 291.103H224.586V298.828H232.31V291.103Z" fill="black"/>
<path d="M247.759 291.103H240.034V298.828H247.759V291.103Z" fill="black"/>
<path d="M294.103 291.103H286.379V298.828H294.103V291.103Z" fill="black"/>
<path d="M301.828 291.103H294.103V298.828H301.828V291.103Z" fill="black"/>
<path d="M108.724 298.828H101V306.552H108.724V298.828Z" fill="black"/>
<path d="M124.172 298.828H116.448V306.552H124.172V298.828Z" fill="black"/>
<path d="M131.897 298.828H124.172V306.552H131.897V298.828Z" fill="black"/>
<path d="M139.621 298.828H131.897V306.552H139.621V298.828Z" fill="black"/>
<path d="M155.069 298.828H147.345V306.552H155.069V298.828Z" fill="black"/>
<path d="M185.966 298.828H178.241V306.552H185.966V298.828Z" fill="black"/>
<path d="M193.69 298.828H185.966V306.552H193.69V298.828Z" fill="black"/>
<path d="M209.138 298.828H201.414V306.552H209.138V298.828Z" fill="black"/>
<path d="M216.862 298.828H209.138V306.552H216.862V298.828Z" fill="black"/>
<path d="M263.207 298.828H255.483V306.552H263.207V298.828Z" fill="black"/>
<path d="M270.931 298.828H263.207V306.552H270.931V298.828Z" fill="black"/>
<path d="M286.379 298.828H278.655V306.552H286.379V298.828Z" fill="black"/>
<path d="M108.724 306.552H101V314.276H108.724V306.552Z" fill="black"/>
<path d="M155.069 306.552H147.345V314.276H155.069V306.552Z" fill="black"/>
<path d="M185.966 306.552H178.241V314.276H185.966V306.552Z" fill="black"/>
<path d="M193.69 306.552H185.966V314.276H193.69V306.552Z" fill="black"/>
<path d="M201.414 306.552H193.69V314.276H201.414V306.552Z" fill="black"/>
<path d="M216.862 306.552H209.138V314.276H216.862V306.552Z" fill="black"/>
<path d="M224.586 306.552H216.862V314.276H224.586V306.552Z" fill="black"/>
<path d="M232.31 306.552H224.586V314.276H232.31V306.552Z" fill="black"/>
<path d="M247.759 306.552H240.034V314.276H247.759V306.552Z" fill="black"/>
<path d="M255.483 306.552H247.759V314.276H255.483V306.552Z" fill="black"/>
<path d="M270.931 306.552H263.207V314.276H270.931V306.552Z" fill="black"/>
<path d="M278.655 306.552H270.931V314.276H278.655V306.552Z" fill="black"/>
<path d="M286.379 306.552H278.655V314.276H286.379V306.552Z" fill="black"/>
<path d="M294.103 306.552H286.379V314.276H294.103V306.552Z" fill="black"/>
<path d="M317.276 306.552H309.552V314.276H317.276V306.552Z" fill="black"/>
<path d="M325 306.552H317.276V314.276H325V306.552Z" fill="black"/>
<path d="M108.724 314.276H101V322H108.724V314.276Z" fill="black"/>
<path d="M116.448 314.276H108.724V322H116.448V314.276Z" fill="black"/>
<path d="M124.172 314.276H116.448V322H124.172V314.276Z" fill="black"/>
<path d="M131.897 314.276H124.172V322H131.897V314.276Z" fill="black"/>
<path d="M139.621 314.276H131.897V322H139.621V314.276Z" fill="black"/>
<path d="M147.345 314.276H139.621V322H147.345V314.276Z" fill="black"/>
<path d="M155.069 314.276H147.345V322H155.069V314.276Z" fill="black"/>
<path d="M178.241 314.276H170.517V322H178.241V314.276Z" fill="black"/>
<path d="M201.414 314.276H193.69V322H201.414V314.276Z" fill="black"/>
<path d="M216.862 314.276H209.138V322H216.862V314.276Z" fill="black"/>
<path d="M240.034 314.276H232.31V322H240.034V314.276Z" fill="black"/>
<path d="M247.759 314.276H240.034V322H247.759V314.276Z" fill="black"/>
<path d="M255.483 314.276H247.759V322H255.483V314.276Z" fill="black"/>
<path d="M270.931 314.276H263.207V322H270.931V314.276Z" fill="black"/>
<path d="M301.828 314.276H294.103V322H301.828V314.276Z" fill="black"/>
<path d="M309.552 314.276H301.828V322H309.552V314.276Z" fill="black"/>
</g>
</g>
<defs>
<filter id="filter0_d_518_418" x="0.916561" y="0.0662546" width="444.861" height="441.861" filterUnits="userSpaceOnUse" color-interpolation-filters="sRGB">
<feFlood flood-opacity="0" result="BackgroundImageFix"/>
<feColorMatrix in="SourceAlpha" type="matrix" values="0 0 0 0 0 0 0 0 0 0 0 0 0 0 0 0 0 0 127 0" result="hardAlpha"/>
<feOffset dx="10.3472" dy="11.4969"/>
<feGaussianBlur stdDeviation="36.2153"/>
<feComposite in2="hardAlpha" operator="out"/>
<feColorMatrix type="matrix" values="0 0 0 0 0 0 0 0 0 0 0 0 0 0 0 0 0 0 0.24 0"/>
<feBlend mode="normal" in2="BackgroundImageFix" result="effect1_dropShadow_518_418"/>
<feBlend mode="normal" in="SourceGraphic" in2="effect1_dropShadow_518_418" result="shape"/>
</filter>
<clipPath id="clip0_518_418">
<rect x="63" y="61" width="300" height="297" rx="20" fill="white"/>
</clipPath>
</defs>
</svg>
