<svg width="470" height="489" viewBox="0 0 470 489" fill="none" xmlns="http://www.w3.org/2000/svg">
<path d="M218.25 160L211 8H269L261.75 160H218.25Z" fill="url(#paint0_linear_3278_263)"/>
<path d="M288.278 209.894L457 291.012L423.439 344.764L263.108 250.208L288.278 209.894Z" fill="url(#paint1_linear_3278_263)"/>
<path d="M258.912 253.327L267.302 429H200.18L208.57 253.327H258.912Z" fill="url(#paint2_linear_3278_263)"/>
<path d="M205.893 250.765L45.5611 345.32L12.0001 291.568L180.722 210.451L205.893 250.765Z" fill="url(#paint3_linear_3278_263)"/>
<path d="M288.278 203.382L457 122.265L423.439 68.5128L263.108 163.068L288.278 203.382Z" fill="url(#paint4_linear_3278_263)"/>
<path d="M205.893 162.512L45.5611 67.957L12.0001 121.709L180.722 202.826L205.893 162.512Z" fill="url(#paint5_linear_3278_263)"/>
<g filter="url(#filter0_dd_3278_263)">
<path d="M62.3136 163.754H103.479V253.632C77.7508 253.632 62.3136 236.813 62.3136 223.147V163.754Z" fill="url(#paint6_linear_3278_263)"/>
<path d="M62.3136 163.754H103.479V253.632C77.7508 253.632 62.3136 236.813 62.3136 223.147V163.754Z" stroke="url(#paint7_linear_3278_263)" stroke-width="2"/>
<path d="M407.648 163.754H366.482V253.632C392.211 253.632 407.648 236.813 407.648 223.147V163.754Z" fill="url(#paint8_linear_3278_263)"/>
<path d="M407.648 163.754H366.482V253.632C392.211 253.632 407.648 236.813 407.648 223.147V163.754Z" stroke="url(#paint9_linear_3278_263)" stroke-width="2"/>
<path d="M180.095 245.173H291.588V392.969L236.489 422.207C235.641 422.657 234.624 422.655 233.778 422.202L180.095 393.476V245.173Z" fill="#BB9986" stroke="url(#paint10_linear_3278_263)" stroke-width="2"/>
<path fill-rule="evenodd" clip-rule="evenodd" d="M172.09 245.173V390.08L125.57 364.844C124.641 364.34 124.062 363.368 124.062 362.311V245.173H172.09Z" fill="#8C685C" stroke="url(#paint11_linear_3278_263)" stroke-width="2"/>
<path fill-rule="evenodd" clip-rule="evenodd" d="M299.015 245.173V390.08L345.535 364.844C346.464 364.34 347.043 363.368 347.043 362.311V245.173H299.015Z" fill="#8C685C" stroke="url(#paint12_linear_3278_263)" stroke-width="2"/>
<path d="M343.041 308.087V358.312C340.563 358.489 335.494 360.427 335.036 366.771L303.59 383.69V326.062" stroke="url(#paint13_linear_3278_263)"/>
<path fill-rule="evenodd" clip-rule="evenodd" d="M285.866 336.107H287.01V388.367L286.532 388.441C284.847 388.7 283.408 389.076 282.174 390.097C280.935 391.123 279.831 392.859 278.988 395.978L278.929 396.197L236.444 418.494L236.124 418.583L236.124 418.583H234.83L192.176 396.197L192.117 395.978C191.274 392.859 190.171 391.123 188.931 390.097C187.697 389.076 186.258 388.7 184.573 388.441L184.095 388.367V336.107H185.239V387.476C186.817 387.75 188.348 388.196 189.694 389.309C191.137 390.503 192.3 392.406 193.166 395.501L235.132 417.526H235.973L277.939 395.501C278.805 392.406 279.969 390.503 281.411 389.309C282.757 388.196 284.288 387.75 285.866 387.476V336.107Z" fill="url(#paint14_linear_3278_263)"/>
<path d="M128.636 308.087V358.312C131.114 358.489 136.183 360.427 136.641 366.771L168.087 383.69V326.062" stroke="url(#paint15_linear_3278_263)"/>
<g filter="url(#filter1_d_3278_263)">
<path d="M227.341 59.7446L101.405 123.094C95.666 125.981 92.0444 131.856 92.0444 138.281L92.0444 280.697C92.0444 287.122 95.6659 292.997 101.405 295.884L227.341 359.233C232.147 361.651 237.814 361.651 242.62 359.233L368.557 295.884C374.296 292.997 377.917 287.122 377.917 280.697L377.917 138.281C377.917 131.856 374.296 125.981 368.557 123.094L242.62 59.7446C237.814 57.3271 232.147 57.3271 227.341 59.7446Z" fill="url(#paint16_linear_3278_263)"/>
<path d="M227.199 82.9924L123.096 135.359C117.379 138.235 113.771 144.088 113.771 150.488L113.771 267.955C113.771 274.355 117.379 280.209 123.096 283.085L227.199 335.451C231.987 337.86 237.632 337.86 242.42 335.451L346.523 283.085C352.24 280.209 355.848 274.355 355.848 267.955L355.848 150.488C355.848 144.088 352.24 138.235 346.523 135.359L242.42 82.9924C237.632 80.5839 231.987 80.5839 227.199 82.9924Z" fill="url(#paint17_linear_3278_263)"/>
<g filter="url(#filter2_f_3278_263)">
<path d="M227.199 82.9924L123.096 135.359C117.379 138.235 113.771 144.088 113.771 150.488L113.771 267.955C113.771 274.355 117.379 280.209 123.096 283.085L227.199 335.451C231.987 337.86 237.632 337.86 242.42 335.451L346.523 283.085C352.24 280.209 355.848 274.355 355.848 267.955L355.848 150.488C355.848 144.088 352.24 138.235 346.523 135.359L242.42 82.9924C237.632 80.5839 231.987 80.5839 227.199 82.9924Z" stroke="url(#paint18_linear_3278_263)"/>
</g>
<g opacity="0.5">
<mask id="mask0_3278_263" style="mask-type:alpha" maskUnits="userSpaceOnUse" x="124" y="91" width="224" height="237">
<path d="M228.318 93.3735L132.938 141.309C127.496 144.044 124.062 149.613 124.062 155.703L124.062 263.153C124.062 269.243 127.496 274.812 132.938 277.547L228.318 325.483C232.87 327.77 238.235 327.77 242.787 325.483L338.167 277.547C343.609 274.812 347.043 269.243 347.043 263.153L347.043 155.703C347.043 149.613 343.609 144.044 338.167 141.309L242.787 93.3735C238.235 91.086 232.87 91.086 228.318 93.3735Z" fill="#A6D3DE"/>
</mask>
<g mask="url(#mask0_3278_263)">
<path d="M228.318 93.3735L132.938 141.309C127.496 144.044 124.062 149.613 124.062 155.703L124.062 263.153C124.062 269.243 127.496 274.812 132.938 277.547L228.318 325.483C232.87 327.77 238.235 327.77 242.787 325.483L338.167 277.547C343.609 274.812 347.043 269.243 347.043 263.153L347.043 155.703C347.043 149.613 343.609 144.044 338.167 141.309L242.787 93.3735C238.235 91.086 232.87 91.086 228.318 93.3735Z" fill="url(#paint19_radial_3278_263)"/>
<path opacity="0.5" d="M216.915 333.847L212.486 84.998H258.62L254.191 333.847H216.915Z" fill="url(#paint20_linear_3278_263)"/>
<path opacity="0.5" d="M216.321 331.64L77.9284 118.178L117.882 96.8478L248.603 314.405L216.321 331.64Z" fill="url(#paint21_linear_3278_263)"/>
<path opacity="0.5" d="M212.477 314.405L343.199 96.8481L383.152 118.178L244.759 331.64L212.477 314.405Z" fill="url(#paint22_linear_3278_263)"/>
<rect x="124.062" y="195.202" width="222.981" height="133.904" fill="url(#paint23_linear_3278_263)"/>
<g filter="url(#filter3_i_3278_263)">
<path d="M228.318 93.3735L132.938 141.309C127.496 144.044 124.062 149.613 124.062 155.703L124.062 263.153C124.062 269.243 127.496 274.812 132.938 277.547L228.318 325.483C232.87 327.77 238.235 327.77 242.787 325.483L338.167 277.547C343.609 274.812 347.043 269.243 347.043 263.153L347.043 155.703C347.043 149.613 343.609 144.044 338.167 141.309L242.787 93.3735C238.235 91.086 232.87 91.086 228.318 93.3735Z" fill="#F5C4AF" fill-opacity="0.03"/>
</g>
</g>
</g>
</g>
</g>
<path d="M228.176 185.385C245.589 205.409 246.16 231.713 224.505 247.814C202.85 263.916 173.407 259.08 155.994 239.055C138.582 219.031 135.471 186.432 157.126 170.331C178.78 154.229 210.763 165.36 228.176 185.385Z" fill="url(#paint24_linear_3278_263)"/>
<path d="M228.175 185.386C245.588 205.41 246.41 231.528 225.156 247.331C203.902 263.135 174.743 258.087 157.33 238.063C139.918 218.039 136.523 185.651 157.777 169.848C179.031 154.044 210.762 165.362 228.175 185.386Z" fill="url(#paint25_linear_3278_263)"/>
<path d="M218.302 243.316C217.544 242.505 217.658 241.272 218.555 240.582L235.153 227.812C236.825 226.525 239.228 228.163 238.389 230.018L233.119 241.667C232.951 242.038 232.913 242.448 233.01 242.839L236.613 257.38C237.096 259.332 234.426 260.594 233.014 259.081L218.302 243.316Z" fill="url(#paint26_linear_3278_263)"/>
<path d="M220.243 242.241C219.539 241.39 218.255 241.208 217.366 241.835L200.127 253.967C198.405 255.179 199.687 257.803 201.825 257.44L216.077 255.019C216.503 254.947 216.947 255.004 217.345 255.183L231.306 261.466C233.277 262.353 235.101 260.19 233.754 258.563L220.243 242.241Z" fill="url(#paint27_linear_3278_263)"/>
<rect width="11.1047" height="49.209" rx="3" transform="matrix(0.802475 -0.596685 0.656192 0.754594 217.877 248.63)" fill="url(#paint28_linear_3278_263)"/>
<path d="M316.729 234.143C300.386 254.924 273.081 262.318 250.607 247.206C228.134 232.094 225.476 204.551 241.819 183.77C258.162 162.989 291.373 151.681 313.846 166.794C336.319 181.906 333.071 213.362 316.729 234.143Z" fill="url(#paint29_linear_3278_263)"/>
<path d="M316.727 234.143C300.384 254.924 273.339 262.493 251.282 247.661C229.225 232.828 226.862 205.484 243.205 184.703C259.548 163.922 292.464 152.416 314.521 167.248C336.578 182.081 333.07 213.362 316.727 234.143Z" fill="url(#paint30_linear_3278_263)"/>
<path d="M253.663 240.513C254.323 239.609 255.613 239.362 256.537 239.962L274.093 251.357C275.852 252.499 274.697 255.169 272.557 254.907L259.257 253.281C258.838 253.23 258.409 253.304 258.028 253.492L243.582 260.618C241.671 261.56 239.786 259.512 241.015 257.83L253.663 240.513Z" fill="url(#paint31_linear_3278_263)"/>
<path d="M255.32 241.93C256.016 241.089 255.847 239.887 254.941 239.243L237.689 226.978C235.957 225.747 233.603 227.514 234.547 229.336L240.875 241.559C241.066 241.928 241.124 242.344 241.041 242.747L238.168 256.699C237.759 258.689 240.525 259.827 241.857 258.217L255.32 241.93Z" fill="url(#paint32_linear_3278_263)"/>
<rect width="11.1446" height="48.992" rx="3" transform="matrix(0.82983 0.558016 -0.61817 0.786044 248.021 241.505)" fill="url(#paint33_linear_3278_263)"/>
<ellipse cx="234.493" cy="167.42" rx="10.2914" ry="9.51642" fill="url(#paint34_linear_3278_263)"/>
<defs>
<filter id="filter0_dd_3278_263" x="0.117184" y="0.814958" width="469.727" height="488.004" filterUnits="userSpaceOnUse" color-interpolation-filters="sRGB">
<feFlood flood-opacity="0" result="BackgroundImageFix"/>
<feColorMatrix in="SourceAlpha" type="matrix" values="0 0 0 0 0 0 0 0 0 0 0 0 0 0 0 0 0 0 127 0" result="hardAlpha"/>
<feOffset/>
<feGaussianBlur stdDeviation="10.1994"/>
<feColorMatrix type="matrix" values="0 0 0 0 0.9375 0 0 0 0 0.695 0 0 0 0 0.558594 0 0 0 1 0"/>
<feBlend mode="normal" in2="BackgroundImageFix" result="effect1_dropShadow_3278_263"/>
<feColorMatrix in="SourceAlpha" type="matrix" values="0 0 0 0 0 0 0 0 0 0 0 0 0 0 0 0 0 0 127 0" result="hardAlpha"/>
<feOffset dy="4.07976"/>
<feGaussianBlur stdDeviation="30.5982"/>
<feColorMatrix type="matrix" values="0 0 0 0 1 0 0 0 0 0.749833 0 0 0 0 0.670833 0 0 0 0.6 0"/>
<feBlend mode="normal" in2="effect1_dropShadow_3278_263" result="effect2_dropShadow_3278_263"/>
<feBlend mode="normal" in="SourceGraphic" in2="effect2_dropShadow_3278_263" result="shape"/>
</filter>
<filter id="filter1_d_3278_263" x="86.0444" y="57.9316" width="297.873" height="317.115" filterUnits="userSpaceOnUse" color-interpolation-filters="sRGB">
<feFlood flood-opacity="0" result="BackgroundImageFix"/>
<feColorMatrix in="SourceAlpha" type="matrix" values="0 0 0 0 0 0 0 0 0 0 0 0 0 0 0 0 0 0 127 0" result="hardAlpha"/>
<feOffset dy="8"/>
<feGaussianBlur stdDeviation="3"/>
<feColorMatrix type="matrix" values="0 0 0 0 0.491667 0 0 0 0 0.276808 0 0 0 0 0.208958 0 0 0 0.54 0"/>
<feBlend mode="normal" in2="BackgroundImageFix" result="effect1_dropShadow_3278_263"/>
<feBlend mode="normal" in="SourceGraphic" in2="effect1_dropShadow_3278_263" result="shape"/>
</filter>
<filter id="filter2_f_3278_263" x="112.671" y="80.086" width="244.278" height="258.271" filterUnits="userSpaceOnUse" color-interpolation-filters="sRGB">
<feFlood flood-opacity="0" result="BackgroundImageFix"/>
<feBlend mode="normal" in="SourceGraphic" in2="BackgroundImageFix" result="shape"/>
<feGaussianBlur stdDeviation="0.3" result="effect1_foregroundBlur_3278_263"/>
</filter>
<filter id="filter3_i_3278_263" x="124.062" y="91.6577" width="222.981" height="235.541" filterUnits="userSpaceOnUse" color-interpolation-filters="sRGB">
<feFlood flood-opacity="0" result="BackgroundImageFix"/>
<feBlend mode="normal" in="SourceGraphic" in2="BackgroundImageFix" result="shape"/>
<feColorMatrix in="SourceAlpha" type="matrix" values="0 0 0 0 0 0 0 0 0 0 0 0 0 0 0 0 0 0 127 0" result="hardAlpha"/>
<feOffset/>
<feGaussianBlur stdDeviation="6.72414"/>
<feComposite in2="hardAlpha" operator="arithmetic" k2="-1" k3="1"/>
<feColorMatrix type="matrix" values="0 0 0 0 0.283333 0 0 0 0 0.158667 0 0 0 0 0.0566667 0 0 0 1 0"/>
<feBlend mode="normal" in2="shape" result="effect1_innerShadow_3278_263"/>
</filter>
<linearGradient id="paint0_linear_3278_263" x1="240" y1="8" x2="240" y2="160" gradientUnits="userSpaceOnUse">
<stop stop-color="#FFBEAA" stop-opacity="0"/>
<stop offset="1" stop-color="#FFC9AA" stop-opacity="0.3"/>
</linearGradient>
<linearGradient id="paint1_linear_3278_263" x1="440.22" y1="317.888" x2="282.382" y2="219.339" gradientUnits="userSpaceOnUse">
<stop stop-color="#FFBEAA" stop-opacity="0"/>
<stop offset="1" stop-color="#FFC9AA" stop-opacity="0.3"/>
</linearGradient>
<linearGradient id="paint2_linear_3278_263" x1="233.741" y1="429" x2="233.741" y2="253.327" gradientUnits="userSpaceOnUse">
<stop stop-color="#FFBEAA" stop-opacity="0"/>
<stop offset="1" stop-color="#FFC9AA" stop-opacity="0.3"/>
</linearGradient>
<linearGradient id="paint3_linear_3278_263" x1="28.7806" y1="318.444" x2="186.618" y2="219.895" gradientUnits="userSpaceOnUse">
<stop stop-color="#FFBEAA" stop-opacity="0"/>
<stop offset="1" stop-color="#FFC9AA" stop-opacity="0.3"/>
</linearGradient>
<linearGradient id="paint4_linear_3278_263" x1="440.22" y1="95.3887" x2="282.382" y2="193.938" gradientUnits="userSpaceOnUse">
<stop stop-color="#FFBEAA" stop-opacity="0"/>
<stop offset="1" stop-color="#FFC9AA" stop-opacity="0.3"/>
</linearGradient>
<linearGradient id="paint5_linear_3278_263" x1="28.7806" y1="94.833" x2="186.619" y2="193.382" gradientUnits="userSpaceOnUse">
<stop stop-color="#FFBEAA" stop-opacity="0"/>
<stop offset="1" stop-color="#FFC9AA" stop-opacity="0.3"/>
</linearGradient>
<linearGradient id="paint6_linear_3278_263" x1="82.8965" y1="163.754" x2="82.8965" y2="253.632" gradientUnits="userSpaceOnUse">
<stop stop-color="#EFD9BD"/>
<stop offset="1" stop-color="#C39470"/>
</linearGradient>
<linearGradient id="paint7_linear_3278_263" x1="62.3136" y1="163.754" x2="80.0234" y2="254.194" gradientUnits="userSpaceOnUse">
<stop stop-color="#F3DDC4"/>
<stop offset="0.378992" stop-color="#F3DDC4"/>
<stop offset="0.46253" stop-color="#F3DDC4"/>
<stop offset="1" stop-color="#74523F"/>
</linearGradient>
<linearGradient id="paint8_linear_3278_263" x1="387.065" y1="163.754" x2="387.065" y2="253.632" gradientUnits="userSpaceOnUse">
<stop stop-color="#EFD9BD"/>
<stop offset="1" stop-color="#C39470"/>
</linearGradient>
<linearGradient id="paint9_linear_3278_263" x1="407.648" y1="163.754" x2="389.938" y2="254.194" gradientUnits="userSpaceOnUse">
<stop stop-color="#F3DDC4"/>
<stop offset="0.378992" stop-color="#F3DDC4"/>
<stop offset="0.46253" stop-color="#F3DDC4"/>
<stop offset="1" stop-color="#74523F"/>
</linearGradient>
<linearGradient id="paint10_linear_3278_263" x1="180.093" y1="382.632" x2="292.014" y2="393.13" gradientUnits="userSpaceOnUse">
<stop stop-color="#D8B697"/>
<stop offset="0.374385" stop-color="#F0D6BD"/>
<stop offset="0.71988" stop-color="#C89E78"/>
<stop offset="0.9381" stop-color="#DFCBB9"/>
</linearGradient>
<linearGradient id="paint11_linear_3278_263" x1="124.061" y1="357.231" x2="172.578" y2="359.636" gradientUnits="userSpaceOnUse">
<stop stop-color="#D8B697"/>
<stop offset="0.374385" stop-color="#F0D6BD"/>
<stop offset="0.71988" stop-color="#C89E78"/>
<stop offset="0.9381" stop-color="#DFCBB9"/>
</linearGradient>
<linearGradient id="paint12_linear_3278_263" x1="347.044" y1="357.231" x2="298.527" y2="359.636" gradientUnits="userSpaceOnUse">
<stop stop-color="#D8B697"/>
<stop offset="0.374385" stop-color="#F0D6BD"/>
<stop offset="0.71988" stop-color="#C89E78"/>
<stop offset="0.9381" stop-color="#DFCBB9"/>
</linearGradient>
<linearGradient id="paint13_linear_3278_263" x1="343.041" y1="366.551" x2="303.333" y2="369.65" gradientUnits="userSpaceOnUse">
<stop stop-color="#D8B697"/>
<stop offset="0.374385" stop-color="#F0D6BD"/>
<stop offset="0.71988" stop-color="#C89E78"/>
<stop offset="0.9381" stop-color="#DFCBB9"/>
</linearGradient>
<linearGradient id="paint14_linear_3278_263" x1="186.382" y1="360.427" x2="276.242" y2="400.264" gradientUnits="userSpaceOnUse">
<stop offset="0.192454" stop-color="#DFCBB9"/>
<stop offset="0.475371" stop-color="#D8B290"/>
<stop offset="0.678187" stop-color="#DEBFA4"/>
<stop offset="0.866423" stop-color="#DFCBB9"/>
</linearGradient>
<linearGradient id="paint15_linear_3278_263" x1="128.636" y1="366.551" x2="168.344" y2="369.65" gradientUnits="userSpaceOnUse">
<stop stop-color="#D8B697"/>
<stop offset="0.374385" stop-color="#F0D6BD"/>
<stop offset="0.71988" stop-color="#C89E78"/>
<stop offset="0.9381" stop-color="#DFCBB9"/>
</linearGradient>
<linearGradient id="paint16_linear_3278_263" x1="174.948" y1="92.9102" x2="288.265" y2="336.368" gradientUnits="userSpaceOnUse">
<stop stop-color="#F1DCC1"/>
<stop offset="1" stop-color="#BD8A65"/>
</linearGradient>
<linearGradient id="paint17_linear_3278_263" x1="173.804" y1="112.472" x2="271.873" y2="308.182" gradientUnits="userSpaceOnUse">
<stop stop-color="#BF8E69"/>
<stop offset="1" stop-color="#E4C196"/>
</linearGradient>
<linearGradient id="paint18_linear_3278_263" x1="185.811" y1="105.599" x2="291.605" y2="311.428" gradientUnits="userSpaceOnUse">
<stop stop-color="#EBD4B7"/>
<stop offset="1" stop-color="#FFE3CE"/>
</linearGradient>
<radialGradient id="paint19_radial_3278_263" cx="0" cy="0" r="1" gradientUnits="userSpaceOnUse" gradientTransform="translate(235.553 209.428) rotate(90) scale(119.69 111.49)">
<stop stop-color="#E3C29C"/>
<stop offset="1" stop-color="#D1A479"/>
</radialGradient>
<linearGradient id="paint20_linear_3278_263" x1="235.553" y1="84.998" x2="235.553" y2="333.847" gradientUnits="userSpaceOnUse">
<stop stop-color="white"/>
<stop offset="1" stop-color="#F2EDED" stop-opacity="0"/>
</linearGradient>
<linearGradient id="paint21_linear_3278_263" x1="97.905" y1="107.513" x2="217.285" y2="331.125" gradientUnits="userSpaceOnUse">
<stop stop-color="white"/>
<stop offset="1" stop-color="#F2EDED" stop-opacity="0"/>
</linearGradient>
<linearGradient id="paint22_linear_3278_263" x1="363.175" y1="107.513" x2="243.795" y2="331.125" gradientUnits="userSpaceOnUse">
<stop stop-color="white"/>
<stop offset="1" stop-color="#F2EDED" stop-opacity="0"/>
</linearGradient>
<linearGradient id="paint23_linear_3278_263" x1="235.553" y1="253.267" x2="234.977" y2="320.811" gradientUnits="userSpaceOnUse">
<stop offset="0.291667" stop-color="#FFFAF7" stop-opacity="0"/>
<stop offset="1" stop-color="#E4CBAD"/>
</linearGradient>
<linearGradient id="paint24_linear_3278_263" x1="133.628" y1="155.821" x2="193.161" y2="126.978" gradientUnits="userSpaceOnUse">
<stop offset="0.168737" stop-color="#FFEFDC"/>
<stop offset="0.360439" stop-color="#FFF3E3"/>
<stop offset="0.47754" stop-color="#FFEAD1"/>
<stop offset="0.655872" stop-color="#F0DBC0"/>
<stop offset="0.80404" stop-color="#F0DBC2"/>
</linearGradient>
<linearGradient id="paint25_linear_3278_263" x1="134.401" y1="155.247" x2="192.749" y2="126.634" gradientUnits="userSpaceOnUse">
<stop offset="0.168737" stop-color="#FFEFDC"/>
<stop offset="0.360439" stop-color="#FFF3E3"/>
<stop offset="0.47754" stop-color="#FFEAD1"/>
<stop offset="0.655872" stop-color="#F0DBC0"/>
<stop offset="0.80404" stop-color="#F0DBC2"/>
</linearGradient>
<linearGradient id="paint26_linear_3278_263" x1="199.533" y1="233.013" x2="223.094" y2="211.039" gradientUnits="userSpaceOnUse">
<stop offset="0.168737" stop-color="#FFEFDC"/>
<stop offset="0.655872" stop-color="#F0DBC0"/>
<stop offset="0.80404" stop-color="#F0DBC2"/>
</linearGradient>
<linearGradient id="paint27_linear_3278_263" x1="205.822" y1="213.451" x2="176.864" y2="248.075" gradientUnits="userSpaceOnUse">
<stop offset="0.168737" stop-color="#FFEFDC"/>
<stop offset="0.655872" stop-color="#F0DBC0"/>
<stop offset="0.80404" stop-color="#F0DBC2"/>
</linearGradient>
<linearGradient id="paint28_linear_3278_263" x1="17.9226" y1="-32.4477" x2="30.7721" y2="-27.2032" gradientUnits="userSpaceOnUse">
<stop offset="0.168737" stop-color="#FFEFDC"/>
<stop offset="0.80404" stop-color="#F0DBC2"/>
</linearGradient>
<linearGradient id="paint29_linear_3278_263" x1="322.84" y1="142.025" x2="361.418" y2="192.988" gradientUnits="userSpaceOnUse">
<stop offset="0.168737" stop-color="#FFEFDC"/>
<stop offset="0.360439" stop-color="#FFF3E3"/>
<stop offset="0.47754" stop-color="#FFEAD1"/>
<stop offset="0.655872" stop-color="#F0DBC0"/>
<stop offset="0.80404" stop-color="#F0DBC2"/>
</linearGradient>
<linearGradient id="paint30_linear_3278_263" x1="323.642" y1="142.565" x2="361.786" y2="192.491" gradientUnits="userSpaceOnUse">
<stop offset="0.168737" stop-color="#FFEFDC"/>
<stop offset="0.360439" stop-color="#FFF3E3"/>
<stop offset="0.47754" stop-color="#FFEAD1"/>
<stop offset="0.655872" stop-color="#F0DBC0"/>
<stop offset="0.80404" stop-color="#F0DBC2"/>
</linearGradient>
<linearGradient id="paint31_linear_3278_263" x1="258.994" y1="211.865" x2="289.596" y2="233.555" gradientUnits="userSpaceOnUse">
<stop offset="0.168737" stop-color="#FFEFDC"/>
<stop offset="0.655872" stop-color="#F0DBC0"/>
<stop offset="0.80404" stop-color="#F0DBC2"/>
</linearGradient>
<linearGradient id="paint32_linear_3278_263" x1="293.871" y1="209.222" x2="252.699" y2="184.948" gradientUnits="userSpaceOnUse">
<stop offset="0.168737" stop-color="#FFEFDC"/>
<stop offset="0.655872" stop-color="#F0DBC0"/>
<stop offset="0.80404" stop-color="#F0DBC2"/>
</linearGradient>
<linearGradient id="paint33_linear_3278_263" x1="40.0124" y1="-39.8803" x2="53.255" y2="-29.4582" gradientUnits="userSpaceOnUse">
<stop offset="0.168737" stop-color="#FFEFDC"/>
<stop offset="0.80404" stop-color="#F0DBC2"/>
</linearGradient>
<linearGradient id="paint34_linear_3278_263" x1="232.863" y1="153.132" x2="246.77" y2="157.703" gradientUnits="userSpaceOnUse">
<stop offset="0.168737" stop-color="#FFEFDC"/>
<stop offset="0.360439" stop-color="#FFF3E3"/>
<stop offset="0.47754" stop-color="#FFEAD1"/>
<stop offset="0.655872" stop-color="#F0DBC0"/>
<stop offset="0.80404" stop-color="#F0DBC2"/>
</linearGradient>
</defs>
</svg>
