<svg width="510" height="612" viewBox="0 0 510 612" fill="none" xmlns="http://www.w3.org/2000/svg">
<g clip-path="url(#clip0_2428_251)">
<path d="M229.77 192.673L221.38 17H288.502L280.111 192.673H229.77Z" fill="url(#paint0_linear_2428_251)"/>
<path d="M308.278 242.894L477 324.012L443.439 377.764L283.108 283.208L308.278 242.894Z" fill="url(#paint1_linear_2428_251)"/>
<path d="M278.912 286.327L287.302 462H220.18L228.57 286.327H278.912Z" fill="url(#paint2_linear_2428_251)"/>
<path d="M225.893 283.765L65.5611 378.32L32.0001 324.568L200.722 243.451L225.893 283.765Z" fill="url(#paint3_linear_2428_251)"/>
<path d="M308.278 236.382L477 155.265L443.439 101.513L283.108 196.068L308.278 236.382Z" fill="url(#paint4_linear_2428_251)"/>
<path d="M225.893 195.512L65.5611 100.957L32.0001 154.709L200.722 235.826L225.893 195.512Z" fill="url(#paint5_linear_2428_251)"/>
<g filter="url(#filter0_dd_2428_251)">
<path d="M82.3136 196.754H123.479V286.632C97.7508 286.632 82.3136 269.813 82.3136 256.147V196.754Z" fill="url(#paint6_linear_2428_251)"/>
<path d="M82.3136 196.754H123.479V286.632C97.7508 286.632 82.3136 269.813 82.3136 256.147V196.754Z" stroke="url(#paint7_linear_2428_251)" stroke-width="2"/>
<path d="M427.648 196.754H386.482V286.632C412.211 286.632 427.648 269.813 427.648 256.147V196.754Z" fill="url(#paint8_linear_2428_251)"/>
<path d="M427.648 196.754H386.482V286.632C412.211 286.632 427.648 269.813 427.648 256.147V196.754Z" stroke="url(#paint9_linear_2428_251)" stroke-width="2"/>
<path d="M200.095 278.173H311.588V425.969L256.489 455.207C255.641 455.657 254.624 455.655 253.778 455.202L200.095 426.476V278.173Z" fill="#BB9986" stroke="url(#paint10_linear_2428_251)" stroke-width="2"/>
<path fill-rule="evenodd" clip-rule="evenodd" d="M192.09 278.173V423.08L145.57 397.844C144.641 397.34 144.062 396.368 144.062 395.311V278.173H192.09Z" fill="#8C685C" stroke="url(#paint11_linear_2428_251)" stroke-width="2"/>
<path fill-rule="evenodd" clip-rule="evenodd" d="M319.015 278.173V423.08L365.535 397.844C366.464 397.34 367.043 396.368 367.043 395.311V278.173H319.015Z" fill="#8C685C" stroke="url(#paint12_linear_2428_251)" stroke-width="2"/>
<path d="M363.041 341.087V391.312C360.563 391.489 355.494 393.427 355.036 399.771L323.59 416.69V359.062" stroke="url(#paint13_linear_2428_251)"/>
<path fill-rule="evenodd" clip-rule="evenodd" d="M305.866 369.107H307.01V421.367L306.532 421.441C304.847 421.7 303.408 422.076 302.174 423.097C300.935 424.123 299.831 425.859 298.988 428.978L298.929 429.197L256.444 451.494L256.124 451.583L256.124 451.583H254.83L212.176 429.197L212.117 428.978C211.274 425.859 210.171 424.123 208.931 423.097C207.697 422.076 206.258 421.7 204.573 421.441L204.095 421.367V369.107H205.239V420.476C206.817 420.75 208.348 421.196 209.694 422.309C211.137 423.503 212.3 425.406 213.166 428.501L255.132 450.526H255.973L297.939 428.501C298.805 425.406 299.969 423.503 301.411 422.309C302.757 421.196 304.288 420.75 305.866 420.476V369.107Z" fill="url(#paint14_linear_2428_251)"/>
<path d="M148.636 341.087V391.312C151.114 391.489 156.183 393.427 156.641 399.771L188.087 416.69V359.062" stroke="url(#paint15_linear_2428_251)"/>
<g filter="url(#filter1_d_2428_251)">
<path d="M247.341 92.7446L121.405 156.094C115.666 158.981 112.044 164.856 112.044 171.281L112.044 313.697C112.044 320.122 115.666 325.997 121.405 328.884L247.341 392.233C252.147 394.651 257.814 394.651 262.62 392.233L388.557 328.884C394.296 325.997 397.917 320.122 397.917 313.697L397.917 171.281C397.917 164.856 394.296 158.981 388.557 156.094L262.62 92.7446C257.814 90.3271 252.147 90.3271 247.341 92.7446Z" fill="url(#paint16_linear_2428_251)"/>
<path d="M247.199 115.992L143.096 168.359C137.379 171.235 133.771 177.088 133.771 183.488L133.771 300.955C133.771 307.355 137.379 313.209 143.096 316.085L247.199 368.451C251.987 370.86 257.632 370.86 262.42 368.451L366.523 316.085C372.24 313.209 375.848 307.355 375.848 300.955L375.848 183.488C375.848 177.088 372.24 171.235 366.523 168.359L262.42 115.992C257.632 113.584 251.987 113.584 247.199 115.992Z" fill="url(#paint17_linear_2428_251)"/>
<g filter="url(#filter2_f_2428_251)">
<path d="M247.199 115.992L143.096 168.359C137.379 171.235 133.771 177.088 133.771 183.488L133.771 300.955C133.771 307.355 137.379 313.209 143.096 316.085L247.199 368.451C251.987 370.86 257.632 370.86 262.42 368.451L366.523 316.085C372.24 313.209 375.848 307.355 375.848 300.955L375.848 183.488C375.848 177.088 372.24 171.235 366.523 168.359L262.42 115.992C257.632 113.584 251.987 113.584 247.199 115.992Z" stroke="url(#paint18_linear_2428_251)"/>
</g>
<g opacity="0.5">
<mask id="mask0_2428_251" style="mask-type:alpha" maskUnits="userSpaceOnUse" x="144" y="124" width="224" height="237">
<path d="M248.318 126.373L152.938 174.309C147.496 177.044 144.062 182.613 144.062 188.703L144.062 296.153C144.062 302.243 147.496 307.812 152.938 310.547L248.318 358.483C252.87 360.77 258.235 360.77 262.787 358.483L358.167 310.547C363.609 307.812 367.043 302.243 367.043 296.153L367.043 188.703C367.043 182.613 363.609 177.044 358.167 174.309L262.787 126.373C258.235 124.086 252.87 124.086 248.318 126.373Z" fill="#A6D3DE"/>
</mask>
<g mask="url(#mask0_2428_251)">
<path d="M248.318 126.373L152.938 174.309C147.496 177.044 144.062 182.613 144.062 188.703L144.062 296.153C144.062 302.243 147.496 307.812 152.938 310.547L248.318 358.483C252.87 360.77 258.235 360.77 262.787 358.483L358.167 310.547C363.609 307.812 367.043 302.243 367.043 296.153L367.043 188.703C367.043 182.613 363.609 177.044 358.167 174.309L262.787 126.373C258.235 124.086 252.87 124.086 248.318 126.373Z" fill="url(#paint19_radial_2428_251)"/>
<path opacity="0.5" d="M236.915 366.847L232.486 117.998H278.62L274.191 366.847H236.915Z" fill="url(#paint20_linear_2428_251)"/>
<path opacity="0.5" d="M236.321 364.64L97.9284 151.178L137.882 129.848L268.603 347.405L236.321 364.64Z" fill="url(#paint21_linear_2428_251)"/>
<path opacity="0.5" d="M232.477 347.405L363.199 129.848L403.152 151.178L264.759 364.64L232.477 347.405Z" fill="url(#paint22_linear_2428_251)"/>
<rect x="144.062" y="228.202" width="222.981" height="133.904" fill="url(#paint23_linear_2428_251)"/>
<g filter="url(#filter3_i_2428_251)">
<path d="M248.318 126.373L152.938 174.309C147.496 177.044 144.062 182.613 144.062 188.703L144.062 296.153C144.062 302.243 147.496 307.812 152.938 310.547L248.318 358.483C252.87 360.77 258.235 360.77 262.787 358.483L358.167 310.547C363.609 307.812 367.043 302.243 367.043 296.153L367.043 188.703C367.043 182.613 363.609 177.044 358.167 174.309L262.787 126.373C258.235 124.086 252.87 124.086 248.318 126.373Z" fill="#F5C4AF" fill-opacity="0.03"/>
</g>
</g>
</g>
</g>
</g>
<path d="M248.176 218.385C265.589 238.409 266.16 264.713 244.505 280.814C222.85 296.916 193.407 292.08 175.994 272.055C158.582 252.031 155.471 219.432 177.126 203.331C198.78 187.229 230.763 198.36 248.176 218.385Z" fill="url(#paint24_linear_2428_251)"/>
<path d="M248.175 218.386C265.588 238.41 266.41 264.528 245.156 280.331C223.902 296.135 194.743 291.087 177.33 271.063C159.918 251.039 156.523 218.651 177.777 202.848C199.031 187.044 230.762 198.362 248.175 218.386Z" fill="url(#paint25_linear_2428_251)"/>
<path d="M238.302 276.316C237.544 275.505 237.658 274.272 238.555 273.582L255.153 260.812C256.825 259.525 259.228 261.163 258.389 263.018L253.119 274.667C252.951 275.038 252.913 275.448 253.01 275.839L256.613 290.38C257.096 292.332 254.426 293.594 253.014 292.081L238.302 276.316Z" fill="url(#paint26_linear_2428_251)"/>
<path d="M240.243 275.241C239.539 274.39 238.255 274.208 237.366 274.835L220.127 286.967C218.405 288.179 219.687 290.803 221.825 290.44L236.077 288.019C236.503 287.947 236.947 288.004 237.345 288.183L251.306 294.466C253.277 295.353 255.101 293.19 253.754 291.563L240.243 275.241Z" fill="url(#paint27_linear_2428_251)"/>
<rect width="11.1047" height="49.209" rx="3" transform="matrix(0.802475 -0.596685 0.656192 0.754594 237.877 281.63)" fill="url(#paint28_linear_2428_251)"/>
<path d="M336.729 267.143C320.386 287.924 293.081 295.318 270.607 280.206C248.134 265.094 245.476 237.551 261.819 216.77C278.162 195.989 311.373 184.681 333.846 199.794C356.319 214.906 353.071 246.362 336.729 267.143Z" fill="url(#paint29_linear_2428_251)"/>
<path d="M336.727 267.143C320.384 287.924 293.339 295.493 271.282 280.661C249.225 265.828 246.862 238.484 263.205 217.703C279.548 196.922 312.464 185.416 334.521 200.248C356.578 215.081 353.07 246.362 336.727 267.143Z" fill="url(#paint30_linear_2428_251)"/>
<path d="M273.663 273.513C274.323 272.609 275.613 272.362 276.537 272.962L294.093 284.357C295.852 285.499 294.697 288.169 292.557 287.907L279.257 286.281C278.838 286.23 278.409 286.304 278.028 286.492L263.582 293.618C261.671 294.56 259.786 292.512 261.015 290.83L273.663 273.513Z" fill="url(#paint31_linear_2428_251)"/>
<path d="M275.32 274.93C276.016 274.089 275.847 272.887 274.941 272.243L257.689 259.978C255.957 258.747 253.603 260.514 254.547 262.336L260.875 274.559C261.066 274.928 261.124 275.344 261.041 275.747L258.168 289.699C257.759 291.689 260.525 292.827 261.857 291.217L275.32 274.93Z" fill="url(#paint32_linear_2428_251)"/>
<rect width="11.1446" height="48.992" rx="3" transform="matrix(0.82983 0.558016 -0.61817 0.786044 268.021 274.505)" fill="url(#paint33_linear_2428_251)"/>
<ellipse cx="254.493" cy="200.42" rx="10.2914" ry="9.51642" fill="url(#paint34_linear_2428_251)"/>
<g filter="url(#filter4_d_2428_251)">
<path d="M154.92 569.55H173.28V579H142.05V521.76H172.56V531.21H154.92V545.16H169.95V554.61H154.92V569.55ZM202.636 549.84L216.496 579H202.096L195.436 560.82L188.686 579H175.006L188.236 549.84L175.456 521.76H189.946L195.436 538.59L200.926 521.76H214.786L202.636 549.84ZM220.712 521.76H244.292C251.852 521.76 255.632 525.06 255.632 531.66V549.03C255.632 555.69 251.852 559.02 244.292 559.02H233.492V579H220.712V521.76ZM242.762 547.32V533.46C242.762 531.96 241.982 531.21 240.422 531.21H233.492V549.57H240.422C241.982 549.57 242.762 548.82 242.762 547.32ZM274.627 569.55H292.987V579H261.757V521.76H292.267V531.21H274.627V545.16H289.657V554.61H274.627V569.55ZM311.363 557.58V579H298.583V521.76H322.163C329.723 521.76 333.503 525.06 333.503 531.66V547.68C333.503 552.96 331.103 556.14 326.303 557.22L336.383 579H322.613L313.613 557.58H311.363ZM311.363 531.21V548.49H318.293C319.133 548.49 319.733 548.34 320.093 548.04C320.453 547.68 320.633 547.11 320.633 546.33V533.46C320.633 531.96 319.853 531.21 318.293 531.21H311.363ZM371.011 521.76V531.21H360.481V579H347.611V531.21H337.171V521.76H371.011Z" fill="#E4E5E7"/>
</g>
</g>
<defs>
<filter id="filter0_dd_2428_251" x="20.1172" y="33.815" width="469.727" height="488.004" filterUnits="userSpaceOnUse" color-interpolation-filters="sRGB">
<feFlood flood-opacity="0" result="BackgroundImageFix"/>
<feColorMatrix in="SourceAlpha" type="matrix" values="0 0 0 0 0 0 0 0 0 0 0 0 0 0 0 0 0 0 127 0" result="hardAlpha"/>
<feOffset/>
<feGaussianBlur stdDeviation="10.1994"/>
<feColorMatrix type="matrix" values="0 0 0 0 0.9375 0 0 0 0 0.695 0 0 0 0 0.558594 0 0 0 1 0"/>
<feBlend mode="normal" in2="BackgroundImageFix" result="effect1_dropShadow_2428_251"/>
<feColorMatrix in="SourceAlpha" type="matrix" values="0 0 0 0 0 0 0 0 0 0 0 0 0 0 0 0 0 0 127 0" result="hardAlpha"/>
<feOffset dy="4.07976"/>
<feGaussianBlur stdDeviation="30.5982"/>
<feColorMatrix type="matrix" values="0 0 0 0 1 0 0 0 0 0.749833 0 0 0 0 0.670833 0 0 0 0.6 0"/>
<feBlend mode="normal" in2="effect1_dropShadow_2428_251" result="effect2_dropShadow_2428_251"/>
<feBlend mode="normal" in="SourceGraphic" in2="effect2_dropShadow_2428_251" result="shape"/>
</filter>
<filter id="filter1_d_2428_251" x="106.044" y="90.9316" width="297.873" height="317.115" filterUnits="userSpaceOnUse" color-interpolation-filters="sRGB">
<feFlood flood-opacity="0" result="BackgroundImageFix"/>
<feColorMatrix in="SourceAlpha" type="matrix" values="0 0 0 0 0 0 0 0 0 0 0 0 0 0 0 0 0 0 127 0" result="hardAlpha"/>
<feOffset dy="8"/>
<feGaussianBlur stdDeviation="3"/>
<feColorMatrix type="matrix" values="0 0 0 0 0.491667 0 0 0 0 0.276808 0 0 0 0 0.208958 0 0 0 0.54 0"/>
<feBlend mode="normal" in2="BackgroundImageFix" result="effect1_dropShadow_2428_251"/>
<feBlend mode="normal" in="SourceGraphic" in2="effect1_dropShadow_2428_251" result="shape"/>
</filter>
<filter id="filter2_f_2428_251" x="132.671" y="113.086" width="244.278" height="258.271" filterUnits="userSpaceOnUse" color-interpolation-filters="sRGB">
<feFlood flood-opacity="0" result="BackgroundImageFix"/>
<feBlend mode="normal" in="SourceGraphic" in2="BackgroundImageFix" result="shape"/>
<feGaussianBlur stdDeviation="0.3" result="effect1_foregroundBlur_2428_251"/>
</filter>
<filter id="filter3_i_2428_251" x="144.062" y="124.658" width="222.981" height="235.541" filterUnits="userSpaceOnUse" color-interpolation-filters="sRGB">
<feFlood flood-opacity="0" result="BackgroundImageFix"/>
<feBlend mode="normal" in="SourceGraphic" in2="BackgroundImageFix" result="shape"/>
<feColorMatrix in="SourceAlpha" type="matrix" values="0 0 0 0 0 0 0 0 0 0 0 0 0 0 0 0 0 0 127 0" result="hardAlpha"/>
<feOffset/>
<feGaussianBlur stdDeviation="6.72414"/>
<feComposite in2="hardAlpha" operator="arithmetic" k2="-1" k3="1"/>
<feColorMatrix type="matrix" values="0 0 0 0 0.283333 0 0 0 0 0.158667 0 0 0 0 0.0566667 0 0 0 1 0"/>
<feBlend mode="normal" in2="shape" result="effect1_innerShadow_2428_251"/>
</filter>
<filter id="filter4_d_2428_251" x="112.05" y="495.76" width="288.961" height="117.24" filterUnits="userSpaceOnUse" color-interpolation-filters="sRGB">
<feFlood flood-opacity="0" result="BackgroundImageFix"/>
<feColorMatrix in="SourceAlpha" type="matrix" values="0 0 0 0 0 0 0 0 0 0 0 0 0 0 0 0 0 0 127 0" result="hardAlpha"/>
<feOffset dy="4"/>
<feGaussianBlur stdDeviation="15"/>
<feComposite in2="hardAlpha" operator="out"/>
<feColorMatrix type="matrix" values="0 0 0 0 0.54902 0 0 0 0 0.407843 0 0 0 0 0.360784 0 0 0 1 0"/>
<feBlend mode="normal" in2="BackgroundImageFix" result="effect1_dropShadow_2428_251"/>
<feBlend mode="normal" in="SourceGraphic" in2="effect1_dropShadow_2428_251" result="shape"/>
</filter>
<linearGradient id="paint0_linear_2428_251" x1="254.941" y1="17" x2="254.941" y2="192.673" gradientUnits="userSpaceOnUse">
<stop stop-color="#FFBEAA" stop-opacity="0"/>
<stop offset="1" stop-color="#FFC9AA" stop-opacity="0.3"/>
</linearGradient>
<linearGradient id="paint1_linear_2428_251" x1="460.22" y1="350.888" x2="302.382" y2="252.339" gradientUnits="userSpaceOnUse">
<stop stop-color="#FFBEAA" stop-opacity="0"/>
<stop offset="1" stop-color="#FFC9AA" stop-opacity="0.3"/>
</linearGradient>
<linearGradient id="paint2_linear_2428_251" x1="253.741" y1="462" x2="253.741" y2="286.327" gradientUnits="userSpaceOnUse">
<stop stop-color="#FFBEAA" stop-opacity="0"/>
<stop offset="1" stop-color="#FFC9AA" stop-opacity="0.3"/>
</linearGradient>
<linearGradient id="paint3_linear_2428_251" x1="48.7806" y1="351.444" x2="206.618" y2="252.895" gradientUnits="userSpaceOnUse">
<stop stop-color="#FFBEAA" stop-opacity="0"/>
<stop offset="1" stop-color="#FFC9AA" stop-opacity="0.3"/>
</linearGradient>
<linearGradient id="paint4_linear_2428_251" x1="460.22" y1="128.389" x2="302.382" y2="226.938" gradientUnits="userSpaceOnUse">
<stop stop-color="#FFBEAA" stop-opacity="0"/>
<stop offset="1" stop-color="#FFC9AA" stop-opacity="0.3"/>
</linearGradient>
<linearGradient id="paint5_linear_2428_251" x1="48.7806" y1="127.833" x2="206.619" y2="226.382" gradientUnits="userSpaceOnUse">
<stop stop-color="#FFBEAA" stop-opacity="0"/>
<stop offset="1" stop-color="#FFC9AA" stop-opacity="0.3"/>
</linearGradient>
<linearGradient id="paint6_linear_2428_251" x1="102.896" y1="196.754" x2="102.896" y2="286.632" gradientUnits="userSpaceOnUse">
<stop stop-color="#EFD9BD"/>
<stop offset="1" stop-color="#C39470"/>
</linearGradient>
<linearGradient id="paint7_linear_2428_251" x1="82.3136" y1="196.754" x2="100.023" y2="287.194" gradientUnits="userSpaceOnUse">
<stop stop-color="#F3DDC4"/>
<stop offset="0.378992" stop-color="#F3DDC4"/>
<stop offset="0.46253" stop-color="#F3DDC4"/>
<stop offset="1" stop-color="#74523F"/>
</linearGradient>
<linearGradient id="paint8_linear_2428_251" x1="407.065" y1="196.754" x2="407.065" y2="286.632" gradientUnits="userSpaceOnUse">
<stop stop-color="#EFD9BD"/>
<stop offset="1" stop-color="#C39470"/>
</linearGradient>
<linearGradient id="paint9_linear_2428_251" x1="427.648" y1="196.754" x2="409.938" y2="287.194" gradientUnits="userSpaceOnUse">
<stop stop-color="#F3DDC4"/>
<stop offset="0.378992" stop-color="#F3DDC4"/>
<stop offset="0.46253" stop-color="#F3DDC4"/>
<stop offset="1" stop-color="#74523F"/>
</linearGradient>
<linearGradient id="paint10_linear_2428_251" x1="200.093" y1="415.632" x2="312.014" y2="426.13" gradientUnits="userSpaceOnUse">
<stop stop-color="#D8B697"/>
<stop offset="0.374385" stop-color="#F0D6BD"/>
<stop offset="0.71988" stop-color="#C89E78"/>
<stop offset="0.9381" stop-color="#DFCBB9"/>
</linearGradient>
<linearGradient id="paint11_linear_2428_251" x1="144.061" y1="390.231" x2="192.578" y2="392.636" gradientUnits="userSpaceOnUse">
<stop stop-color="#D8B697"/>
<stop offset="0.374385" stop-color="#F0D6BD"/>
<stop offset="0.71988" stop-color="#C89E78"/>
<stop offset="0.9381" stop-color="#DFCBB9"/>
</linearGradient>
<linearGradient id="paint12_linear_2428_251" x1="367.044" y1="390.231" x2="318.527" y2="392.636" gradientUnits="userSpaceOnUse">
<stop stop-color="#D8B697"/>
<stop offset="0.374385" stop-color="#F0D6BD"/>
<stop offset="0.71988" stop-color="#C89E78"/>
<stop offset="0.9381" stop-color="#DFCBB9"/>
</linearGradient>
<linearGradient id="paint13_linear_2428_251" x1="363.041" y1="399.551" x2="323.333" y2="402.65" gradientUnits="userSpaceOnUse">
<stop stop-color="#D8B697"/>
<stop offset="0.374385" stop-color="#F0D6BD"/>
<stop offset="0.71988" stop-color="#C89E78"/>
<stop offset="0.9381" stop-color="#DFCBB9"/>
</linearGradient>
<linearGradient id="paint14_linear_2428_251" x1="206.382" y1="393.427" x2="296.242" y2="433.264" gradientUnits="userSpaceOnUse">
<stop offset="0.192454" stop-color="#DFCBB9"/>
<stop offset="0.475371" stop-color="#D8B290"/>
<stop offset="0.678187" stop-color="#DEBFA4"/>
<stop offset="0.866423" stop-color="#DFCBB9"/>
</linearGradient>
<linearGradient id="paint15_linear_2428_251" x1="148.636" y1="399.551" x2="188.344" y2="402.65" gradientUnits="userSpaceOnUse">
<stop stop-color="#D8B697"/>
<stop offset="0.374385" stop-color="#F0D6BD"/>
<stop offset="0.71988" stop-color="#C89E78"/>
<stop offset="0.9381" stop-color="#DFCBB9"/>
</linearGradient>
<linearGradient id="paint16_linear_2428_251" x1="194.948" y1="125.91" x2="308.265" y2="369.368" gradientUnits="userSpaceOnUse">
<stop stop-color="#F1DCC1"/>
<stop offset="1" stop-color="#BD8A65"/>
</linearGradient>
<linearGradient id="paint17_linear_2428_251" x1="193.804" y1="145.472" x2="291.873" y2="341.182" gradientUnits="userSpaceOnUse">
<stop stop-color="#BF8E69"/>
<stop offset="1" stop-color="#E4C196"/>
</linearGradient>
<linearGradient id="paint18_linear_2428_251" x1="205.811" y1="138.599" x2="311.605" y2="344.428" gradientUnits="userSpaceOnUse">
<stop stop-color="#EBD4B7"/>
<stop offset="1" stop-color="#FFE3CE"/>
</linearGradient>
<radialGradient id="paint19_radial_2428_251" cx="0" cy="0" r="1" gradientUnits="userSpaceOnUse" gradientTransform="translate(255.553 242.428) rotate(90) scale(119.69 111.49)">
<stop stop-color="#E3C29C"/>
<stop offset="1" stop-color="#D1A479"/>
</radialGradient>
<linearGradient id="paint20_linear_2428_251" x1="255.553" y1="117.998" x2="255.553" y2="366.847" gradientUnits="userSpaceOnUse">
<stop stop-color="white"/>
<stop offset="1" stop-color="#F2EDED" stop-opacity="0"/>
</linearGradient>
<linearGradient id="paint21_linear_2428_251" x1="117.905" y1="140.513" x2="237.285" y2="364.125" gradientUnits="userSpaceOnUse">
<stop stop-color="white"/>
<stop offset="1" stop-color="#F2EDED" stop-opacity="0"/>
</linearGradient>
<linearGradient id="paint22_linear_2428_251" x1="383.175" y1="140.513" x2="263.795" y2="364.125" gradientUnits="userSpaceOnUse">
<stop stop-color="white"/>
<stop offset="1" stop-color="#F2EDED" stop-opacity="0"/>
</linearGradient>
<linearGradient id="paint23_linear_2428_251" x1="255.553" y1="286.267" x2="254.977" y2="353.811" gradientUnits="userSpaceOnUse">
<stop offset="0.291667" stop-color="#FFFAF7" stop-opacity="0"/>
<stop offset="1" stop-color="#E4CBAD"/>
</linearGradient>
<linearGradient id="paint24_linear_2428_251" x1="153.628" y1="188.821" x2="213.161" y2="159.978" gradientUnits="userSpaceOnUse">
<stop offset="0.168737" stop-color="#FFEFDC"/>
<stop offset="0.360439" stop-color="#FFF3E3"/>
<stop offset="0.47754" stop-color="#FFEAD1"/>
<stop offset="0.655872" stop-color="#F0DBC0"/>
<stop offset="0.80404" stop-color="#F0DBC2"/>
</linearGradient>
<linearGradient id="paint25_linear_2428_251" x1="154.401" y1="188.247" x2="212.749" y2="159.634" gradientUnits="userSpaceOnUse">
<stop offset="0.168737" stop-color="#FFEFDC"/>
<stop offset="0.360439" stop-color="#FFF3E3"/>
<stop offset="0.47754" stop-color="#FFEAD1"/>
<stop offset="0.655872" stop-color="#F0DBC0"/>
<stop offset="0.80404" stop-color="#F0DBC2"/>
</linearGradient>
<linearGradient id="paint26_linear_2428_251" x1="219.533" y1="266.013" x2="243.094" y2="244.039" gradientUnits="userSpaceOnUse">
<stop offset="0.168737" stop-color="#FFEFDC"/>
<stop offset="0.655872" stop-color="#F0DBC0"/>
<stop offset="0.80404" stop-color="#F0DBC2"/>
</linearGradient>
<linearGradient id="paint27_linear_2428_251" x1="225.822" y1="246.451" x2="196.864" y2="281.075" gradientUnits="userSpaceOnUse">
<stop offset="0.168737" stop-color="#FFEFDC"/>
<stop offset="0.655872" stop-color="#F0DBC0"/>
<stop offset="0.80404" stop-color="#F0DBC2"/>
</linearGradient>
<linearGradient id="paint28_linear_2428_251" x1="17.9226" y1="-32.4477" x2="30.7721" y2="-27.2032" gradientUnits="userSpaceOnUse">
<stop offset="0.168737" stop-color="#FFEFDC"/>
<stop offset="0.80404" stop-color="#F0DBC2"/>
</linearGradient>
<linearGradient id="paint29_linear_2428_251" x1="342.84" y1="175.025" x2="381.418" y2="225.988" gradientUnits="userSpaceOnUse">
<stop offset="0.168737" stop-color="#FFEFDC"/>
<stop offset="0.360439" stop-color="#FFF3E3"/>
<stop offset="0.47754" stop-color="#FFEAD1"/>
<stop offset="0.655872" stop-color="#F0DBC0"/>
<stop offset="0.80404" stop-color="#F0DBC2"/>
</linearGradient>
<linearGradient id="paint30_linear_2428_251" x1="343.642" y1="175.565" x2="381.786" y2="225.491" gradientUnits="userSpaceOnUse">
<stop offset="0.168737" stop-color="#FFEFDC"/>
<stop offset="0.360439" stop-color="#FFF3E3"/>
<stop offset="0.47754" stop-color="#FFEAD1"/>
<stop offset="0.655872" stop-color="#F0DBC0"/>
<stop offset="0.80404" stop-color="#F0DBC2"/>
</linearGradient>
<linearGradient id="paint31_linear_2428_251" x1="278.994" y1="244.865" x2="309.596" y2="266.555" gradientUnits="userSpaceOnUse">
<stop offset="0.168737" stop-color="#FFEFDC"/>
<stop offset="0.655872" stop-color="#F0DBC0"/>
<stop offset="0.80404" stop-color="#F0DBC2"/>
</linearGradient>
<linearGradient id="paint32_linear_2428_251" x1="313.871" y1="242.222" x2="272.699" y2="217.948" gradientUnits="userSpaceOnUse">
<stop offset="0.168737" stop-color="#FFEFDC"/>
<stop offset="0.655872" stop-color="#F0DBC0"/>
<stop offset="0.80404" stop-color="#F0DBC2"/>
</linearGradient>
<linearGradient id="paint33_linear_2428_251" x1="40.0124" y1="-39.8803" x2="53.255" y2="-29.4582" gradientUnits="userSpaceOnUse">
<stop offset="0.168737" stop-color="#FFEFDC"/>
<stop offset="0.80404" stop-color="#F0DBC2"/>
</linearGradient>
<linearGradient id="paint34_linear_2428_251" x1="252.863" y1="186.132" x2="266.77" y2="190.703" gradientUnits="userSpaceOnUse">
<stop offset="0.168737" stop-color="#FFEFDC"/>
<stop offset="0.360439" stop-color="#FFF3E3"/>
<stop offset="0.47754" stop-color="#FFEAD1"/>
<stop offset="0.655872" stop-color="#F0DBC0"/>
<stop offset="0.80404" stop-color="#F0DBC2"/>
</linearGradient>
<clipPath id="clip0_2428_251">
<rect width="510" height="612" fill="white"/>
</clipPath>
</defs>
</svg>
