<svg width="428" height="481" viewBox="0 0 428 481" fill="none" xmlns="http://www.w3.org/2000/svg">
<path d="M191.953 166.139L184.615 0H243.314L235.977 166.139H191.953Z" fill="url(#paint0_linear_2351_328)"/>
<path d="M260.609 213.636L408.159 290.351L378.81 341.186L238.597 251.762L260.609 213.636Z" fill="url(#paint1_linear_2351_328)"/>
<path d="M234.928 254.712L242.265 420.852H183.566L190.903 254.712H234.928Z" fill="url(#paint2_linear_2351_328)"/>
<path d="M188.562 252.289L48.3496 341.713L19 290.878L166.55 214.163L188.562 252.289Z" fill="url(#paint3_linear_2351_328)"/>
<path d="M260.609 207.477L408.159 130.762L378.809 79.9268L238.597 169.351L260.609 207.477Z" fill="url(#paint4_linear_2351_328)"/>
<path d="M188.562 168.825L48.3496 79.4009L19.0001 130.236L166.55 206.951L188.562 168.825Z" fill="url(#paint5_linear_2351_328)"/>
<g filter="url(#filter0_dd_2351_328)">
<path d="M63 170H99V255C76.5 255 63 239.094 63 226.17V170Z" fill="url(#paint6_linear_2351_328)"/>
<path d="M63 170H99V255C76.5 255 63 239.094 63 226.17V170Z" stroke="url(#paint7_linear_2351_328)" stroke-width="2"/>
<path d="M365 170H329V255C351.5 255 365 239.094 365 226.17V170Z" fill="url(#paint8_linear_2351_328)"/>
<path d="M365 170H329V255C351.5 255 365 239.094 365 226.17V170Z" stroke="url(#paint9_linear_2351_328)" stroke-width="2"/>
<path d="M166.001 247H263.504V386.775L215.573 414.281C214.681 414.793 213.585 414.791 212.695 414.276L166.001 387.256V247Z" fill="#BB9986" stroke="url(#paint10_linear_2351_328)" stroke-width="2"/>
<path fill-rule="evenodd" clip-rule="evenodd" d="M159.001 247V384.043L118.424 360.239C117.542 359.721 117 358.775 117 357.753V247H159.001Z" fill="#8C685C" stroke="url(#paint11_linear_2351_328)" stroke-width="2"/>
<path fill-rule="evenodd" clip-rule="evenodd" d="M269.999 247V384.043L310.576 360.239C311.458 359.721 312 358.775 312 357.753V247H269.999Z" fill="#8C685C" stroke="url(#paint12_linear_2351_328)" stroke-width="2"/>
<path d="M308.5 306.5V354C306.333 354.167 301.9 356 301.5 362L274 378V323.5" stroke="url(#paint13_linear_2351_328)"/>
<path fill-rule="evenodd" clip-rule="evenodd" d="M170.5 333H169.5V382.424L169.918 382.493C171.391 382.739 172.65 383.094 173.729 384.06C174.813 385.03 175.777 386.671 176.515 389.621L176.567 389.829L213.868 411H215L215.28 410.916L252.433 389.829L252.485 389.621C253.223 386.671 254.187 385.03 255.271 384.06C256.35 383.094 257.609 382.739 259.082 382.493L259.5 382.424V333H258.5V381.581C257.12 381.84 255.781 382.262 254.604 383.315C253.342 384.444 252.325 386.243 251.568 389.17L214.868 410H214.132L177.432 389.17C176.675 386.243 175.658 384.444 174.396 383.315C173.219 382.262 171.88 381.84 170.5 381.581V333Z" fill="url(#paint14_linear_2351_328)"/>
<path d="M121 306.5V354C123.167 354.167 127.6 356 128 362L155.5 378V323.5" stroke="url(#paint15_linear_2351_328)"/>
<g filter="url(#filter1_d_2351_328)">
<path d="M205.876 72.4192L97.8764 131.17C92.4056 134.146 89 139.875 89 146.103L89 280.402C89 286.63 92.4055 292.359 97.8764 295.335L205.876 354.086C210.942 356.841 217.058 356.841 222.124 354.086L330.124 295.335C335.594 292.359 339 286.629 339 280.402L339 146.103C339 139.875 335.594 134.146 330.124 131.17L222.124 72.4192C217.058 69.6637 210.942 69.6637 205.876 72.4192Z" fill="url(#paint16_linear_2351_328)"/>
<path d="M205.757 94.4025L116.843 142.771C111.393 145.736 108 151.444 108 157.648L108 268.352C108 274.556 111.393 280.264 116.843 283.229L205.757 331.597C210.803 334.343 216.897 334.343 221.943 331.597L310.857 283.229C316.308 280.264 319.7 274.556 319.7 268.352L319.7 157.648C319.7 151.444 316.308 145.736 310.857 142.771L221.943 94.4025C216.897 91.6575 210.803 91.6575 205.757 94.4025Z" fill="url(#paint17_linear_2351_328)"/>
<g filter="url(#filter2_f_2351_328)">
<path d="M205.757 94.4025L116.843 142.771C111.393 145.736 108 151.444 108 157.648L108 268.352C108 274.556 111.393 280.264 116.843 283.229L205.757 331.597C210.803 334.343 216.897 334.343 221.943 331.597L310.857 283.229C316.308 280.264 319.7 274.556 319.7 268.352L319.7 157.648C319.7 151.444 316.308 145.736 310.857 142.771L221.943 94.4025C216.897 91.6575 210.803 91.6575 205.757 94.4025Z" stroke="url(#paint18_linear_2351_328)"/>
</g>
<g opacity="0.5">
<mask id="mask0_2351_328" style="mask-type:alpha" maskUnits="userSpaceOnUse" x="117" y="102" width="195" height="223">
<path d="M206.807 104.181L125.417 148.417C120.23 151.236 117 156.667 117 162.571L117 263.819C117 269.723 120.23 275.154 125.417 277.974L206.807 322.209C211.604 324.816 217.396 324.816 222.193 322.209L303.583 277.974C308.77 275.154 312 269.723 312 263.819L312 162.571C312 156.667 308.77 151.236 303.583 148.417L222.193 104.181C217.396 101.574 211.604 101.574 206.807 104.181Z" fill="#A6D3DE"/>
</mask>
<g mask="url(#mask0_2351_328)">
<path d="M206.807 104.181L125.417 148.417C120.23 151.236 117 156.667 117 162.571L117 263.819C117 269.723 120.23 275.154 125.417 277.974L206.807 322.209C211.604 324.816 217.396 324.816 222.193 322.209L303.583 277.974C308.77 275.154 312 269.723 312 263.819L312 162.571C312 156.667 308.77 151.236 303.583 148.417L222.193 104.181C217.396 101.574 211.604 101.574 206.807 104.181Z" fill="url(#paint19_radial_2351_328)"/>
<path opacity="0.5" d="M198.201 330.862L194.328 95.5171H234.672L230.799 330.862H198.201Z" fill="url(#paint20_linear_2351_328)"/>
<path opacity="0.5" d="M197.682 328.775L76.6553 126.896L111.595 106.724L225.913 312.475L197.682 328.775Z" fill="url(#paint21_linear_2351_328)"/>
<path opacity="0.5" d="M194.32 312.475L308.638 106.724L343.578 126.897L222.551 328.775L194.32 312.475Z" fill="url(#paint22_linear_2351_328)"/>
<rect x="117" y="199.741" width="195" height="126.638" fill="url(#paint23_linear_2351_328)"/>
<g filter="url(#filter3_i_2351_328)">
<path d="M206.807 104.181L125.417 148.417C120.23 151.236 117 156.667 117 162.571L117 263.819C117 269.723 120.23 275.154 125.417 277.974L206.807 322.209C211.604 324.816 217.396 324.816 222.193 322.209L303.583 277.974C308.77 275.154 312 269.723 312 263.819L312 162.571C312 156.667 308.77 151.236 303.583 148.417L222.193 104.181C217.396 101.574 211.604 101.574 206.807 104.181Z" fill="#F5C4AF" fill-opacity="0.03"/>
</g>
</g>
</g>
</g>
</g>
<path d="M208.049 190.456C223.277 209.394 223.776 234.27 204.839 249.498C185.901 264.726 160.153 260.152 144.925 241.215C129.697 222.277 126.977 191.447 145.914 176.219C164.852 160.991 192.821 171.519 208.049 190.456Z" fill="url(#paint24_linear_2351_328)"/>
<path d="M208.048 190.458C223.276 209.395 223.995 234.095 205.408 249.041C186.821 263.987 161.321 259.214 146.094 240.276C130.866 221.339 127.897 190.708 146.484 175.762C165.071 160.817 192.82 171.52 208.048 190.458Z" fill="url(#paint25_linear_2351_328)"/>
<path d="M199.538 245.388C198.807 244.541 198.913 243.259 199.773 242.544L213.556 231.075C215.165 229.737 217.488 231.454 216.681 233.384L212.394 243.632C212.233 244.017 212.196 244.443 212.289 244.85L215.267 257.848C215.733 259.881 213.166 261.18 211.804 259.601L199.538 245.388Z" fill="url(#paint26_linear_2351_328)"/>
<path d="M201.212 244.358C200.542 243.483 199.29 243.315 198.412 243.982L184.022 254.935C182.347 256.21 183.525 258.874 185.595 258.493L197.396 256.325C197.816 256.248 198.249 256.307 198.632 256.494L209.945 262C211.842 262.923 213.691 260.661 212.409 258.986L201.212 244.358Z" fill="url(#paint27_linear_2351_328)"/>
<rect x="199.042" y="250.27" width="10" height="45.063" rx="3" transform="rotate(-38.8031 199.042 250.27)" fill="url(#paint28_linear_2351_328)"/>
<path d="M285.49 236.569C271.198 256.222 247.319 263.215 227.665 248.923C208.012 234.631 205.688 208.583 219.98 188.93C234.272 169.276 263.315 158.582 282.969 172.874C302.622 187.166 299.782 216.915 285.49 236.569Z" fill="url(#paint29_linear_2351_328)"/>
<path d="M285.488 236.568C271.196 256.222 247.545 263.38 228.256 249.353C208.966 235.325 206.9 209.465 221.192 189.811C235.484 170.158 264.27 159.276 283.559 173.304C302.848 187.331 299.78 216.915 285.488 236.568Z" fill="url(#paint30_linear_2351_328)"/>
<path d="M230.245 242.73C230.871 241.803 232.136 241.57 233.051 242.213L247.728 252.514C249.44 253.716 248.391 256.408 246.316 256.134L235.304 254.679C234.89 254.624 234.469 254.7 234.101 254.897L222.336 261.173C220.496 262.154 218.57 260.017 219.737 258.289L230.245 242.73Z" fill="url(#paint31_linear_2351_328)"/>
<path d="M231.677 244.078C232.346 243.202 232.181 241.95 231.307 241.278L216.97 230.255C215.301 228.972 213.038 230.806 213.947 232.705L219.128 243.527C219.312 243.912 219.369 244.346 219.289 244.765L216.935 257.124C216.541 259.197 219.208 260.389 220.489 258.713L231.677 244.078Z" fill="url(#paint32_linear_2351_328)"/>
<rect x="225.404" y="243.531" width="10" height="45.032" rx="3" transform="rotate(36.025 225.404 243.531)" fill="url(#paint33_linear_2351_328)"/>
<circle cx="213.573" cy="173.466" r="9" fill="url(#paint34_linear_2351_328)"/>
<defs>
<filter id="filter0_dd_2351_328" x="0.803555" y="13.2359" width="426.393" height="467.704" filterUnits="userSpaceOnUse" color-interpolation-filters="sRGB">
<feFlood flood-opacity="0" result="BackgroundImageFix"/>
<feColorMatrix in="SourceAlpha" type="matrix" values="0 0 0 0 0 0 0 0 0 0 0 0 0 0 0 0 0 0 127 0" result="hardAlpha"/>
<feOffset/>
<feGaussianBlur stdDeviation="10.1994"/>
<feColorMatrix type="matrix" values="0 0 0 0 0.9375 0 0 0 0 0.695 0 0 0 0 0.558594 0 0 0 1 0"/>
<feBlend mode="normal" in2="BackgroundImageFix" result="effect1_dropShadow_2351_328"/>
<feColorMatrix in="SourceAlpha" type="matrix" values="0 0 0 0 0 0 0 0 0 0 0 0 0 0 0 0 0 0 127 0" result="hardAlpha"/>
<feOffset dy="4.07976"/>
<feGaussianBlur stdDeviation="30.5982"/>
<feColorMatrix type="matrix" values="0 0 0 0 1 0 0 0 0 0.749833 0 0 0 0 0.670833 0 0 0 0.6 0"/>
<feBlend mode="normal" in2="effect1_dropShadow_2351_328" result="effect2_dropShadow_2351_328"/>
<feBlend mode="normal" in="SourceGraphic" in2="effect2_dropShadow_2351_328" result="shape"/>
</filter>
<filter id="filter1_d_2351_328" x="83" y="70.3525" width="262" height="299.8" filterUnits="userSpaceOnUse" color-interpolation-filters="sRGB">
<feFlood flood-opacity="0" result="BackgroundImageFix"/>
<feColorMatrix in="SourceAlpha" type="matrix" values="0 0 0 0 0 0 0 0 0 0 0 0 0 0 0 0 0 0 127 0" result="hardAlpha"/>
<feOffset dy="8"/>
<feGaussianBlur stdDeviation="3"/>
<feColorMatrix type="matrix" values="0 0 0 0 0.491667 0 0 0 0 0.276808 0 0 0 0 0.208958 0 0 0 0.54 0"/>
<feBlend mode="normal" in2="BackgroundImageFix" result="effect1_dropShadow_2351_328"/>
<feBlend mode="normal" in="SourceGraphic" in2="effect1_dropShadow_2351_328" result="shape"/>
</filter>
<filter id="filter2_f_2351_328" x="106.9" y="91.2437" width="213.9" height="243.513" filterUnits="userSpaceOnUse" color-interpolation-filters="sRGB">
<feFlood flood-opacity="0" result="BackgroundImageFix"/>
<feBlend mode="normal" in="SourceGraphic" in2="BackgroundImageFix" result="shape"/>
<feGaussianBlur stdDeviation="0.3" result="effect1_foregroundBlur_2351_328"/>
</filter>
<filter id="filter3_i_2351_328" x="117" y="102.226" width="195" height="221.939" filterUnits="userSpaceOnUse" color-interpolation-filters="sRGB">
<feFlood flood-opacity="0" result="BackgroundImageFix"/>
<feBlend mode="normal" in="SourceGraphic" in2="BackgroundImageFix" result="shape"/>
<feColorMatrix in="SourceAlpha" type="matrix" values="0 0 0 0 0 0 0 0 0 0 0 0 0 0 0 0 0 0 127 0" result="hardAlpha"/>
<feOffset/>
<feGaussianBlur stdDeviation="6.72414"/>
<feComposite in2="hardAlpha" operator="arithmetic" k2="-1" k3="1"/>
<feColorMatrix type="matrix" values="0 0 0 0 0.283333 0 0 0 0 0.158667 0 0 0 0 0.0566667 0 0 0 1 0"/>
<feBlend mode="normal" in2="shape" result="effect1_innerShadow_2351_328"/>
</filter>
<linearGradient id="paint0_linear_2351_328" x1="213.965" y1="0" x2="213.965" y2="166.139" gradientUnits="userSpaceOnUse">
<stop stop-color="#FFBEAA" stop-opacity="0"/>
<stop offset="1" stop-color="#FFC9AA" stop-opacity="0.3"/>
</linearGradient>
<linearGradient id="paint1_linear_2351_328" x1="393.484" y1="315.769" x2="249.603" y2="232.699" gradientUnits="userSpaceOnUse">
<stop stop-color="#FFBEAA" stop-opacity="0"/>
<stop offset="1" stop-color="#FFC9AA" stop-opacity="0.3"/>
</linearGradient>
<linearGradient id="paint2_linear_2351_328" x1="212.916" y1="420.852" x2="212.916" y2="254.712" gradientUnits="userSpaceOnUse">
<stop stop-color="#FFBEAA" stop-opacity="0"/>
<stop offset="1" stop-color="#FFC9AA" stop-opacity="0.3"/>
</linearGradient>
<linearGradient id="paint3_linear_2351_328" x1="33.6748" y1="316.295" x2="177.556" y2="233.226" gradientUnits="userSpaceOnUse">
<stop stop-color="#FFBEAA" stop-opacity="0"/>
<stop offset="1" stop-color="#FFC9AA" stop-opacity="0.3"/>
</linearGradient>
<linearGradient id="paint4_linear_2351_328" x1="393.484" y1="105.344" x2="249.603" y2="188.414" gradientUnits="userSpaceOnUse">
<stop stop-color="#FFBEAA" stop-opacity="0"/>
<stop offset="1" stop-color="#FFC9AA" stop-opacity="0.3"/>
</linearGradient>
<linearGradient id="paint5_linear_2351_328" x1="33.6748" y1="104.818" x2="177.556" y2="187.888" gradientUnits="userSpaceOnUse">
<stop stop-color="#FFBEAA" stop-opacity="0"/>
<stop offset="1" stop-color="#FFC9AA" stop-opacity="0.3"/>
</linearGradient>
<linearGradient id="paint6_linear_2351_328" x1="81" y1="170" x2="81" y2="255" gradientUnits="userSpaceOnUse">
<stop stop-color="#EFD9BD"/>
<stop offset="1" stop-color="#C39470"/>
</linearGradient>
<linearGradient id="paint7_linear_2351_328" x1="63" y1="170" x2="81" y2="255" gradientUnits="userSpaceOnUse">
<stop stop-color="#F3DDC4"/>
<stop offset="0.378992" stop-color="#F3DDC4"/>
<stop offset="0.46253" stop-color="#F3DDC4"/>
<stop offset="1" stop-color="#74523F"/>
</linearGradient>
<linearGradient id="paint8_linear_2351_328" x1="347" y1="170" x2="347" y2="255" gradientUnits="userSpaceOnUse">
<stop stop-color="#EFD9BD"/>
<stop offset="1" stop-color="#C39470"/>
</linearGradient>
<linearGradient id="paint9_linear_2351_328" x1="365" y1="170" x2="347" y2="255" gradientUnits="userSpaceOnUse">
<stop stop-color="#F3DDC4"/>
<stop offset="0.378992" stop-color="#F3DDC4"/>
<stop offset="0.46253" stop-color="#F3DDC4"/>
<stop offset="1" stop-color="#74523F"/>
</linearGradient>
<linearGradient id="paint10_linear_2351_328" x1="166" y1="377" x2="264" y2="385.5" gradientUnits="userSpaceOnUse">
<stop stop-color="#D8B697"/>
<stop offset="0.374385" stop-color="#F0D6BD"/>
<stop offset="0.71988" stop-color="#C89E78"/>
<stop offset="0.9381" stop-color="#DFCBB9"/>
</linearGradient>
<linearGradient id="paint11_linear_2351_328" x1="116.999" y1="352.977" x2="159.443" y2="354.923" gradientUnits="userSpaceOnUse">
<stop stop-color="#D8B697"/>
<stop offset="0.374385" stop-color="#F0D6BD"/>
<stop offset="0.71988" stop-color="#C89E78"/>
<stop offset="0.9381" stop-color="#DFCBB9"/>
</linearGradient>
<linearGradient id="paint12_linear_2351_328" x1="312.001" y1="352.977" x2="269.557" y2="354.923" gradientUnits="userSpaceOnUse">
<stop stop-color="#D8B697"/>
<stop offset="0.374385" stop-color="#F0D6BD"/>
<stop offset="0.71988" stop-color="#C89E78"/>
<stop offset="0.9381" stop-color="#DFCBB9"/>
</linearGradient>
<linearGradient id="paint13_linear_2351_328" x1="308.501" y1="361.792" x2="273.745" y2="364.3" gradientUnits="userSpaceOnUse">
<stop stop-color="#D8B697"/>
<stop offset="0.374385" stop-color="#F0D6BD"/>
<stop offset="0.71988" stop-color="#C89E78"/>
<stop offset="0.9381" stop-color="#DFCBB9"/>
</linearGradient>
<linearGradient id="paint14_linear_2351_328" x1="171.5" y1="356" x2="252" y2="389" gradientUnits="userSpaceOnUse">
<stop offset="0.192454" stop-color="#DFCBB9"/>
<stop offset="0.475371" stop-color="#D8B290"/>
<stop offset="0.678187" stop-color="#DEBFA4"/>
<stop offset="0.866423" stop-color="#DFCBB9"/>
</linearGradient>
<linearGradient id="paint15_linear_2351_328" x1="120.999" y1="361.792" x2="155.755" y2="364.3" gradientUnits="userSpaceOnUse">
<stop stop-color="#D8B697"/>
<stop offset="0.374385" stop-color="#F0D6BD"/>
<stop offset="0.71988" stop-color="#C89E78"/>
<stop offset="0.9381" stop-color="#DFCBB9"/>
</linearGradient>
<linearGradient id="paint16_linear_2351_328" x1="161.5" y1="103" x2="274" y2="326.5" gradientUnits="userSpaceOnUse">
<stop stop-color="#F1DCC1"/>
<stop offset="1" stop-color="#BD8A65"/>
</linearGradient>
<linearGradient id="paint17_linear_2351_328" x1="160.5" y1="121.5" x2="257.5" y2="300.5" gradientUnits="userSpaceOnUse">
<stop stop-color="#BF8E69"/>
<stop offset="1" stop-color="#E4C196"/>
</linearGradient>
<linearGradient id="paint18_linear_2351_328" x1="171" y1="115" x2="275.5" y2="303" gradientUnits="userSpaceOnUse">
<stop stop-color="#EBD4B7"/>
<stop offset="1" stop-color="#FFE3CE"/>
</linearGradient>
<radialGradient id="paint19_radial_2351_328" cx="0" cy="0" r="1" gradientUnits="userSpaceOnUse" gradientTransform="translate(214.5 213.195) rotate(90) scale(113.195 97.5)">
<stop stop-color="#E3C29C"/>
<stop offset="1" stop-color="#D1A479"/>
</radialGradient>
<linearGradient id="paint20_linear_2351_328" x1="214.5" y1="95.5171" x2="214.5" y2="330.862" gradientUnits="userSpaceOnUse">
<stop stop-color="white"/>
<stop offset="1" stop-color="#F2EDED" stop-opacity="0"/>
</linearGradient>
<linearGradient id="paint21_linear_2351_328" x1="94.1251" y1="116.81" x2="211.798" y2="320.625" gradientUnits="userSpaceOnUse">
<stop stop-color="white"/>
<stop offset="1" stop-color="#F2EDED" stop-opacity="0"/>
</linearGradient>
<linearGradient id="paint22_linear_2351_328" x1="326.108" y1="116.81" x2="208.435" y2="320.625" gradientUnits="userSpaceOnUse">
<stop stop-color="white"/>
<stop offset="1" stop-color="#F2EDED" stop-opacity="0"/>
</linearGradient>
<linearGradient id="paint23_linear_2351_328" x1="214.5" y1="254.655" x2="213.912" y2="318.533" gradientUnits="userSpaceOnUse">
<stop offset="0.291667" stop-color="#FFFAF7" stop-opacity="0"/>
<stop offset="1" stop-color="#E4CBAD"/>
</linearGradient>
<linearGradient id="paint24_linear_2351_328" x1="82.4821" y1="120.775" x2="197.352" y2="74.5364" gradientUnits="userSpaceOnUse">
<stop offset="0.168737" stop-color="#FFEFDC"/>
<stop offset="0.360439" stop-color="#FFF3E3"/>
<stop offset="0.47754" stop-color="#FFEAD1"/>
<stop offset="0.655872" stop-color="#F0DBC0"/>
<stop offset="0.80404" stop-color="#F0DBC2"/>
</linearGradient>
<linearGradient id="paint25_linear_2351_328" x1="126.042" y1="161.954" x2="178.543" y2="138.147" gradientUnits="userSpaceOnUse">
<stop offset="0.168737" stop-color="#FFEFDC"/>
<stop offset="0.360439" stop-color="#FFF3E3"/>
<stop offset="0.47754" stop-color="#FFEAD1"/>
<stop offset="0.655872" stop-color="#F0DBC0"/>
<stop offset="0.80404" stop-color="#F0DBC2"/>
</linearGradient>
<linearGradient id="paint26_linear_2351_328" x1="183" y1="235.5" x2="205.094" y2="216.446" gradientUnits="userSpaceOnUse">
<stop offset="0.168737" stop-color="#FFEFDC"/>
<stop offset="0.655872" stop-color="#F0DBC0"/>
<stop offset="0.80404" stop-color="#F0DBC2"/>
</linearGradient>
<linearGradient id="paint27_linear_2351_328" x1="188.5" y1="217" x2="160.815" y2="247.61" gradientUnits="userSpaceOnUse">
<stop offset="0.168737" stop-color="#FFEFDC"/>
<stop offset="0.655872" stop-color="#F0DBC0"/>
<stop offset="0.80404" stop-color="#F0DBC2"/>
</linearGradient>
<linearGradient id="paint28_linear_2351_328" x1="215.182" y1="220.556" x2="226.808" y2="225.222" gradientUnits="userSpaceOnUse">
<stop offset="0.168737" stop-color="#FFEFDC"/>
<stop offset="0.80404" stop-color="#F0DBC2"/>
</linearGradient>
<linearGradient id="paint29_linear_2351_328" x1="319.125" y1="98.5005" x2="392.849" y2="195.878" gradientUnits="userSpaceOnUse">
<stop offset="0.168737" stop-color="#FFEFDC"/>
<stop offset="0.360439" stop-color="#FFF3E3"/>
<stop offset="0.47754" stop-color="#FFEAD1"/>
<stop offset="0.655872" stop-color="#F0DBC0"/>
<stop offset="0.80404" stop-color="#F0DBC2"/>
</linearGradient>
<linearGradient id="paint30_linear_2351_328" x1="291.536" y1="149.96" x2="328.254" y2="194.4" gradientUnits="userSpaceOnUse">
<stop offset="0.168737" stop-color="#FFEFDC"/>
<stop offset="0.360439" stop-color="#FFF3E3"/>
<stop offset="0.47754" stop-color="#FFEAD1"/>
<stop offset="0.655872" stop-color="#F0DBC0"/>
<stop offset="0.80404" stop-color="#F0DBC2"/>
</linearGradient>
<linearGradient id="paint31_linear_2351_328" x1="235" y1="215.5" x2="263.125" y2="233.933" gradientUnits="userSpaceOnUse">
<stop offset="0.168737" stop-color="#FFEFDC"/>
<stop offset="0.655872" stop-color="#F0DBC0"/>
<stop offset="0.80404" stop-color="#F0DBC2"/>
</linearGradient>
<linearGradient id="paint32_linear_2351_328" x1="265.5" y1="213" x2="228.096" y2="192.608" gradientUnits="userSpaceOnUse">
<stop offset="0.168737" stop-color="#FFEFDC"/>
<stop offset="0.655872" stop-color="#F0DBC0"/>
<stop offset="0.80404" stop-color="#F0DBC2"/>
</linearGradient>
<linearGradient id="paint33_linear_2351_328" x1="261.307" y1="206.874" x2="273.407" y2="216.17" gradientUnits="userSpaceOnUse">
<stop offset="0.168737" stop-color="#FFEFDC"/>
<stop offset="0.80404" stop-color="#F0DBC2"/>
</linearGradient>
<linearGradient id="paint34_linear_2351_328" x1="212.148" y1="159.954" x2="224.484" y2="163.704" gradientUnits="userSpaceOnUse">
<stop offset="0.168737" stop-color="#FFEFDC"/>
<stop offset="0.360439" stop-color="#FFF3E3"/>
<stop offset="0.47754" stop-color="#FFEAD1"/>
<stop offset="0.655872" stop-color="#F0DBC0"/>
<stop offset="0.80404" stop-color="#F0DBC2"/>
</linearGradient>
</defs>
</svg>
