<svg width="70" height="70" viewBox="0 0 70 70" fill="none" xmlns="http://www.w3.org/2000/svg">
<rect width="70" height="70" rx="20" fill="#6C7FA7" fill-opacity="0.54"/>
<path d="M34.5 33.125C33.7375 33.125 33.125 33.7375 33.125 34.5C33.125 35.2625 33.7375 35.875 34.5 35.875C35.2625 35.875 35.875 35.2625 35.875 34.5C35.875 33.7375 35.2625 33.125 34.5 33.125ZM34.5 22C27.6 22 22 27.6 22 34.5C22 41.4 27.6 47 34.5 47C41.4 47 47 41.4 47 34.5C47 27.6 41.4 22 34.5 22ZM37.2375 37.2375L27 42L31.7625 31.7625L42 27L37.2375 37.2375Z" fill="#CBFC01"/>
</svg>
