<svg width="276" height="296" viewBox="0 0 276 296" fill="none" xmlns="http://www.w3.org/2000/svg">
<path d="M156.377 135.752L213.156 165.75L201.783 185.476L147.846 150.547L156.377 135.752Z" fill="url(#paint0_linear_2801_1332)"/>
<path d="M146.878 151.69L149.506 216.284L126.881 216.214L129.909 151.638L146.878 151.69Z" fill="url(#paint1_linear_2801_1332)"/>
<path d="M128.56 150.692L74.408 185.287L63.1565 165.49L120.121 135.844L128.56 150.692Z" fill="url(#paint2_linear_2801_1332)"/>
<path d="M156.384 133.358L213.349 103.712L202.097 83.9155L147.945 118.511L156.384 133.358Z" fill="url(#paint3_linear_2801_1332)"/>
<path d="M128.66 118.246L74.7238 83.3164L63.35 103.043L120.13 133.041L128.66 118.246Z" fill="url(#paint4_linear_2801_1332)"/>
<g filter="url(#filter0_dd_2801_1332)">
<path d="M122.891 173.604L154.347 173.701L154.299 189.233L138.546 197.115L122.843 189.135L122.891 173.604Z" fill="url(#paint5_radial_2801_1332)"/>
<path opacity="0.8" fill-rule="evenodd" clip-rule="evenodd" d="M144.064 194.355L138.547 197.116L122.843 189.136L122.888 174.595L127.148 174.608C127.225 174.784 127.303 174.96 127.38 175.136C131.023 183.444 135.023 192.566 144.064 194.355Z" fill="url(#paint6_linear_2801_1332)"/>
<g opacity="0.8" filter="url(#filter1_f_2801_1332)">
<path d="M138.745 186.045L154.17 178.162L154.179 175.188L123.214 175.092L123.205 178.066L138.745 186.045Z" fill="#0E3060"/>
</g>
<g filter="url(#filter2_f_2801_1332)">
<path d="M127.945 181.716C126.409 184.17 126.407 184.851 127.931 186.342C127.658 186.342 127.47 187.233 132.832 190.819C139.536 195.301 145.447 191.023 149.557 186.409C153.667 181.796 152.357 181.791 151.369 183.11C150.382 184.429 148.074 189.049 140.205 190.842C132.335 192.635 134.037 171.986 127.945 181.716Z" fill="url(#paint7_linear_2801_1332)"/>
</g>
<g filter="url(#filter3_d_2801_1332)">
<path d="M138.55 196.124L122.845 188.475L122.842 189.631L138.546 197.281L154.297 189.729L154.301 188.737L138.55 196.124Z" fill="url(#paint8_linear_2801_1332)"/>
<path d="M138.553 195.133L122.848 187.483L122.844 188.97L138.549 196.289L154.3 189.068L154.304 187.746L138.553 195.133Z" fill="url(#paint9_linear_2801_1332)"/>
<path fill-rule="evenodd" clip-rule="evenodd" d="M154.305 187.746L138.388 195.315L122.849 187.648L122.85 187.318L138.391 194.949L154.306 187.415L154.305 187.746Z" fill="#FFC9DB"/>
</g>
<path fill-rule="evenodd" clip-rule="evenodd" d="M153.194 175.68L153.162 186.057L153.033 186.085C152.491 186.205 152.07 186.547 151.782 186.925C151.639 187.114 151.53 187.308 151.459 187.483C151.386 187.661 151.354 187.807 151.354 187.902L151.354 188.01L138.392 193.66L125.659 187.776L125.639 187.702C125.52 187.278 125.242 186.902 124.933 186.601C124.624 186.301 124.294 186.086 124.09 185.982L124 185.936L124.031 175.92L124.358 175.921L124.328 185.736C124.556 185.864 124.867 186.078 125.16 186.363C125.476 186.67 125.782 187.069 125.932 187.538L138.396 193.299L151.034 187.789C151.05 187.659 151.093 187.51 151.156 187.357C151.239 187.155 151.361 186.935 151.522 186.724C151.821 186.331 152.261 185.958 152.835 185.795L152.866 175.679L153.194 175.68Z" fill="url(#paint10_linear_2801_1332)"/>
<path fill-rule="evenodd" clip-rule="evenodd" d="M138.58 186.21L138.56 192.654L138.232 192.653L138.252 186.209L138.58 186.21Z" fill="url(#paint11_linear_2801_1332)"/>
<path fill-rule="evenodd" clip-rule="evenodd" d="M137.421 190.656C136.766 191.412 135.971 191.579 135.424 191.485L135.479 191.159C135.915 191.234 136.595 191.108 137.174 190.439C137.755 189.767 138.245 188.533 138.252 186.374L138.58 186.375C138.573 188.578 138.073 189.902 137.421 190.656Z" fill="url(#paint12_linear_2801_1332)"/>
<path fill-rule="evenodd" clip-rule="evenodd" d="M139.385 190.662C140.035 191.423 140.829 191.594 141.377 191.504L141.324 191.178C140.888 191.25 140.208 191.119 139.634 190.446C139.057 189.771 138.574 188.534 138.58 186.375L138.253 186.374C138.246 188.577 138.738 189.904 139.385 190.662Z" fill="url(#paint13_linear_2801_1332)"/>
<g opacity="0.8" filter="url(#filter4_f_2801_1332)">
<path d="M138.601 179.601L154.17 178.162L154.179 175.188L123.214 175.092L123.205 178.066L138.601 179.601Z" fill="#0E3060"/>
</g>
<path fill-rule="evenodd" clip-rule="evenodd" d="M138.328 192.804L134.633 191.155L135.452 191.157L138.397 192.472L141.35 191.161L142.073 191.163L138.464 192.804C138.42 192.824 138.371 192.824 138.328 192.804Z" fill="url(#paint14_linear_2801_1332)"/>
</g>
<path d="M156.376 135.752L213.156 165.75L201.783 185.476L147.846 150.547L156.376 135.752Z" fill="url(#paint15_linear_2801_1332)"/>
<path d="M146.878 151.69L149.506 216.284L126.881 216.214L129.909 151.638L146.878 151.69Z" fill="url(#paint16_linear_2801_1332)"/>
<path d="M128.56 150.692L74.4079 185.287L63.1565 165.49L120.121 135.844L128.56 150.692Z" fill="url(#paint17_linear_2801_1332)"/>
<path d="M156.384 133.358L213.348 103.712L202.097 83.9155L147.945 118.511L156.384 133.358Z" fill="url(#paint18_linear_2801_1332)"/>
<path d="M128.66 118.246L74.7238 83.3164L63.35 103.043L120.13 133.041L128.66 118.246Z" fill="url(#paint19_linear_2801_1332)"/>
<path d="M122.891 173.603L154.347 173.7L154.299 189.232L138.546 197.115L122.843 189.135L122.891 173.603Z" fill="url(#paint20_radial_2801_1332)"/>
<path opacity="0.8" fill-rule="evenodd" clip-rule="evenodd" d="M144.064 194.354L138.547 197.115L122.843 189.135L122.888 174.595L127.148 174.608C127.225 174.783 127.303 174.959 127.38 175.136C131.023 183.443 135.023 192.566 144.064 194.354Z" fill="url(#paint21_linear_2801_1332)"/>
<g opacity="0.8" filter="url(#filter5_f_2801_1332)">
<path d="M138.745 186.045L154.17 178.161L154.179 175.187L123.214 175.091L123.205 178.065L138.745 186.045Z" fill="#0E3060"/>
</g>
<g filter="url(#filter6_f_2801_1332)">
<path d="M127.945 181.715C126.409 184.169 126.407 184.85 127.931 186.342C127.658 186.341 127.47 187.233 132.832 190.818C139.536 195.3 145.447 191.023 149.557 186.409C153.667 181.795 152.357 181.791 151.369 183.11C150.382 184.429 148.074 189.048 140.205 190.841C132.335 192.634 134.037 171.985 127.945 181.715Z" fill="url(#paint22_linear_2801_1332)"/>
</g>
<g filter="url(#filter7_d_2801_1332)">
<path d="M138.55 196.124L122.845 188.474L122.842 189.631L138.546 197.28L154.298 189.728L154.301 188.737L138.55 196.124Z" fill="url(#paint23_linear_2801_1332)"/>
<path d="M138.553 195.132L122.848 187.483L122.844 188.97L138.549 196.289L154.3 189.067L154.304 187.746L138.553 195.132Z" fill="url(#paint24_linear_2801_1332)"/>
<path fill-rule="evenodd" clip-rule="evenodd" d="M154.305 187.745L138.388 195.315L122.849 187.648L122.85 187.317L138.391 194.948L154.306 187.415L154.305 187.745Z" fill="#FFC9DB"/>
</g>
<path fill-rule="evenodd" clip-rule="evenodd" d="M153.194 175.68L153.162 186.057L153.033 186.085C152.491 186.205 152.07 186.547 151.782 186.925C151.639 187.113 151.53 187.308 151.459 187.483C151.386 187.66 151.354 187.807 151.354 187.901L151.354 188.01L138.392 193.66L125.659 187.775L125.639 187.702C125.52 187.277 125.242 186.901 124.933 186.6C124.624 186.3 124.294 186.086 124.09 185.982L124 185.936L124.031 175.92L124.358 175.921L124.328 185.735C124.557 185.863 124.867 186.078 125.16 186.362C125.476 186.67 125.782 187.068 125.932 187.538L138.396 193.298L151.034 187.789C151.05 187.658 151.093 187.509 151.156 187.356C151.239 187.154 151.361 186.935 151.522 186.723C151.821 186.331 152.261 185.958 152.835 185.795L152.866 175.679L153.194 175.68Z" fill="url(#paint25_linear_2801_1332)"/>
<path fill-rule="evenodd" clip-rule="evenodd" d="M138.58 186.21L138.56 192.654L138.233 192.653L138.252 186.208L138.58 186.21Z" fill="url(#paint26_linear_2801_1332)"/>
<path fill-rule="evenodd" clip-rule="evenodd" d="M137.421 190.655C136.766 191.412 135.971 191.578 135.424 191.485L135.479 191.159C135.915 191.234 136.595 191.107 137.174 190.438C137.755 189.767 138.245 188.533 138.252 186.373L138.58 186.374C138.573 188.577 138.073 189.901 137.421 190.655Z" fill="url(#paint27_linear_2801_1332)"/>
<path fill-rule="evenodd" clip-rule="evenodd" d="M139.385 190.662C140.035 191.422 140.829 191.594 141.377 191.503L141.324 191.177C140.888 191.249 140.208 191.118 139.634 190.446C139.057 189.771 138.574 188.534 138.58 186.375L138.253 186.374C138.246 188.576 138.738 189.904 139.385 190.662Z" fill="url(#paint28_linear_2801_1332)"/>
<g opacity="0.8" filter="url(#filter8_f_2801_1332)">
<path d="M138.601 179.6L154.17 178.161L154.179 175.187L123.214 175.091L123.205 178.065L138.601 179.6Z" fill="#0E3060"/>
</g>
<path fill-rule="evenodd" clip-rule="evenodd" d="M138.328 192.803L134.633 191.154L135.452 191.157L138.397 192.472L141.35 191.16L142.073 191.163L138.464 192.804C138.42 192.824 138.371 192.823 138.328 192.803Z" fill="url(#paint29_linear_2801_1332)"/>
<g filter="url(#filter9_dd_2801_1332)">
<g filter="url(#filter10_d_2801_1332)">
<path d="M125.336 95.5986L110.853 103.477C102.312 108.123 96.9955 117.068 96.9955 126.79L96.9955 145.947C96.9955 155.669 102.312 164.614 110.853 169.26L125.336 177.138C133.243 181.44 142.792 181.44 150.7 177.138L165.183 169.26C173.724 164.614 179.04 155.669 179.04 145.947L179.04 126.79C179.04 117.068 173.724 108.123 165.183 103.477L150.7 95.5986C142.792 91.297 133.243 91.297 125.336 95.5986Z" fill="url(#paint30_linear_2801_1332)"/>
<path d="M125.335 102.792L117.036 107.307C108.528 111.935 103.231 120.846 103.231 130.532L103.231 142.039C103.231 151.725 108.528 160.636 117.036 165.264L125.335 169.778C133.212 174.064 142.726 174.064 150.603 169.778L158.902 165.264C167.41 160.636 172.707 151.725 172.707 142.039L172.707 130.532C172.707 120.846 167.41 111.935 158.902 107.307L150.603 102.792C142.726 98.5069 133.212 98.5069 125.335 102.792Z" fill="url(#paint31_linear_2801_1332)"/>
<g filter="url(#filter11_f_2801_1332)">
<path d="M125.335 102.792L117.036 107.307C108.528 111.935 103.231 120.846 103.231 130.532L103.231 142.039C103.231 151.725 108.528 160.636 117.036 165.264L125.335 169.778C133.212 174.064 142.726 174.064 150.603 169.778L158.902 165.264C167.41 160.636 172.707 151.725 172.707 142.039L172.707 130.532C172.707 120.846 167.41 111.935 158.902 107.307L150.603 102.792C142.726 98.5069 133.212 98.5069 125.335 102.792Z" stroke="url(#paint32_linear_2801_1332)" stroke-width="1.56112"/>
</g>
<g opacity="0.5">
<mask id="mask0_2801_1332" style="mask-type:alpha" maskUnits="userSpaceOnUse" x="106" y="102" width="65" height="69">
<path d="M126.173 105.728L119.325 109.45C111.227 113.852 106.185 122.33 106.185 131.547L106.185 141.152C106.185 150.369 111.227 158.847 119.325 163.248L126.173 166.97C133.662 171.041 142.703 171.041 150.192 166.97L157.04 163.248C165.138 158.847 170.18 150.369 170.18 141.152L170.18 131.547C170.18 122.33 165.138 113.852 157.04 109.45L150.192 105.728C142.703 101.658 133.662 101.658 126.173 105.728Z" fill="#A6D3DE"/>
</mask>
<g mask="url(#mask0_2801_1332)">
<path d="M126.173 105.728L119.325 109.45C111.227 113.852 106.185 122.33 106.185 131.547L106.185 141.152C106.185 150.369 111.227 158.847 119.325 163.248L126.173 166.97C133.662 171.041 142.703 171.041 150.192 166.97L157.04 163.248C165.138 158.847 170.18 150.369 170.18 141.152L170.18 131.547C170.18 122.33 165.138 113.852 157.04 109.45L150.192 105.728C142.703 101.658 133.662 101.658 126.173 105.728Z" fill="url(#paint33_radial_2801_1332)"/>
<path opacity="0.5" d="M132.833 174.965L131.562 97.73H144.802L143.531 174.965H132.833Z" fill="url(#paint34_linear_2801_1332)"/>
<path opacity="0.5" d="M132.663 174.28L92.9447 108.028L104.411 101.408L141.928 168.931L132.663 174.28Z" fill="url(#paint35_linear_2801_1332)"/>
<path opacity="0.5" d="M131.559 168.931L169.076 101.408L180.543 108.028L140.824 174.28L131.559 168.931Z" fill="url(#paint36_linear_2801_1332)"/>
<rect x="106.185" y="131.934" width="63.9948" height="41.5598" fill="url(#paint37_linear_2801_1332)"/>
<g filter="url(#filter12_i_2801_1332)">
<path d="M126.173 105.728L119.325 109.45C111.227 113.852 106.185 122.33 106.185 131.547L106.185 141.152C106.185 150.369 111.227 158.847 119.325 163.248L126.173 166.97C133.662 171.041 142.703 171.041 150.192 166.97L157.04 163.248C165.138 158.847 170.18 150.369 170.18 141.152L170.18 131.547C170.18 122.33 165.138 113.852 157.04 109.45L150.192 105.728C142.703 101.658 133.662 101.658 126.173 105.728Z" fill="#6052B4" fill-opacity="0.01"/>
</g>
</g>
</g>
</g>
<g filter="url(#filter13_d_2801_1332)">
<rect x="117.343" y="126.899" width="41.3505" height="25.9416" rx="5.56703" fill="url(#paint38_linear_2801_1332)"/>
<rect x="117.343" y="125.534" width="41.3505" height="26.8187" rx="5.56703" fill="url(#paint39_linear_2801_1332)"/>
<path fill-rule="evenodd" clip-rule="evenodd" d="M157.619 126.259H118.417C118.219 126.259 118.059 126.421 118.059 126.621V151.265C118.059 151.465 118.219 151.628 118.417 151.628H157.619C157.817 151.628 157.977 151.465 157.977 151.265V126.621C157.977 126.421 157.817 126.259 157.619 126.259ZM118.417 125.534C117.824 125.534 117.343 126.02 117.343 126.621V151.265C117.343 151.866 117.824 152.352 118.417 152.352H157.619C158.212 152.352 158.693 151.866 158.693 151.265V126.621C158.693 126.02 158.212 125.534 157.619 125.534H118.417Z" fill="url(#paint40_linear_2801_1332)"/>
<g filter="url(#filter14_d_2801_1332)">
<path d="M121.049 122.608L119.879 124.251V150.11H138.018V122.608C132.247 118.756 128.652 120.123 121.049 122.608Z" fill="url(#paint41_linear_2801_1332)"/>
<path d="M128.265 142.308L121.049 148.549L119.878 150.11L138.018 150.207V145.331L136.555 143.283L128.265 142.308Z" fill="url(#paint42_linear_2801_1332)"/>
<path fill-rule="evenodd" clip-rule="evenodd" d="M154.987 122.608L156.158 124.251V150.11L154.89 149.639C147.287 147.153 143.789 146.258 138.018 150.11V122.608C143.789 118.756 147.384 120.123 154.987 122.608Z" fill="url(#paint43_linear_2801_1332)"/>
<path d="M147.771 142.308L154.987 148.549L156.158 150.11L138.018 150.207V145.331L139.481 143.283L147.771 142.308Z" fill="url(#paint44_linear_2801_1332)"/>
<path fill-rule="evenodd" clip-rule="evenodd" d="M121.118 122.837L121.049 122.86V148.55L121.118 148.526C128.484 147.216 132.465 146.555 138.018 148.55V122.86C132.439 119.033 128.468 120.368 121.118 122.837Z" fill="url(#paint45_linear_2801_1332)"/>
<path fill-rule="evenodd" clip-rule="evenodd" d="M154.918 122.837L154.987 122.86V148.55L154.918 148.526C147.539 147.384 143.559 146.424 138.018 148.55V122.86C143.597 119.033 147.568 120.368 154.918 122.837Z" fill="url(#paint46_linear_2801_1332)"/>
<g opacity="0.4" filter="url(#filter15_f_2801_1332)">
<path d="M154.917 122.837L154.918 122.837L154.917 122.837ZM154.917 122.837L154.917 122.839L154.917 122.837ZM138.946 146.879C141.31 145.559 143.5 145.103 145.862 145.251C148.321 145.406 150.942 146.219 154.059 147.26V123.527C150.632 122.378 148.08 121.56 145.746 121.413C143.488 121.272 141.405 121.761 138.946 123.356V146.879Z" stroke="white" stroke-opacity="0.1" stroke-width="1.85568"/>
</g>
<g opacity="0.3" filter="url(#filter16_f_2801_1332)">
<rect x="137.92" y="122.803" width="0.195049" height="25.7465" fill="#DEE4F3"/>
</g>
</g>
</g>
<g filter="url(#filter17_f_2801_1332)">
<path d="M159.595 149.616L172.694 165.326L179.75 153.105L159.595 149.616Z" fill="url(#paint47_linear_2801_1332)"/>
</g>
<mask id="mask1_2801_1332" style="mask-type:alpha" maskUnits="userSpaceOnUse" x="165" y="152" width="17" height="15">
<path fill-rule="evenodd" clip-rule="evenodd" d="M172.757 165.822C173.226 166.687 174.368 166.908 175.125 166.28L180.67 161.686C180.67 161.686 180.67 161.686 180.67 161.686V161.686C180.67 161.686 180.67 161.686 180.67 161.685L181.876 154.588C182.041 153.618 181.278 152.739 180.295 152.766L165.898 153.157C165.898 153.157 165.897 153.157 165.897 153.157L165.894 153.155C165.893 153.154 165.892 153.155 165.892 153.156V153.156C165.893 153.156 165.892 153.157 165.892 153.157L165.843 153.158C165.813 153.159 165.802 153.2 165.829 153.215L165.95 153.284C165.961 153.291 165.971 153.3 165.977 153.312L172.757 165.822Z" fill="url(#paint48_linear_2801_1332)"/>
</mask>
<g mask="url(#mask1_2801_1332)">
<path d="M180.956 161.904L173.719 167.492L164.348 152.237L180.956 161.904Z" fill="url(#paint49_linear_2801_1332)"/>
<path d="M180.956 161.904L182.176 152.843L164.737 152.54L180.956 161.904Z" fill="url(#paint50_linear_2801_1332)"/>
</g>
<g filter="url(#filter18_f_2801_1332)">
<path d="M138.346 112L131.29 92.8018H145.402L138.346 112Z" fill="url(#paint51_linear_2801_1332)"/>
</g>
<mask id="mask2_2801_1332" style="mask-type:alpha" maskUnits="userSpaceOnUse" x="131" y="88" width="15" height="18">
<path fill-rule="evenodd" clip-rule="evenodd" d="M138.354 88C138.354 88 138.354 88 138.354 88L138.354 88C138.354 88 138.354 88 138.354 88.0001V88.0001C138.354 88.0001 138.354 88.0001 138.354 88.0001L143.323 89.8435C145.168 90.5278 145.927 92.7273 144.898 94.4042L138.354 105.065C138.354 105.065 138.354 105.065 138.354 105.065L138.354 105.065C138.354 105.065 138.354 105.065 138.354 105.065V105.065C138.354 105.065 138.354 105.065 138.354 105.065V105.065C138.353 105.065 138.353 105.065 138.353 105.065L138.353 105.065C138.353 105.065 138.353 105.065 138.353 105.065L131.809 94.4042C130.78 92.7273 131.54 90.5278 133.384 89.8435L138.353 88.0001C138.353 88.0001 138.353 88.0001 138.353 88.0001V88.0001C138.353 88 138.353 88 138.353 88L138.354 88Z" fill="url(#paint52_linear_2801_1332)"/>
</mask>
<g mask="url(#mask2_2801_1332)">
<path d="M138.4 87.6431L146.857 91.1168L138.4 106.371L138.4 87.6431Z" fill="url(#paint53_linear_2801_1332)"/>
<path d="M138.4 87.6436L129.942 91.1173L138.4 106.371L138.4 87.6436Z" fill="url(#paint54_linear_2801_1332)"/>
</g>
<g filter="url(#filter19_f_2801_1332)">
<path d="M116.493 149.617L103.395 165.327L96.3389 153.106L116.493 149.617Z" fill="url(#paint55_linear_2801_1332)"/>
</g>
<mask id="mask3_2801_1332" style="mask-type:alpha" maskUnits="userSpaceOnUse" x="94" y="152" width="17" height="14">
<path fill-rule="evenodd" clip-rule="evenodd" d="M97.7589 152.936C95.792 152.883 94.267 154.64 94.5967 156.58L95.4731 161.736C95.4788 161.77 95.5165 161.787 95.5461 161.77V161.77V161.77C95.5165 161.787 95.513 161.829 95.5394 161.851L99.5901 165.207C101.097 166.456 103.369 166.026 104.315 164.313L110.357 153.376C110.399 153.299 110.314 153.215 110.238 153.259V153.259C110.224 153.267 110.208 153.271 110.192 153.271L97.7589 152.936Z" fill="url(#paint56_linear_2801_1332)"/>
</mask>
<g mask="url(#mask3_2801_1332)">
<path d="M95.2813 162.167L102.377 167.645L111.183 152.986L95.2813 162.167Z" fill="url(#paint57_linear_2801_1332)"/>
<path d="M95.329 162.392L93.9786 152.962L110.592 153.322L95.329 162.392Z" fill="url(#paint58_linear_2801_1332)"/>
</g>
<g filter="url(#filter20_d_2801_1332)">
<path d="M138.182 134.525H130.47L138.182 142.241V134.525Z" fill="url(#paint59_linear_2801_1332)"/>
<path d="M138.182 134.525V126.809L145.894 134.525H138.182Z" fill="url(#paint60_linear_2801_1332)"/>
<path d="M138.182 134.525V142.241L145.894 134.525H138.182Z" fill="url(#paint61_linear_2801_1332)"/>
<path d="M138.182 134.525H130.47L138.182 126.809V134.525Z" fill="url(#paint62_linear_2801_1332)"/>
<rect width="5.45463" height="5.45463" transform="matrix(0.706939 -0.707274 0.706939 0.707274 134.326 134.525)" fill="url(#paint63_linear_2801_1332)"/>
<path fill-rule="evenodd" clip-rule="evenodd" d="M134.212 134.525L138.182 130.553L142.152 134.525L138.182 138.497L134.212 134.525ZM134.44 134.525L138.182 138.269L141.924 134.525L138.182 130.781L134.44 134.525Z" fill="url(#paint64_linear_2801_1332)"/>
<path d="M134.624 138.02C132.527 136.931 131.599 135.358 131.115 134.552H130.51L131.317 135.358L137.124 141.206V141.044C136.511 139.464 137.5 138.517 138.051 138.262L137.325 137.536C137.352 138.087 136.737 139.117 134.624 138.02Z" fill="#93E8FF"/>
<path opacity="0.2" fill-rule="evenodd" clip-rule="evenodd" d="M137.292 135.97C138.195 136.792 139.396 137.294 140.713 137.294C142.872 137.294 144.716 135.947 145.452 134.048L138.877 127.473C136.978 128.209 135.632 130.054 135.632 132.213C135.632 133.53 136.133 134.73 136.955 135.633L137.292 135.97Z" fill="#74E4FF"/>
<path d="M139.342 131.729L138.293 130.68C140.352 130.997 139.09 128.309 138.221 126.849L141.6 130.196L144.947 133.584L141.802 131.648C138.672 129.745 138.871 130.895 139.342 131.729Z" fill="url(#paint65_linear_2801_1332)"/>
<g filter="url(#filter21_f_2801_1332)">
<path d="M138.213 129.067L138.302 130.592L139.826 130.68L138.302 130.769L138.213 132.294L138.124 130.769L136.6 130.68L138.124 130.592L138.213 129.067Z" fill="white"/>
</g>
<path d="M138.213 129.067L138.302 130.592L139.826 130.68L138.302 130.769L138.213 132.294L138.124 130.769L136.6 130.68L138.124 130.592L138.213 129.067Z" fill="white"/>
</g>
</g>
<defs>
<filter id="filter0_dd_2801_1332" x="31.0053" y="87.8897" width="215.178" height="207.35" filterUnits="userSpaceOnUse" color-interpolation-filters="sRGB">
<feFlood flood-opacity="0" result="BackgroundImageFix"/>
<feColorMatrix in="SourceAlpha" type="matrix" values="0 0 0 0 0 0 0 0 0 0 0 0 0 0 0 0 0 0 127 0" result="hardAlpha"/>
<feOffset/>
<feGaussianBlur stdDeviation="15.306"/>
<feColorMatrix type="matrix" values="0 0 0 0 1 0 0 0 0 0.520833 0 0 0 0 0.687984 0 0 0 1 0"/>
<feBlend mode="normal" in2="BackgroundImageFix" result="effect1_dropShadow_2801_1332"/>
<feColorMatrix in="SourceAlpha" type="matrix" values="0 0 0 0 0 0 0 0 0 0 0 0 0 0 0 0 0 0 127 0" result="hardAlpha"/>
<feOffset dy="6.12241"/>
<feGaussianBlur stdDeviation="45.9181"/>
<feColorMatrix type="matrix" values="0 0 0 0 0.991667 0 0 0 0 0.44625 0 0 0 0 0.636512 0 0 0 0.6 0"/>
<feBlend mode="normal" in2="effect1_dropShadow_2801_1332" result="effect2_dropShadow_2801_1332"/>
<feBlend mode="normal" in="SourceGraphic" in2="effect2_dropShadow_2801_1332" result="shape"/>
</filter>
<filter id="filter1_f_2801_1332" x="118.743" y="170.629" width="39.8986" height="19.8786" filterUnits="userSpaceOnUse" color-interpolation-filters="sRGB">
<feFlood flood-opacity="0" result="BackgroundImageFix"/>
<feBlend mode="normal" in="SourceGraphic" in2="BackgroundImageFix" result="shape"/>
<feGaussianBlur stdDeviation="2.23124" result="effect1_foregroundBlur_2801_1332"/>
</filter>
<filter id="filter2_f_2801_1332" x="117.865" y="170.172" width="43.439" height="31.4676" filterUnits="userSpaceOnUse" color-interpolation-filters="sRGB">
<feFlood flood-opacity="0" result="BackgroundImageFix"/>
<feBlend mode="normal" in="SourceGraphic" in2="BackgroundImageFix" result="shape"/>
<feGaussianBlur stdDeviation="4.46249" result="effect1_foregroundBlur_2801_1332"/>
</filter>
<filter id="filter3_d_2801_1332" x="119.495" y="179.509" width="38.1578" height="17.7722" filterUnits="userSpaceOnUse" color-interpolation-filters="sRGB">
<feFlood flood-opacity="0" result="BackgroundImageFix"/>
<feColorMatrix in="SourceAlpha" type="matrix" values="0 0 0 0 0 0 0 0 0 0 0 0 0 0 0 0 0 0 127 0" result="hardAlpha"/>
<feOffset dy="-4.46249"/>
<feGaussianBlur stdDeviation="1.67343"/>
<feColorMatrix type="matrix" values="0 0 0 0 0 0 0 0 0 0 0 0 0 0 0 0 0 0 0.25 0"/>
<feBlend mode="normal" in2="BackgroundImageFix" result="effect1_dropShadow_2801_1332"/>
<feBlend mode="normal" in="SourceGraphic" in2="effect1_dropShadow_2801_1332" result="shape"/>
</filter>
<filter id="filter4_f_2801_1332" x="118.743" y="170.629" width="39.8986" height="13.4338" filterUnits="userSpaceOnUse" color-interpolation-filters="sRGB">
<feFlood flood-opacity="0" result="BackgroundImageFix"/>
<feBlend mode="normal" in="SourceGraphic" in2="BackgroundImageFix" result="shape"/>
<feGaussianBlur stdDeviation="2.23124" result="effect1_foregroundBlur_2801_1332"/>
</filter>
<filter id="filter5_f_2801_1332" x="118.743" y="170.629" width="39.8986" height="19.8786" filterUnits="userSpaceOnUse" color-interpolation-filters="sRGB">
<feFlood flood-opacity="0" result="BackgroundImageFix"/>
<feBlend mode="normal" in="SourceGraphic" in2="BackgroundImageFix" result="shape"/>
<feGaussianBlur stdDeviation="2.23124" result="effect1_foregroundBlur_2801_1332"/>
</filter>
<filter id="filter6_f_2801_1332" x="117.865" y="170.172" width="43.439" height="31.4676" filterUnits="userSpaceOnUse" color-interpolation-filters="sRGB">
<feFlood flood-opacity="0" result="BackgroundImageFix"/>
<feBlend mode="normal" in="SourceGraphic" in2="BackgroundImageFix" result="shape"/>
<feGaussianBlur stdDeviation="4.46249" result="effect1_foregroundBlur_2801_1332"/>
</filter>
<filter id="filter7_d_2801_1332" x="119.495" y="179.508" width="38.1578" height="17.7722" filterUnits="userSpaceOnUse" color-interpolation-filters="sRGB">
<feFlood flood-opacity="0" result="BackgroundImageFix"/>
<feColorMatrix in="SourceAlpha" type="matrix" values="0 0 0 0 0 0 0 0 0 0 0 0 0 0 0 0 0 0 127 0" result="hardAlpha"/>
<feOffset dy="-4.46249"/>
<feGaussianBlur stdDeviation="1.67343"/>
<feColorMatrix type="matrix" values="0 0 0 0 0 0 0 0 0 0 0 0 0 0 0 0 0 0 0.25 0"/>
<feBlend mode="normal" in2="BackgroundImageFix" result="effect1_dropShadow_2801_1332"/>
<feBlend mode="normal" in="SourceGraphic" in2="effect1_dropShadow_2801_1332" result="shape"/>
</filter>
<filter id="filter8_f_2801_1332" x="118.743" y="170.629" width="39.8986" height="13.4338" filterUnits="userSpaceOnUse" color-interpolation-filters="sRGB">
<feFlood flood-opacity="0" result="BackgroundImageFix"/>
<feBlend mode="normal" in="SourceGraphic" in2="BackgroundImageFix" result="shape"/>
<feGaussianBlur stdDeviation="2.23124" result="effect1_foregroundBlur_2801_1332"/>
</filter>
<filter id="filter9_dd_2801_1332" x="0.884224" y="0.577018" width="274.682" height="279.699" filterUnits="userSpaceOnUse" color-interpolation-filters="sRGB">
<feFlood flood-opacity="0" result="BackgroundImageFix"/>
<feColorMatrix in="SourceAlpha" type="matrix" values="0 0 0 0 0 0 0 0 0 0 0 0 0 0 0 0 0 0 127 0" result="hardAlpha"/>
<feOffset/>
<feGaussianBlur stdDeviation="15.6112"/>
<feColorMatrix type="matrix" values="0 0 0 0 0.898039 0 0 0 0 0.490196 0 0 0 0 0.631373 0 0 0 1 0"/>
<feBlend mode="normal" in2="BackgroundImageFix" result="effect1_dropShadow_2801_1332"/>
<feColorMatrix in="SourceAlpha" type="matrix" values="0 0 0 0 0 0 0 0 0 0 0 0 0 0 0 0 0 0 127 0" result="hardAlpha"/>
<feOffset dy="6.2445"/>
<feGaussianBlur stdDeviation="46.8337"/>
<feColorMatrix type="matrix" values="0 0 0 0 0.898039 0 0 0 0 0.490196 0 0 0 0 0.631373 0 0 0 0.6 0"/>
<feBlend mode="normal" in2="effect1_dropShadow_2801_1332" result="effect2_dropShadow_2801_1332"/>
<feBlend mode="normal" in="SourceGraphic" in2="effect2_dropShadow_2801_1332" result="shape"/>
</filter>
<filter id="filter10_d_2801_1332" x="81.3842" y="76.7613" width="113.267" height="119.214" filterUnits="userSpaceOnUse" color-interpolation-filters="sRGB">
<feFlood flood-opacity="0" result="BackgroundImageFix"/>
<feColorMatrix in="SourceAlpha" type="matrix" values="0 0 0 0 0 0 0 0 0 0 0 0 0 0 0 0 0 0 127 0" result="hardAlpha"/>
<feOffset/>
<feGaussianBlur stdDeviation="7.80562"/>
<feColorMatrix type="matrix" values="0 0 0 0 0.898039 0 0 0 0 0.490196 0 0 0 0 0.631373 0 0 0 0.25 0"/>
<feBlend mode="normal" in2="BackgroundImageFix" result="effect1_dropShadow_2801_1332"/>
<feBlend mode="normal" in="SourceGraphic" in2="effect1_dropShadow_2801_1332" result="shape"/>
</filter>
<filter id="filter11_f_2801_1332" x="101.982" y="98.3295" width="71.9732" height="75.9118" filterUnits="userSpaceOnUse" color-interpolation-filters="sRGB">
<feFlood flood-opacity="0" result="BackgroundImageFix"/>
<feBlend mode="normal" in="SourceGraphic" in2="BackgroundImageFix" result="shape"/>
<feGaussianBlur stdDeviation="0.234169" result="effect1_foregroundBlur_2801_1332"/>
</filter>
<filter id="filter12_i_2801_1332" x="106.185" y="102.676" width="63.9948" height="67.3472" filterUnits="userSpaceOnUse" color-interpolation-filters="sRGB">
<feFlood flood-opacity="0" result="BackgroundImageFix"/>
<feBlend mode="normal" in="SourceGraphic" in2="BackgroundImageFix" result="shape"/>
<feColorMatrix in="SourceAlpha" type="matrix" values="0 0 0 0 0 0 0 0 0 0 0 0 0 0 0 0 0 0 127 0" result="hardAlpha"/>
<feOffset/>
<feGaussianBlur stdDeviation="10.4972"/>
<feComposite in2="hardAlpha" operator="arithmetic" k2="-1" k3="1"/>
<feColorMatrix type="matrix" values="0 0 0 0 0.297222 0 0 0 0 0.329917 0 0 0 0 0.445833 0 0 0 1 0"/>
<feBlend mode="normal" in2="shape" result="effect1_innerShadow_2801_1332"/>
</filter>
<filter id="filter13_d_2801_1332" x="104.854" y="113.96" width="66.3286" height="57.6142" filterUnits="userSpaceOnUse" color-interpolation-filters="sRGB">
<feFlood flood-opacity="0" result="BackgroundImageFix"/>
<feColorMatrix in="SourceAlpha" type="matrix" values="0 0 0 0 0 0 0 0 0 0 0 0 0 0 0 0 0 0 127 0" result="hardAlpha"/>
<feOffset dy="6.2445"/>
<feGaussianBlur stdDeviation="6.2445"/>
<feColorMatrix type="matrix" values="0 0 0 0 0.504687 0 0 0 0 0.517969 0 0 0 0 0.6375 0 0 0 1 0"/>
<feBlend mode="normal" in2="BackgroundImageFix" result="effect1_dropShadow_2801_1332"/>
<feBlend mode="normal" in="SourceGraphic" in2="effect1_dropShadow_2801_1332" result="shape"/>
</filter>
<filter id="filter14_d_2801_1332" x="114.311" y="117.421" width="47.4134" height="41.1365" filterUnits="userSpaceOnUse" color-interpolation-filters="sRGB">
<feFlood flood-opacity="0" result="BackgroundImageFix"/>
<feColorMatrix in="SourceAlpha" type="matrix" values="0 0 0 0 0 0 0 0 0 0 0 0 0 0 0 0 0 0 127 0" result="hardAlpha"/>
<feOffset dy="2.78351"/>
<feGaussianBlur stdDeviation="2.78351"/>
<feColorMatrix type="matrix" values="0 0 0 0 0.426562 0 0 0 0 0.464625 0 0 0 0 0.5625 0 0 0 0.71 0"/>
<feBlend mode="normal" in2="BackgroundImageFix" result="effect1_dropShadow_2801_1332"/>
<feBlend mode="normal" in="SourceGraphic" in2="effect1_dropShadow_2801_1332" result="shape"/>
</filter>
<filter id="filter15_f_2801_1332" x="136.162" y="118.607" width="20.6806" height="31.7983" filterUnits="userSpaceOnUse" color-interpolation-filters="sRGB">
<feFlood flood-opacity="0" result="BackgroundImageFix"/>
<feBlend mode="normal" in="SourceGraphic" in2="BackgroundImageFix" result="shape"/>
<feGaussianBlur stdDeviation="0.927838" result="effect1_foregroundBlur_2801_1332"/>
</filter>
<filter id="filter16_f_2801_1332" x="136.992" y="121.875" width="2.05073" height="27.6023" filterUnits="userSpaceOnUse" color-interpolation-filters="sRGB">
<feFlood flood-opacity="0" result="BackgroundImageFix"/>
<feBlend mode="normal" in="SourceGraphic" in2="BackgroundImageFix" result="shape"/>
<feGaussianBlur stdDeviation="0.463919" result="effect1_foregroundBlur_2801_1332"/>
</filter>
<filter id="filter17_f_2801_1332" x="153.351" y="143.372" width="32.6432" height="28.199" filterUnits="userSpaceOnUse" color-interpolation-filters="sRGB">
<feFlood flood-opacity="0" result="BackgroundImageFix"/>
<feBlend mode="normal" in="SourceGraphic" in2="BackgroundImageFix" result="shape"/>
<feGaussianBlur stdDeviation="3.12225" result="effect1_foregroundBlur_2801_1332"/>
</filter>
<filter id="filter18_f_2801_1332" x="125.046" y="86.5573" width="26.6007" height="31.6872" filterUnits="userSpaceOnUse" color-interpolation-filters="sRGB">
<feFlood flood-opacity="0" result="BackgroundImageFix"/>
<feBlend mode="normal" in="SourceGraphic" in2="BackgroundImageFix" result="shape"/>
<feGaussianBlur stdDeviation="3.12225" result="effect1_foregroundBlur_2801_1332"/>
</filter>
<filter id="filter19_f_2801_1332" x="90.0944" y="143.372" width="32.6432" height="28.199" filterUnits="userSpaceOnUse" color-interpolation-filters="sRGB">
<feFlood flood-opacity="0" result="BackgroundImageFix"/>
<feBlend mode="normal" in="SourceGraphic" in2="BackgroundImageFix" result="shape"/>
<feGaussianBlur stdDeviation="3.12225" result="effect1_foregroundBlur_2801_1332"/>
</filter>
<filter id="filter20_d_2801_1332" x="121.103" y="123.646" width="34.1579" height="34.2057" filterUnits="userSpaceOnUse" color-interpolation-filters="sRGB">
<feFlood flood-opacity="0" result="BackgroundImageFix"/>
<feColorMatrix in="SourceAlpha" type="matrix" values="0 0 0 0 0 0 0 0 0 0 0 0 0 0 0 0 0 0 127 0" result="hardAlpha"/>
<feOffset dy="6.2445"/>
<feGaussianBlur stdDeviation="4.68337"/>
<feColorMatrix type="matrix" values="0 0 0 0 0.300885 0 0 0 0 0.402137 0 0 0 0 0.6625 0 0 0 0.85 0"/>
<feBlend mode="normal" in2="BackgroundImageFix" result="effect1_dropShadow_2801_1332"/>
<feBlend mode="normal" in="SourceGraphic" in2="effect1_dropShadow_2801_1332" result="shape"/>
</filter>
<filter id="filter21_f_2801_1332" x="135.065" y="127.533" width="6.29547" height="6.2954" filterUnits="userSpaceOnUse" color-interpolation-filters="sRGB">
<feFlood flood-opacity="0" result="BackgroundImageFix"/>
<feBlend mode="normal" in="SourceGraphic" in2="BackgroundImageFix" result="shape"/>
<feGaussianBlur stdDeviation="0.76733" result="effect1_foregroundBlur_2801_1332"/>
</filter>
<linearGradient id="paint0_linear_2801_1332" x1="207.469" y1="175.613" x2="151.875" y2="143.559" gradientUnits="userSpaceOnUse">
<stop stop-color="#FFDAE7" stop-opacity="0"/>
<stop offset="1" stop-color="#FFC1D7" stop-opacity="0.4"/>
</linearGradient>
<linearGradient id="paint1_linear_2801_1332" x1="138.193" y1="216.249" x2="138.393" y2="151.664" gradientUnits="userSpaceOnUse">
<stop stop-color="#FFDAE7" stop-opacity="0"/>
<stop offset="1" stop-color="#FFC1D7" stop-opacity="0.4"/>
</linearGradient>
<linearGradient id="paint2_linear_2801_1332" x1="68.7823" y1="175.388" x2="124.574" y2="143.679" gradientUnits="userSpaceOnUse">
<stop stop-color="#FFDAE7" stop-opacity="0"/>
<stop offset="1" stop-color="#FFC1D7" stop-opacity="0.4"/>
</linearGradient>
<linearGradient id="paint3_linear_2801_1332" x1="207.723" y1="93.8137" x2="151.931" y2="125.523" gradientUnits="userSpaceOnUse">
<stop stop-color="#FFDAE7" stop-opacity="0"/>
<stop offset="1" stop-color="#FFC1D7" stop-opacity="0.4"/>
</linearGradient>
<linearGradient id="paint4_linear_2801_1332" x1="69.0369" y1="93.1796" x2="124.631" y2="125.234" gradientUnits="userSpaceOnUse">
<stop stop-color="#FFDAE7" stop-opacity="0"/>
<stop offset="1" stop-color="#FFC1D7" stop-opacity="0.4"/>
</linearGradient>
<radialGradient id="paint5_radial_2801_1332" cx="0" cy="0" r="1" gradientUnits="userSpaceOnUse" gradientTransform="translate(129.917 179.739) rotate(50.7597) scale(16.2552 18.3195)">
<stop offset="0.432002" stop-color="#023580"/>
<stop offset="1" stop-color="#0D3D78"/>
</radialGradient>
<linearGradient id="paint6_linear_2801_1332" x1="133.362" y1="178.263" x2="122.198" y2="188.506" gradientUnits="userSpaceOnUse">
<stop offset="0.213533" stop-color="#042861"/>
<stop offset="0.574194" stop-color="#195294"/>
<stop offset="1" stop-color="#063988"/>
<stop offset="1" stop-color="#063988"/>
<stop offset="1" stop-color="#063988"/>
</linearGradient>
<linearGradient id="paint7_linear_2801_1332" x1="128.921" y1="184.197" x2="149.083" y2="190.605" gradientUnits="userSpaceOnUse">
<stop stop-color="#4680B6" stop-opacity="0.1"/>
<stop offset="0.421859" stop-color="#5693CB"/>
<stop offset="1" stop-color="#4680B6" stop-opacity="0.45"/>
</linearGradient>
<linearGradient id="paint8_linear_2801_1332" x1="132.332" y1="193.626" x2="148.243" y2="200.353" gradientUnits="userSpaceOnUse">
<stop stop-color="#59293A"/>
<stop offset="1" stop-color="#8A4F64"/>
</linearGradient>
<linearGradient id="paint9_linear_2801_1332" x1="133.164" y1="189.498" x2="127.384" y2="193.565" gradientUnits="userSpaceOnUse">
<stop stop-color="#D585A1"/>
<stop offset="0.309893" stop-color="#FFDCE8"/>
<stop offset="0.523799" stop-color="#F9C1D4"/>
<stop offset="0.613641" stop-color="#D2829E"/>
<stop offset="1" stop-color="#D687A3"/>
</linearGradient>
<linearGradient id="paint10_linear_2801_1332" x1="133.587" y1="179.956" x2="126.318" y2="182.294" gradientUnits="userSpaceOnUse">
<stop stop-color="#DC89A6"/>
<stop offset="0.309893" stop-color="#FFDDE9"/>
<stop offset="0.523799" stop-color="#F9C3D6"/>
<stop offset="0.613641" stop-color="#D1809C"/>
<stop offset="1" stop-color="#D17E9B"/>
</linearGradient>
<linearGradient id="paint11_linear_2801_1332" x1="138.416" y1="186.209" x2="138.396" y2="192.654" gradientUnits="userSpaceOnUse">
<stop stop-color="#FFE0EB" stop-opacity="0"/>
<stop offset="0.479167" stop-color="#FFB6CF"/>
<stop offset="1" stop-color="#E67DA1"/>
</linearGradient>
<linearGradient id="paint12_linear_2801_1332" x1="137.01" y1="186.37" x2="136.994" y2="191.513" gradientUnits="userSpaceOnUse">
<stop stop-color="#FFE0EB" stop-opacity="0"/>
<stop offset="0.479167" stop-color="#FFB6CF"/>
<stop offset="1" stop-color="#E67DA1"/>
</linearGradient>
<linearGradient id="paint13_linear_2801_1332" x1="139.822" y1="186.379" x2="139.807" y2="191.522" gradientUnits="userSpaceOnUse">
<stop stop-color="#FFE0EB" stop-opacity="0"/>
<stop offset="0.479167" stop-color="#FFB6CF"/>
<stop offset="1" stop-color="#E67DA1"/>
</linearGradient>
<linearGradient id="paint14_linear_2801_1332" x1="136.272" y1="190.83" x2="133.877" y2="191.965" gradientUnits="userSpaceOnUse">
<stop stop-color="#DA8AA6"/>
<stop offset="0.309893" stop-color="#FFD9E6"/>
<stop offset="0.523799" stop-color="#FDC5D9"/>
<stop offset="0.613641" stop-color="#D5829F"/>
<stop offset="1" stop-color="#D286A1"/>
</linearGradient>
<linearGradient id="paint15_linear_2801_1332" x1="207.469" y1="175.613" x2="151.875" y2="143.559" gradientUnits="userSpaceOnUse">
<stop stop-color="#FFDAE7" stop-opacity="0"/>
<stop offset="1" stop-color="#FFC1D7" stop-opacity="0.4"/>
</linearGradient>
<linearGradient id="paint16_linear_2801_1332" x1="138.193" y1="216.249" x2="138.393" y2="151.664" gradientUnits="userSpaceOnUse">
<stop stop-color="#FFDAE7" stop-opacity="0"/>
<stop offset="1" stop-color="#FFC1D7" stop-opacity="0.4"/>
</linearGradient>
<linearGradient id="paint17_linear_2801_1332" x1="68.7822" y1="175.388" x2="124.574" y2="143.679" gradientUnits="userSpaceOnUse">
<stop stop-color="#FFDAE7" stop-opacity="0"/>
<stop offset="1" stop-color="#FFC1D7" stop-opacity="0.4"/>
</linearGradient>
<linearGradient id="paint18_linear_2801_1332" x1="207.723" y1="93.8137" x2="151.931" y2="125.523" gradientUnits="userSpaceOnUse">
<stop stop-color="#FFDAE7" stop-opacity="0"/>
<stop offset="1" stop-color="#FFC1D7" stop-opacity="0.4"/>
</linearGradient>
<linearGradient id="paint19_linear_2801_1332" x1="69.0369" y1="93.1796" x2="124.631" y2="125.234" gradientUnits="userSpaceOnUse">
<stop stop-color="#FFDAE7" stop-opacity="0"/>
<stop offset="1" stop-color="#FFC1D7" stop-opacity="0.4"/>
</linearGradient>
<radialGradient id="paint20_radial_2801_1332" cx="0" cy="0" r="1" gradientUnits="userSpaceOnUse" gradientTransform="translate(129.917 179.738) rotate(50.7597) scale(16.2552 18.3195)">
<stop offset="0.432002" stop-color="#023580"/>
<stop offset="1" stop-color="#0D3D78"/>
</radialGradient>
<linearGradient id="paint21_linear_2801_1332" x1="133.362" y1="178.262" x2="122.198" y2="188.506" gradientUnits="userSpaceOnUse">
<stop offset="0.213533" stop-color="#042861"/>
<stop offset="0.574194" stop-color="#195294"/>
<stop offset="1" stop-color="#063988"/>
<stop offset="1" stop-color="#063988"/>
<stop offset="1" stop-color="#063988"/>
</linearGradient>
<linearGradient id="paint22_linear_2801_1332" x1="128.921" y1="184.197" x2="149.083" y2="190.604" gradientUnits="userSpaceOnUse">
<stop stop-color="#4680B6" stop-opacity="0.1"/>
<stop offset="0.421859" stop-color="#5693CB"/>
<stop offset="1" stop-color="#4680B6" stop-opacity="0.45"/>
</linearGradient>
<linearGradient id="paint23_linear_2801_1332" x1="132.332" y1="193.626" x2="148.243" y2="200.352" gradientUnits="userSpaceOnUse">
<stop stop-color="#59293A"/>
<stop offset="1" stop-color="#8A4F64"/>
</linearGradient>
<linearGradient id="paint24_linear_2801_1332" x1="133.164" y1="189.498" x2="127.384" y2="193.564" gradientUnits="userSpaceOnUse">
<stop stop-color="#D585A1"/>
<stop offset="0.309893" stop-color="#FFDCE8"/>
<stop offset="0.523799" stop-color="#F9C1D4"/>
<stop offset="0.613641" stop-color="#D2829E"/>
<stop offset="1" stop-color="#D687A3"/>
</linearGradient>
<linearGradient id="paint25_linear_2801_1332" x1="133.587" y1="179.956" x2="126.318" y2="182.293" gradientUnits="userSpaceOnUse">
<stop stop-color="#DC89A6"/>
<stop offset="0.309893" stop-color="#FFDDE9"/>
<stop offset="0.523799" stop-color="#F9C3D6"/>
<stop offset="0.613641" stop-color="#D1809C"/>
<stop offset="1" stop-color="#D17E9B"/>
</linearGradient>
<linearGradient id="paint26_linear_2801_1332" x1="138.416" y1="186.209" x2="138.396" y2="192.653" gradientUnits="userSpaceOnUse">
<stop stop-color="#FFE0EB" stop-opacity="0"/>
<stop offset="0.479167" stop-color="#FFB6CF"/>
<stop offset="1" stop-color="#E67DA1"/>
</linearGradient>
<linearGradient id="paint27_linear_2801_1332" x1="137.01" y1="186.37" x2="136.994" y2="191.512" gradientUnits="userSpaceOnUse">
<stop stop-color="#FFE0EB" stop-opacity="0"/>
<stop offset="0.479167" stop-color="#FFB6CF"/>
<stop offset="1" stop-color="#E67DA1"/>
</linearGradient>
<linearGradient id="paint28_linear_2801_1332" x1="139.823" y1="186.378" x2="139.807" y2="191.521" gradientUnits="userSpaceOnUse">
<stop stop-color="#FFE0EB" stop-opacity="0"/>
<stop offset="0.479167" stop-color="#FFB6CF"/>
<stop offset="1" stop-color="#E67DA1"/>
</linearGradient>
<linearGradient id="paint29_linear_2801_1332" x1="136.272" y1="190.829" x2="133.877" y2="191.964" gradientUnits="userSpaceOnUse">
<stop stop-color="#DA8AA6"/>
<stop offset="0.309893" stop-color="#FFD9E6"/>
<stop offset="0.523799" stop-color="#FDC5D9"/>
<stop offset="0.613641" stop-color="#D5829F"/>
<stop offset="1" stop-color="#D286A1"/>
</linearGradient>
<linearGradient id="paint30_linear_2801_1332" x1="120.788" y1="100.186" x2="157.708" y2="173.534" gradientUnits="userSpaceOnUse">
<stop stop-color="#FAFAFA"/>
<stop offset="1" stop-color="#C2C4CD"/>
</linearGradient>
<linearGradient id="paint31_linear_2801_1332" x1="120.461" y1="106.257" x2="152.294" y2="165.001" gradientUnits="userSpaceOnUse">
<stop stop-color="#CDCFD6"/>
<stop offset="1" stop-color="#EFEFF1"/>
</linearGradient>
<linearGradient id="paint32_linear_2801_1332" x1="123.907" y1="104.124" x2="158.201" y2="165.821" gradientUnits="userSpaceOnUse">
<stop stop-color="#DDDFE2"/>
<stop offset="1" stop-color="white"/>
</linearGradient>
<radialGradient id="paint33_radial_2801_1332" cx="0" cy="0" r="1" gradientUnits="userSpaceOnUse" gradientTransform="translate(138.182 136.349) rotate(90) scale(37.1482 31.9974)">
<stop stop-color="#F5F7FF"/>
<stop offset="1" stop-color="#B3B5C5"/>
</radialGradient>
<linearGradient id="paint34_linear_2801_1332" x1="138.182" y1="97.73" x2="138.182" y2="174.965" gradientUnits="userSpaceOnUse">
<stop stop-color="white"/>
<stop offset="1" stop-color="#F2EDED" stop-opacity="0"/>
</linearGradient>
<linearGradient id="paint35_linear_2801_1332" x1="98.6779" y1="104.718" x2="137.295" y2="171.605" gradientUnits="userSpaceOnUse">
<stop stop-color="white"/>
<stop offset="1" stop-color="#F2EDED" stop-opacity="0"/>
</linearGradient>
<linearGradient id="paint36_linear_2801_1332" x1="174.809" y1="104.718" x2="136.192" y2="171.605" gradientUnits="userSpaceOnUse">
<stop stop-color="white"/>
<stop offset="1" stop-color="#F2EDED" stop-opacity="0"/>
</linearGradient>
<linearGradient id="paint37_linear_2801_1332" x1="138.182" y1="149.956" x2="137.989" y2="170.919" gradientUnits="userSpaceOnUse">
<stop stop-color="white" stop-opacity="0"/>
<stop offset="1" stop-color="#D0DBFF"/>
</linearGradient>
<linearGradient id="paint38_linear_2801_1332" x1="117.343" y1="151.614" x2="158.693" y2="151.523" gradientUnits="userSpaceOnUse">
<stop stop-color="#F7F7F8"/>
<stop offset="0.0201542" stop-color="#CDCFD7"/>
<stop offset="0.977524" stop-color="#C5C7CF"/>
<stop offset="1" stop-color="#E8EAEC"/>
</linearGradient>
<linearGradient id="paint39_linear_2801_1332" x1="120.028" y1="129.067" x2="150.161" y2="149.922" gradientUnits="userSpaceOnUse">
<stop stop-color="#D7D9DF"/>
<stop offset="1" stop-color="#C8CAD3"/>
</linearGradient>
<linearGradient id="paint40_linear_2801_1332" x1="118.506" y1="125.534" x2="155.57" y2="150.121" gradientUnits="userSpaceOnUse">
<stop stop-color="#F8F9F9"/>
<stop offset="1" stop-color="#C2C4CD"/>
</linearGradient>
<linearGradient id="paint41_linear_2801_1332" x1="122.804" y1="146.891" x2="120.993" y2="126.72" gradientUnits="userSpaceOnUse">
<stop stop-color="#EDEEF1"/>
<stop offset="1" stop-color="#EDEEF1"/>
</linearGradient>
<linearGradient id="paint42_linear_2801_1332" x1="123.584" y1="147.867" x2="137.53" y2="150.305" gradientUnits="userSpaceOnUse">
<stop offset="0.0442192" stop-color="#C2C4CD"/>
<stop offset="0.65381" stop-color="#CFD0D7"/>
<stop offset="0.991391" stop-color="#C2C4CD"/>
</linearGradient>
<linearGradient id="paint43_linear_2801_1332" x1="149.038" y1="121.243" x2="154.597" y2="143.186" gradientUnits="userSpaceOnUse">
<stop stop-color="#C2C4CD"/>
<stop offset="0.371361" stop-color="#C2C4CD"/>
<stop offset="1" stop-color="#B1B3BD"/>
</linearGradient>
<linearGradient id="paint44_linear_2801_1332" x1="152.452" y1="147.867" x2="138.506" y2="150.305" gradientUnits="userSpaceOnUse">
<stop offset="0.0442192" stop-color="#BDBFC8"/>
<stop offset="0.65381" stop-color="#D4D6DF"/>
<stop offset="0.991391" stop-color="#C2C4CD"/>
</linearGradient>
<linearGradient id="paint45_linear_2801_1332" x1="138.018" y1="131.19" x2="121.049" y2="130.914" gradientUnits="userSpaceOnUse">
<stop stop-color="#C2C4CD"/>
<stop offset="0.0890549" stop-color="#C2C4CD"/>
<stop offset="0.46547" stop-color="#E5E7EB"/>
<stop offset="1" stop-color="#FAFAFA"/>
</linearGradient>
<linearGradient id="paint46_linear_2801_1332" x1="138.018" y1="131.19" x2="154.987" y2="130.914" gradientUnits="userSpaceOnUse">
<stop stop-color="#C2C4CD"/>
<stop offset="0.214912" stop-color="#FAFAFA"/>
<stop offset="0.510885" stop-color="#E7E8EC"/>
<stop offset="0.901932" stop-color="#C2C4CD"/>
</linearGradient>
<linearGradient id="paint47_linear_2801_1332" x1="176.364" y1="159.298" x2="164.995" y2="152.734" gradientUnits="userSpaceOnUse">
<stop stop-color="#585B77" stop-opacity="0.75"/>
<stop offset="1" stop-color="#525787" stop-opacity="0"/>
</linearGradient>
<linearGradient id="paint48_linear_2801_1332" x1="169.485" y1="156.122" x2="179.124" y2="155.02" gradientUnits="userSpaceOnUse">
<stop stop-color="#D5D7D9"/>
<stop offset="1" stop-color="#E2E3E7"/>
</linearGradient>
<linearGradient id="paint49_linear_2801_1332" x1="179.241" y1="160.042" x2="173.862" y2="168.039" gradientUnits="userSpaceOnUse">
<stop stop-color="#CCCFDD"/>
<stop offset="0.259135" stop-color="#D9DBE4"/>
<stop offset="0.878536" stop-color="#E2E3E7"/>
</linearGradient>
<linearGradient id="paint50_linear_2801_1332" x1="171.047" y1="150.009" x2="166.291" y2="155.836" gradientUnits="userSpaceOnUse">
<stop stop-color="#F4F5F8"/>
<stop offset="1" stop-color="#F5F6F7"/>
</linearGradient>
<linearGradient id="paint51_linear_2801_1332" x1="138.346" y1="92.6377" x2="138.346" y2="105.765" gradientUnits="userSpaceOnUse">
<stop stop-color="#585B77" stop-opacity="0.75"/>
<stop offset="1" stop-color="#525787" stop-opacity="0"/>
</linearGradient>
<linearGradient id="paint52_linear_2801_1332" x1="139.051" y1="100.43" x2="133.152" y2="93.2239" gradientUnits="userSpaceOnUse">
<stop stop-color="#D5D7D9"/>
<stop offset="1" stop-color="#E2E3E7"/>
</linearGradient>
<linearGradient id="paint53_linear_2801_1332" x1="138.495" y1="96.5813" x2="146.802" y2="98.5862" gradientUnits="userSpaceOnUse">
<stop stop-color="#DBDCE1"/>
<stop offset="1" stop-color="#F2F3F8"/>
</linearGradient>
<linearGradient id="paint54_linear_2801_1332" x1="133.052" y1="102.172" x2="140.476" y2="103.378" gradientUnits="userSpaceOnUse">
<stop stop-color="#F4F5F8"/>
<stop offset="1" stop-color="#F5F6F7"/>
</linearGradient>
<linearGradient id="paint55_linear_2801_1332" x1="99.7247" y1="159.298" x2="111.093" y2="152.735" gradientUnits="userSpaceOnUse">
<stop stop-color="#585B77" stop-opacity="0.75"/>
<stop offset="1" stop-color="#525787" stop-opacity="0"/>
</linearGradient>
<linearGradient id="paint56_linear_2801_1332" x1="106.656" y1="156.18" x2="97.4431" y2="154.667" gradientUnits="userSpaceOnUse">
<stop stop-color="#D5D7D9"/>
<stop offset="1" stop-color="#E2E3E7"/>
</linearGradient>
<linearGradient id="paint57_linear_2801_1332" x1="96.963" y1="160.341" x2="98.8117" y2="171.784" gradientUnits="userSpaceOnUse">
<stop stop-color="#CDD0DD"/>
<stop offset="0.878536" stop-color="#DBDDE7"/>
</linearGradient>
<linearGradient id="paint58_linear_2801_1332" x1="105.108" y1="150.128" x2="109.864" y2="155.955" gradientUnits="userSpaceOnUse">
<stop stop-color="#F4F5F8"/>
<stop offset="1" stop-color="#F5F6F7"/>
</linearGradient>
<linearGradient id="paint59_linear_2801_1332" x1="137.809" y1="136.891" x2="135.609" y2="139.406" gradientUnits="userSpaceOnUse">
<stop stop-color="#65B5FF"/>
<stop offset="1" stop-color="#64E4FF"/>
</linearGradient>
<linearGradient id="paint60_linear_2801_1332" x1="148.133" y1="136.487" x2="144.72" y2="126.495" gradientUnits="userSpaceOnUse">
<stop offset="0.14601" stop-color="#8EECFF"/>
<stop offset="1" stop-color="#A8EFFF"/>
</linearGradient>
<linearGradient id="paint61_linear_2801_1332" x1="145.287" y1="133.936" x2="142.652" y2="144.482" gradientUnits="userSpaceOnUse">
<stop stop-color="#2E3DB0"/>
<stop offset="1" stop-color="#55C1F2"/>
</linearGradient>
<linearGradient id="paint62_linear_2801_1332" x1="139.576" y1="126.7" x2="130.2" y2="128.77" gradientUnits="userSpaceOnUse">
<stop stop-color="#2354C0"/>
<stop offset="1" stop-color="#A3E9FF"/>
</linearGradient>
<linearGradient id="paint63_linear_2801_1332" x1="-1.1768" y1="2.22525" x2="6.76311" y2="1.86034" gradientUnits="userSpaceOnUse">
<stop offset="0.0203454" stop-color="#2A67C4"/>
<stop offset="0.349209" stop-color="#2E3AB0"/>
<stop offset="1" stop-color="#79E8FF"/>
</linearGradient>
<linearGradient id="paint64_linear_2801_1332" x1="138.212" y1="130.519" x2="138.216" y2="137.899" gradientUnits="userSpaceOnUse">
<stop stop-color="#D7F8FF"/>
<stop offset="0.176669" stop-color="#9EEDFF"/>
<stop offset="0.432173" stop-color="#66E3FF"/>
<stop offset="0.685688" stop-color="white" stop-opacity="0"/>
</linearGradient>
<linearGradient id="paint65_linear_2801_1332" x1="141.358" y1="131.124" x2="138.213" y2="130.64" gradientUnits="userSpaceOnUse">
<stop stop-color="#D3F6FF"/>
<stop offset="0.603219" stop-color="#D3F6FF"/>
<stop offset="1" stop-color="white"/>
</linearGradient>
</defs>
</svg>
