<svg width="113" height="100" viewBox="0 0 113 100" fill="none" xmlns="http://www.w3.org/2000/svg">
<mask id="path-1-inside-1_861_630" fill="white">
<path d="M46 76.5596C46 73.7981 48.2386 71.5596 51 71.5596H62C64.7614 71.5596 67 73.7981 67 76.5596V94.9999C67 97.7614 64.7614 99.9999 62 99.9999H51C48.2386 99.9999 46 97.7614 46 94.9999V76.5596Z"/>
</mask>
<path d="M46 71.5596H67H46ZM72 94.9999C72 100.523 67.5228 105 62 105H51C45.4772 105 41 100.523 41 94.9999H51H62H72ZM51 105C45.4772 105 41 100.523 41 94.9999V81.5596C41 76.0367 45.4772 71.5596 51 71.5596C51 71.5596 51 73.7981 51 76.5596V94.9999V105ZM62 71.5596C67.5228 71.5596 72 76.0367 72 81.5596V94.9999C72 100.523 67.5228 105 62 105V94.9999V76.5596C62 73.7981 62 71.5596 62 71.5596Z" fill="#CBFC01" mask="url(#path-1-inside-1_861_630)"/>
</svg>
