<svg width="40" height="40" viewBox="0 0 40 40" fill="none" xmlns="http://www.w3.org/2000/svg">
<g clip-path="url(#clip0_488_548)">
<path fill-rule="evenodd" clip-rule="evenodd" d="M21.6667 21.6667C23.4348 21.6667 25.1305 22.3691 26.3807 23.6193C27.631 24.8695 28.3334 26.5652 28.3334 28.3333V31.6667C28.3334 32.1087 28.1578 32.5326 27.8452 32.8452C27.5326 33.1578 27.1087 33.3333 26.6667 33.3333C26.2247 33.3333 25.8007 33.1578 25.4882 32.8452C25.1756 32.5326 25 32.1087 25 31.6667V28.3333C25 27.4493 24.6488 26.6014 24.0237 25.9763C23.3986 25.3512 22.5507 25 21.6667 25H10C9.11596 25 8.26811 25.3512 7.64299 25.9763C7.01787 26.6014 6.66668 27.4493 6.66668 28.3333V31.6667C6.66668 32.1087 6.49108 32.5326 6.17852 32.8452C5.86596 33.1578 5.44204 33.3333 5.00001 33.3333C4.55798 33.3333 4.13406 33.1578 3.8215 32.8452C3.50894 32.5326 3.33334 32.1087 3.33334 31.6667V28.3333C3.33334 26.5652 4.03572 24.8695 5.28597 23.6193C6.53621 22.3691 8.2319 21.6667 10 21.6667H21.6667ZM31.6667 21.6667C32.9928 21.6667 34.2645 22.1935 35.2022 23.1311C36.1399 24.0688 36.6667 25.3406 36.6667 26.6667V30C36.6667 30.442 36.4911 30.866 36.1785 31.1785C35.866 31.4911 35.442 31.6667 35 31.6667C34.558 31.6667 34.1341 31.4911 33.8215 31.1785C33.5089 30.866 33.3334 30.442 33.3334 30V26.6667C33.3334 26.2246 33.1578 25.8007 32.8452 25.4882C32.5326 25.1756 32.1087 25 31.6667 25H29.3067C28.7289 23.6803 27.8201 22.5321 26.6684 21.6667H31.6667ZM15.8333 5C17.8225 5 19.7301 5.79018 21.1367 7.1967C22.5432 8.60322 23.3334 10.5109 23.3334 12.5C23.3334 14.4891 22.5432 16.3968 21.1367 17.8033C19.7301 19.2098 17.8225 20 15.8333 20C13.8442 20 11.9366 19.2098 10.53 17.8033C9.12352 16.3968 8.33335 14.4891 8.33335 12.5C8.33335 10.5109 9.12352 8.60322 10.53 7.1967C11.9366 5.79018 13.8442 5 15.8333 5ZM30 10C31.3261 10 32.5979 10.5268 33.5356 11.4645C34.4732 12.4022 35 13.6739 35 15C35 16.3261 34.4732 17.5979 33.5356 18.5355C32.5979 19.4732 31.3261 20 30 20C28.6739 20 27.4022 19.4732 26.4645 18.5355C25.5268 17.5979 25 16.3261 25 15C25 13.6739 25.5268 12.4022 26.4645 11.4645C27.4022 10.5268 28.6739 10 30 10ZM15.8333 8.33333C14.7283 8.33333 13.6685 8.77232 12.8871 9.55372C12.1057 10.3351 11.6667 11.3949 11.6667 12.5C11.6667 13.6051 12.1057 14.6649 12.8871 15.4463C13.6685 16.2277 14.7283 16.6667 15.8333 16.6667C16.9384 16.6667 17.9982 16.2277 18.7796 15.4463C19.561 14.6649 20 13.6051 20 12.5C20 11.3949 19.561 10.3351 18.7796 9.55372C17.9982 8.77232 16.9384 8.33333 15.8333 8.33333ZM30 13.3333C29.558 13.3333 29.1341 13.5089 28.8215 13.8215C28.5089 14.1341 28.3334 14.558 28.3334 15C28.3334 15.442 28.5089 15.866 28.8215 16.1785C29.1341 16.4911 29.558 16.6667 30 16.6667C30.442 16.6667 30.866 16.4911 31.1785 16.1785C31.4911 15.866 31.6667 15.442 31.6667 15C31.6667 14.558 31.4911 14.1341 31.1785 13.8215C30.866 13.5089 30.442 13.3333 30 13.3333Z" fill="#E4E5E7"/>
</g>
<defs>
<clipPath id="clip0_488_548">
<rect width="40" height="40" fill="white"/>
</clipPath>
</defs>
</svg>
