<svg width="40" height="40" viewBox="0 0 40 40" fill="none" xmlns="http://www.w3.org/2000/svg">
<g clip-path="url(#clip0_4546_261)">
<path fill-rule="evenodd" clip-rule="evenodd" d="M21.6667 21.6667C23.4348 21.6667 25.1305 22.3691 26.3808 23.6193C27.631 24.8695 28.3334 26.5652 28.3334 28.3333V31.6667C28.3334 32.1087 28.1578 32.5326 27.8452 32.8452C27.5327 33.1578 27.1087 33.3333 26.6667 33.3333C26.2247 33.3333 25.8008 33.1578 25.4882 32.8452C25.1756 32.5326 25 32.1087 25 31.6667V28.3333C25 27.4493 24.6489 26.6014 24.0237 25.9763C23.3986 25.3512 22.5508 25 21.6667 25H10C9.11599 25 8.26814 25.3512 7.64302 25.9763C7.0179 26.6014 6.66671 27.4493 6.66671 28.3333V31.6667C6.66671 32.1087 6.49111 32.5326 6.17855 32.8452C5.86599 33.1578 5.44207 33.3333 5.00004 33.3333C4.55801 33.3333 4.13409 33.1578 3.82153 32.8452C3.50897 32.5326 3.33337 32.1087 3.33337 31.6667V28.3333C3.33337 26.5652 4.03575 24.8695 5.286 23.6193C6.53624 22.3691 8.23193 21.6667 10 21.6667H21.6667ZM31.6667 21.6667C32.9928 21.6667 34.2646 22.1935 35.2023 23.1311C36.1399 24.0688 36.6667 25.3406 36.6667 26.6667V30C36.6667 30.442 36.4911 30.866 36.1786 31.1785C35.866 31.4911 35.4421 31.6667 35.0001 31.6667C34.558 31.6667 34.1341 31.4911 33.8215 31.1785C33.509 30.866 33.3334 30.442 33.3334 30V26.6667C33.3334 26.2246 33.1578 25.8007 32.8452 25.4882C32.5327 25.1756 32.1087 25 31.6667 25H29.3067C28.7289 23.6803 27.8201 22.5321 26.6684 21.6667H31.6667ZM15.8334 5C17.8225 5 19.7302 5.79018 21.1367 7.1967C22.5432 8.60322 23.3334 10.5109 23.3334 12.5C23.3334 14.4891 22.5432 16.3968 21.1367 17.8033C19.7302 19.2098 17.8225 20 15.8334 20C13.8443 20 11.9366 19.2098 10.5301 17.8033C9.12355 16.3968 8.33338 14.4891 8.33338 12.5C8.33338 10.5109 9.12355 8.60322 10.5301 7.1967C11.9366 5.79018 13.8443 5 15.8334 5ZM30 10C31.3261 10 32.5979 10.5268 33.5356 11.4645C34.4733 12.4022 35.0001 13.6739 35.0001 15C35.0001 16.3261 34.4733 17.5979 33.5356 18.5355C32.5979 19.4732 31.3261 20 30 20C28.674 20 27.4022 19.4732 26.4645 18.5355C25.5268 17.5979 25 16.3261 25 15C25 13.6739 25.5268 12.4022 26.4645 11.4645C27.4022 10.5268 28.674 10 30 10ZM15.8334 8.33333C14.7283 8.33333 13.6685 8.77232 12.8871 9.55372C12.1057 10.3351 11.6667 11.3949 11.6667 12.5C11.6667 13.6051 12.1057 14.6649 12.8871 15.4463C13.6685 16.2277 14.7283 16.6667 15.8334 16.6667C16.9384 16.6667 17.9983 16.2277 18.7797 15.4463C19.5611 14.6649 20 13.6051 20 12.5C20 11.3949 19.5611 10.3351 18.7797 9.55372C17.9983 8.77232 16.9384 8.33333 15.8334 8.33333ZM30 13.3333C29.558 13.3333 29.1341 13.5089 28.8215 13.8215C28.509 14.1341 28.3334 14.558 28.3334 15C28.3334 15.442 28.509 15.866 28.8215 16.1785C29.1341 16.4911 29.558 16.6667 30 16.6667C30.4421 16.6667 30.866 16.4911 31.1786 16.1785C31.4911 15.866 31.6667 15.442 31.6667 15C31.6667 14.558 31.4911 14.1341 31.1786 13.8215C30.866 13.5089 30.4421 13.3333 30 13.3333Z" fill="#CBFC01"/>
</g>
<defs>
<clipPath id="clip0_4546_261">
<rect width="40" height="40" fill="white"/>
</clipPath>
</defs>
</svg>
