<svg width="40" height="40" viewBox="0 0 40 40" fill="none" xmlns="http://www.w3.org/2000/svg">
<path d="M26.268 40H26.0148C17.3683 40 13.2008 36.592 12.4803 28.9581C12.4024 28.1597 12.9866 27.4392 13.8045 27.3613C14.5835 27.2834 15.3235 27.8871 15.4014 28.6855C15.9662 34.8004 18.8483 37.0789 26.0343 37.0789H26.2875C34.2135 37.0789 37.0178 34.2746 37.0178 26.3486V13.6514C37.0178 5.72541 34.2135 2.92113 26.2875 2.92113H26.0343C18.8094 2.92113 15.9272 5.23855 15.4014 11.4703C15.304 12.2687 14.6224 12.8724 13.8045 12.7945C12.9866 12.7361 12.4024 12.0156 12.4608 11.2171C13.1229 3.4664 17.3099 0 26.0148 0H26.268C35.8298 0 39.9194 4.08958 39.9194 13.6514V26.3486C39.9194 35.9104 35.8298 40 26.268 40Z" fill="#CBFC01"/>
<path d="M25.7976 21.4606H3.6361C2.83766 21.4606 2.17554 20.7984 2.17554 20C2.17554 19.2016 2.83766 18.5394 3.6361 18.5394H25.7976C26.5961 18.5394 27.2582 19.2016 27.2582 20C27.2582 20.7984 26.5961 21.4606 25.7976 21.4606Z" fill="#CBFC01"/>
<path d="M7.97955 27.9846C7.60954 27.9846 7.23953 27.8483 6.94741 27.5562L0.423563 21.0323C-0.141188 20.4676 -0.141188 19.5328 0.423563 18.9681L6.94741 12.4442C7.51216 11.8794 8.44693 11.8794 9.01168 12.4442C9.57643 13.0089 9.57643 13.9437 9.01168 14.5085L3.51996 20.0002L9.01168 25.4919C9.57643 26.0567 9.57643 26.9914 9.01168 27.5562C8.73904 27.8483 8.34956 27.9846 7.97955 27.9846Z" fill="#CBFC01"/>
</svg>
