<svg width="87" height="70" viewBox="0 0 87 70" fill="none" xmlns="http://www.w3.org/2000/svg">
<g filter="url(#filter0_d_2703_418)">
<ellipse cx="43.626" cy="33.0101" rx="23.5" ry="26.9" transform="rotate(-0.268839 43.626 33.0101)" fill="url(#paint0_linear_2703_418)"/>
<ellipse cx="43.626" cy="33.0101" rx="23.5" ry="26.9" transform="rotate(-0.268839 43.626 33.0101)" fill="url(#paint1_radial_2703_418)"/>
</g>
<path d="M65.5236 32.9221C65.5879 46.6286 55.9331 57.7855 43.9589 57.8417C31.9848 57.8979 22.2257 46.8321 22.1614 33.1255C22.0971 19.419 31.7519 8.26207 43.726 8.20589C55.7002 8.1497 65.4593 19.2155 65.5236 32.9221Z" fill="url(#paint2_linear_2703_418)"/>
<g filter="url(#filter1_d_2703_418)">
<ellipse cx="43.5412" cy="33.1456" rx="19.955" ry="22.842" transform="rotate(-0.268839 43.5412 33.1456)" fill="url(#paint3_linear_2703_418)"/>
<ellipse cx="43.5412" cy="33.1456" rx="19.955" ry="22.842" transform="rotate(-0.268839 43.5412 33.1456)" fill="url(#paint4_radial_2703_418)"/>
</g>
<ellipse cx="43.5371" cy="33.1412" rx="16.4915" ry="18.8774" transform="rotate(-0.268839 43.5371 33.1412)" fill="url(#paint5_linear_2703_418)"/>
<g filter="url(#filter2_i_2703_418)">
<ellipse cx="43.5226" cy="32.8932" rx="15.5625" ry="17.8141" transform="rotate(-0.268839 43.5226 32.8932)" fill="url(#paint6_linear_2703_418)"/>
</g>
<path d="M48.1524 55.482C50.4382 54.6034 51.1265 51.0661 50.2634 48.6667C49.0808 49.3333 45.828 52.3038 48.1524 55.482Z" fill="url(#paint7_linear_2703_418)"/>
<path d="M48.1524 55.482C45.828 52.3038 49.0808 49.3333 50.2634 48.6667C50.2634 48.6667 49.9674 50.3762 49.3285 52.6027C48.6895 54.8292 48.1524 55.482 48.1524 55.482Z" fill="url(#paint8_linear_2703_418)"/>
<path d="M52.0506 52.3338C53.1383 50.8794 53.1257 48.5958 52.3491 47.068C51.6349 47.805 49.868 50.6306 52.0506 52.3338Z" fill="url(#paint9_linear_2703_418)"/>
<path d="M52.0506 52.3338C49.868 50.6306 51.6349 47.805 52.3491 47.068C52.3491 47.068 52.1016 48.3086 52.0397 50.0173C51.9778 51.7261 52.0506 52.3338 52.0506 52.3338Z" fill="url(#paint10_linear_2703_418)"/>
<g filter="url(#filter3_f_2703_418)">
<path d="M52.0512 52.3341C52.0512 52.3341 51.9783 51.7163 52.0402 50.0076C52.1022 48.2988 52.3496 47.0684 52.3496 47.0684" stroke="url(#paint11_linear_2703_418)"/>
</g>
<path d="M53.7228 50.3917C54.8706 49.5263 55.028 46.483 54.567 45.6301C53.9074 46.2066 52.1606 48.5468 53.7228 50.3917Z" fill="url(#paint12_linear_2703_418)"/>
<path d="M53.7228 50.3917C52.1606 48.5468 53.9074 46.2066 54.567 45.6301C54.567 45.6301 54.2255 46.7282 53.9797 48.278C53.7339 49.8278 53.7228 50.3917 53.7228 50.3917Z" fill="url(#paint13_linear_2703_418)"/>
<g filter="url(#filter4_f_2703_418)">
<path d="M53.7225 50.3929C53.7225 50.3929 53.7347 49.8198 53.9805 48.27C54.2263 46.7202 54.5667 45.6313 54.5667 45.6313" stroke="url(#paint14_linear_2703_418)"/>
</g>
<path d="M51.6055 53.2331C51.2744 49.3555 56.6203 46.8062 57.6315 46.96C57.6452 49.9224 56.7312 54.1987 51.6055 53.2331Z" fill="url(#paint15_linear_2703_418)"/>
<path d="M51.6048 53.2326C56.7304 54.1982 57.6454 49.993 57.6308 46.9595C57.6308 46.9595 55.6176 49.6279 54.7376 50.5702C53.8576 51.5125 51.6048 53.2326 51.6048 53.2326Z" fill="url(#paint16_linear_2703_418)"/>
<path d="M49.199 54.4085C50.6377 50.5228 54.7194 51.9033 57.1971 52.6247C56.7146 55.2261 53.148 58.2754 49.199 54.4085Z" fill="url(#paint17_linear_2703_418)"/>
<path d="M49.199 54.4085C53.148 58.2754 56.7146 55.2261 57.1971 52.6247C57.1971 52.6247 54.2657 53.7099 53.0858 53.9928C51.906 54.2757 49.199 54.4085 49.199 54.4085Z" fill="url(#paint18_linear_2703_418)"/>
<g filter="url(#filter5_f_2703_418)">
<path d="M49.1992 54.4083C49.1992 54.4083 51.9061 54.2755 53.086 53.9927C54.2659 53.7098 57.1973 52.6245 57.1973 52.6245" stroke="url(#paint19_linear_2703_418)"/>
</g>
<path d="M51.058 54.7174C48.1868 52.9914 45.5071 56.1512 44.8155 56.7811C47.9838 62.1314 52.975 58.1091 52.9635 55.5142C52.5405 55.4468 51.9665 55.3554 51.058 54.7174Z" fill="url(#paint20_linear_2703_418)"/>
<path fill-rule="evenodd" clip-rule="evenodd" d="M44.8212 56.7751C48.2026 57.7279 51.5758 56.3941 52.9598 55.5136C52.5371 55.4463 51.9637 55.3539 51.0572 54.7173C48.4712 53.1628 46.0406 55.5716 45.0779 56.5257C44.975 56.6276 44.8889 56.713 44.8212 56.7751Z" fill="url(#paint21_linear_2703_418)"/>
<g filter="url(#filter6_f_2703_418)">
<path d="M44.8217 56.7753C48.2032 57.728 51.5763 56.3942 52.9602 55.5137" stroke="url(#paint22_linear_2703_418)"/>
</g>
<ellipse cx="0.762083" cy="0.699193" rx="0.762083" ry="0.699193" transform="matrix(-0.661436 -0.750001 -0.654369 0.756175 50.3621 52.4575)" fill="url(#paint23_radial_2703_418)"/>
<ellipse cx="0.541243" cy="0.496577" rx="0.541243" ry="0.496577" transform="matrix(-0.661436 -0.750001 -0.654369 0.756175 52.9976 47.8799)" fill="url(#paint24_radial_2703_418)"/>
<ellipse cx="0.375497" cy="0.496577" rx="0.375497" ry="0.496577" transform="matrix(-0.867059 -0.387589 -0.3375 0.992007 54.8967 45.9238)" fill="url(#paint25_radial_2703_418)"/>
<ellipse cx="1.21188" cy="1.11187" rx="1.21188" ry="1.11187" transform="matrix(-0.926366 0.0980618 0.0868463 1.06051 52.7104 55.0039)" fill="url(#paint26_radial_2703_418)"/>
<path d="M39.056 55.5248C36.7621 54.6677 36.0406 51.137 36.8811 48.7296C38.0699 49.385 41.3505 52.3249 39.056 55.5248Z" fill="url(#paint27_linear_2703_418)"/>
<path d="M39.056 55.5248C41.3505 52.3249 38.0699 49.385 36.8811 48.7296C36.8811 48.7296 37.1932 50.4363 37.853 52.6567C38.5128 54.8771 39.056 55.5248 39.056 55.5248Z" fill="url(#paint28_linear_2703_418)"/>
<path d="M35.1281 52.4133C34.0269 50.9692 34.018 48.6856 34.7803 47.1506C35.5013 47.8808 37.2947 50.6897 35.1281 52.4133Z" fill="url(#paint29_linear_2703_418)"/>
<path d="M35.1281 52.4133C37.2947 50.6897 35.5013 47.8808 34.7803 47.1506C34.7803 47.1506 35.0393 48.3888 35.1173 50.0969C35.1952 51.8049 35.1281 52.4133 35.1281 52.4133Z" fill="url(#paint30_linear_2703_418)"/>
<g filter="url(#filter7_f_2703_418)">
<path d="M35.1279 52.4136C35.1279 52.4136 35.1949 51.7951 35.117 50.0871C35.039 48.379 34.78 47.1509 34.78 47.1509" stroke="url(#paint31_linear_2703_418)"/>
</g>
<path d="M33.4375 50.487C32.2816 49.6324 32.0956 46.5907 32.5487 45.7335C33.2136 46.3038 34.9823 48.6275 33.4375 50.487Z" fill="url(#paint32_linear_2703_418)"/>
<path d="M33.4375 50.487C34.9823 48.6275 33.2136 46.3038 32.5487 45.7335C32.5487 45.7335 32.9004 46.8284 33.1608 48.3758C33.4211 49.9232 33.4375 50.487 33.4375 50.487Z" fill="url(#paint33_linear_2703_418)"/>
<g filter="url(#filter8_f_2703_418)">
<path d="M33.4379 50.4878C33.4379 50.4878 33.4203 49.9149 33.16 48.3674C32.8996 46.82 32.5491 45.7344 32.5491 45.7344" stroke="url(#paint34_linear_2703_418)"/>
</g>
<path d="M35.5818 53.3079C35.8765 49.4273 30.5069 46.9283 29.4972 47.0916C29.5113 50.054 30.4654 54.3216 35.5818 53.3079Z" fill="url(#paint35_linear_2703_418)"/>
<path d="M35.5825 53.3078C30.4661 54.3215 29.5118 50.125 29.4979 47.0916C29.4979 47.0916 31.536 49.7409 32.4248 50.6749C33.3136 51.6089 35.5825 53.3078 35.5825 53.3078Z" fill="url(#paint36_linear_2703_418)"/>
<path d="M37.9991 54.4613C36.5239 50.5892 32.4554 52.0079 29.9846 52.7526C30.4915 55.3494 34.0865 58.3651 37.9991 54.4613Z" fill="url(#paint37_linear_2703_418)"/>
<path d="M37.9991 54.4613C34.0865 58.3651 30.4915 55.3494 29.9846 52.7526C29.9846 52.7526 32.926 53.8103 34.1085 54.0821C35.291 54.3539 37.9991 54.4613 37.9991 54.4613Z" fill="url(#paint38_linear_2703_418)"/>
<g filter="url(#filter9_f_2703_418)">
<path d="M37.9986 54.4611C37.9986 54.4611 35.2905 54.3537 34.1081 54.0819C32.9256 53.8101 29.9841 52.7524 29.9841 52.7524" stroke="url(#paint39_linear_2703_418)"/>
</g>
<path d="M36.1431 54.7874C38.998 53.0345 41.7072 56.1691 42.4047 56.7924C39.2867 62.1722 34.258 58.1969 34.2452 55.602C34.6675 55.5307 35.2406 55.4339 36.1431 54.7874Z" fill="url(#paint40_linear_2703_418)"/>
<path fill-rule="evenodd" clip-rule="evenodd" d="M42.3985 56.7864C39.0263 57.7708 35.641 56.469 34.2486 55.6015C34.6707 55.5302 35.2432 55.4324 36.1436 54.7874C38.7149 53.2086 41.168 55.5945 42.1396 56.5396C42.2433 56.6404 42.3302 56.7249 42.3985 56.7864Z" fill="url(#paint41_linear_2703_418)"/>
<g filter="url(#filter10_f_2703_418)">
<path d="M42.3983 56.7863C39.0258 57.7707 35.6404 56.4685 34.2483 55.6011" stroke="url(#paint42_linear_2703_418)"/>
</g>
<ellipse cx="0.762083" cy="0.699193" rx="0.762083" ry="0.699193" transform="matrix(0.654369 -0.756175 0.661436 0.750001 36.8179 52.5215)" fill="url(#paint43_radial_2703_418)"/>
<ellipse cx="0.541243" cy="0.496577" rx="0.541243" ry="0.496577" transform="matrix(0.654369 -0.756175 0.661436 0.750001 34.1389 47.9683)" fill="url(#paint44_radial_2703_418)"/>
<ellipse cx="0.375497" cy="0.496577" rx="0.375497" ry="0.496577" transform="matrix(0.863383 -0.395709 0.346794 0.988796 32.2217 46.0303)" fill="url(#paint45_radial_2703_418)"/>
<ellipse cx="1.21188" cy="1.11187" rx="1.21188" ry="1.11187" transform="matrix(0.927246 0.0893643 -0.0768904 1.06128 34.4932 55.0889)" fill="url(#paint46_radial_2703_418)"/>
<g filter="url(#filter11_d_2703_418)">
<ellipse cx="43.6044" cy="54.6254" rx="3.46421" ry="3.96542" transform="rotate(-0.268839 43.6044 54.6254)" fill="url(#paint47_linear_2703_418)"/>
</g>
<g filter="url(#filter12_d_2703_418)">
<ellipse cx="43.6045" cy="54.6254" rx="2.64911" ry="3.03238" transform="rotate(-0.268839 43.6045 54.6254)" fill="url(#paint48_radial_2703_418)"/>
</g>
<rect x="32.5" y="27.5" width="22" height="12" rx="2.5" fill="#ECAAB4" stroke="#9D4958"/>
<line x1="41.5" y1="28" x2="41.5" y2="29" stroke="#D05668"/>
<line x1="45.5" y1="28" x2="45.5" y2="29" stroke="#D05668"/>
<line x1="47.5" y1="38" x2="47.5" y2="39" stroke="#D05668"/>
<line x1="39.5" y1="38" x2="39.5" y2="39" stroke="#D05668"/>
<line x1="43.5" y1="29" x2="43.5" y2="38" stroke="#9D4958"/>
<line x1="52.5" y1="32" x2="52.5" y2="35" stroke="#9D4958"/>
<line x1="34.5" y1="32" x2="34.5" y2="35" stroke="#9D4958"/>
<circle cx="40.5" cy="35.5" r="0.5" fill="#FFFDFD"/>
<defs>
<filter id="filter0_d_2703_418" x="0.403025" y="-10.3254" width="86.4459" height="93.2457" filterUnits="userSpaceOnUse" color-interpolation-filters="sRGB">
<feFlood flood-opacity="0" result="BackgroundImageFix"/>
<feColorMatrix in="SourceAlpha" type="matrix" values="0 0 0 0 0 0 0 0 0 0 0 0 0 0 0 0 0 0 127 0" result="hardAlpha"/>
<feOffset dy="3.28716"/>
<feGaussianBlur stdDeviation="9.86148"/>
<feComposite in2="hardAlpha" operator="out"/>
<feColorMatrix type="matrix" values="0 0 0 0 0.116875 0 0 0 0 0.1292 0 0 0 0 0.425 0 0 0 1 0"/>
<feBlend mode="multiply" in2="BackgroundImageFix" result="effect1_dropShadow_2703_418"/>
<feBlend mode="normal" in="SourceGraphic" in2="effect1_dropShadow_2703_418" result="shape"/>
</filter>
<filter id="filter1_d_2703_418" x="3.86323" y="-6.13208" width="79.3558" height="85.13" filterUnits="userSpaceOnUse" color-interpolation-filters="sRGB">
<feFlood flood-opacity="0" result="BackgroundImageFix"/>
<feColorMatrix in="SourceAlpha" type="matrix" values="0 0 0 0 0 0 0 0 0 0 0 0 0 0 0 0 0 0 127 0" result="hardAlpha"/>
<feOffset dy="3.28716"/>
<feGaussianBlur stdDeviation="9.86148"/>
<feComposite in2="hardAlpha" operator="out"/>
<feColorMatrix type="matrix" values="0 0 0 0 0.425 0 0 0 0 0.116875 0 0 0 0 0.135362 0 0 0 1 0"/>
<feBlend mode="multiply" in2="BackgroundImageFix" result="effect1_dropShadow_2703_418"/>
<feBlend mode="normal" in="SourceGraphic" in2="effect1_dropShadow_2703_418" result="shape"/>
</filter>
<filter id="filter2_i_2703_418" x="27.96" y="15.0791" width="31.1252" height="35.6279" filterUnits="userSpaceOnUse" color-interpolation-filters="sRGB">
<feFlood flood-opacity="0" result="BackgroundImageFix"/>
<feBlend mode="normal" in="SourceGraphic" in2="BackgroundImageFix" result="shape"/>
<feColorMatrix in="SourceAlpha" type="matrix" values="0 0 0 0 0 0 0 0 0 0 0 0 0 0 0 0 0 0 127 0" result="hardAlpha"/>
<feOffset/>
<feGaussianBlur stdDeviation="10"/>
<feComposite in2="hardAlpha" operator="arithmetic" k2="-1" k3="1"/>
<feColorMatrix type="matrix" values="0 0 0 0 0.4625 0 0 0 0 0.0366146 0 0 0 0 0.138827 0 0 0 1 0"/>
<feBlend mode="normal" in2="shape" result="effect1_innerShadow_2703_418"/>
</filter>
<filter id="filter3_f_2703_418" x="50.5369" y="45.9258" width="3.28052" height="7.44092" filterUnits="userSpaceOnUse" color-interpolation-filters="sRGB">
<feFlood flood-opacity="0" result="BackgroundImageFix"/>
<feBlend mode="normal" in="SourceGraphic" in2="BackgroundImageFix" result="shape"/>
<feGaussianBlur stdDeviation="0.5" result="effect1_foregroundBlur_2703_418"/>
</filter>
<filter id="filter4_f_2703_418" x="52.2734" y="44.3892" width="3.71558" height="7.07959" filterUnits="userSpaceOnUse" color-interpolation-filters="sRGB">
<feFlood flood-opacity="0" result="BackgroundImageFix"/>
<feBlend mode="normal" in="SourceGraphic" in2="BackgroundImageFix" result="shape"/>
<feGaussianBlur stdDeviation="0.5" result="effect1_foregroundBlur_2703_418"/>
</filter>
<filter id="filter5_f_2703_418" x="48.197" y="51.1245" width="10.1282" height="4.81104" filterUnits="userSpaceOnUse" color-interpolation-filters="sRGB">
<feFlood flood-opacity="0" result="BackgroundImageFix"/>
<feBlend mode="normal" in="SourceGraphic" in2="BackgroundImageFix" result="shape"/>
<feGaussianBlur stdDeviation="0.5" result="effect1_foregroundBlur_2703_418"/>
</filter>
<filter id="filter6_f_2703_418" x="43.686" y="54.0918" width="10.5425" height="4.5127" filterUnits="userSpaceOnUse" color-interpolation-filters="sRGB">
<feFlood flood-opacity="0" result="BackgroundImageFix"/>
<feBlend mode="normal" in="SourceGraphic" in2="BackgroundImageFix" result="shape"/>
<feGaussianBlur stdDeviation="0.5" result="effect1_foregroundBlur_2703_418"/>
</filter>
<filter id="filter7_f_2703_418" x="33.3137" y="46.0039" width="3.31909" height="7.4375" filterUnits="userSpaceOnUse" color-interpolation-filters="sRGB">
<feFlood flood-opacity="0" result="BackgroundImageFix"/>
<feBlend mode="normal" in="SourceGraphic" in2="BackgroundImageFix" result="shape"/>
<feGaussianBlur stdDeviation="0.5" result="effect1_foregroundBlur_2703_418"/>
</filter>
<filter id="filter8_f_2703_418" x="31.1292" y="44.4883" width="3.75708" height="7.07959" filterUnits="userSpaceOnUse" color-interpolation-filters="sRGB">
<feFlood flood-opacity="0" result="BackgroundImageFix"/>
<feBlend mode="normal" in="SourceGraphic" in2="BackgroundImageFix" result="shape"/>
<feGaussianBlur stdDeviation="0.5" result="effect1_foregroundBlur_2703_418"/>
</filter>
<filter id="filter9_f_2703_418" x="28.8611" y="51.251" width="10.1445" height="4.7373" filterUnits="userSpaceOnUse" color-interpolation-filters="sRGB">
<feFlood flood-opacity="0" result="BackgroundImageFix"/>
<feBlend mode="normal" in="SourceGraphic" in2="BackgroundImageFix" result="shape"/>
<feGaussianBlur stdDeviation="0.5" result="effect1_foregroundBlur_2703_418"/>
</filter>
<filter id="filter10_f_2703_418" x="32.9839" y="54.1768" width="10.5544" height="4.46191" filterUnits="userSpaceOnUse" color-interpolation-filters="sRGB">
<feFlood flood-opacity="0" result="BackgroundImageFix"/>
<feBlend mode="normal" in="SourceGraphic" in2="BackgroundImageFix" result="shape"/>
<feGaussianBlur stdDeviation="0.5" result="effect1_foregroundBlur_2703_418"/>
</filter>
<filter id="filter11_d_2703_418" x="28.1401" y="38.6602" width="30.9285" height="31.9307" filterUnits="userSpaceOnUse" color-interpolation-filters="sRGB">
<feFlood flood-opacity="0" result="BackgroundImageFix"/>
<feColorMatrix in="SourceAlpha" type="matrix" values="0 0 0 0 0 0 0 0 0 0 0 0 0 0 0 0 0 0 127 0" result="hardAlpha"/>
<feOffset/>
<feGaussianBlur stdDeviation="6"/>
<feComposite in2="hardAlpha" operator="out"/>
<feColorMatrix type="matrix" values="0 0 0 0 0.395833 0 0 0 0 0.128646 0 0 0 0 0.128646 0 0 0 0.6 0"/>
<feBlend mode="multiply" in2="BackgroundImageFix" result="effect1_dropShadow_2703_418"/>
<feBlend mode="normal" in="SourceGraphic" in2="effect1_dropShadow_2703_418" result="shape"/>
</filter>
<filter id="filter12_d_2703_418" x="36.9553" y="47.5928" width="13.2983" height="14.0649" filterUnits="userSpaceOnUse" color-interpolation-filters="sRGB">
<feFlood flood-opacity="0" result="BackgroundImageFix"/>
<feColorMatrix in="SourceAlpha" type="matrix" values="0 0 0 0 0 0 0 0 0 0 0 0 0 0 0 0 0 0 127 0" result="hardAlpha"/>
<feOffset/>
<feGaussianBlur stdDeviation="2"/>
<feComposite in2="hardAlpha" operator="out"/>
<feColorMatrix type="matrix" values="0 0 0 0 0.416667 0 0 0 0 0.416667 0 0 0 0 0.416667 0 0 0 1 0"/>
<feBlend mode="normal" in2="BackgroundImageFix" result="effect1_dropShadow_2703_418"/>
<feBlend mode="normal" in="SourceGraphic" in2="effect1_dropShadow_2703_418" result="shape"/>
</filter>
<linearGradient id="paint0_linear_2703_418" x1="30.1482" y1="13.1585" x2="66.4897" y2="47.1453" gradientUnits="userSpaceOnUse">
<stop stop-color="#DBA1B3"/>
<stop offset="0.473958" stop-color="#FFC9D6"/>
<stop offset="1" stop-color="#DC95A6"/>
</linearGradient>
<radialGradient id="paint1_radial_2703_418" cx="0" cy="0" r="1" gradientUnits="userSpaceOnUse" gradientTransform="translate(34.4217 11.295) rotate(60.556) scale(34.7737 32.6564)">
<stop stop-color="white"/>
<stop offset="1" stop-color="white" stop-opacity="0"/>
</radialGradient>
<linearGradient id="paint2_linear_2703_418" x1="-123.143" y1="39.3795" x2="-95.2179" y2="77.7064" gradientUnits="userSpaceOnUse">
<stop stop-color="#DB646B"/>
<stop offset="0.479167" stop-color="#F1A8B9"/>
<stop offset="1" stop-color="#FFD7E0"/>
</linearGradient>
<linearGradient id="paint3_linear_2703_418" x1="42.0816" y1="10.3036" x2="60.2406" y2="45.2663" gradientUnits="userSpaceOnUse">
<stop offset="0.291667" stop-color="#FFE8F0"/>
<stop offset="1" stop-color="#E4949D"/>
</linearGradient>
<radialGradient id="paint4_radial_2703_418" cx="0" cy="0" r="1" gradientUnits="userSpaceOnUse" gradientTransform="translate(27.862 16.8784) rotate(40.806) scale(31.7241 32.6413)">
<stop stop-color="white"/>
<stop offset="1" stop-color="white" stop-opacity="0"/>
</radialGradient>
<linearGradient id="paint5_linear_2703_418" x1="31.4664" y1="19.876" x2="56.1562" y2="45.8304" gradientUnits="userSpaceOnUse">
<stop stop-color="#E7BDC7"/>
<stop offset="0.479167" stop-color="#FFE0E9"/>
<stop offset="1" stop-color="#D09098"/>
</linearGradient>
<linearGradient id="paint6_linear_2703_418" x1="32.6799" y1="20.9306" x2="63.0796" y2="50.5823" gradientUnits="userSpaceOnUse">
<stop offset="0.234375" stop-color="#751B21"/>
<stop offset="0.802083" stop-color="#FFD8DA"/>
</linearGradient>
<linearGradient id="paint7_linear_2703_418" x1="49.6061" y1="54.2955" x2="46.8079" y2="51.5862" gradientUnits="userSpaceOnUse">
<stop stop-color="#960012"/>
<stop offset="0.802083" stop-color="#FFD9D9"/>
</linearGradient>
<linearGradient id="paint8_linear_2703_418" x1="49.2966" y1="53.9793" x2="46.8307" y2="51.6578" gradientUnits="userSpaceOnUse">
<stop stop-color="#960012"/>
<stop offset="0.802083" stop-color="#FFD9D9"/>
</linearGradient>
<linearGradient id="paint9_linear_2703_418" x1="52.6881" y1="51.0716" x2="50.4764" y2="49.8829" gradientUnits="userSpaceOnUse">
<stop stop-color="#960012"/>
<stop offset="0.802083" stop-color="#FFD9D9"/>
</linearGradient>
<linearGradient id="paint10_linear_2703_418" x1="52.5927" y1="51.0184" x2="50.4861" y2="49.8987" gradientUnits="userSpaceOnUse">
<stop stop-color="#960012"/>
<stop offset="0.802083" stop-color="#FFD9D9"/>
</linearGradient>
<linearGradient id="paint11_linear_2703_418" x1="52.3678" y1="47.0785" x2="53.99" y2="47.783" gradientUnits="userSpaceOnUse">
<stop stop-color="white" stop-opacity="0"/>
<stop offset="0.870298" stop-color="white"/>
</linearGradient>
<linearGradient id="paint12_linear_2703_418" x1="54.4301" y1="49.3687" x2="52.969" y2="47.4389" gradientUnits="userSpaceOnUse">
<stop stop-color="#960012"/>
<stop offset="0.802083" stop-color="#FFD9D9"/>
</linearGradient>
<linearGradient id="paint13_linear_2703_418" x1="54.3101" y1="49.2647" x2="52.6098" y2="48.1672" gradientUnits="userSpaceOnUse">
<stop stop-color="#960012"/>
<stop offset="0.802083" stop-color="#FFD9D9"/>
</linearGradient>
<linearGradient id="paint14_linear_2703_418" x1="54.5802" y1="45.6431" x2="55.8865" y2="46.3536" gradientUnits="userSpaceOnUse">
<stop stop-color="white" stop-opacity="0"/>
<stop offset="0.870298" stop-color="white"/>
</linearGradient>
<linearGradient id="paint15_linear_2703_418" x1="53.298" y1="46.8299" x2="57.251" y2="49.2365" gradientUnits="userSpaceOnUse">
<stop stop-color="#960012"/>
<stop offset="0.802083" stop-color="#FFD9D9"/>
</linearGradient>
<linearGradient id="paint16_linear_2703_418" x1="53.7399" y1="47.0703" x2="57.334" y2="49.1833" gradientUnits="userSpaceOnUse">
<stop stop-color="#960012"/>
<stop offset="0.942708" stop-color="#FFD9D9"/>
</linearGradient>
<linearGradient id="paint17_linear_2703_418" x1="47.9255" y1="52.736" x2="54.6532" y2="56.6449" gradientUnits="userSpaceOnUse">
<stop stop-color="#960012"/>
<stop offset="0.802083" stop-color="#FFD9D9"/>
</linearGradient>
<linearGradient id="paint18_linear_2703_418" x1="51.0899" y1="53.0249" x2="54.5691" y2="56.7022" gradientUnits="userSpaceOnUse">
<stop stop-color="#960012"/>
<stop offset="0.802083" stop-color="#FFD9D9"/>
</linearGradient>
<linearGradient id="paint19_linear_2703_418" x1="57.1774" y1="52.5901" x2="55.1338" y2="49.9307" gradientUnits="userSpaceOnUse">
<stop stop-color="white" stop-opacity="0"/>
<stop offset="0.870298" stop-color="white"/>
</linearGradient>
<linearGradient id="paint20_linear_2703_418" x1="44.8175" y1="57.2477" x2="53.2894" y2="55.8496" gradientUnits="userSpaceOnUse">
<stop stop-color="#960012"/>
<stop offset="0.802083" stop-color="#FFD9D9"/>
</linearGradient>
<linearGradient id="paint21_linear_2703_418" x1="44.7852" y1="56.0238" x2="52.7462" y2="52.3365" gradientUnits="userSpaceOnUse">
<stop offset="0.078125" stop-color="#960012"/>
<stop offset="0.802083" stop-color="#FFEDEE"/>
</linearGradient>
<linearGradient id="paint22_linear_2703_418" x1="52.8655" y1="55.5141" x2="44.9033" y2="56.4583" gradientUnits="userSpaceOnUse">
<stop stop-color="white" stop-opacity="0"/>
<stop offset="0.870298" stop-color="white"/>
</linearGradient>
<radialGradient id="paint23_radial_2703_418" cx="0" cy="0" r="1" gradientUnits="userSpaceOnUse" gradientTransform="translate(0.762083 0.699193) rotate(90) scale(0.699193 0.762083)">
<stop stop-color="white"/>
<stop offset="1" stop-color="white" stop-opacity="0"/>
</radialGradient>
<radialGradient id="paint24_radial_2703_418" cx="0" cy="0" r="1" gradientUnits="userSpaceOnUse" gradientTransform="translate(0.541243 0.496577) rotate(90) scale(0.496577 0.541243)">
<stop stop-color="white"/>
<stop offset="1" stop-color="white" stop-opacity="0"/>
</radialGradient>
<radialGradient id="paint25_radial_2703_418" cx="0" cy="0" r="1" gradientUnits="userSpaceOnUse" gradientTransform="translate(0.375497 0.496577) rotate(90) scale(0.496577 0.375497)">
<stop stop-color="white"/>
<stop offset="1" stop-color="white" stop-opacity="0"/>
</radialGradient>
<radialGradient id="paint26_radial_2703_418" cx="0" cy="0" r="1" gradientUnits="userSpaceOnUse" gradientTransform="translate(1.21188 1.11187) rotate(90) scale(1.11187 1.21188)">
<stop stop-color="white"/>
<stop offset="1" stop-color="white" stop-opacity="0"/>
</radialGradient>
<linearGradient id="paint27_linear_2703_418" x1="37.5912" y1="54.352" x2="40.3639" y2="51.6165" gradientUnits="userSpaceOnUse">
<stop stop-color="#960012"/>
<stop offset="0.802083" stop-color="#FFD9D9"/>
</linearGradient>
<linearGradient id="paint28_linear_2703_418" x1="37.8977" y1="54.0329" x2="40.3418" y2="51.6883" gradientUnits="userSpaceOnUse">
<stop stop-color="#960012"/>
<stop offset="0.802083" stop-color="#FFD9D9"/>
</linearGradient>
<linearGradient id="paint29_linear_2703_418" x1="34.4789" y1="51.1571" x2="36.6793" y2="49.9478" gradientUnits="userSpaceOnUse">
<stop stop-color="#960012"/>
<stop offset="0.802083" stop-color="#FFD9D9"/>
</linearGradient>
<linearGradient id="paint30_linear_2703_418" x1="34.5738" y1="51.1031" x2="36.6697" y2="49.9636" gradientUnits="userSpaceOnUse">
<stop stop-color="#960012"/>
<stop offset="0.802083" stop-color="#FFD9D9"/>
</linearGradient>
<linearGradient id="paint31_linear_2703_418" x1="34.7619" y1="47.1612" x2="33.1464" y2="47.8809" gradientUnits="userSpaceOnUse">
<stop stop-color="white" stop-opacity="0"/>
<stop offset="0.870298" stop-color="white"/>
</linearGradient>
<linearGradient id="paint32_linear_2703_418" x1="32.7206" y1="49.4706" x2="34.1635" y2="47.5272" gradientUnits="userSpaceOnUse">
<stop stop-color="#960012"/>
<stop offset="0.802083" stop-color="#FFD9D9"/>
</linearGradient>
<linearGradient id="paint33_linear_2703_418" x1="32.8396" y1="49.3656" x2="34.5295" y2="48.2522" gradientUnits="userSpaceOnUse">
<stop stop-color="#960012"/>
<stop offset="0.802083" stop-color="#FFD9D9"/>
</linearGradient>
<linearGradient id="paint34_linear_2703_418" x1="32.5357" y1="45.7462" x2="31.2361" y2="46.469" gradientUnits="userSpaceOnUse">
<stop stop-color="white" stop-opacity="0"/>
<stop offset="0.870298" stop-color="white"/>
</linearGradient>
<linearGradient id="paint35_linear_2703_418" x1="33.8293" y1="46.9209" x2="29.8991" y2="49.3645" gradientUnits="userSpaceOnUse">
<stop stop-color="#960012"/>
<stop offset="0.802083" stop-color="#FFD9D9"/>
</linearGradient>
<linearGradient id="paint36_linear_2703_418" x1="33.3896" y1="47.1658" x2="29.8155" y2="49.3124" gradientUnits="userSpaceOnUse">
<stop stop-color="#960012"/>
<stop offset="0.942708" stop-color="#FFD9D9"/>
</linearGradient>
<linearGradient id="paint37_linear_2703_418" x1="39.2568" y1="52.7769" x2="32.5661" y2="56.7488" gradientUnits="userSpaceOnUse">
<stop stop-color="#960012"/>
<stop offset="0.802083" stop-color="#FFD9D9"/>
</linearGradient>
<linearGradient id="paint38_linear_2703_418" x1="36.0953" y1="53.0954" x2="32.6508" y2="56.8052" gradientUnits="userSpaceOnUse">
<stop stop-color="#960012"/>
<stop offset="0.802083" stop-color="#FFD9D9"/>
</linearGradient>
<linearGradient id="paint39_linear_2703_418" x1="30.0036" y1="52.7178" x2="32.0222" y2="50.0393" gradientUnits="userSpaceOnUse">
<stop stop-color="white" stop-opacity="0"/>
<stop offset="0.870298" stop-color="white"/>
</linearGradient>
<linearGradient id="paint40_linear_2703_418" x1="42.4071" y1="57.259" x2="33.9224" y2="55.9405" gradientUnits="userSpaceOnUse">
<stop stop-color="#960012"/>
<stop offset="0.802083" stop-color="#FFD9D9"/>
</linearGradient>
<linearGradient id="paint41_linear_2703_418" x1="42.4274" y1="56.0349" x2="34.4325" y2="52.4225" gradientUnits="userSpaceOnUse">
<stop offset="0.078125" stop-color="#960012"/>
<stop offset="0.802083" stop-color="#FFEDEE"/>
</linearGradient>
<linearGradient id="paint42_linear_2703_418" x1="34.343" y1="55.6006" x2="42.3138" y2="56.4701" gradientUnits="userSpaceOnUse">
<stop stop-color="white" stop-opacity="0"/>
<stop offset="0.870298" stop-color="white"/>
</linearGradient>
<radialGradient id="paint43_radial_2703_418" cx="0" cy="0" r="1" gradientUnits="userSpaceOnUse" gradientTransform="translate(0.762083 0.699193) rotate(90) scale(0.699193 0.762083)">
<stop stop-color="white"/>
<stop offset="1" stop-color="white" stop-opacity="0"/>
</radialGradient>
<radialGradient id="paint44_radial_2703_418" cx="0" cy="0" r="1" gradientUnits="userSpaceOnUse" gradientTransform="translate(0.541243 0.496577) rotate(90) scale(0.496577 0.541243)">
<stop stop-color="white"/>
<stop offset="1" stop-color="white" stop-opacity="0"/>
</radialGradient>
<radialGradient id="paint45_radial_2703_418" cx="0" cy="0" r="1" gradientUnits="userSpaceOnUse" gradientTransform="translate(0.375497 0.496577) rotate(90) scale(0.496577 0.375497)">
<stop stop-color="white"/>
<stop offset="1" stop-color="white" stop-opacity="0"/>
</radialGradient>
<radialGradient id="paint46_radial_2703_418" cx="0" cy="0" r="1" gradientUnits="userSpaceOnUse" gradientTransform="translate(1.21188 1.11187) rotate(90) scale(1.11187 1.21188)">
<stop stop-color="white"/>
<stop offset="1" stop-color="white" stop-opacity="0"/>
</radialGradient>
<linearGradient id="paint47_linear_2703_418" x1="42.7601" y1="50.2601" x2="45.2278" y2="58.4257" gradientUnits="userSpaceOnUse">
<stop stop-color="#FFC6C9"/>
<stop offset="0.3125" stop-color="white"/>
<stop offset="0.5" stop-color="#FFC6C9"/>
<stop offset="0.78125" stop-color="white"/>
<stop offset="1" stop-color="#FFC6C9"/>
</linearGradient>
<radialGradient id="paint48_radial_2703_418" cx="0" cy="0" r="1" gradientUnits="userSpaceOnUse" gradientTransform="translate(43.8334 53.8018) rotate(85.0887) scale(2.29206 2.00691)">
<stop offset="0.135417" stop-color="white"/>
<stop offset="1" stop-color="#E80E0E"/>
</radialGradient>
</defs>
</svg>
