<svg width="314" height="274" viewBox="0 0 314 274" fill="none" xmlns="http://www.w3.org/2000/svg">
<path d="M175.376 113.734L232.156 143.732L220.782 163.459L166.846 128.529L175.376 113.734Z" fill="url(#paint0_linear_2499_249)"/>
<path d="M165.878 129.673L168.506 194.266L145.881 194.196L148.909 129.62L165.878 129.673Z" fill="url(#paint1_linear_2499_249)"/>
<path d="M147.559 128.674L93.4077 163.269L82.1563 143.473L139.121 113.827L147.559 128.674Z" fill="url(#paint2_linear_2499_249)"/>
<path d="M175.384 111.34L232.348 81.6943L221.097 61.8979L166.945 96.493L175.384 111.34Z" fill="url(#paint3_linear_2499_249)"/>
<path d="M147.66 96.2286L93.7236 61.2988L82.3498 81.0252L139.13 111.023L147.66 96.2286Z" fill="url(#paint4_linear_2499_249)"/>
<g filter="url(#filter0_dd_2499_249)">
<path d="M141.891 151.586L173.347 151.683L173.299 167.215L157.546 175.098L141.843 167.118L141.891 151.586Z" fill="url(#paint5_radial_2499_249)"/>
<path opacity="0.8" fill-rule="evenodd" clip-rule="evenodd" d="M163.064 172.337L157.546 175.098L141.843 167.118L141.888 152.578L146.148 152.591C146.225 152.766 146.302 152.942 146.38 153.119C150.023 161.426 154.023 170.548 163.064 172.337Z" fill="url(#paint6_linear_2499_249)"/>
<g opacity="0.8" filter="url(#filter1_f_2499_249)">
<path d="M157.745 164.028L173.169 156.144L173.179 153.17L142.214 153.074L142.205 156.048L157.745 164.028Z" fill="#0E3060"/>
</g>
<g filter="url(#filter2_f_2499_249)">
<path d="M146.945 159.698C145.409 162.152 145.407 162.833 146.931 164.325C146.658 164.324 146.469 165.216 151.832 168.801C158.535 173.283 164.447 169.006 168.557 164.392C172.667 159.778 171.356 159.774 170.369 161.093C169.382 162.412 167.074 167.031 159.205 168.824C151.335 170.617 153.037 149.968 146.945 159.698Z" fill="url(#paint7_linear_2499_249)"/>
</g>
<g filter="url(#filter3_d_2499_249)">
<path d="M157.549 174.106L141.845 166.457L141.841 167.614L157.546 175.263L173.297 167.711L173.3 166.72L157.549 174.106Z" fill="url(#paint8_linear_2499_249)"/>
<path d="M157.553 173.115L141.848 165.466L141.843 166.953L157.549 174.272L173.299 167.05L173.304 165.728L157.553 173.115Z" fill="url(#paint9_linear_2499_249)"/>
<path fill-rule="evenodd" clip-rule="evenodd" d="M173.304 165.728L157.388 173.298L141.849 165.631L141.85 165.3L157.391 172.931L173.306 165.398L173.304 165.728Z" fill="#FFC9DB"/>
</g>
<path fill-rule="evenodd" clip-rule="evenodd" d="M172.194 153.663L172.162 164.04L172.033 164.068C171.491 164.188 171.07 164.53 170.782 164.908C170.638 165.096 170.53 165.291 170.458 165.466C170.386 165.643 170.354 165.79 170.354 165.884L170.353 165.992L157.392 171.643L144.659 165.758L144.639 165.685C144.52 165.26 144.242 164.884 143.933 164.583C143.624 164.283 143.294 164.068 143.09 163.965L142.999 163.919L143.03 153.903L143.358 153.904L143.328 163.718C143.556 163.846 143.867 164.061 144.16 164.345C144.476 164.653 144.782 165.051 144.932 165.521L157.396 171.281L170.034 165.772C170.05 165.641 170.093 165.492 170.156 165.339C170.239 165.137 170.361 164.918 170.522 164.706C170.821 164.313 171.26 163.94 171.835 163.777L171.866 153.662L172.194 153.663Z" fill="url(#paint10_linear_2499_249)"/>
<path fill-rule="evenodd" clip-rule="evenodd" d="M157.58 164.192L157.56 170.636L157.232 170.635L157.252 164.191L157.58 164.192Z" fill="url(#paint11_linear_2499_249)"/>
<path fill-rule="evenodd" clip-rule="evenodd" d="M156.42 168.638C155.766 169.395 154.971 169.561 154.424 169.468L154.479 169.142C154.915 169.216 155.595 169.09 156.174 168.421C156.755 167.75 157.245 166.516 157.252 164.356L157.58 164.357C157.573 166.56 157.073 167.884 156.42 168.638Z" fill="url(#paint12_linear_2499_249)"/>
<path fill-rule="evenodd" clip-rule="evenodd" d="M158.385 168.645C159.035 169.405 159.829 169.576 160.376 169.486L160.324 169.16C159.887 169.232 159.208 169.101 158.633 168.429C158.057 167.754 157.574 166.517 157.58 164.358L157.253 164.356C157.246 166.559 157.738 167.887 158.385 168.645Z" fill="url(#paint13_linear_2499_249)"/>
<g opacity="0.8" filter="url(#filter4_f_2499_249)">
<path d="M157.601 157.583L173.169 156.144L173.179 153.17L142.214 153.074L142.205 156.048L157.601 157.583Z" fill="#0E3060"/>
</g>
<path fill-rule="evenodd" clip-rule="evenodd" d="M157.327 170.786L153.633 169.137L154.452 169.14L157.397 170.455L160.35 169.143L161.073 169.146L157.464 170.787C157.42 170.806 157.371 170.806 157.327 170.786Z" fill="url(#paint14_linear_2499_249)"/>
<path d="M148.419 70.6884L126.389 82.6864C120.309 85.9979 116.516 92.3596 116.495 99.2833L116.406 127.888C116.385 134.812 120.138 141.197 126.198 144.546L148.153 156.68C153.825 159.815 160.706 159.837 166.398 156.737L188.428 144.739C194.508 141.428 198.301 135.066 198.323 128.142L198.411 99.537C198.433 92.6133 194.679 86.2282 188.62 82.8791L166.664 70.7449C160.992 67.6099 154.111 67.5886 148.419 70.6884Z" fill="url(#paint15_linear_2499_249)"/>
<path d="M148.382 77.9398L132.566 86.5536C126.508 89.8526 122.73 96.1905 122.708 103.088L122.644 123.955C122.622 130.853 126.362 137.214 132.399 140.551L148.161 149.262C153.812 152.385 160.667 152.407 166.337 149.318L182.153 140.705C188.211 137.406 191.989 131.068 192.011 124.17L192.075 103.303C192.097 96.4052 188.358 90.0441 182.321 86.7076L166.558 77.9961C160.907 74.8729 154.052 74.8517 148.382 77.9398Z" fill="url(#paint16_linear_2499_249)"/>
<g filter="url(#filter5_f_2499_249)">
<path d="M148.382 77.9398L132.566 86.5536C126.508 89.8526 122.73 96.1905 122.708 103.088L122.644 123.955C122.622 130.853 126.362 137.214 132.399 140.551L148.161 149.262C153.812 152.385 160.667 152.407 166.337 149.318L182.153 140.705C188.211 137.406 191.989 131.068 192.011 124.17L192.075 103.303C192.097 96.4052 188.358 90.0441 182.321 86.7076L166.558 77.9961C160.907 74.8729 154.052 74.8517 148.382 77.9398Z" stroke="url(#paint17_linear_2499_249)" stroke-width="1.11562"/>
</g>
<g opacity="0.5">
<mask id="mask0_2499_249" style="mask-type:alpha" maskUnits="userSpaceOnUse" x="125" y="78" width="65" height="71">
<path d="M149.035 80.9964L135.036 88.6135C129.271 91.7505 125.674 97.7811 125.654 104.345L125.596 122.847C125.576 129.411 129.135 135.464 134.881 138.636L148.832 146.34C154.205 149.306 160.719 149.327 166.11 146.393L180.109 138.776C185.874 135.639 189.471 129.609 189.491 123.045L189.548 104.542C189.569 97.9789 186.009 91.9262 180.264 88.7535L166.312 81.0499C160.94 78.0834 154.425 78.0633 149.035 80.9964Z" fill="#A6D3DE"/>
</mask>
<g mask="url(#mask0_2499_249)">
<path d="M149.035 80.9964L135.036 88.6135C129.271 91.7505 125.674 97.7811 125.654 104.345L125.596 122.847C125.576 129.411 129.135 135.464 134.881 138.636L148.832 146.34C154.205 149.306 160.719 149.327 166.11 146.393L180.109 138.776C185.874 135.639 189.471 129.609 189.491 123.045L189.548 104.542C189.569 97.9789 186.009 91.9262 180.264 88.7535L166.312 81.0499C160.94 78.0834 154.425 78.0633 149.035 80.9964Z" fill="url(#paint18_radial_2499_249)"/>
<path opacity="0.5" d="M152.111 152.564L151.083 74.7866L164.303 74.8276L162.793 152.597L152.111 152.564Z" fill="url(#paint19_linear_2499_249)"/>
<path opacity="0.5" d="M151.943 151.873L112.494 85.0366L123.963 78.4058L161.21 146.515L151.943 151.873Z" fill="url(#paint20_linear_2499_249)"/>
<path opacity="0.5" d="M150.858 146.484L188.527 78.606L199.955 85.3077L160.092 151.899L150.858 146.484Z" fill="url(#paint21_linear_2499_249)"/>
<rect x="125.638" y="109.15" width="63.8952" height="41.8496" transform="rotate(0.177412 125.638 109.15)" fill="url(#paint22_linear_2499_249)"/>
<g filter="url(#filter6_i_2499_249)">
<path d="M149.035 80.9964L135.036 88.6135C129.271 91.7505 125.674 97.7811 125.654 104.345L125.596 122.847C125.576 129.411 129.135 135.464 134.881 138.636L148.832 146.34C154.205 149.306 160.719 149.327 166.11 146.393L180.109 138.776C185.874 135.639 189.471 129.609 189.491 123.045L189.548 104.542C189.569 97.9789 186.009 91.9262 180.264 88.7535L166.312 81.0499C160.94 78.0834 154.425 78.0633 149.035 80.9964Z" fill="#6052B4" fill-opacity="0.01"/>
</g>
</g>
</g>
<g filter="url(#filter7_d_2499_249)">
<path d="M138.436 115.912L138.484 100.455L156.377 96.1425C157.266 95.7858 158.524 95.9624 159.042 96.1507L176.242 100.572C176.161 102.7 176.039 108.86 176.193 116.476C176.347 124.093 170.373 130.982 167.367 133.474L158.128 140.277C157.943 140.314 157.506 140.365 157.24 140.274C156.973 140.184 149.847 135.342 146.602 132.625C140.178 127.247 138.499 119.346 138.436 115.912Z" fill="url(#paint23_linear_2499_249)"/>
<path d="M141.829 115.865L141.868 103.221L156.505 99.6937C157.279 99.4938 158.262 99.5465 158.685 99.7005L172.754 103.317C172.688 105.058 172.588 110.096 172.714 116.327C172.84 122.557 167.953 128.192 165.494 130.23L157.937 135.795C157.786 135.825 157.428 135.867 157.211 135.793C156.993 135.719 151.319 131.591 148.509 129.536C143.29 125.342 141.881 118.674 141.829 115.865Z" fill="url(#paint24_linear_2499_249)"/>
<path d="M143.472 115.795L143.507 104.497C143.507 104.497 155.91 101.543 156.587 101.345C157.263 101.146 158.157 101.213 158.535 101.351L171.107 104.583C171.049 106.138 170.959 110.641 171.071 116.208C171.184 121.776 166.817 126.811 164.62 128.633L157.867 133.606C157.732 133.633 157.412 133.67 157.217 133.604C157.023 133.538 151.953 129.849 149.442 128.013C144.778 124.265 143.519 118.306 143.472 115.795Z" fill="url(#paint25_linear_2499_249)"/>
<g filter="url(#filter8_f_2499_249)">
<path d="M143.822 118.745C144.879 125.64 150.622 129.466 156.186 132.748L156.255 110.623L143.487 110.583L143.822 118.745Z" fill="url(#paint26_linear_2499_249)"/>
</g>
</g>
<mask id="mask1_2499_249" style="mask-type:alpha" maskUnits="userSpaceOnUse" x="87" y="46" width="141" height="114">
<rect x="88.1526" y="46" width="138.931" height="112.689" transform="rotate(0.177412 88.1526 46)" fill="#ABABAB"/>
</mask>
<g mask="url(#mask1_2499_249)">
<g filter="url(#filter9_d_2499_249)">
<g filter="url(#filter10_d_2499_249)">
<path fill-rule="evenodd" clip-rule="evenodd" d="M192.644 121.82C196.97 114.969 196.877 108.6 195.258 103.914L222.02 74.1267C221.366 89.0364 214.617 119.444 192.859 121.797C192.787 121.805 192.715 121.812 192.644 121.82Z" fill="url(#paint27_linear_2499_249)"/>
</g>
<path d="M196.296 104.145L221.199 76.4282C220.627 83.7158 218.741 93.6826 214.747 102.367C210.511 111.577 203.993 119.173 194.312 120.832C197.779 114.529 197.731 108.655 196.296 104.145Z" stroke="url(#paint28_linear_2499_249)" stroke-width="1.61464"/>
<path opacity="0.8" d="M206.81 107.418L196.649 113.965L196.029 116.363L206.81 107.418Z" fill="url(#paint29_linear_2499_249)"/>
<g filter="url(#filter11_d_2499_249)">
<path fill-rule="evenodd" clip-rule="evenodd" d="M183.98 131.289C190.777 125.906 194.229 120.489 195.63 115.574L220.464 97.3212C219.024 110.553 209.709 135.674 183.98 131.289Z" fill="url(#paint30_linear_2499_249)"/>
</g>
<path d="M196.327 116.065L219.417 99.0947C218.441 105.46 215.785 113.843 210.692 120.414C205.391 127.254 197.456 132.135 185.906 130.753C191.767 125.765 194.932 120.736 196.327 116.065Z" stroke="url(#paint31_linear_2499_249)" stroke-width="1.61464"/>
<path d="M207.973 117.97L192.712 121.98L191.54 123.891L207.973 117.97Z" fill="url(#paint32_linear_2499_249)"/>
<g filter="url(#filter12_d_2499_249)">
<path fill-rule="evenodd" clip-rule="evenodd" d="M191.999 123.014C188.956 127.36 184.096 131.869 176.697 136.243C173.838 137.933 171.375 139.513 169.263 140.99L169.063 141.157C204.387 143.344 215.764 124.766 217.086 115.015L191.999 123.014Z" fill="url(#paint33_linear_2499_249)"/>
</g>
<path d="M169.262 140.992C171.374 139.514 173.838 137.933 176.698 136.243C184.097 131.87 188.957 127.36 191.999 123.014L217.087 115.015" stroke="url(#paint34_linear_2499_249)" stroke-width="1.61464"/>
<path d="M192.855 135.166L184.516 130.751L182.834 132.016L192.855 135.166Z" fill="url(#paint35_linear_2499_249)"/>
<path fill-rule="evenodd" clip-rule="evenodd" d="M183.846 131.394C181.78 133.019 179.41 134.64 176.698 136.243C170.029 140.184 165.513 143.533 162.585 146.351C162.945 147.206 164.954 147.11 167.987 145.318C174.134 141.684 179.575 141.081 189.149 141.606C198.452 142.116 201.333 141.112 202.99 139.434C199.199 137.754 189.715 133.767 183.846 131.394Z" fill="url(#paint36_linear_2499_249)"/>
<path d="M177.109 136.94C179.69 135.414 181.969 133.87 183.977 132.318C189.288 134.471 197.225 137.802 201.436 139.633C199.794 140.61 196.695 141.211 189.19 140.799C179.557 140.271 173.925 140.868 167.575 144.621C166.109 145.488 164.948 145.908 164.159 146.028C164.145 146.031 164.13 146.033 164.115 146.035C166.986 143.464 171.177 140.446 177.109 136.94ZM163.295 145.993C163.296 145.993 163.297 145.994 163.3 145.996C163.297 145.994 163.295 145.993 163.295 145.993Z" stroke="url(#paint37_linear_2499_249)" stroke-width="1.61464"/>
</g>
<g filter="url(#filter13_d_2499_249)">
<g filter="url(#filter14_d_2499_249)">
<path fill-rule="evenodd" clip-rule="evenodd" d="M121.904 121.6C117.62 114.724 117.753 108.355 119.401 103.679L92.8224 73.7262C93.3844 88.6397 99.9443 119.088 121.687 121.576C121.76 121.584 121.832 121.592 121.904 121.6Z" fill="url(#paint38_linear_2499_249)"/>
</g>
<path d="M118.36 103.903L93.6298 76.033C94.1562 83.324 95.9804 93.3023 99.9205 102.011C104.099 111.247 110.57 118.883 120.241 120.603C116.813 114.278 116.898 108.405 118.36 103.903Z" stroke="url(#paint39_linear_2499_249)" stroke-width="1.61464"/>
<path opacity="0.8" d="M107.827 107.111L117.947 113.721L118.552 116.123L107.827 107.111Z" fill="url(#paint40_linear_2499_249)"/>
<g filter="url(#filter15_d_2499_249)">
<path fill-rule="evenodd" clip-rule="evenodd" d="M130.51 131.123C123.746 125.698 120.327 120.26 118.956 115.336L94.2363 96.93C95.5942 110.17 104.754 135.348 130.51 131.123Z" fill="url(#paint41_linear_2499_249)"/>
</g>
<path d="M118.255 115.823L95.2718 98.71C96.2081 105.081 98.8118 113.481 103.864 120.083C109.123 126.955 117.027 131.886 128.585 130.575C122.756 125.551 119.621 120.502 118.255 115.823Z" stroke="url(#paint42_linear_2499_249)" stroke-width="1.61464"/>
<path d="M106.599 117.656L121.834 121.759L122.994 123.678L106.599 117.656Z" fill="url(#paint43_linear_2499_249)"/>
<g filter="url(#filter16_d_2499_249)">
<path fill-rule="evenodd" clip-rule="evenodd" d="M122.541 122.799C125.557 127.163 130.388 131.703 137.76 136.122C140.609 137.83 143.063 139.427 145.167 140.917L145.364 141.084C110.027 143.052 98.7655 124.404 97.5037 114.644L122.541 122.799Z" fill="url(#paint44_linear_2499_249)"/>
</g>
<path d="M145.166 140.916C143.063 139.426 140.609 137.83 137.76 136.122C130.388 131.703 125.556 127.163 122.541 122.799L97.5033 114.644" stroke="url(#paint45_linear_2499_249)" stroke-width="1.61464"/>
<path d="M121.609 134.946L129.976 130.582L131.65 131.858L121.609 134.946Z" fill="url(#paint46_linear_2499_249)"/>
<path fill-rule="evenodd" clip-rule="evenodd" d="M130.642 131.229C132.697 132.867 135.058 134.503 137.76 136.122C144.404 140.105 148.899 143.482 151.81 146.318C151.445 147.17 149.436 147.062 146.415 145.251C140.29 141.579 134.853 140.943 125.276 141.408C115.97 141.861 113.095 140.839 111.448 139.15C115.25 137.494 124.759 133.565 130.642 131.229Z" fill="url(#paint47_linear_2499_249)"/>
<path d="M137.344 136.816C134.773 135.275 132.503 133.716 130.505 132.152C125.181 134.273 117.224 137.554 113.001 139.359C114.637 140.347 117.732 140.966 125.24 140.601C134.876 140.132 140.504 140.764 146.831 144.557C148.292 145.433 149.45 145.86 150.237 145.985C150.252 145.988 150.267 145.99 150.281 145.992C147.427 143.403 143.255 140.359 137.344 136.816ZM151.102 145.955C151.102 145.955 151.1 145.956 151.098 145.958C151.101 145.956 151.102 145.955 151.102 145.955Z" stroke="url(#paint48_linear_2499_249)" stroke-width="1.61464"/>
</g>
</g>
<g filter="url(#filter17_d_2499_249)">
<mask id="mask2_2499_249" style="mask-type:alpha" maskUnits="userSpaceOnUse" x="150" y="145" width="16" height="18">
<path fill-rule="evenodd" clip-rule="evenodd" d="M157.633 162.325C157.64 162.322 157.648 162.322 157.655 162.325L157.672 162.331C157.684 162.336 157.697 162.327 157.697 162.314C157.697 162.306 157.702 162.299 157.709 162.296L163.618 160.056C164.921 159.562 165.457 158.008 164.736 156.815L157.645 145.083C157.645 145.083 157.645 145.083 157.645 145.083L157.645 145.083C157.645 145.083 157.645 145.083 157.645 145.083L157.645 145.083C157.645 145.083 157.645 145.083 157.645 145.083C157.645 145.083 157.645 145.083 157.645 145.083L157.645 145.083C157.645 145.083 157.645 145.083 157.645 145.083L150.488 156.762C149.758 157.953 150.289 159.514 151.594 160.012L157.58 162.296C157.587 162.299 157.592 162.306 157.592 162.314C157.592 162.327 157.605 162.336 157.617 162.331L157.633 162.325Z" fill="url(#paint49_linear_2499_249)"/>
</mask>
<g mask="url(#mask2_2499_249)">
<path d="M157.637 162.627L166.092 159.155L157.695 143.769L157.637 162.627Z" fill="url(#paint50_linear_2499_249)"/>
<path d="M157.637 162.628L149.203 159.104L157.695 143.769L157.637 162.628Z" fill="url(#paint51_linear_2499_249)"/>
<path d="M157.625 149.652L161.225 150.985L159.432 148.005L157.638 145.19L155.828 147.994L154.016 150.962L157.625 149.652Z" fill="url(#paint52_linear_2499_249)"/>
<path fill-rule="evenodd" clip-rule="evenodd" d="M157.616 145.227L157.602 149.66L154.017 150.963L157.616 145.227Z" fill="#F5B5CB"/>
</g>
</g>
</g>
<path d="M158.014 112.102L160.726 114.142L163.283 116.143L162.273 119.402L161.271 122.682L158.014 122.755L154.757 122.682L153.772 119.405L152.744 116.143L155.392 114.142L158.014 112.102Z" fill="url(#paint53_linear_2499_249)"/>
<path d="M158.014 112.101V107.982L166.988 114.861L163.281 116.138L158.014 112.101Z" fill="url(#paint54_linear_2499_249)"/>
<path d="M158.014 112.142V108.023L149 114.902L152.746 116.138L158.014 112.142Z" fill="url(#paint55_linear_2499_249)"/>
<path d="M161.252 122.687L163.545 125.976L166.988 114.861L163.281 116.138L161.252 122.687Z" fill="url(#paint56_linear_2499_249)"/>
<path d="M154.775 122.687L152.434 125.982H163.555L161.252 122.687H154.775Z" fill="url(#paint57_linear_2499_249)"/>
<path d="M154.775 122.687L152.434 125.982L149.039 114.902L152.746 116.138L154.775 122.687Z" fill="url(#paint58_linear_2499_249)"/>
<path d="M158 112.157C152.227 116.013 151.545 115.515 149.227 114.748L149 114.892L152.727 116.187L158 112.157Z" fill="#64DBFF"/>
<path opacity="0.2" d="M153.591 120.362C152.173 123.164 150.151 118.491 149.318 115.804L150.864 120.938L152.454 125.976C152.545 125.016 152.727 121.082 154.773 122.665L153.591 118.827C153.7 119.825 153.636 120.266 153.591 120.362Z" fill="url(#paint59_linear_2499_249)"/>
<path opacity="0.2" fill-rule="evenodd" clip-rule="evenodd" d="M165.208 120.495C164.203 121.083 163.048 121.417 161.818 121.417C157.952 121.417 154.818 118.109 154.818 114.028C154.818 112.146 155.485 110.429 156.582 109.124L158.045 108.03L166.954 114.892L165.208 120.495Z" fill="#74E4FF"/>
<path d="M163.045 113.932C161.91 113.881 159.03 112.845 158 112.109L163.273 116.14C163.909 114.652 164.909 114.556 167 114.892L159.545 109.182C162.409 111.677 164.682 114.006 163.045 113.932Z" fill="url(#paint60_linear_2499_249)"/>
<path fill-rule="evenodd" clip-rule="evenodd" d="M158.013 111.983L160.78 114.064L163.39 116.107L162.359 119.432L162.359 119.432L161.337 122.777L158.014 122.851L154.69 122.777L153.685 119.436L153.685 119.434L152.637 116.106L155.339 114.064L158.013 111.983ZM158.015 112.22L155.445 114.219L152.851 116.18L153.858 119.376L154.824 122.588L158.014 122.659L161.204 122.588L162.186 119.373L162.186 119.372L163.177 116.179L160.673 114.219L158.015 112.22Z" fill="url(#paint61_linear_2499_249)"/>
<path opacity="0.1" d="M158.5 125.976C156.173 124.555 157.621 123.225 158.636 122.713H161.318L163.545 125.976H158.5Z" fill="white"/>
<g filter="url(#filter18_f_2499_249)">
<path d="M163.182 114.316L163.302 115.82L164.727 115.947L163.302 116.074L163.182 117.579L163.062 116.074L161.636 115.947L163.062 115.82L163.182 114.316Z" fill="white"/>
</g>
<path d="M163.182 114.316L163.302 115.82L164.727 115.947L163.302 116.074L163.182 117.579L163.062 116.074L161.636 115.947L163.062 115.82L163.182 114.316Z" fill="white"/>
<path d="M163.182 113.836L163.35 113.844L163.517 113.865L163.682 113.901L163.844 113.95L164.001 114.013L164.153 114.089L164.299 114.178L164.438 114.279L164.568 114.392L164.69 114.515L164.801 114.648L164.903 114.79L164.993 114.94L165.071 115.097L165.137 115.261L165.19 115.43L165.23 115.602L165.257 115.778L165.271 115.955V116.132L165.257 116.31L165.23 116.485L165.19 116.658L165.137 116.826L165.071 116.99L164.993 117.147L164.903 117.297L164.801 117.44L164.69 117.573L164.568 117.696L164.438 117.808L164.299 117.909L164.153 117.998L164.001 118.074L163.844 118.137L163.682 118.187L163.517 118.222L163.35 118.244L163.182 118.251L163.014 118.244L162.846 118.222L162.681 118.187L162.52 118.137L162.362 118.074L162.21 117.998L162.064 117.909L161.926 117.808L161.795 117.696L161.674 117.573L161.562 117.44L161.461 117.297L161.371 117.147L161.293 116.99L161.227 116.826L161.173 116.658L161.133 116.485L161.106 116.31L161.093 116.132V115.955L161.106 115.778L161.133 115.602L161.173 115.43L161.227 115.261L161.293 115.097L161.371 114.94L161.461 114.79L161.562 114.648L161.674 114.515L161.795 114.392L161.926 114.279L162.064 114.178L162.21 114.089L162.362 114.013L162.52 113.95L162.681 113.901L162.846 113.865L163.014 113.844L163.182 113.836Z" fill="white" fill-opacity="0.17"/>
<defs>
<filter id="filter0_dd_2499_249" x="0.85997" y="-17.3354" width="313.123" height="290.557" filterUnits="userSpaceOnUse" color-interpolation-filters="sRGB">
<feFlood flood-opacity="0" result="BackgroundImageFix"/>
<feColorMatrix in="SourceAlpha" type="matrix" values="0 0 0 0 0 0 0 0 0 0 0 0 0 0 0 0 0 0 127 0" result="hardAlpha"/>
<feOffset/>
<feGaussianBlur stdDeviation="15.306"/>
<feColorMatrix type="matrix" values="0 0 0 0 1 0 0 0 0 0.520833 0 0 0 0 0.687984 0 0 0 1 0"/>
<feBlend mode="normal" in2="BackgroundImageFix" result="effect1_dropShadow_2499_249"/>
<feColorMatrix in="SourceAlpha" type="matrix" values="0 0 0 0 0 0 0 0 0 0 0 0 0 0 0 0 0 0 127 0" result="hardAlpha"/>
<feOffset dy="6.12241"/>
<feGaussianBlur stdDeviation="45.9181"/>
<feColorMatrix type="matrix" values="0 0 0 0 0.991667 0 0 0 0 0.44625 0 0 0 0 0.636512 0 0 0 0.6 0"/>
<feBlend mode="normal" in2="effect1_dropShadow_2499_249" result="effect2_dropShadow_2499_249"/>
<feBlend mode="normal" in="SourceGraphic" in2="effect2_dropShadow_2499_249" result="shape"/>
</filter>
<filter id="filter1_f_2499_249" x="137.742" y="148.612" width="39.8986" height="19.8786" filterUnits="userSpaceOnUse" color-interpolation-filters="sRGB">
<feFlood flood-opacity="0" result="BackgroundImageFix"/>
<feBlend mode="normal" in="SourceGraphic" in2="BackgroundImageFix" result="shape"/>
<feGaussianBlur stdDeviation="2.23124" result="effect1_foregroundBlur_2499_249"/>
</filter>
<filter id="filter2_f_2499_249" x="136.865" y="148.155" width="43.439" height="31.4676" filterUnits="userSpaceOnUse" color-interpolation-filters="sRGB">
<feFlood flood-opacity="0" result="BackgroundImageFix"/>
<feBlend mode="normal" in="SourceGraphic" in2="BackgroundImageFix" result="shape"/>
<feGaussianBlur stdDeviation="4.46249" result="effect1_foregroundBlur_2499_249"/>
</filter>
<filter id="filter3_d_2499_249" x="138.495" y="157.491" width="38.1578" height="17.7722" filterUnits="userSpaceOnUse" color-interpolation-filters="sRGB">
<feFlood flood-opacity="0" result="BackgroundImageFix"/>
<feColorMatrix in="SourceAlpha" type="matrix" values="0 0 0 0 0 0 0 0 0 0 0 0 0 0 0 0 0 0 127 0" result="hardAlpha"/>
<feOffset dy="-4.46249"/>
<feGaussianBlur stdDeviation="1.67343"/>
<feColorMatrix type="matrix" values="0 0 0 0 0 0 0 0 0 0 0 0 0 0 0 0 0 0 0.25 0"/>
<feBlend mode="normal" in2="BackgroundImageFix" result="effect1_dropShadow_2499_249"/>
<feBlend mode="normal" in="SourceGraphic" in2="effect1_dropShadow_2499_249" result="shape"/>
</filter>
<filter id="filter4_f_2499_249" x="137.742" y="148.612" width="39.8986" height="13.4338" filterUnits="userSpaceOnUse" color-interpolation-filters="sRGB">
<feFlood flood-opacity="0" result="BackgroundImageFix"/>
<feBlend mode="normal" in="SourceGraphic" in2="BackgroundImageFix" result="shape"/>
<feGaussianBlur stdDeviation="2.23124" result="effect1_foregroundBlur_2499_249"/>
</filter>
<filter id="filter5_f_2499_249" x="121.751" y="74.7459" width="71.2168" height="77.7661" filterUnits="userSpaceOnUse" color-interpolation-filters="sRGB">
<feFlood flood-opacity="0" result="BackgroundImageFix"/>
<feBlend mode="normal" in="SourceGraphic" in2="BackgroundImageFix" result="shape"/>
<feGaussianBlur stdDeviation="0.167343" result="effect1_foregroundBlur_2499_249"/>
</filter>
<filter id="filter6_i_2499_249" x="125.596" y="78.8105" width="63.9524" height="69.7686" filterUnits="userSpaceOnUse" color-interpolation-filters="sRGB">
<feFlood flood-opacity="0" result="BackgroundImageFix"/>
<feBlend mode="normal" in="SourceGraphic" in2="BackgroundImageFix" result="shape"/>
<feColorMatrix in="SourceAlpha" type="matrix" values="0 0 0 0 0 0 0 0 0 0 0 0 0 0 0 0 0 0 127 0" result="hardAlpha"/>
<feOffset/>
<feGaussianBlur stdDeviation="7.5016"/>
<feComposite in2="hardAlpha" operator="arithmetic" k2="-1" k3="1"/>
<feColorMatrix type="matrix" values="0 0 0 0 0.297222 0 0 0 0 0.329917 0 0 0 0 0.445833 0 0 0 1 0"/>
<feBlend mode="normal" in2="shape" result="effect1_innerShadow_2499_249"/>
</filter>
<filter id="filter7_d_2499_249" x="128.64" y="91.0386" width="57.3978" height="63.9804" filterUnits="userSpaceOnUse" color-interpolation-filters="sRGB">
<feFlood flood-opacity="0" result="BackgroundImageFix"/>
<feColorMatrix in="SourceAlpha" type="matrix" values="0 0 0 0 0 0 0 0 0 0 0 0 0 0 0 0 0 0 127 0" result="hardAlpha"/>
<feOffset dy="4.89793"/>
<feGaussianBlur stdDeviation="4.89793"/>
<feColorMatrix type="matrix" values="0 0 0 0 0.504687 0 0 0 0 0.517969 0 0 0 0 0.6375 0 0 0 1 0"/>
<feBlend mode="normal" in2="BackgroundImageFix" result="effect1_dropShadow_2499_249"/>
<feBlend mode="normal" in="SourceGraphic" in2="effect1_dropShadow_2499_249" result="shape"/>
</filter>
<filter id="filter8_f_2499_249" x="139.814" y="106.91" width="20.1141" height="29.5119" filterUnits="userSpaceOnUse" color-interpolation-filters="sRGB">
<feFlood flood-opacity="0" result="BackgroundImageFix"/>
<feBlend mode="normal" in="SourceGraphic" in2="BackgroundImageFix" result="shape"/>
<feGaussianBlur stdDeviation="1.83672" result="effect1_foregroundBlur_2499_249"/>
</filter>
<filter id="filter9_d_2499_249" x="158.122" y="74.1265" width="68.4866" height="81.672" filterUnits="userSpaceOnUse" color-interpolation-filters="sRGB">
<feFlood flood-opacity="0" result="BackgroundImageFix"/>
<feColorMatrix in="SourceAlpha" type="matrix" values="0 0 0 0 0 0 0 0 0 0 0 0 0 0 0 0 0 0 127 0" result="hardAlpha"/>
<feOffset dy="4.46249"/>
<feGaussianBlur stdDeviation="2.23124"/>
<feColorMatrix type="matrix" values="0 0 0 0 0.38125 0 0 0 0 0.416833 0 0 0 0 0.508333 0 0 0 0.38 0"/>
<feBlend mode="normal" in2="BackgroundImageFix" result="effect1_dropShadow_2499_249"/>
<feBlend mode="normal" in="SourceGraphic" in2="effect1_dropShadow_2499_249" result="shape"/>
</filter>
<filter id="filter10_d_2499_249" x="186.185" y="69.8208" width="37.9878" height="56.3048" filterUnits="userSpaceOnUse" color-interpolation-filters="sRGB">
<feFlood flood-opacity="0" result="BackgroundImageFix"/>
<feColorMatrix in="SourceAlpha" type="matrix" values="0 0 0 0 0 0 0 0 0 0 0 0 0 0 0 0 0 0 127 0" result="hardAlpha"/>
<feOffset dx="-2.15285"/>
<feGaussianBlur stdDeviation="2.15285"/>
<feColorMatrix type="matrix" values="0 0 0 0 0.446731 0 0 0 0 0.444028 0 0 0 0 0.579167 0 0 0 0.12 0"/>
<feBlend mode="normal" in2="BackgroundImageFix" result="effect1_dropShadow_2499_249"/>
<feBlend mode="normal" in="SourceGraphic" in2="effect1_dropShadow_2499_249" result="shape"/>
</filter>
<filter id="filter11_d_2499_249" x="177.521" y="93.0156" width="45.0959" height="43.086" filterUnits="userSpaceOnUse" color-interpolation-filters="sRGB">
<feFlood flood-opacity="0" result="BackgroundImageFix"/>
<feColorMatrix in="SourceAlpha" type="matrix" values="0 0 0 0 0 0 0 0 0 0 0 0 0 0 0 0 0 0 127 0" result="hardAlpha"/>
<feOffset dx="-2.15285"/>
<feGaussianBlur stdDeviation="2.15285"/>
<feColorMatrix type="matrix" values="0 0 0 0 0.446731 0 0 0 0 0.444028 0 0 0 0 0.579167 0 0 0 0.12 0"/>
<feBlend mode="normal" in2="BackgroundImageFix" result="effect1_dropShadow_2499_249"/>
<feBlend mode="normal" in="SourceGraphic" in2="effect1_dropShadow_2499_249" result="shape"/>
</filter>
<filter id="filter12_d_2499_249" x="158.299" y="102.019" width="69.5514" height="47.8483" filterUnits="userSpaceOnUse" color-interpolation-filters="sRGB">
<feFlood flood-opacity="0" result="BackgroundImageFix"/>
<feColorMatrix in="SourceAlpha" type="matrix" values="0 0 0 0 0 0 0 0 0 0 0 0 0 0 0 0 0 0 127 0" result="hardAlpha"/>
<feOffset dy="-2.23124"/>
<feGaussianBlur stdDeviation="5.38212"/>
<feColorMatrix type="matrix" values="0 0 0 0 0.365689 0 0 0 0 0.351111 0 0 0 0 0.533333 0 0 0 0.2 0"/>
<feBlend mode="normal" in2="BackgroundImageFix" result="effect1_dropShadow_2499_249"/>
<feBlend mode="normal" in="SourceGraphic" in2="effect1_dropShadow_2499_249" result="shape"/>
</filter>
<filter id="filter13_d_2499_249" x="88.2337" y="73.7261" width="68.0389" height="82.0319" filterUnits="userSpaceOnUse" color-interpolation-filters="sRGB">
<feFlood flood-opacity="0" result="BackgroundImageFix"/>
<feColorMatrix in="SourceAlpha" type="matrix" values="0 0 0 0 0 0 0 0 0 0 0 0 0 0 0 0 0 0 127 0" result="hardAlpha"/>
<feOffset dy="4.46249"/>
<feGaussianBlur stdDeviation="2.23124"/>
<feColorMatrix type="matrix" values="0 0 0 0 0.38125 0 0 0 0 0.416833 0 0 0 0 0.508333 0 0 0 0.38 0"/>
<feBlend mode="normal" in2="BackgroundImageFix" result="effect1_dropShadow_2499_249"/>
<feBlend mode="normal" in="SourceGraphic" in2="effect1_dropShadow_2499_249" result="shape"/>
</filter>
<filter id="filter14_d_2499_249" x="86.3638" y="69.4204" width="37.6929" height="56.4854" filterUnits="userSpaceOnUse" color-interpolation-filters="sRGB">
<feFlood flood-opacity="0" result="BackgroundImageFix"/>
<feColorMatrix in="SourceAlpha" type="matrix" values="0 0 0 0 0 0 0 0 0 0 0 0 0 0 0 0 0 0 127 0" result="hardAlpha"/>
<feOffset dx="-2.15285"/>
<feGaussianBlur stdDeviation="2.15285"/>
<feColorMatrix type="matrix" values="0 0 0 0 0.446731 0 0 0 0 0.444028 0 0 0 0 0.579167 0 0 0 0.12 0"/>
<feBlend mode="normal" in2="BackgroundImageFix" result="effect1_dropShadow_2499_249"/>
<feBlend mode="normal" in="SourceGraphic" in2="effect1_dropShadow_2499_249" result="shape"/>
</filter>
<filter id="filter15_d_2499_249" x="87.7777" y="92.6245" width="44.8848" height="43.2759" filterUnits="userSpaceOnUse" color-interpolation-filters="sRGB">
<feFlood flood-opacity="0" result="BackgroundImageFix"/>
<feColorMatrix in="SourceAlpha" type="matrix" values="0 0 0 0 0 0 0 0 0 0 0 0 0 0 0 0 0 0 127 0" result="hardAlpha"/>
<feOffset dx="-2.15285"/>
<feGaussianBlur stdDeviation="2.15285"/>
<feColorMatrix type="matrix" values="0 0 0 0 0.446731 0 0 0 0 0.444028 0 0 0 0 0.579167 0 0 0 0.12 0"/>
<feBlend mode="normal" in2="BackgroundImageFix" result="effect1_dropShadow_2499_249"/>
<feBlend mode="normal" in="SourceGraphic" in2="effect1_dropShadow_2499_249" result="shape"/>
</filter>
<filter id="filter16_d_2499_249" x="86.7395" y="101.649" width="69.3886" height="48.112" filterUnits="userSpaceOnUse" color-interpolation-filters="sRGB">
<feFlood flood-opacity="0" result="BackgroundImageFix"/>
<feColorMatrix in="SourceAlpha" type="matrix" values="0 0 0 0 0 0 0 0 0 0 0 0 0 0 0 0 0 0 127 0" result="hardAlpha"/>
<feOffset dy="-2.23124"/>
<feGaussianBlur stdDeviation="5.38212"/>
<feColorMatrix type="matrix" values="0 0 0 0 0.365689 0 0 0 0 0.351111 0 0 0 0 0.533333 0 0 0 0.2 0"/>
<feBlend mode="normal" in2="BackgroundImageFix" result="effect1_dropShadow_2499_249"/>
<feBlend mode="normal" in="SourceGraphic" in2="effect1_dropShadow_2499_249" result="shape"/>
</filter>
<filter id="filter17_d_2499_249" x="149.042" y="145.083" width="21.5949" height="26.174" filterUnits="userSpaceOnUse" color-interpolation-filters="sRGB">
<feFlood flood-opacity="0" result="BackgroundImageFix"/>
<feColorMatrix in="SourceAlpha" type="matrix" values="0 0 0 0 0 0 0 0 0 0 0 0 0 0 0 0 0 0 127 0" result="hardAlpha"/>
<feOffset dx="2.23124" dy="5.57811"/>
<feGaussianBlur stdDeviation="1.67343"/>
<feColorMatrix type="matrix" values="0 0 0 0 0.0504688 0 0 0 0 0.0958375 0 0 0 0 0.2125 0 0 0 0.36 0"/>
<feBlend mode="normal" in2="BackgroundImageFix" result="effect1_dropShadow_2499_249"/>
<feBlend mode="normal" in="SourceGraphic" in2="effect1_dropShadow_2499_249" result="shape"/>
</filter>
<filter id="filter18_f_2499_249" x="157.636" y="110.316" width="11.0909" height="11.2627" filterUnits="userSpaceOnUse" color-interpolation-filters="sRGB">
<feFlood flood-opacity="0" result="BackgroundImageFix"/>
<feBlend mode="normal" in="SourceGraphic" in2="BackgroundImageFix" result="shape"/>
<feGaussianBlur stdDeviation="2" result="effect1_foregroundBlur_2499_249"/>
</filter>
<linearGradient id="paint0_linear_2499_249" x1="226.469" y1="153.596" x2="170.875" y2="121.541" gradientUnits="userSpaceOnUse">
<stop stop-color="#FFDAE7" stop-opacity="0"/>
<stop offset="1" stop-color="#FFC1D7" stop-opacity="0.4"/>
</linearGradient>
<linearGradient id="paint1_linear_2499_249" x1="157.193" y1="194.231" x2="157.393" y2="129.647" gradientUnits="userSpaceOnUse">
<stop stop-color="#FFDAE7" stop-opacity="0"/>
<stop offset="1" stop-color="#FFC1D7" stop-opacity="0.4"/>
</linearGradient>
<linearGradient id="paint2_linear_2499_249" x1="87.782" y1="153.371" x2="143.574" y2="121.661" gradientUnits="userSpaceOnUse">
<stop stop-color="#FFDAE7" stop-opacity="0"/>
<stop offset="1" stop-color="#FFC1D7" stop-opacity="0.4"/>
</linearGradient>
<linearGradient id="paint3_linear_2499_249" x1="226.723" y1="71.7961" x2="170.931" y2="103.506" gradientUnits="userSpaceOnUse">
<stop stop-color="#FFDAE7" stop-opacity="0"/>
<stop offset="1" stop-color="#FFC1D7" stop-opacity="0.4"/>
</linearGradient>
<linearGradient id="paint4_linear_2499_249" x1="88.0367" y1="71.162" x2="143.631" y2="103.216" gradientUnits="userSpaceOnUse">
<stop stop-color="#FFDAE7" stop-opacity="0"/>
<stop offset="1" stop-color="#FFC1D7" stop-opacity="0.4"/>
</linearGradient>
<radialGradient id="paint5_radial_2499_249" cx="0" cy="0" r="1" gradientUnits="userSpaceOnUse" gradientTransform="translate(148.917 157.721) rotate(50.7597) scale(16.2552 18.3195)">
<stop offset="0.432002" stop-color="#023580"/>
<stop offset="1" stop-color="#0D3D78"/>
</radialGradient>
<linearGradient id="paint6_linear_2499_249" x1="152.362" y1="156.245" x2="141.198" y2="166.489" gradientUnits="userSpaceOnUse">
<stop offset="0.213533" stop-color="#042861"/>
<stop offset="0.574194" stop-color="#195294"/>
<stop offset="1" stop-color="#063988"/>
<stop offset="1" stop-color="#063988"/>
<stop offset="1" stop-color="#063988"/>
</linearGradient>
<linearGradient id="paint7_linear_2499_249" x1="147.92" y1="162.18" x2="168.083" y2="168.587" gradientUnits="userSpaceOnUse">
<stop stop-color="#4680B6" stop-opacity="0.1"/>
<stop offset="0.421859" stop-color="#5693CB"/>
<stop offset="1" stop-color="#4680B6" stop-opacity="0.45"/>
</linearGradient>
<linearGradient id="paint8_linear_2499_249" x1="151.331" y1="171.609" x2="167.243" y2="178.335" gradientUnits="userSpaceOnUse">
<stop stop-color="#59293A"/>
<stop offset="1" stop-color="#8A4F64"/>
</linearGradient>
<linearGradient id="paint9_linear_2499_249" x1="152.163" y1="167.481" x2="146.384" y2="171.547" gradientUnits="userSpaceOnUse">
<stop stop-color="#D585A1"/>
<stop offset="0.309893" stop-color="#FFDCE8"/>
<stop offset="0.523799" stop-color="#F9C1D4"/>
<stop offset="0.613641" stop-color="#D2829E"/>
<stop offset="1" stop-color="#D687A3"/>
</linearGradient>
<linearGradient id="paint10_linear_2499_249" x1="152.587" y1="157.939" x2="145.318" y2="160.276" gradientUnits="userSpaceOnUse">
<stop stop-color="#DC89A6"/>
<stop offset="0.309893" stop-color="#FFDDE9"/>
<stop offset="0.523799" stop-color="#F9C3D6"/>
<stop offset="0.613641" stop-color="#D1809C"/>
<stop offset="1" stop-color="#D17E9B"/>
</linearGradient>
<linearGradient id="paint11_linear_2499_249" x1="157.416" y1="164.192" x2="157.396" y2="170.636" gradientUnits="userSpaceOnUse">
<stop stop-color="#FFE0EB" stop-opacity="0"/>
<stop offset="0.479167" stop-color="#FFB6CF"/>
<stop offset="1" stop-color="#E67DA1"/>
</linearGradient>
<linearGradient id="paint12_linear_2499_249" x1="156.01" y1="164.353" x2="155.994" y2="169.495" gradientUnits="userSpaceOnUse">
<stop stop-color="#FFE0EB" stop-opacity="0"/>
<stop offset="0.479167" stop-color="#FFB6CF"/>
<stop offset="1" stop-color="#E67DA1"/>
</linearGradient>
<linearGradient id="paint13_linear_2499_249" x1="158.822" y1="164.361" x2="158.806" y2="169.504" gradientUnits="userSpaceOnUse">
<stop stop-color="#FFE0EB" stop-opacity="0"/>
<stop offset="0.479167" stop-color="#FFB6CF"/>
<stop offset="1" stop-color="#E67DA1"/>
</linearGradient>
<linearGradient id="paint14_linear_2499_249" x1="155.272" y1="168.812" x2="152.877" y2="169.947" gradientUnits="userSpaceOnUse">
<stop stop-color="#DA8AA6"/>
<stop offset="0.309893" stop-color="#FFD9E6"/>
<stop offset="0.523799" stop-color="#FDC5D9"/>
<stop offset="0.613641" stop-color="#D5829F"/>
<stop offset="1" stop-color="#D286A1"/>
</linearGradient>
<linearGradient id="paint15_linear_2499_249" x1="140.319" y1="77.2248" x2="177.456" y2="150.944" gradientUnits="userSpaceOnUse">
<stop stop-color="#FAFAFA"/>
<stop offset="1" stop-color="#C2C4CD"/>
</linearGradient>
<linearGradient id="paint16_linear_2499_249" x1="139.972" y1="83.3374" x2="171.993" y2="142.361" gradientUnits="userSpaceOnUse">
<stop stop-color="#CDCFD6"/>
<stop offset="1" stop-color="#EFEFF1"/>
</linearGradient>
<linearGradient id="paint17_linear_2499_249" x1="143.419" y1="81.2001" x2="177.916" y2="143.184" gradientUnits="userSpaceOnUse">
<stop stop-color="#DDDFE2"/>
<stop offset="1" stop-color="white"/>
</linearGradient>
<radialGradient id="paint18_radial_2499_249" cx="0" cy="0" r="1" gradientUnits="userSpaceOnUse" gradientTransform="translate(157.572 113.695) rotate(90.1774) scale(37.4072 31.9476)">
<stop stop-color="#F5F7FF"/>
<stop offset="1" stop-color="#B3B5C5"/>
</radialGradient>
<linearGradient id="paint19_linear_2499_249" x1="157.693" y1="74.8071" x2="157.452" y2="152.58" gradientUnits="userSpaceOnUse">
<stop stop-color="white"/>
<stop offset="1" stop-color="#F2EDED" stop-opacity="0"/>
</linearGradient>
<linearGradient id="paint20_linear_2499_249" x1="118.228" y1="81.7212" x2="157.072" y2="148.908" gradientUnits="userSpaceOnUse">
<stop stop-color="white"/>
<stop offset="1" stop-color="#F2EDED" stop-opacity="0"/>
</linearGradient>
<linearGradient id="paint21_linear_2499_249" x1="194.241" y1="81.9568" x2="154.982" y2="148.902" gradientUnits="userSpaceOnUse">
<stop stop-color="white"/>
<stop offset="1" stop-color="#F2EDED" stop-opacity="0"/>
</linearGradient>
<linearGradient id="paint22_linear_2499_249" x1="157.586" y1="127.298" x2="157.39" y2="148.407" gradientUnits="userSpaceOnUse">
<stop stop-color="white" stop-opacity="0"/>
<stop offset="1" stop-color="#D0DBFF"/>
</linearGradient>
<linearGradient id="paint23_linear_2499_249" x1="138.455" y1="109.728" x2="176.213" y2="109.845" gradientUnits="userSpaceOnUse">
<stop stop-color="#EDF0F2"/>
<stop offset="0.472359" stop-color="#F9F9F9"/>
<stop offset="0.523892" stop-color="#CCCED7"/>
<stop offset="1" stop-color="#E0E2EB"/>
</linearGradient>
<linearGradient id="paint24_linear_2499_249" x1="148.588" y1="101.919" x2="167.36" y2="128.801" gradientUnits="userSpaceOnUse">
<stop stop-color="#B7B8C6"/>
<stop offset="1" stop-color="#FCFCFF"/>
</linearGradient>
<linearGradient id="paint25_linear_2499_249" x1="143.588" y1="117.399" x2="171.079" y2="117.484" gradientUnits="userSpaceOnUse">
<stop stop-color="#F9F9F9"/>
<stop offset="0.439678" stop-color="#F9F9F9"/>
<stop offset="0.526536" stop-color="#DCDDE6"/>
<stop offset="1" stop-color="#C6C7D2"/>
</linearGradient>
<linearGradient id="paint26_linear_2499_249" x1="156.729" y1="131.661" x2="147.671" y2="113.923" gradientUnits="userSpaceOnUse">
<stop stop-color="#E8E8EE"/>
<stop offset="1" stop-color="#F9F9F9"/>
</linearGradient>
<linearGradient id="paint27_linear_2499_249" x1="213.648" y1="71.923" x2="204.495" y2="109.173" gradientUnits="userSpaceOnUse">
<stop offset="0.220856" stop-color="#FAFAFA"/>
<stop offset="1" stop-color="#EBE1E4"/>
</linearGradient>
<linearGradient id="paint28_linear_2499_249" x1="214.06" y1="72.0349" x2="195.501" y2="119.954" gradientUnits="userSpaceOnUse">
<stop stop-color="#F8F8F9" stop-opacity="0.46"/>
<stop offset="0.292773" stop-color="#F8F8F9" stop-opacity="0.45"/>
<stop offset="0.629289" stop-color="white" stop-opacity="0.51"/>
<stop offset="0.742389" stop-color="white" stop-opacity="0.12"/>
</linearGradient>
<linearGradient id="paint29_linear_2499_249" x1="200.668" y1="109.558" x2="199.981" y2="117.405" gradientUnits="userSpaceOnUse">
<stop offset="0.374859" stop-color="#AF5473"/>
<stop offset="0.986946" stop-color="#72394D"/>
</linearGradient>
<linearGradient id="paint30_linear_2499_249" x1="207.35" y1="93.8695" x2="199.953" y2="123.104" gradientUnits="userSpaceOnUse">
<stop offset="0.220856" stop-color="#FAFAFA"/>
<stop offset="1" stop-color="#EBE1E4"/>
</linearGradient>
<linearGradient id="paint31_linear_2499_249" x1="207.736" y1="93.9715" x2="194.87" y2="132.45" gradientUnits="userSpaceOnUse">
<stop stop-color="#F8F8F9" stop-opacity="0.46"/>
<stop offset="0.21882" stop-color="#F8F8F9" stop-opacity="0.67"/>
<stop offset="0.45675" stop-color="white" stop-opacity="0.46"/>
<stop offset="0.742389" stop-color="white" stop-opacity="0"/>
</linearGradient>
<linearGradient id="paint32_linear_2499_249" x1="197.948" y1="118.482" x2="196.755" y2="125.417" gradientUnits="userSpaceOnUse">
<stop offset="0.374859" stop-color="#B15B79"/>
<stop offset="0.986946" stop-color="#73394D"/>
</linearGradient>
<linearGradient id="paint33_linear_2499_249" x1="197.717" y1="120.291" x2="199.82" y2="136.672" gradientUnits="userSpaceOnUse">
<stop stop-color="#EFEFEF"/>
<stop offset="0.411026" stop-color="#DEDFE6"/>
<stop offset="0.58979" stop-color="#D1D2D9"/>
<stop offset="1" stop-color="#D1D2D9"/>
</linearGradient>
<linearGradient id="paint34_linear_2499_249" x1="215.049" y1="116.449" x2="197.223" y2="134.538" gradientUnits="userSpaceOnUse">
<stop stop-color="#F8F8F9" stop-opacity="0.86"/>
<stop offset="0.319253" stop-color="#F8F8F9"/>
<stop offset="0.615431" stop-color="white" stop-opacity="0.88"/>
<stop offset="0.867925" stop-color="white"/>
</linearGradient>
<linearGradient id="paint35_linear_2499_249" x1="190.581" y1="132.177" x2="186.863" y2="129.306" gradientUnits="userSpaceOnUse">
<stop offset="0.374859" stop-color="#B05373"/>
<stop offset="0.986946" stop-color="#783B50"/>
</linearGradient>
<linearGradient id="paint36_linear_2499_249" x1="185.02" y1="131.622" x2="186.141" y2="151.839" gradientUnits="userSpaceOnUse">
<stop offset="0.0306468" stop-color="#DBDCE7"/>
<stop offset="0.274204" stop-color="#CBCCD7"/>
<stop offset="0.675444" stop-color="#D1D2D9"/>
</linearGradient>
<linearGradient id="paint37_linear_2499_249" x1="188.658" y1="132.571" x2="179.958" y2="153.659" gradientUnits="userSpaceOnUse">
<stop stop-color="#F8F8F9" stop-opacity="0.78"/>
<stop offset="0.319253" stop-color="#F8F8F9" stop-opacity="0"/>
<stop offset="0.615431" stop-color="white" stop-opacity="0"/>
<stop offset="0.867925" stop-color="white" stop-opacity="0"/>
</linearGradient>
<linearGradient id="paint38_linear_2499_249" x1="101.209" y1="71.5744" x2="110.131" y2="108.88" gradientUnits="userSpaceOnUse">
<stop offset="0.220856" stop-color="#FAFAFA"/>
<stop offset="1" stop-color="#EBE1E4"/>
</linearGradient>
<linearGradient id="paint39_linear_2499_249" x1="100.796" y1="71.684" x2="119.057" y2="119.717" gradientUnits="userSpaceOnUse">
<stop stop-color="#F8F8F9" stop-opacity="0.46"/>
<stop offset="0.292773" stop-color="#F8F8F9" stop-opacity="0.45"/>
<stop offset="0.629289" stop-color="white" stop-opacity="0.51"/>
<stop offset="0.742389" stop-color="white" stop-opacity="0.12"/>
</linearGradient>
<linearGradient id="paint40_linear_2499_249" x1="113.955" y1="109.289" x2="114.594" y2="117.14" gradientUnits="userSpaceOnUse">
<stop offset="0.374859" stop-color="#AF5473"/>
<stop offset="0.986946" stop-color="#72394D"/>
</linearGradient>
<linearGradient id="paint41_linear_2499_249" x1="107.371" y1="93.5597" x2="114.587" y2="122.839" gradientUnits="userSpaceOnUse">
<stop offset="0.220856" stop-color="#FAFAFA"/>
<stop offset="1" stop-color="#EBE1E4"/>
</linearGradient>
<linearGradient id="paint42_linear_2499_249" x1="106.984" y1="93.6592" x2="119.611" y2="132.217" gradientUnits="userSpaceOnUse">
<stop stop-color="#F8F8F9" stop-opacity="0.46"/>
<stop offset="0.21882" stop-color="#F8F8F9" stop-opacity="0.67"/>
<stop offset="0.45675" stop-color="white" stop-opacity="0.46"/>
<stop offset="0.742389" stop-color="white" stop-opacity="0"/>
</linearGradient>
<linearGradient id="paint43_linear_2499_249" x1="116.619" y1="118.23" x2="117.77" y2="125.172" gradientUnits="userSpaceOnUse">
<stop offset="0.374859" stop-color="#B15B79"/>
<stop offset="0.986946" stop-color="#73394D"/>
</linearGradient>
<linearGradient id="paint44_linear_2499_249" x1="116.84" y1="120.04" x2="114.635" y2="136.409" gradientUnits="userSpaceOnUse">
<stop stop-color="#EFEFEF"/>
<stop offset="0.411026" stop-color="#DEDFE6"/>
<stop offset="0.58979" stop-color="#D1D2D9"/>
<stop offset="1" stop-color="#D1D2D9"/>
</linearGradient>
<linearGradient id="paint45_linear_2499_249" x1="99.5319" y1="116.091" x2="117.245" y2="134.289" gradientUnits="userSpaceOnUse">
<stop stop-color="#F8F8F9" stop-opacity="0.86"/>
<stop offset="0.319253" stop-color="#F8F8F9"/>
<stop offset="0.615431" stop-color="white" stop-opacity="0.88"/>
<stop offset="0.867925" stop-color="white"/>
</linearGradient>
<linearGradient id="paint46_linear_2499_249" x1="123.902" y1="131.97" x2="127.638" y2="129.122" gradientUnits="userSpaceOnUse">
<stop offset="0.374859" stop-color="#B05373"/>
<stop offset="0.986946" stop-color="#783B50"/>
</linearGradient>
<linearGradient id="paint47_linear_2499_249" x1="129.467" y1="131.45" x2="128.22" y2="151.66" gradientUnits="userSpaceOnUse">
<stop offset="0.0306468" stop-color="#DBDCE7"/>
<stop offset="0.274204" stop-color="#CBCCD7"/>
<stop offset="0.675444" stop-color="#D1D2D9"/>
</linearGradient>
<linearGradient id="paint48_linear_2499_249" x1="125.823" y1="132.376" x2="134.392" y2="153.518" gradientUnits="userSpaceOnUse">
<stop stop-color="#F8F8F9" stop-opacity="0.78"/>
<stop offset="0.319253" stop-color="#F8F8F9" stop-opacity="0"/>
<stop offset="0.615431" stop-color="white" stop-opacity="0"/>
<stop offset="0.867925" stop-color="white" stop-opacity="0"/>
</linearGradient>
<linearGradient id="paint49_linear_2499_249" x1="158.376" y1="149.771" x2="152.456" y2="157.329" gradientUnits="userSpaceOnUse">
<stop stop-color="#D5D7D9"/>
<stop offset="1" stop-color="#E2E3E7"/>
</linearGradient>
<linearGradient id="paint50_linear_2499_249" x1="156.89" y1="160.192" x2="166.493" y2="159.568" gradientUnits="userSpaceOnUse">
<stop stop-color="#9A9CA5"/>
<stop offset="0.259135" stop-color="#C4C6CF"/>
<stop offset="0.878536" stop-color="#E2E3E7"/>
</linearGradient>
<linearGradient id="paint51_linear_2499_249" x1="152.343" y1="147.981" x2="159.762" y2="146.81" gradientUnits="userSpaceOnUse">
<stop stop-color="#F4F5F8"/>
<stop offset="1" stop-color="#F5F6F7"/>
</linearGradient>
<linearGradient id="paint52_linear_2499_249" x1="157.141" y1="147.172" x2="160.581" y2="147.507" gradientUnits="userSpaceOnUse">
<stop stop-color="#933959"/>
<stop offset="0.522184" stop-color="#B7597A"/>
<stop offset="1" stop-color="#B05776"/>
</linearGradient>
<linearGradient id="paint53_linear_2499_249" x1="155.909" y1="125.112" x2="165.435" y2="112.54" gradientUnits="userSpaceOnUse">
<stop offset="0.0203454" stop-color="#2A67C4"/>
<stop offset="0.349209" stop-color="#2E3AB0"/>
<stop offset="1" stop-color="#79E8FF"/>
</linearGradient>
<linearGradient id="paint54_linear_2499_249" x1="157.691" y1="118.359" x2="155.823" y2="109.984" gradientUnits="userSpaceOnUse">
<stop offset="0.14601" stop-color="#A5F0FF"/>
<stop offset="1" stop-color="#BAF3FF"/>
</linearGradient>
<linearGradient id="paint55_linear_2499_249" x1="150.501" y1="116.928" x2="148.253" y2="109.1" gradientUnits="userSpaceOnUse">
<stop stop-color="#7CD0FF"/>
<stop offset="1" stop-color="#2354C0"/>
</linearGradient>
<linearGradient id="paint56_linear_2499_249" x1="162.142" y1="126.01" x2="159.046" y2="115.707" gradientUnits="userSpaceOnUse">
<stop stop-color="#55C1F2"/>
<stop offset="1" stop-color="#2E3DB0"/>
</linearGradient>
<linearGradient id="paint57_linear_2499_249" x1="165.227" y1="124.92" x2="155.173" y2="129.731" gradientUnits="userSpaceOnUse">
<stop stop-color="#64E4FF"/>
<stop offset="0.630208" stop-color="#458CD7"/>
<stop offset="1" stop-color="#458CD7"/>
</linearGradient>
<linearGradient id="paint58_linear_2499_249" x1="152.739" y1="121.873" x2="148.583" y2="119.692" gradientUnits="userSpaceOnUse">
<stop stop-color="#5BB2EC"/>
<stop offset="1" stop-color="#48D5FF"/>
</linearGradient>
<linearGradient id="paint59_linear_2499_249" x1="154.182" y1="121.801" x2="150.634" y2="122.06" gradientUnits="userSpaceOnUse">
<stop stop-color="#FBFEFF"/>
<stop offset="1" stop-color="#93E8FF" stop-opacity="0"/>
</linearGradient>
<linearGradient id="paint60_linear_2499_249" x1="162.864" y1="111.917" x2="161.908" y2="115.346" gradientUnits="userSpaceOnUse">
<stop stop-color="white" stop-opacity="0.36"/>
<stop offset="1" stop-color="white"/>
</linearGradient>
<linearGradient id="paint61_linear_2499_249" x1="163.477" y1="111.979" x2="153.387" y2="121.973" gradientUnits="userSpaceOnUse">
<stop stop-color="#D7F8FF"/>
<stop offset="0.176669" stop-color="#52B5EC"/>
<stop offset="0.432173" stop-color="#CAF4FD"/>
<stop offset="0.685688" stop-color="#D4F4FB" stop-opacity="0"/>
</linearGradient>
</defs>
</svg>
