<svg width="24" height="32" viewBox="0 0 24 32" fill="none" xmlns="http://www.w3.org/2000/svg">
<path d="M0.175501 16.1875C0.646398 17.2814 1.8488 17.7052 2.90974 18.0786C3.49931 18.2866 4.1093 18.5015 4.38557 18.7675C4.54554 18.922 4.68748 19.1853 4.82086 19.4889L1.39926 29.2288C1.33858 29.4002 1.33221 29.5852 1.38095 29.7601C1.4297 29.9351 1.53136 30.0921 1.67302 30.2113C1.81468 30.3305 1.98993 30.4064 2.17651 30.4294C2.36308 30.4524 2.55254 30.4215 2.72081 30.3405L5.14983 29.1785L6.39116 31.5034C6.47635 31.6633 6.6086 31.7954 6.77136 31.8833C6.93411 31.9712 7.12016 32.0109 7.30623 31.9974C7.4923 31.984 7.67013 31.9181 7.81748 31.8079C7.96484 31.6976 8.07518 31.548 8.13471 31.3777L11.4718 21.8604C11.6399 21.8138 11.7994 21.78 11.937 21.78C12.0747 21.78 12.2342 21.8138 12.4022 21.86L15.7393 31.3773C15.799 31.5474 15.9093 31.6969 16.0567 31.807C16.204 31.9172 16.3817 31.9831 16.5677 31.9965C16.7537 32.01 16.9396 31.9704 17.1024 31.8827C17.2652 31.795 17.3975 31.6631 17.4829 31.5034L18.7242 29.1785L21.1532 30.3405C21.3215 30.4215 21.511 30.4524 21.6975 30.4294C21.8841 30.4064 22.0594 30.3305 22.201 30.2113C22.3427 30.0921 22.4443 29.9351 22.4931 29.7601C22.5418 29.5852 22.5355 29.4002 22.4748 29.2288L19.0536 19.4889C19.1866 19.1853 19.329 18.922 19.4889 18.7675C19.7657 18.5015 20.3752 18.2866 20.9652 18.0786C22.0257 17.7047 23.2281 17.2814 23.6995 16.188C24.1533 15.132 23.6311 14.0354 23.1697 13.0681C22.8982 12.4985 22.6172 11.9097 22.6172 11.4956C22.6172 11.081 22.8982 10.4922 23.1697 9.92217C23.6311 8.95489 24.1533 7.85871 23.699 6.80275C23.2281 5.70886 22.0257 5.28556 20.9648 4.91163C20.3752 4.7041 19.7657 4.48925 19.4889 4.22275C19.2127 3.9567 18.9891 3.3693 18.7736 2.80109C18.3857 1.77988 17.9457 0.621983 16.8102 0.168973C15.7142 -0.269866 14.5744 0.234342 13.5704 0.678209C12.979 0.940141 12.3671 1.2103 11.937 1.2103C11.5069 1.2103 10.8951 0.940141 10.3036 0.678209C9.29914 0.234342 8.15892 -0.268951 7.06427 0.168516C5.92833 0.621983 5.48829 1.78033 5.10046 2.80155C4.88495 3.36975 4.66137 3.9567 4.3851 4.22321C4.10882 4.48925 3.49884 4.7041 2.90879 4.91209C1.84833 5.28556 0.645924 5.70931 0.174552 6.80275C-0.279257 7.85871 0.242908 8.95489 0.704311 9.92263C0.975837 10.4922 1.25686 11.081 1.25686 11.4951C1.25686 11.9097 0.975837 12.4985 0.704311 13.0676C0.242908 14.0354 -0.279257 15.132 0.175026 16.188L0.175501 16.1875ZM7.05383 28.7452L6.41062 27.5402C6.29647 27.3266 6.09962 27.1649 5.86263 27.0899C5.62563 27.015 5.36753 27.0329 5.14413 27.1397L3.93461 27.7185L5.96298 21.9427C6.24163 22.3166 6.59053 22.633 7.06475 22.8222C7.36286 22.9411 7.66381 22.9904 7.96429 22.9904C8.36209 22.9904 8.75893 22.9036 9.14723 22.7769L7.05383 28.7452ZM18.7309 27.1397C18.5074 27.0329 18.2493 27.015 18.0124 27.0899C17.7754 27.1649 17.5785 27.3266 17.4644 27.5402L16.8207 28.7452L14.7273 22.7765C15.4099 22.9987 16.1191 23.0983 16.8102 22.8222C17.2849 22.6325 17.6334 22.3166 17.9115 21.9427L19.9404 27.7185L18.7309 27.1397ZM2.43078 9.15923C2.14596 8.56314 1.79231 7.82123 1.9295 7.50353C2.0814 7.15063 2.86797 6.87361 3.56245 6.62905C4.34522 6.35294 5.15505 6.0677 5.72801 5.51595C6.30096 4.9642 6.59717 4.18389 6.88389 3.42964C7.13785 2.76178 7.42552 2.00387 7.79246 1.85759C7.85004 1.83666 7.91131 1.82672 7.97284 1.82833C8.35449 1.82833 8.98726 2.10809 9.5118 2.34031C10.2884 2.68361 11.0921 3.0388 11.9375 3.0388C12.7829 3.0388 13.5866 2.68361 14.3632 2.34031C14.9827 2.06649 15.754 1.72594 16.083 1.85759C16.4495 2.00387 16.7371 2.76132 16.9911 3.42964C17.2778 4.18389 17.574 4.96375 18.147 5.51549C18.7199 6.06724 19.5298 6.35294 20.3135 6.62905C21.007 6.87361 21.7941 7.15063 21.9455 7.50307C22.0831 7.82123 21.729 8.56314 21.4442 9.15923C21.0882 9.90754 20.7189 10.6815 20.7189 11.4951C20.7189 12.3088 21.0877 13.0832 21.4442 13.831C21.729 14.4276 22.0827 15.1695 21.9455 15.4872C21.7936 15.8396 21.007 16.1171 20.3135 16.3617C19.5302 16.6378 18.7199 16.923 18.147 17.4748C17.574 18.0265 17.2778 18.8064 16.9911 19.5611C16.7367 20.2289 16.4495 20.9869 16.083 21.1331C15.7536 21.2666 14.9827 20.9242 14.3632 20.6504C13.5866 20.3067 12.7829 19.9515 11.9375 19.9515C11.0921 19.9515 10.2884 20.3067 9.5118 20.6504C8.8928 20.9247 8.12237 21.2666 7.79198 21.1331C7.42552 20.9869 7.13833 20.2289 6.88389 19.5606C6.59717 18.8064 6.30096 18.0265 5.72801 17.4748C5.15505 16.923 4.34522 16.6378 3.56197 16.3617C2.86797 16.1171 2.08093 15.8401 1.9295 15.4872C1.79184 15.1695 2.14596 14.4276 2.43078 13.831C2.7868 13.0832 3.15611 12.3093 3.15611 11.4951C3.15611 10.6815 2.78727 9.90754 2.43078 9.15923Z" fill="#CBFC01"/>
<path d="M11.9375 17.8346C15.567 17.8346 18.5206 14.9908 18.5206 11.4956C18.5206 8.00047 15.567 5.15625 11.9375 5.15625C8.30798 5.15625 5.35443 8.00002 5.35443 11.4956C5.35443 14.9913 8.30798 17.8346 11.9375 17.8346ZM11.9375 6.98475C14.5203 6.98475 16.6218 9.00843 16.6218 11.4956C16.6218 13.9829 14.5203 16.0061 11.9375 16.0061C9.35468 16.0061 7.25321 13.9824 7.25321 11.4956C7.25321 9.00889 9.35468 6.98475 11.9375 6.98475Z" fill="#CBFC01"/>
</svg>
