<svg width="25" height="32" viewBox="0 0 25 32" fill="none" xmlns="http://www.w3.org/2000/svg">
<path d="M0.177278 16.1875C0.652943 17.2814 1.86752 17.7052 2.9392 18.0786C3.53474 18.2866 4.1509 18.5015 4.42997 18.7675C4.59156 18.922 4.73494 19.1853 4.86968 19.4889L1.41343 29.2288C1.35213 29.4002 1.3457 29.5852 1.39494 29.7601C1.44418 29.9351 1.54687 30.0921 1.68996 30.2113C1.83305 30.3305 2.01008 30.4064 2.19854 30.4294C2.387 30.4524 2.57839 30.4215 2.74836 30.3405L5.20197 29.1785L6.45587 31.5034C6.54192 31.6633 6.67551 31.7954 6.83991 31.8833C7.00432 31.9712 7.19225 32.0109 7.3802 31.9974C7.56815 31.984 7.74779 31.9181 7.89664 31.8079C8.04548 31.6976 8.15694 31.548 8.21707 31.3777L11.588 21.8604C11.7577 21.8138 11.9188 21.78 12.0579 21.78C12.1969 21.78 12.358 21.8138 12.5278 21.86L15.8987 31.3773C15.9589 31.5474 16.0704 31.6969 16.2192 31.807C16.368 31.9172 16.5476 31.9831 16.7354 31.9965C16.9233 32.01 17.1112 31.9704 17.2756 31.8827C17.44 31.795 17.5736 31.6631 17.6599 31.5034L18.9138 29.1785L21.3674 30.3405C21.5374 30.4215 21.7288 30.4524 21.9172 30.4294C22.1057 30.4064 22.2827 30.3305 22.4258 30.2113C22.5689 30.0921 22.6716 29.9351 22.7208 29.7601C22.7701 29.5852 22.7636 29.4002 22.7023 29.2288L19.2466 19.4889C19.3808 19.1853 19.5247 18.922 19.6863 18.7675C19.9658 18.5015 20.5815 18.2866 21.1775 18.0786C22.2487 17.7047 23.4633 17.2814 23.9394 16.188C24.3978 15.132 23.8704 14.0354 23.4043 13.0681C23.13 12.4985 22.8462 11.9097 22.8462 11.4956C22.8462 11.081 23.13 10.4922 23.4043 9.92217C23.8704 8.95489 24.3978 7.85871 23.939 6.80275C23.4633 5.70886 22.2487 5.28556 21.177 4.91163C20.5815 4.7041 19.9658 4.48925 19.6863 4.22275C19.4072 3.9567 19.1813 3.3693 18.9637 2.80109C18.5719 1.77988 18.1274 0.621983 16.9804 0.168973C15.8733 -0.269866 14.722 0.234342 13.7078 0.678209C13.1104 0.940141 12.4923 1.2103 12.0579 1.2103C11.6234 1.2103 11.0054 0.940141 10.4079 0.678209C9.39329 0.234342 8.24153 -0.268951 7.1358 0.168516C5.98835 0.621983 5.54385 1.78033 5.1521 2.80155C4.93441 3.36975 4.70856 3.9567 4.42949 4.22321C4.15042 4.48925 3.53426 4.7041 2.93824 4.91209C1.86704 5.28556 0.652463 5.70931 0.176319 6.80275C-0.282084 7.85871 0.245367 8.95489 0.711442 9.92263C0.985717 10.4922 1.26958 11.081 1.26958 11.4951C1.26958 11.9097 0.985717 12.4985 0.711442 13.0676C0.245367 14.0354 -0.282084 15.132 0.176798 16.188L0.177278 16.1875ZM7.12525 28.7452L6.47553 27.5402C6.36022 27.3266 6.16138 27.1649 5.92199 27.0899C5.68259 27.015 5.42188 27.0329 5.19622 27.1397L3.97445 27.7185L6.02336 21.9427C6.30482 22.3166 6.65726 22.633 7.13628 22.8222C7.4374 22.9411 7.74141 22.9904 8.04493 22.9904C8.44675 22.9904 8.84762 22.9036 9.23985 22.7769L7.12525 28.7452ZM18.9205 27.1397C18.6948 27.0329 18.4341 27.015 18.1947 27.0899C17.9553 27.1649 17.7565 27.3266 17.6412 27.5402L16.991 28.7452L14.8764 22.7765C15.5659 22.9987 16.2823 23.0983 16.9804 22.8222C17.4599 22.6325 17.8119 22.3166 18.0929 21.9427L20.1423 27.7185L18.9205 27.1397ZM2.45539 9.15923C2.16769 8.56314 1.81046 7.82123 1.94903 7.50353C2.10247 7.15063 2.89701 6.87361 3.59852 6.62905C4.38922 6.35294 5.20724 6.0677 5.786 5.51595C6.36476 4.9642 6.66397 4.18389 6.95359 3.42964C7.21012 2.76178 7.5007 2.00387 7.87135 1.85759C7.92952 1.83666 7.99141 1.82672 8.05356 1.82833C8.43908 1.82833 9.07826 2.10809 9.60811 2.34031C10.3926 2.68361 11.2044 3.0388 12.0584 3.0388C12.9123 3.0388 13.7241 2.68361 14.5086 2.34031C15.1344 2.06649 15.9135 1.72594 16.2458 1.85759C16.616 2.00387 16.9066 2.76132 17.1631 3.42964C17.4527 4.18389 17.752 4.96375 18.3307 5.51549C18.9095 6.06724 19.7275 6.35294 20.5192 6.62905C21.2197 6.87361 22.0147 7.15063 22.1677 7.50307C22.3067 7.82123 21.949 8.56314 21.6613 9.15923C21.3017 9.90754 20.9286 10.6815 20.9286 11.4951C20.9286 12.3088 21.3012 13.0832 21.6613 13.831C21.949 14.4276 22.3063 15.1695 22.1677 15.4872C22.0142 15.8396 21.2197 16.1171 20.5192 16.3617C19.728 16.6378 18.9095 16.923 18.3307 17.4748C17.752 18.0265 17.4527 18.8064 17.1631 19.5611C16.9061 20.2289 16.616 20.9869 16.2458 21.1331C15.9131 21.2666 15.1344 20.9242 14.5086 20.6504C13.7241 20.3067 12.9123 19.9515 12.0584 19.9515C11.2044 19.9515 10.3926 20.3067 9.60811 20.6504C8.98284 20.9247 8.20461 21.2666 7.87087 21.1331C7.5007 20.9869 7.2106 20.2289 6.95359 19.5606C6.66397 18.8064 6.36476 18.0265 5.786 17.4748C5.20724 16.923 4.38922 16.6378 3.59804 16.3617C2.89701 16.1171 2.10199 15.8401 1.94903 15.4872C1.80998 15.1695 2.16769 14.4276 2.45539 13.831C2.81501 13.0832 3.18807 12.3093 3.18807 11.4951C3.18807 10.6815 2.81549 9.90754 2.45539 9.15923Z" fill="#CBFC01"/>
<path d="M12.0584 17.8346C15.7246 17.8346 18.7081 14.9908 18.7081 11.4956C18.7081 8.00047 15.7246 5.15625 12.0584 5.15625C8.39209 5.15625 5.40863 8.00002 5.40863 11.4956C5.40863 14.9913 8.39209 17.8346 12.0584 17.8346ZM12.0584 6.98475C14.6673 6.98475 16.7901 9.00843 16.7901 11.4956C16.7901 13.9829 14.6673 16.0061 12.0584 16.0061C9.44939 16.0061 7.32663 13.9824 7.32663 11.4956C7.32663 9.00889 9.44939 6.98475 12.0584 6.98475Z" fill="#CBFC01"/>
</svg>
