<svg width="26" height="26" viewBox="0 0 26 26" fill="none" xmlns="http://www.w3.org/2000/svg">
<g clip-path="url(#clip0_567_707)">
<path d="M10.1249 5.79908C10.3524 5.65933 10.5885 5.53258 10.8334 5.41667C10.8334 4.84203 11.0616 4.29093 11.468 3.8846C11.8743 3.47827 12.4254 3.25 13 3.25C13.5747 3.25 14.1258 3.47827 14.5321 3.8846C14.9384 4.29093 15.1667 4.84203 15.1667 5.41667C16.4108 6.00495 17.4714 6.92069 18.2348 8.06574C18.9981 9.2108 19.4355 10.542 19.5 11.9167V15.1667M18.4167 18.4167H4.33337C4.92372 18.0824 5.42733 17.6141 5.80366 17.0496C6.17999 16.4851 6.41851 15.8402 6.50004 15.1667V11.9167C6.5677 10.474 7.04618 9.08064 7.87912 7.90075" stroke="white" stroke-width="2" stroke-linecap="round" stroke-linejoin="round"/>
<path d="M9.75 18.4165V19.4998C9.75 20.3618 10.0924 21.1884 10.7019 21.7979C11.3114 22.4074 12.138 22.7498 13 22.7498C13.862 22.7498 14.6886 22.4074 15.2981 21.7979C15.9076 21.1884 16.25 20.3618 16.25 19.4998V18.4165" stroke="white" stroke-width="2" stroke-linecap="round" stroke-linejoin="round"/>
<path d="M3.25 3.25L22.75 22.75" stroke="white" stroke-width="2" stroke-linecap="round" stroke-linejoin="round"/>
</g>
<defs>
<clipPath id="clip0_567_707">
<rect width="26" height="26" fill="white"/>
</clipPath>
</defs>
</svg>
