<svg width="35" height="35" viewBox="0 0 35 35" fill="none" xmlns="http://www.w3.org/2000/svg">
<g clip-path="url(#clip0_475_1588)">
<path d="M28.1313 25.2146L26.25 23.3333V16.0417C26.25 11.5646 23.8583 7.81667 19.6875 6.825V5.83334C19.6875 4.62292 18.7104 3.64584 17.5 3.64584C16.2896 3.64584 15.3125 4.62292 15.3125 5.83334V6.825C11.1271 7.81667 8.75001 11.55 8.75001 16.0417V23.3333L6.86876 25.2146C5.95001 26.1333 6.59168 27.7083 7.8896 27.7083H27.0958C28.4083 27.7083 29.05 26.1333 28.1313 25.2146ZM23.3333 24.7917H11.6667V16.0417C11.6667 12.425 13.8688 9.47917 17.5 9.47917C21.1313 9.47917 23.3333 12.425 23.3333 16.0417V24.7917ZM17.5 32.0833C19.1042 32.0833 20.4167 30.7708 20.4167 29.1667H14.5833C14.5833 30.7708 15.8813 32.0833 17.5 32.0833Z" fill="#E4E5E7"/>
</g>
<defs>
<clipPath id="clip0_475_1588">
<rect width="35" height="35" fill="white"/>
</clipPath>
</defs>
</svg>
