<svg width="21" height="20" viewBox="0 0 21 20" fill="none" xmlns="http://www.w3.org/2000/svg">
<mask id="mask0_505_723" style="mask-type:luminance" maskUnits="userSpaceOnUse" x="0" y="0" width="21" height="20">
<path d="M20.448 10C20.448 4.47715 15.9676 0 10.4407 0C4.91374 0 0.433289 4.47715 0.433289 10C0.433289 15.5228 4.91374 20 10.4407 20C15.9676 20 20.448 15.5228 20.448 10Z" fill="white"/>
<path d="M15.4443 10C15.4443 7.23858 13.2041 5 10.4406 5C7.67718 5 5.43695 7.23858 5.43695 10C5.43695 12.7614 7.67718 15 10.4406 15C13.2041 15 15.4443 12.7614 15.4443 10Z" fill="black"/>
</mask>
<g mask="url(#mask0_505_723)">
<path d="M20.448 0H0.433289V20H20.448V0Z" fill="#80848E"/>
</g>
</svg>
