<svg width="41" height="40" viewBox="0 0 41 40" fill="none" xmlns="http://www.w3.org/2000/svg">
<path d="M25 15C21.3333 15 18.3333 18 18.3333 21.6667C18.3333 25.3333 21.3333 28.3333 25 28.3333C28.6667 28.3333 31.6667 25.3333 31.6667 21.6667C31.6667 18 28.6667 15 25 15ZM25 25C23.1667 25 21.6667 23.5 21.6667 21.6667C21.6667 19.8333 23.1667 18.3333 25 18.3333C26.8333 18.3333 28.3333 19.8333 28.3333 21.6667C28.3333 23.5 26.8333 25 25 25ZM21.6667 0C11.5 0 3.33333 8.16667 3.33333 18.3333C3.33333 19.6667 3.5 21 3.83333 22.3333L4 22.8333L17.3333 36.1667L17.8333 36.3333C19.1667 36.6667 20.5 36.8333 21.8333 36.8333C32 36.8333 40.1667 28.6667 40.1667 18.5C40.1667 8.33333 31.8333 0 21.6667 0ZM21.6667 33.3333C20.8333 33.3333 19.8333 33.1667 19 33L7 21C6.83333 20.1667 6.66667 19.1667 6.66667 18.3333C6.66667 10 13.3333 3.33333 21.6667 3.33333C30 3.33333 36.6667 10 36.6667 18.3333C36.6667 26.6667 30 33.3333 21.6667 33.3333ZM6.66667 35.6667C5.83333 35 5 34.1667 4.33333 33.3333L7.5 30.1667L5.16667 27.8333L0 33L0.666667 34.1667C2 36.1667 3.83333 38 5.83333 39.3333L7 40L12.1667 34.8333L9.83333 32.5L6.66667 35.6667Z" fill="#E4E5E7"/>
</svg>
