<svg width="40" height="40" viewBox="0 0 40 40" fill="none" xmlns="http://www.w3.org/2000/svg">
<g clip-path="url(#clip0_504_2750)">
<path  d="M17.2083 10.945C17.9183 8.01833 22.0817 8.01833 22.7917 10.945C22.8982 11.3847 23.107 11.793 23.4012 12.1367C23.6953 12.4804 24.0665 12.7498 24.4844 12.9229C24.9024 13.0961 25.3553 13.1681 25.8063 13.1331C26.2573 13.0981 26.6937 12.9572 27.08 12.7217C29.6517 11.155 32.5967 14.0983 31.03 16.6717C30.7948 17.0578 30.6541 17.4939 30.6192 17.9446C30.5843 18.3953 30.6563 18.8479 30.8292 19.2656C31.0022 19.6833 31.2712 20.0543 31.6145 20.3484C31.9579 20.6425 32.3657 20.8515 32.805 20.9583C35.7317 21.6683 35.7317 25.8317 32.805 26.5417C32.3653 26.6482 31.957 26.857 31.6133 27.1512C31.2696 27.4453 31.0002 27.8165 30.8271 28.2344C30.6539 28.6524 30.5819 29.1053 30.6169 29.5563C30.6519 30.0073 30.7928 30.4437 31.0283 30.83C32.595 33.4017 29.6517 36.3467 27.0783 34.78C26.6922 34.5448 26.2561 34.4041 25.8054 34.3692C25.3547 34.3343 24.9021 34.4063 24.4844 34.5792C24.0667 34.7522 23.6957 35.0212 23.4016 35.3645C23.1075 35.7079 22.8985 36.1157 22.7917 36.555C22.0817 39.4817 17.9183 39.4817 17.2083 36.555C17.1018 36.1153 16.893 35.707 16.5988 35.3633C16.3047 35.0196 15.9335 34.7502 15.5156 34.5771C15.0976 34.4039 14.6447 34.3319 14.1937 34.3669C13.7427 34.4019 13.3063 34.5428 12.92 34.7783C10.3483 36.345 7.40333 33.4017 8.97 30.8283C9.20517 30.4422 9.34592 30.0061 9.38081 29.5554C9.41569 29.1047 9.34374 28.6521 9.17079 28.2344C8.99783 27.8167 8.72877 27.4457 8.38545 27.1516C8.04214 26.8575 7.63427 26.6485 7.195 26.5417C4.26833 25.8317 4.26833 21.6683 7.195 20.9583C7.63467 20.8518 8.04296 20.643 8.38667 20.3488C8.73037 20.0547 8.99976 19.6835 9.17291 19.2656C9.34606 18.8476 9.41808 18.3947 9.38311 17.9437C9.34814 17.4927 9.20717 17.0563 8.97167 16.67C7.405 14.0983 10.3483 11.1533 12.9217 12.72C14.5883 13.7333 16.7483 12.8367 17.2083 10.945Z" stroke="#E4E5E7" stroke-width="3" stroke-linecap="round" stroke-linejoin="round"/>
<path  d="M15 23.75C15 25.0761 15.5268 26.3479 16.4645 27.2855C17.4021 28.2232 18.6739 28.75 20 28.75C21.3261 28.75 22.5979 28.2232 23.5355 27.2855C24.4732 26.3479 25 25.0761 25 23.75C25 22.4239 24.4732 21.1521 23.5355 20.2145C22.5979 19.2768 21.3261 18.75 20 18.75C18.6739 18.75 17.4021 19.2768 16.4645 20.2145C15.5268 21.1521 15 22.4239 15 23.75Z" stroke="#E4E5E7" stroke-width="3" stroke-linecap="round" stroke-linejoin="round"/>
</g>
<defs>
<clipPath id="clip0_504_2750">
<rect width="40" height="40" fill="white"/>
</clipPath>
</defs>
</svg>
