<svg width="155" height="75" viewBox="0 0 155 75" fill="none" xmlns="http://www.w3.org/2000/svg">
<g filter="url(#filter0_d_567_692)">
<g clip-path="url(#clip0_567_692)">
<rect x="63" y="16" width="40" height="40" rx="15" fill="#6C7FA7" fill-opacity="0.25" shape-rendering="crispEdges"/>
<g clip-path="url(#clip1_567_692)">
<path d="M80.1249 28.7991C80.3524 28.6593 80.5885 28.5326 80.8334 28.4167C80.8334 27.842 81.0616 27.2909 81.468 26.8846C81.8743 26.4783 82.4254 26.25 83 26.25C83.5747 26.25 84.1258 26.4783 84.5321 26.8846C84.9384 27.2909 85.1667 27.842 85.1667 28.4167C86.4108 29.0049 87.4714 29.9207 88.2348 31.0657C88.9981 32.2108 89.4355 33.542 89.5 34.9167V38.1667M88.4167 41.4167H74.3334C74.9237 41.0824 75.4273 40.6141 75.8037 40.0496C76.18 39.4851 76.4185 38.8402 76.5 38.1667V34.9167C76.5677 33.474 77.0462 32.0806 77.8791 30.9008" stroke="white" stroke-width="2" stroke-linecap="round" stroke-linejoin="round"/>
<path d="M79.75 41.4165V42.4998C79.75 43.3618 80.0924 44.1884 80.7019 44.7979C81.3114 45.4074 82.138 45.7498 83 45.7498C83.862 45.7498 84.6886 45.4074 85.2981 44.7979C85.9076 44.1884 86.25 43.3618 86.25 42.4998V41.4165" stroke="white" stroke-width="2" stroke-linecap="round" stroke-linejoin="round"/>
<path d="M73.25 26.25L92.75 45.75" stroke="white" stroke-width="2" stroke-linecap="round" stroke-linejoin="round"/>
</g>
</g>
</g>
<defs>
<filter id="filter0_d_567_692" x="0.916561" y="-44.9337" width="184.861" height="184.861" filterUnits="userSpaceOnUse" color-interpolation-filters="sRGB">
<feFlood flood-opacity="0" result="BackgroundImageFix"/>
<feColorMatrix in="SourceAlpha" type="matrix" values="0 0 0 0 0 0 0 0 0 0 0 0 0 0 0 0 0 0 127 0" result="hardAlpha"/>
<feOffset dx="10.3472" dy="11.4969"/>
<feGaussianBlur stdDeviation="36.2153"/>
<feComposite in2="hardAlpha" operator="out"/>
<feColorMatrix type="matrix" values="0 0 0 0 0 0 0 0 0 0 0 0 0 0 0 0 0 0 0.24 0"/>
<feBlend mode="normal" in2="BackgroundImageFix" result="effect1_dropShadow_567_692"/>
<feBlend mode="normal" in="SourceGraphic" in2="effect1_dropShadow_567_692" result="shape"/>
</filter>
<clipPath id="clip0_567_692">
<rect x="63" y="16" width="40" height="40" rx="15" fill="white"/>
</clipPath>
<clipPath id="clip1_567_692">
<rect width="26" height="26" fill="white" transform="translate(70 23)"/>
</clipPath>
</defs>
</svg>
