<svg width="30" height="30" viewBox="0 0 40 40" fill="none" xmlns="http://www.w3.org/2000/svg">
<g clip-path="url(#clip0_515_521)">
<path d="M20 5C23.893 8.44429 28.9741 10.2376 34.1667 10C34.9226 12.5717 35.154 15.2691 34.8469 17.932C34.5398 20.5948 33.7005 23.1688 32.379 25.5009C31.0575 27.833 29.2806 29.8756 27.1541 31.5075C25.0275 33.1393 22.5946 34.327 20 35C17.4053 34.327 14.9725 33.1393 12.8459 31.5075C10.7193 29.8756 8.9425 27.833 7.62098 25.5009C6.29946 23.1688 5.46021 20.5948 5.15311 17.932C4.84602 15.2691 5.07733 12.5717 5.83332 10C11.0259 10.2376 16.1069 8.44429 20 5Z" stroke="#E4E5E7" stroke-width="3" stroke-linecap="round" stroke-linejoin="round"/>
<path d="M18.3333 18.3334C18.3333 18.7754 18.5089 19.1994 18.8215 19.5119C19.1341 19.8245 19.558 20.0001 20 20.0001C20.442 20.0001 20.866 19.8245 21.1785 19.5119C21.4911 19.1994 21.6667 18.7754 21.6667 18.3334C21.6667 17.8914 21.4911 17.4675 21.1785 17.1549C20.866 16.8423 20.442 16.6667 20 16.6667C19.558 16.6667 19.1341 16.8423 18.8215 17.1549C18.5089 17.4675 18.3333 17.8914 18.3333 18.3334Z" stroke="#E4E5E7" stroke-width="3" stroke-linecap="round" stroke-linejoin="round"/>
<path d="M20 20V24.1667" stroke="#E4E5E7" stroke-width="3" stroke-linecap="round" stroke-linejoin="round"/>
</g>
<defs>
<clipPath id="clip0_515_521">
<rect width="40" height="40" fill="white"/>
</clipPath>
</defs>
</svg>
